<?xml version="1.0" encoding="UTF-8" standalone="no"?>
<!DOCTYPE svg PUBLIC "-//W3C//DTD SVG 1.1//EN"
 "http://www.w3.org/Graphics/SVG/1.1/DTD/svg11.dtd">
<!-- Generated by graphviz version 2.43.0 (0)
 -->
<!-- Title: G Pages: 1 -->
<svg width="3428pt" height="532pt"
 viewBox="0.00 0.00 3428.20 532.22" xmlns="http://www.w3.org/2000/svg" xmlns:xlink="http://www.w3.org/1999/xlink">
<g id="graph0" class="graph" transform="scale(1 1) rotate(0) translate(21.6 510.62)">
<title>G</title>
<polygon fill="#111111" stroke="transparent" points="-21.6,21.6 -21.6,-510.62 3406.6,-510.62 3406.6,21.6 -21.6,21.6"/>
<!-- LICENSE -->
<g id="node1" class="node">
<title>LICENSE</title>
<path fill="none" stroke="#cfffac" d="M71.67,-119.02C71.67,-119.02 24.33,-119.02 24.33,-119.02 21.17,-119.02 18,-115.85 18,-112.69 18,-112.69 18,-106.35 18,-106.35 18,-103.19 21.17,-100.02 24.33,-100.02 24.33,-100.02 71.67,-100.02 71.67,-100.02 74.83,-100.02 78,-103.19 78,-106.35 78,-106.35 78,-112.69 78,-112.69 78,-115.85 74.83,-119.02 71.67,-119.02"/>
<text text-anchor="middle" x="48" y="-107.02" font-family="Arial" font-size="10.00" fill="#cfffac">LICENSE</text>
</g>
<!-- README.md -->
<g id="node2" class="node">
<title>README.md</title>
<path fill="none" stroke="#cfffac" d="M80.17,-156.02C80.17,-156.02 15.83,-156.02 15.83,-156.02 12.67,-156.02 9.5,-152.85 9.5,-149.69 9.5,-149.69 9.5,-143.35 9.5,-143.35 9.5,-140.19 12.67,-137.02 15.83,-137.02 15.83,-137.02 80.17,-137.02 80.17,-137.02 83.33,-137.02 86.5,-140.19 86.5,-143.35 86.5,-143.35 86.5,-149.69 86.5,-149.69 86.5,-152.85 83.33,-156.02 80.17,-156.02"/>
<text text-anchor="middle" x="48" y="-144.02" font-family="Arial" font-size="10.00" fill="#cfffac">README.md</text>
</g>
<!-- angular.json -->
<g id="node3" class="node">
<title>angular.json</title>
<path fill="none" stroke="#cfffac" d="M76.17,-193.02C76.17,-193.02 19.83,-193.02 19.83,-193.02 16.67,-193.02 13.5,-189.85 13.5,-186.69 13.5,-186.69 13.5,-180.35 13.5,-180.35 13.5,-177.19 16.67,-174.02 19.83,-174.02 19.83,-174.02 76.17,-174.02 76.17,-174.02 79.33,-174.02 82.5,-177.19 82.5,-180.35 82.5,-180.35 82.5,-186.69 82.5,-186.69 82.5,-189.85 79.33,-193.02 76.17,-193.02"/>
<text text-anchor="middle" x="48" y="-181.02" font-family="Arial" font-size="10.00" fill="#cfffac">angular.json</text>
</g>
<!-- deps.png -->
<g id="node4" class="node">
<title>deps.png</title>
<path fill="none" stroke="#cfffac" d="M69.67,-230.02C69.67,-230.02 26.33,-230.02 26.33,-230.02 23.17,-230.02 20,-226.85 20,-223.69 20,-223.69 20,-217.35 20,-217.35 20,-214.19 23.17,-211.02 26.33,-211.02 26.33,-211.02 69.67,-211.02 69.67,-211.02 72.83,-211.02 76,-214.19 76,-217.35 76,-217.35 76,-223.69 76,-223.69 76,-226.85 72.83,-230.02 69.67,-230.02"/>
<text text-anchor="middle" x="48" y="-218.02" font-family="Arial" font-size="10.00" fill="#cfffac">deps.png</text>
</g>
<!-- deps.svg -->
<g id="node5" class="node">
<title>deps.svg</title>
<path fill="none" stroke="#cfffac" d="M69.67,-267.02C69.67,-267.02 26.33,-267.02 26.33,-267.02 23.17,-267.02 20,-263.85 20,-260.69 20,-260.69 20,-254.35 20,-254.35 20,-251.19 23.17,-248.02 26.33,-248.02 26.33,-248.02 69.67,-248.02 69.67,-248.02 72.83,-248.02 76,-251.19 76,-254.35 76,-254.35 76,-260.69 76,-260.69 76,-263.85 72.83,-267.02 69.67,-267.02"/>
<text text-anchor="middle" x="48" y="-255.02" font-family="Arial" font-size="10.00" fill="#cfffac">deps.svg</text>
</g>
<!-- index.ts -->
<g id="node6" class="node">
<title>index.ts</title>
<path fill="none" stroke="#c6c5fe" d="M68.67,-304.02C68.67,-304.02 27.33,-304.02 27.33,-304.02 24.17,-304.02 21,-300.85 21,-297.69 21,-297.69 21,-291.35 21,-291.35 21,-288.19 24.17,-285.02 27.33,-285.02 27.33,-285.02 68.67,-285.02 68.67,-285.02 71.83,-285.02 75,-288.19 75,-291.35 75,-291.35 75,-297.69 75,-297.69 75,-300.85 71.83,-304.02 68.67,-304.02"/>
<text text-anchor="middle" x="48" y="-292.02" font-family="Arial" font-size="10.00" fill="#c6c5fe">index.ts</text>
</g>
<!-- src/app/common/_index.ts -->
<g id="node7" class="node">
<title>src/app/common/_index.ts</title>
<path fill="none" stroke="#c6c5fe" d="M2020.17,-286.02C2020.17,-286.02 1900.83,-286.02 1900.83,-286.02 1897.67,-286.02 1894.5,-282.85 1894.5,-279.69 1894.5,-279.69 1894.5,-273.35 1894.5,-273.35 1894.5,-270.19 1897.67,-267.02 1900.83,-267.02 1900.83,-267.02 2020.17,-267.02 2020.17,-267.02 2023.33,-267.02 2026.5,-270.19 2026.5,-273.35 2026.5,-273.35 2026.5,-279.69 2026.5,-279.69 2026.5,-282.85 2023.33,-286.02 2020.17,-286.02"/>
<text text-anchor="middle" x="1960.5" y="-274.02" font-family="Arial" font-size="10.00" fill="#c6c5fe">src/app/common/_index.ts</text>
</g>
<!-- index.ts&#45;&gt;src/app/common/_index.ts -->
<g id="edge1" class="edge">
<title>index.ts&#45;&gt;src/app/common/_index.ts</title>
<path fill="none" stroke="#757575" d="M75.29,-294.52C135.61,-294.52 288.58,-294.52 416.5,-294.52 416.5,-294.52 416.5,-294.52 1206.5,-294.52 1454.54,-294.52 1748.41,-284.64 1884.02,-279.52"/>
<polygon fill="#757575" stroke="#757575" points="1884.44,-283 1894.3,-279.13 1884.17,-276.01 1884.44,-283"/>
</g>
<!-- src/app/components/_index.ts -->
<g id="node8" class="node">
<title>src/app/components/_index.ts</title>
<path fill="none" stroke="#c6c5fe" d="M273.67,-190.02C273.67,-190.02 138.33,-190.02 138.33,-190.02 135.17,-190.02 132,-186.85 132,-183.69 132,-183.69 132,-177.35 132,-177.35 132,-174.19 135.17,-171.02 138.33,-171.02 138.33,-171.02 273.67,-171.02 273.67,-171.02 276.83,-171.02 280,-174.19 280,-177.35 280,-177.35 280,-183.69 280,-183.69 280,-186.85 276.83,-190.02 273.67,-190.02"/>
<text text-anchor="middle" x="206" y="-178.02" font-family="Arial" font-size="10.00" fill="#c6c5fe">src/app/components/_index.ts</text>
</g>
<!-- index.ts&#45;&gt;src/app/components/_index.ts -->
<g id="edge2" class="edge">
<title>index.ts&#45;&gt;src/app/components/_index.ts</title>
<path fill="none" stroke="#757575" d="M75.14,-286.39C82.16,-283.71 89.57,-280.41 96,-276.52 132.96,-254.17 169.25,-218.76 189.23,-197.76"/>
<polygon fill="#757575" stroke="#757575" points="192,-199.92 196.28,-190.23 186.89,-195.14 192,-199.92"/>
</g>
<!-- src/app/models/_index.ts -->
<g id="node9" class="node">
<title>src/app/models/_index.ts</title>
<path fill="none" stroke="#c6c5fe" d="M2723.67,-153.02C2723.67,-153.02 2610.33,-153.02 2610.33,-153.02 2607.17,-153.02 2604,-149.85 2604,-146.69 2604,-146.69 2604,-140.35 2604,-140.35 2604,-137.19 2607.17,-134.02 2610.33,-134.02 2610.33,-134.02 2723.67,-134.02 2723.67,-134.02 2726.83,-134.02 2730,-137.19 2730,-140.35 2730,-140.35 2730,-146.69 2730,-146.69 2730,-149.85 2726.83,-153.02 2723.67,-153.02"/>
<text text-anchor="middle" x="2667" y="-141.02" font-family="Arial" font-size="10.00" fill="#c6c5fe">src/app/models/_index.ts</text>
</g>
<!-- index.ts&#45;&gt;src/app/models/_index.ts -->
<g id="edge3" class="edge">
<title>index.ts&#45;&gt;src/app/models/_index.ts</title>
<path fill="none" stroke="#757575" d="M75.07,-301.51C134.92,-316.94 286.99,-352.52 416.5,-352.52 416.5,-352.52 416.5,-352.52 2183.5,-352.52 2355.22,-352.52 2423.84,-407.83 2568,-314.52 2623.45,-278.63 2651,-199.64 2661.19,-162.95"/>
<polygon fill="#757575" stroke="#757575" points="2664.65,-163.58 2663.81,-153.02 2657.88,-161.8 2664.65,-163.58"/>
</g>
<!-- src/app/common/constants.ts -->
<g id="node12" class="node">
<title>src/app/common/constants.ts</title>
<path fill="none" stroke="#cfffac" d="M2249.17,-286.02C2249.17,-286.02 2115.83,-286.02 2115.83,-286.02 2112.67,-286.02 2109.5,-282.85 2109.5,-279.69 2109.5,-279.69 2109.5,-273.35 2109.5,-273.35 2109.5,-270.19 2112.67,-267.02 2115.83,-267.02 2115.83,-267.02 2249.17,-267.02 2249.17,-267.02 2252.33,-267.02 2255.5,-270.19 2255.5,-273.35 2255.5,-273.35 2255.5,-279.69 2255.5,-279.69 2255.5,-282.85 2252.33,-286.02 2249.17,-286.02"/>
<text text-anchor="middle" x="2182.5" y="-274.02" font-family="Arial" font-size="10.00" fill="#cfffac">src/app/common/constants.ts</text>
</g>
<!-- src/app/common/_index.ts&#45;&gt;src/app/common/constants.ts -->
<g id="edge4" class="edge">
<title>src/app/common/_index.ts&#45;&gt;src/app/common/constants.ts</title>
<path fill="none" stroke="#757575" d="M2026.61,-276.52C2049.34,-276.52 2075.16,-276.52 2099.1,-276.52"/>
<polygon fill="#757575" stroke="#757575" points="2099.24,-280.02 2109.24,-276.52 2099.24,-273.02 2099.24,-280.02"/>
</g>
<!-- src/app/components/blockable&#45;ui/_index.ts -->
<g id="node13" class="node">
<title>src/app/components/blockable&#45;ui/_index.ts</title>
<path fill="none" stroke="#c6c5fe" d="M512.67,-171.02C512.67,-171.02 322.33,-171.02 322.33,-171.02 319.17,-171.02 316,-167.85 316,-164.69 316,-164.69 316,-158.35 316,-158.35 316,-155.19 319.17,-152.02 322.33,-152.02 322.33,-152.02 512.67,-152.02 512.67,-152.02 515.83,-152.02 519,-155.19 519,-158.35 519,-158.35 519,-164.69 519,-164.69 519,-167.85 515.83,-171.02 512.67,-171.02"/>
<text text-anchor="middle" x="417.5" y="-159.02" font-family="Arial" font-size="10.00" fill="#c6c5fe">src/app/components/blockable&#45;ui/_index.ts</text>
</g>
<!-- src/app/components/_index.ts&#45;&gt;src/app/components/blockable&#45;ui/_index.ts -->
<g id="edge5" class="edge">
<title>src/app/components/_index.ts&#45;&gt;src/app/components/blockable&#45;ui/_index.ts</title>
<path fill="none" stroke="#757575" d="M280.27,-173.87C288.5,-173.13 297.01,-172.36 305.58,-171.58"/>
<polygon fill="#757575" stroke="#757575" points="306,-175.05 315.65,-170.67 305.37,-168.08 306,-175.05"/>
</g>
<!-- src/app/components/dynamic/_index.ts -->
<g id="node14" class="node">
<title>src/app/components/dynamic/_index.ts</title>
<path fill="none" stroke="#c6c5fe" d="M1543.17,-134.02C1543.17,-134.02 1367.83,-134.02 1367.83,-134.02 1364.67,-134.02 1361.5,-130.85 1361.5,-127.69 1361.5,-127.69 1361.5,-121.35 1361.5,-121.35 1361.5,-118.19 1364.67,-115.02 1367.83,-115.02 1367.83,-115.02 1543.17,-115.02 1543.17,-115.02 1546.33,-115.02 1549.5,-118.19 1549.5,-121.35 1549.5,-121.35 1549.5,-127.69 1549.5,-127.69 1549.5,-130.85 1546.33,-134.02 1543.17,-134.02"/>
<text text-anchor="middle" x="1455.5" y="-122.02" font-family="Arial" font-size="10.00" fill="#c6c5fe">src/app/components/dynamic/_index.ts</text>
</g>
<!-- src/app/components/_index.ts&#45;&gt;src/app/components/dynamic/_index.ts -->
<g id="edge6" class="edge">
<title>src/app/components/_index.ts&#45;&gt;src/app/components/dynamic/_index.ts</title>
<path fill="none" stroke="#757575" d="M217.52,-170.96C235.96,-154.79 275.98,-122.25 316,-106.52 473.56,-44.56 523.19,-48.52 692.5,-48.52 692.5,-48.52 692.5,-48.52 960.5,-48.52 1126.81,-48.52 1320.99,-91.12 1408.09,-112.53"/>
<polygon fill="#757575" stroke="#757575" points="1407.38,-115.96 1417.92,-114.97 1409.06,-109.17 1407.38,-115.96"/>
</g>
<!-- src/app/components/nav&#45;logo/_index.ts -->
<g id="node15" class="node">
<title>src/app/components/nav&#45;logo/_index.ts</title>
<path fill="none" stroke="#c6c5fe" d="M1543.17,-266.02C1543.17,-266.02 1367.83,-266.02 1367.83,-266.02 1364.67,-266.02 1361.5,-262.85 1361.5,-259.69 1361.5,-259.69 1361.5,-253.35 1361.5,-253.35 1361.5,-250.19 1364.67,-247.02 1367.83,-247.02 1367.83,-247.02 1543.17,-247.02 1543.17,-247.02 1546.33,-247.02 1549.5,-250.19 1549.5,-253.35 1549.5,-253.35 1549.5,-259.69 1549.5,-259.69 1549.5,-262.85 1546.33,-266.02 1543.17,-266.02"/>
<text text-anchor="middle" x="1455.5" y="-254.02" font-family="Arial" font-size="10.00" fill="#c6c5fe">src/app/components/nav&#45;logo/_index.ts</text>
</g>
<!-- src/app/components/_index.ts&#45;&gt;src/app/components/nav&#45;logo/_index.ts -->
<g id="edge7" class="edge">
<title>src/app/components/_index.ts&#45;&gt;src/app/components/nav&#45;logo/_index.ts</title>
<path fill="none" stroke="#757575" d="M255.71,-190.06C342.92,-206.29 531.68,-237.52 692.5,-237.52 692.5,-237.52 692.5,-237.52 960.5,-237.52 1095.55,-237.52 1251.2,-244.7 1351.12,-250.23"/>
<polygon fill="#757575" stroke="#757575" points="1351.04,-253.73 1361.22,-250.79 1351.43,-246.74 1351.04,-253.73"/>
</g>
<!-- src/app/components/page&#45;layout/_index.ts -->
<g id="node16" class="node">
<title>src/app/components/page&#45;layout/_index.ts</title>
<path fill="none" stroke="#c6c5fe" d="M511.67,-134.02C511.67,-134.02 323.33,-134.02 323.33,-134.02 320.17,-134.02 317,-130.85 317,-127.69 317,-127.69 317,-121.35 317,-121.35 317,-118.19 320.17,-115.02 323.33,-115.02 323.33,-115.02 511.67,-115.02 511.67,-115.02 514.83,-115.02 518,-118.19 518,-121.35 518,-121.35 518,-127.69 518,-127.69 518,-130.85 514.83,-134.02 511.67,-134.02"/>
<text text-anchor="middle" x="417.5" y="-122.02" font-family="Arial" font-size="10.00" fill="#c6c5fe">src/app/components/page&#45;layout/_index.ts</text>
</g>
<!-- src/app/components/_index.ts&#45;&gt;src/app/components/page&#45;layout/_index.ts -->
<g id="edge8" class="edge">
<title>src/app/components/_index.ts&#45;&gt;src/app/components/page&#45;layout/_index.ts</title>
<path fill="none" stroke="#757575" d="M231.81,-170.98C253.7,-162.84 286.62,-151.24 316,-143.52 326.45,-140.77 337.62,-138.26 348.56,-136.02"/>
<polygon fill="#757575" stroke="#757575" points="349.4,-139.42 358.53,-134.04 348.04,-132.55 349.4,-139.42"/>
</g>
<!-- src/app/components/top&#45;nav/_index.ts -->
<g id="node17" class="node">
<title>src/app/components/top&#45;nav/_index.ts</title>
<path fill="none" stroke="#c6c5fe" d="M1044.67,-209.02C1044.67,-209.02 874.33,-209.02 874.33,-209.02 871.17,-209.02 868,-205.85 868,-202.69 868,-202.69 868,-196.35 868,-196.35 868,-193.19 871.17,-190.02 874.33,-190.02 874.33,-190.02 1044.67,-190.02 1044.67,-190.02 1047.83,-190.02 1051,-193.19 1051,-196.35 1051,-196.35 1051,-202.69 1051,-202.69 1051,-205.85 1047.83,-209.02 1044.67,-209.02"/>
<text text-anchor="middle" x="959.5" y="-197.02" font-family="Arial" font-size="10.00" fill="#c6c5fe">src/app/components/top&#45;nav/_index.ts</text>
</g>
<!-- src/app/components/_index.ts&#45;&gt;src/app/components/top&#45;nav/_index.ts -->
<g id="edge9" class="edge">
<title>src/app/components/_index.ts&#45;&gt;src/app/components/top&#45;nav/_index.ts</title>
<path fill="none" stroke="#757575" d="M280.08,-182.37C415.11,-185.78 703.88,-193.08 857.51,-196.97"/>
<polygon fill="#757575" stroke="#757575" points="857.8,-200.47 867.88,-197.23 857.97,-193.48 857.8,-200.47"/>
</g>
<!-- src/app/models/data&#45;source.ts -->
<g id="node30" class="node">
<title>src/app/models/data&#45;source.ts</title>
<path fill="none" stroke="#c6c5fe" d="M2914.67,-172.02C2914.67,-172.02 2778.33,-172.02 2778.33,-172.02 2775.17,-172.02 2772,-168.85 2772,-165.69 2772,-165.69 2772,-159.35 2772,-159.35 2772,-156.19 2775.17,-153.02 2778.33,-153.02 2778.33,-153.02 2914.67,-153.02 2914.67,-153.02 2917.83,-153.02 2921,-156.19 2921,-159.35 2921,-159.35 2921,-165.69 2921,-165.69 2921,-168.85 2917.83,-172.02 2914.67,-172.02"/>
<text text-anchor="middle" x="2846.5" y="-160.02" font-family="Arial" font-size="10.00" fill="#c6c5fe">src/app/models/data&#45;source.ts</text>
</g>
<!-- src/app/models/_index.ts&#45;&gt;src/app/models/data&#45;source.ts -->
<g id="edge31" class="edge">
<title>src/app/models/_index.ts&#45;&gt;src/app/models/data&#45;source.ts</title>
<path fill="none" stroke="#757575" d="M2730.08,-150.16C2740.31,-151.26 2751.06,-152.41 2761.71,-153.55"/>
<polygon fill="#757575" stroke="#757575" points="2761.56,-157.05 2771.87,-154.64 2762.3,-150.09 2761.56,-157.05"/>
</g>
<!-- src/app/models/extensions.ts -->
<g id="node31" class="node">
<title>src/app/models/extensions.ts</title>
<path fill="none" stroke="#cfffac" d="M2912.67,-98.02C2912.67,-98.02 2780.33,-98.02 2780.33,-98.02 2777.17,-98.02 2774,-94.85 2774,-91.69 2774,-91.69 2774,-85.35 2774,-85.35 2774,-82.19 2777.17,-79.02 2780.33,-79.02 2780.33,-79.02 2912.67,-79.02 2912.67,-79.02 2915.83,-79.02 2919,-82.19 2919,-85.35 2919,-85.35 2919,-91.69 2919,-91.69 2919,-94.85 2915.83,-98.02 2912.67,-98.02"/>
<text text-anchor="middle" x="2846.5" y="-86.02" font-family="Arial" font-size="10.00" fill="#cfffac">src/app/models/extensions.ts</text>
</g>
<!-- src/app/models/_index.ts&#45;&gt;src/app/models/extensions.ts -->
<g id="edge32" class="edge">
<title>src/app/models/_index.ts&#45;&gt;src/app/models/extensions.ts</title>
<path fill="none" stroke="#757575" d="M2691.5,-134C2711.19,-126.24 2740.15,-115.33 2766,-107.52 2774.2,-105.04 2782.96,-102.68 2791.55,-100.51"/>
<polygon fill="#757575" stroke="#757575" points="2792.64,-103.84 2801.51,-98.06 2790.97,-97.05 2792.64,-103.84"/>
</g>
<!-- src/app/models/general.ts -->
<g id="node32" class="node">
<title>src/app/models/general.ts</title>
<path fill="none" stroke="#c6c5fe" d="M3101.67,-210.02C3101.67,-210.02 2985.33,-210.02 2985.33,-210.02 2982.17,-210.02 2979,-206.85 2979,-203.69 2979,-203.69 2979,-197.35 2979,-197.35 2979,-194.19 2982.17,-191.02 2985.33,-191.02 2985.33,-191.02 3101.67,-191.02 3101.67,-191.02 3104.83,-191.02 3108,-194.19 3108,-197.35 3108,-197.35 3108,-203.69 3108,-203.69 3108,-206.85 3104.83,-210.02 3101.67,-210.02"/>
<text text-anchor="middle" x="3043.5" y="-198.02" font-family="Arial" font-size="10.00" fill="#c6c5fe">src/app/models/general.ts</text>
</g>
<!-- src/app/models/_index.ts&#45;&gt;src/app/models/general.ts -->
<g id="edge33" class="edge">
<title>src/app/models/_index.ts&#45;&gt;src/app/models/general.ts</title>
<path fill="none" stroke="#757575" d="M2687.35,-153.03C2706.73,-162.08 2737.68,-175.21 2766,-181.52 2833.54,-196.57 2912.44,-200.71 2968.64,-201.44"/>
<polygon fill="#757575" stroke="#757575" points="2968.82,-204.94 2978.86,-201.54 2968.89,-197.94 2968.82,-204.94"/>
</g>
<!-- src/app/models/page&#45;elements.ts -->
<g id="node33" class="node">
<title>src/app/models/page&#45;elements.ts</title>
<path fill="none" stroke="#c6c5fe" d="M2920.67,-135.02C2920.67,-135.02 2772.33,-135.02 2772.33,-135.02 2769.17,-135.02 2766,-131.85 2766,-128.69 2766,-128.69 2766,-122.35 2766,-122.35 2766,-119.19 2769.17,-116.02 2772.33,-116.02 2772.33,-116.02 2920.67,-116.02 2920.67,-116.02 2923.83,-116.02 2927,-119.19 2927,-122.35 2927,-122.35 2927,-128.69 2927,-128.69 2927,-131.85 2923.83,-135.02 2920.67,-135.02"/>
<text text-anchor="middle" x="2846.5" y="-123.02" font-family="Arial" font-size="10.00" fill="#c6c5fe">src/app/models/page&#45;elements.ts</text>
</g>
<!-- src/app/models/_index.ts&#45;&gt;src/app/models/page&#45;elements.ts -->
<g id="edge34" class="edge">
<title>src/app/models/_index.ts&#45;&gt;src/app/models/page&#45;elements.ts</title>
<path fill="none" stroke="#757575" d="M2730.08,-137.22C2738.42,-136.38 2747.1,-135.5 2755.79,-134.62"/>
<polygon fill="#757575" stroke="#757575" points="2756.39,-138.07 2765.98,-133.58 2755.68,-131.11 2756.39,-138.07"/>
</g>
<!-- src/app/models/style&#45;types.ts -->
<g id="node34" class="node">
<title>src/app/models/style&#45;types.ts</title>
<path fill="none" stroke="#cfffac" d="M3339.17,-210.02C3339.17,-210.02 3205.83,-210.02 3205.83,-210.02 3202.67,-210.02 3199.5,-206.85 3199.5,-203.69 3199.5,-203.69 3199.5,-197.35 3199.5,-197.35 3199.5,-194.19 3202.67,-191.02 3205.83,-191.02 3205.83,-191.02 3339.17,-191.02 3339.17,-191.02 3342.33,-191.02 3345.5,-194.19 3345.5,-197.35 3345.5,-197.35 3345.5,-203.69 3345.5,-203.69 3345.5,-206.85 3342.33,-210.02 3339.17,-210.02"/>
<text text-anchor="middle" x="3272.5" y="-198.02" font-family="Arial" font-size="10.00" fill="#cfffac">src/app/models/style&#45;types.ts</text>
</g>
<!-- src/app/models/_index.ts&#45;&gt;src/app/models/style&#45;types.ts -->
<g id="edge35" class="edge">
<title>src/app/models/_index.ts&#45;&gt;src/app/models/style&#45;types.ts</title>
<path fill="none" stroke="#757575" d="M2679.43,-153.25C2696.81,-167.41 2731.53,-193.23 2766,-204.52 2923.33,-256.02 3123.25,-229.46 3217.58,-211.91"/>
<polygon fill="#757575" stroke="#757575" points="3218.3,-215.33 3227.47,-210.03 3216.99,-208.46 3218.3,-215.33"/>
</g>
<!-- src/app/models/svg/_index.ts -->
<g id="node35" class="node">
<title>src/app/models/svg/_index.ts</title>
<path fill="none" stroke="#c6c5fe" d="M2912.67,-61.02C2912.67,-61.02 2780.33,-61.02 2780.33,-61.02 2777.17,-61.02 2774,-57.85 2774,-54.69 2774,-54.69 2774,-48.35 2774,-48.35 2774,-45.19 2777.17,-42.02 2780.33,-42.02 2780.33,-42.02 2912.67,-42.02 2912.67,-42.02 2915.83,-42.02 2919,-45.19 2919,-48.35 2919,-48.35 2919,-54.69 2919,-54.69 2919,-57.85 2915.83,-61.02 2912.67,-61.02"/>
<text text-anchor="middle" x="2846.5" y="-49.02" font-family="Arial" font-size="10.00" fill="#c6c5fe">src/app/models/svg/_index.ts</text>
</g>
<!-- src/app/models/_index.ts&#45;&gt;src/app/models/svg/_index.ts -->
<g id="edge36" class="edge">
<title>src/app/models/_index.ts&#45;&gt;src/app/models/svg/_index.ts</title>
<path fill="none" stroke="#757575" d="M2677.64,-133.95C2694.22,-118.05 2729.84,-86.31 2766,-69.52 2770.34,-67.5 2774.93,-65.7 2779.61,-64.1"/>
<polygon fill="#757575" stroke="#757575" points="2780.82,-67.39 2789.33,-61.08 2778.74,-60.71 2780.82,-67.39"/>
</g>
<!-- package&#45;lock.json -->
<g id="node10" class="node">
<title>package&#45;lock.json</title>
<path fill="none" stroke="#cfffac" d="M89.17,-341.02C89.17,-341.02 6.83,-341.02 6.83,-341.02 3.67,-341.02 0.5,-337.85 0.5,-334.69 0.5,-334.69 0.5,-328.35 0.5,-328.35 0.5,-325.19 3.67,-322.02 6.83,-322.02 6.83,-322.02 89.17,-322.02 89.17,-322.02 92.33,-322.02 95.5,-325.19 95.5,-328.35 95.5,-328.35 95.5,-334.69 95.5,-334.69 95.5,-337.85 92.33,-341.02 89.17,-341.02"/>
<text text-anchor="middle" x="48" y="-329.02" font-family="Arial" font-size="10.00" fill="#cfffac">package&#45;lock.json</text>
</g>
<!-- package.json -->
<g id="node11" class="node">
<title>package.json</title>
<path fill="none" stroke="#cfffac" d="M78.67,-378.02C78.67,-378.02 17.33,-378.02 17.33,-378.02 14.17,-378.02 11,-374.85 11,-371.69 11,-371.69 11,-365.35 11,-365.35 11,-362.19 14.17,-359.02 17.33,-359.02 17.33,-359.02 78.67,-359.02 78.67,-359.02 81.83,-359.02 85,-362.19 85,-365.35 85,-365.35 85,-371.69 85,-371.69 85,-374.85 81.83,-378.02 78.67,-378.02"/>
<text text-anchor="middle" x="48" y="-366.02" font-family="Arial" font-size="10.00" fill="#cfffac">package.json</text>
</g>
<!-- src/app/components/blockable&#45;ui/blockable&#45;ui.component.ts -->
<g id="node18" class="node">
<title>src/app/components/blockable&#45;ui/blockable&#45;ui.component.ts</title>
<path fill="none" stroke="#cfffac" d="M825.67,-171.02C825.67,-171.02 561.33,-171.02 561.33,-171.02 558.17,-171.02 555,-167.85 555,-164.69 555,-164.69 555,-158.35 555,-158.35 555,-155.19 558.17,-152.02 561.33,-152.02 561.33,-152.02 825.67,-152.02 825.67,-152.02 828.83,-152.02 832,-155.19 832,-158.35 832,-158.35 832,-164.69 832,-164.69 832,-167.85 828.83,-171.02 825.67,-171.02"/>
<text text-anchor="middle" x="693.5" y="-159.02" font-family="Arial" font-size="10.00" fill="#cfffac">src/app/components/blockable&#45;ui/blockable&#45;ui.component.ts</text>
</g>
<!-- src/app/components/blockable&#45;ui/_index.ts&#45;&gt;src/app/components/blockable&#45;ui/blockable&#45;ui.component.ts -->
<g id="edge10" class="edge">
<title>src/app/components/blockable&#45;ui/_index.ts&#45;&gt;src/app/components/blockable&#45;ui/blockable&#45;ui.component.ts</title>
<path fill="none" stroke="#757575" d="M519.36,-161.52C527.7,-161.52 536.22,-161.52 544.81,-161.52"/>
<polygon fill="#757575" stroke="#757575" points="544.9,-165.02 554.9,-161.52 544.9,-158.02 544.9,-165.02"/>
</g>
<!-- src/app/components/dynamic/dynamic.component.ts -->
<g id="node19" class="node">
<title>src/app/components/dynamic/dynamic.component.ts</title>
<path fill="none" stroke="#c6c5fe" d="M1831.17,-115.02C1831.17,-115.02 1596.83,-115.02 1596.83,-115.02 1593.67,-115.02 1590.5,-111.85 1590.5,-108.69 1590.5,-108.69 1590.5,-102.35 1590.5,-102.35 1590.5,-99.19 1593.67,-96.02 1596.83,-96.02 1596.83,-96.02 1831.17,-96.02 1831.17,-96.02 1834.33,-96.02 1837.5,-99.19 1837.5,-102.35 1837.5,-102.35 1837.5,-108.69 1837.5,-108.69 1837.5,-111.85 1834.33,-115.02 1831.17,-115.02"/>
<text text-anchor="middle" x="1714" y="-103.02" font-family="Arial" font-size="10.00" fill="#c6c5fe">src/app/components/dynamic/dynamic.component.ts</text>
</g>
<!-- src/app/components/dynamic/_index.ts&#45;&gt;src/app/components/dynamic/dynamic.component.ts -->
<g id="edge11" class="edge">
<title>src/app/components/dynamic/_index.ts&#45;&gt;src/app/components/dynamic/dynamic.component.ts</title>
<path fill="none" stroke="#757575" d="M1549.83,-117.61C1559.71,-116.87 1569.89,-116.12 1580.12,-115.36"/>
<polygon fill="#757575" stroke="#757575" points="1580.63,-118.83 1590.34,-114.6 1580.11,-111.85 1580.63,-118.83"/>
</g>
<!-- src/app/components/nav&#45;logo/nav&#45;logo.component.ts -->
<g id="node24" class="node">
<title>src/app/components/nav&#45;logo/nav&#45;logo.component.ts</title>
<path fill="none" stroke="#c6c5fe" d="M2561.67,-305.02C2561.67,-305.02 2327.33,-305.02 2327.33,-305.02 2324.17,-305.02 2321,-301.85 2321,-298.69 2321,-298.69 2321,-292.35 2321,-292.35 2321,-289.19 2324.17,-286.02 2327.33,-286.02 2327.33,-286.02 2561.67,-286.02 2561.67,-286.02 2564.83,-286.02 2568,-289.19 2568,-292.35 2568,-292.35 2568,-298.69 2568,-298.69 2568,-301.85 2564.83,-305.02 2561.67,-305.02"/>
<text text-anchor="middle" x="2444.5" y="-293.02" font-family="Arial" font-size="10.00" fill="#c6c5fe">src/app/components/nav&#45;logo/nav&#45;logo.component.ts</text>
</g>
<!-- src/app/components/nav&#45;logo/_index.ts&#45;&gt;src/app/components/nav&#45;logo/nav&#45;logo.component.ts -->
<g id="edge18" class="edge">
<title>src/app/components/nav&#45;logo/_index.ts&#45;&gt;src/app/components/nav&#45;logo/nav&#45;logo.component.ts</title>
<path fill="none" stroke="#757575" d="M1535.4,-266.03C1619.79,-275.69 1757.62,-289.99 1877,-295.52 2025.3,-302.38 2195.66,-301.15 2310.52,-298.99"/>
<polygon fill="#757575" stroke="#757575" points="2310.83,-302.48 2320.76,-298.79 2310.7,-295.48 2310.83,-302.48"/>
</g>
<!-- src/app/components/page&#45;layout/page&#45;layout.component.ts -->
<g id="node25" class="node">
<title>src/app/components/page&#45;layout/page&#45;layout.component.ts</title>
<path fill="none" stroke="#c6c5fe" d="M824.17,-134.02C824.17,-134.02 562.83,-134.02 562.83,-134.02 559.67,-134.02 556.5,-130.85 556.5,-127.69 556.5,-127.69 556.5,-121.35 556.5,-121.35 556.5,-118.19 559.67,-115.02 562.83,-115.02 562.83,-115.02 824.17,-115.02 824.17,-115.02 827.33,-115.02 830.5,-118.19 830.5,-121.35 830.5,-121.35 830.5,-127.69 830.5,-127.69 830.5,-130.85 827.33,-134.02 824.17,-134.02"/>
<text text-anchor="middle" x="693.5" y="-122.02" font-family="Arial" font-size="10.00" fill="#c6c5fe">src/app/components/page&#45;layout/page&#45;layout.component.ts</text>
</g>
<!-- src/app/components/page&#45;layout/_index.ts&#45;&gt;src/app/components/page&#45;layout/page&#45;layout.component.ts -->
<g id="edge20" class="edge">
<title>src/app/components/page&#45;layout/_index.ts&#45;&gt;src/app/components/page&#45;layout/page&#45;layout.component.ts</title>
<path fill="none" stroke="#757575" d="M518.2,-124.52C527.3,-124.52 536.64,-124.52 546.04,-124.52"/>
<polygon fill="#757575" stroke="#757575" points="546.25,-128.02 556.25,-124.52 546.25,-121.02 546.25,-128.02"/>
</g>
<!-- src/app/components/top&#45;nav/top&#45;nav.component.ts -->
<g id="node27" class="node">
<title>src/app/components/top&#45;nav/top&#45;nav.component.ts</title>
<path fill="none" stroke="#c6c5fe" d="M1317.67,-209.02C1317.67,-209.02 1093.33,-209.02 1093.33,-209.02 1090.17,-209.02 1087,-205.85 1087,-202.69 1087,-202.69 1087,-196.35 1087,-196.35 1087,-193.19 1090.17,-190.02 1093.33,-190.02 1093.33,-190.02 1317.67,-190.02 1317.67,-190.02 1320.83,-190.02 1324,-193.19 1324,-196.35 1324,-196.35 1324,-202.69 1324,-202.69 1324,-205.85 1320.83,-209.02 1317.67,-209.02"/>
<text text-anchor="middle" x="1205.5" y="-197.02" font-family="Arial" font-size="10.00" fill="#c6c5fe">src/app/components/top&#45;nav/top&#45;nav.component.ts</text>
</g>
<!-- src/app/components/top&#45;nav/_index.ts&#45;&gt;src/app/components/top&#45;nav/top&#45;nav.component.ts -->
<g id="edge25" class="edge">
<title>src/app/components/top&#45;nav/_index.ts&#45;&gt;src/app/components/top&#45;nav/top&#45;nav.component.ts</title>
<path fill="none" stroke="#757575" d="M1051.01,-199.52C1059.39,-199.52 1067.99,-199.52 1076.63,-199.52"/>
<polygon fill="#757575" stroke="#757575" points="1076.77,-203.02 1086.77,-199.52 1076.77,-196.02 1076.77,-203.02"/>
</g>
<!-- src/app/components/dynamic/dynamic.component.ts&#45;&gt;src/app/models/_index.ts -->
<g id="edge12" class="edge">
<title>src/app/components/dynamic/dynamic.component.ts&#45;&gt;src/app/models/_index.ts</title>
<path fill="none" stroke="#757575" d="M1791.13,-96.02C1818.21,-92.91 1848.93,-89.71 1877,-87.52 2030.15,-75.57 2422.66,-17.77 2568,-67.52 2601.89,-79.12 2633.12,-107.74 2650.84,-126.36"/>
<polygon fill="#757575" stroke="#757575" points="2648.43,-128.91 2657.78,-133.88 2653.57,-124.16 2648.43,-128.91"/>
</g>
<!-- src/app/type&#45;guards/_index.ts -->
<g id="node20" class="node">
<title>src/app/type&#45;guards/_index.ts</title>
<path fill="none" stroke="#c6c5fe" d="M2027.17,-115.02C2027.17,-115.02 1893.83,-115.02 1893.83,-115.02 1890.67,-115.02 1887.5,-111.85 1887.5,-108.69 1887.5,-108.69 1887.5,-102.35 1887.5,-102.35 1887.5,-99.19 1890.67,-96.02 1893.83,-96.02 1893.83,-96.02 2027.17,-96.02 2027.17,-96.02 2030.33,-96.02 2033.5,-99.19 2033.5,-102.35 2033.5,-102.35 2033.5,-108.69 2033.5,-108.69 2033.5,-111.85 2030.33,-115.02 2027.17,-115.02"/>
<text text-anchor="middle" x="1960.5" y="-103.02" font-family="Arial" font-size="10.00" fill="#c6c5fe">src/app/type&#45;guards/_index.ts</text>
</g>
<!-- src/app/components/dynamic/dynamic.component.ts&#45;&gt;src/app/type&#45;guards/_index.ts -->
<g id="edge13" class="edge">
<title>src/app/components/dynamic/dynamic.component.ts&#45;&gt;src/app/type&#45;guards/_index.ts</title>
<path fill="none" stroke="#757575" d="M1837.61,-105.52C1851.05,-105.52 1864.49,-105.52 1877.27,-105.52"/>
<polygon fill="#757575" stroke="#757575" points="1877.37,-109.02 1887.37,-105.52 1877.37,-102.02 1877.37,-109.02"/>
</g>
<!-- src/app/type&#45;guards/general&#45;type&#45;guards.ts -->
<g id="node39" class="node">
<title>src/app/type&#45;guards/general&#45;type&#45;guards.ts</title>
<path fill="none" stroke="#c6c5fe" d="M2539.67,-96.02C2539.67,-96.02 2349.33,-96.02 2349.33,-96.02 2346.17,-96.02 2343,-92.85 2343,-89.69 2343,-89.69 2343,-83.35 2343,-83.35 2343,-80.19 2346.17,-77.02 2349.33,-77.02 2349.33,-77.02 2539.67,-77.02 2539.67,-77.02 2542.83,-77.02 2546,-80.19 2546,-83.35 2546,-83.35 2546,-89.69 2546,-89.69 2546,-92.85 2542.83,-96.02 2539.67,-96.02"/>
<text text-anchor="middle" x="2444.5" y="-84.02" font-family="Arial" font-size="10.00" fill="#c6c5fe">src/app/type&#45;guards/general&#45;type&#45;guards.ts</text>
</g>
<!-- src/app/type&#45;guards/_index.ts&#45;&gt;src/app/type&#45;guards/general&#45;type&#45;guards.ts -->
<g id="edge46" class="edge">
<title>src/app/type&#45;guards/_index.ts&#45;&gt;src/app/type&#45;guards/general&#45;type&#45;guards.ts</title>
<path fill="none" stroke="#757575" d="M2033.66,-102.67C2112.76,-99.56 2240.64,-94.52 2332.52,-90.89"/>
<polygon fill="#757575" stroke="#757575" points="2332.84,-94.38 2342.7,-90.49 2332.57,-87.39 2332.84,-94.38"/>
</g>
<!-- src/app/type&#45;guards/page&#45;type&#45;guards.ts -->
<g id="node40" class="node">
<title>src/app/type&#45;guards/page&#45;type&#45;guards.ts</title>
<path fill="none" stroke="#c6c5fe" d="M2272.17,-134.02C2272.17,-134.02 2092.83,-134.02 2092.83,-134.02 2089.67,-134.02 2086.5,-130.85 2086.5,-127.69 2086.5,-127.69 2086.5,-121.35 2086.5,-121.35 2086.5,-118.19 2089.67,-115.02 2092.83,-115.02 2092.83,-115.02 2272.17,-115.02 2272.17,-115.02 2275.33,-115.02 2278.5,-118.19 2278.5,-121.35 2278.5,-121.35 2278.5,-127.69 2278.5,-127.69 2278.5,-130.85 2275.33,-134.02 2272.17,-134.02"/>
<text text-anchor="middle" x="2182.5" y="-122.02" font-family="Arial" font-size="10.00" fill="#c6c5fe">src/app/type&#45;guards/page&#45;type&#45;guards.ts</text>
</g>
<!-- src/app/type&#45;guards/_index.ts&#45;&gt;src/app/type&#45;guards/page&#45;type&#45;guards.ts -->
<g id="edge47" class="edge">
<title>src/app/type&#45;guards/_index.ts&#45;&gt;src/app/type&#45;guards/page&#45;type&#45;guards.ts</title>
<path fill="none" stroke="#757575" d="M2033.54,-111.74C2047.28,-112.93 2061.93,-114.19 2076.46,-115.45"/>
<polygon fill="#757575" stroke="#757575" points="2076.22,-118.94 2086.49,-116.31 2076.83,-111.97 2076.22,-118.94"/>
</g>
<!-- src/app/components/menu&#45;bar/_index.ts -->
<g id="node21" class="node">
<title>src/app/components/menu&#45;bar/_index.ts</title>
<path fill="none" stroke="#c6c5fe" d="M1544.67,-190.02C1544.67,-190.02 1366.33,-190.02 1366.33,-190.02 1363.17,-190.02 1360,-186.85 1360,-183.69 1360,-183.69 1360,-177.35 1360,-177.35 1360,-174.19 1363.17,-171.02 1366.33,-171.02 1366.33,-171.02 1544.67,-171.02 1544.67,-171.02 1547.83,-171.02 1551,-174.19 1551,-177.35 1551,-177.35 1551,-183.69 1551,-183.69 1551,-186.85 1547.83,-190.02 1544.67,-190.02"/>
<text text-anchor="middle" x="1455.5" y="-178.02" font-family="Arial" font-size="10.00" fill="#c6c5fe">src/app/components/menu&#45;bar/_index.ts</text>
</g>
<!-- src/app/components/menu&#45;bar/menu&#45;bar.component.ts -->
<g id="node22" class="node">
<title>src/app/components/menu&#45;bar/menu&#45;bar.component.ts</title>
<path fill="none" stroke="#c6c5fe" d="M1834.67,-200.02C1834.67,-200.02 1593.33,-200.02 1593.33,-200.02 1590.17,-200.02 1587,-196.85 1587,-193.69 1587,-193.69 1587,-187.35 1587,-187.35 1587,-184.19 1590.17,-181.02 1593.33,-181.02 1593.33,-181.02 1834.67,-181.02 1834.67,-181.02 1837.83,-181.02 1841,-184.19 1841,-187.35 1841,-187.35 1841,-193.69 1841,-193.69 1841,-196.85 1837.83,-200.02 1834.67,-200.02"/>
<text text-anchor="middle" x="1714" y="-188.02" font-family="Arial" font-size="10.00" fill="#c6c5fe">src/app/components/menu&#45;bar/menu&#45;bar.component.ts</text>
</g>
<!-- src/app/components/menu&#45;bar/_index.ts&#45;&gt;src/app/components/menu&#45;bar/menu&#45;bar.component.ts -->
<g id="edge14" class="edge">
<title>src/app/components/menu&#45;bar/_index.ts&#45;&gt;src/app/components/menu&#45;bar/menu&#45;bar.component.ts</title>
<path fill="none" stroke="#757575" d="M1551.28,-184.21C1559.59,-184.54 1568.1,-184.87 1576.66,-185.2"/>
<polygon fill="#757575" stroke="#757575" points="1576.59,-188.7 1586.72,-185.6 1576.86,-181.71 1576.59,-188.7"/>
</g>
<!-- src/app/components/menu&#45;bar/menu&#45;bar.component.ts&#45;&gt;src/app/common/_index.ts -->
<g id="edge15" class="edge">
<title>src/app/components/menu&#45;bar/menu&#45;bar.component.ts&#45;&gt;src/app/common/_index.ts</title>
<path fill="none" stroke="#757575" d="M1742.1,-200.05C1786.07,-215.52 1873.01,-246.1 1922.59,-263.54"/>
<polygon fill="#757575" stroke="#757575" points="1921.68,-266.93 1932.28,-266.94 1924.01,-260.32 1921.68,-266.93"/>
</g>
<!-- src/app/components/menu&#45;bar/menu&#45;bar.component.ts&#45;&gt;src/app/models/_index.ts -->
<g id="edge17" class="edge">
<title>src/app/components/menu&#45;bar/menu&#45;bar.component.ts&#45;&gt;src/app/models/_index.ts</title>
<path fill="none" stroke="#757575" d="M1841.03,-184.29C1853.18,-183.69 1865.33,-183.09 1877,-182.52 2184.11,-167.38 2260.9,-163.91 2568,-148.52 2576.32,-148.1 2585.03,-147.66 2593.68,-147.22"/>
<polygon fill="#757575" stroke="#757575" points="2593.98,-150.71 2603.79,-146.71 2593.62,-143.72 2593.98,-150.71"/>
</g>
<!-- src/app/components/svg/_index.ts -->
<g id="node23" class="node">
<title>src/app/components/svg/_index.ts</title>
<path fill="none" stroke="#c6c5fe" d="M2037.67,-210.02C2037.67,-210.02 1883.33,-210.02 1883.33,-210.02 1880.17,-210.02 1877,-206.85 1877,-203.69 1877,-203.69 1877,-197.35 1877,-197.35 1877,-194.19 1880.17,-191.02 1883.33,-191.02 1883.33,-191.02 2037.67,-191.02 2037.67,-191.02 2040.83,-191.02 2044,-194.19 2044,-197.35 2044,-197.35 2044,-203.69 2044,-203.69 2044,-206.85 2040.83,-210.02 2037.67,-210.02"/>
<text text-anchor="middle" x="1960.5" y="-198.02" font-family="Arial" font-size="10.00" fill="#c6c5fe">src/app/components/svg/_index.ts</text>
</g>
<!-- src/app/components/menu&#45;bar/menu&#45;bar.component.ts&#45;&gt;src/app/components/svg/_index.ts -->
<g id="edge16" class="edge">
<title>src/app/components/menu&#45;bar/menu&#45;bar.component.ts&#45;&gt;src/app/components/svg/_index.ts</title>
<path fill="none" stroke="#757575" d="M1841.19,-195.68C1849.82,-196.03 1858.43,-196.38 1866.84,-196.73"/>
<polygon fill="#757575" stroke="#757575" points="1866.85,-200.23 1876.98,-197.14 1867.14,-193.24 1866.85,-200.23"/>
</g>
<!-- src/app/components/svg/svg.component.ts -->
<g id="node26" class="node">
<title>src/app/components/svg/svg.component.ts</title>
<path fill="none" stroke="#cfffac" d="M2278.67,-210.02C2278.67,-210.02 2086.33,-210.02 2086.33,-210.02 2083.17,-210.02 2080,-206.85 2080,-203.69 2080,-203.69 2080,-197.35 2080,-197.35 2080,-194.19 2083.17,-191.02 2086.33,-191.02 2086.33,-191.02 2278.67,-191.02 2278.67,-191.02 2281.83,-191.02 2285,-194.19 2285,-197.35 2285,-197.35 2285,-203.69 2285,-203.69 2285,-206.85 2281.83,-210.02 2278.67,-210.02"/>
<text text-anchor="middle" x="2182.5" y="-198.02" font-family="Arial" font-size="10.00" fill="#cfffac">src/app/components/svg/svg.component.ts</text>
</g>
<!-- src/app/components/svg/_index.ts&#45;&gt;src/app/components/svg/svg.component.ts -->
<g id="edge24" class="edge">
<title>src/app/components/svg/_index.ts&#45;&gt;src/app/components/svg/svg.component.ts</title>
<path fill="none" stroke="#757575" d="M2044.05,-200.52C2052.46,-200.52 2061.1,-200.52 2069.76,-200.52"/>
<polygon fill="#757575" stroke="#757575" points="2069.91,-204.02 2079.91,-200.52 2069.91,-197.02 2069.91,-204.02"/>
</g>
<!-- src/app/components/nav&#45;logo/nav&#45;logo.component.ts&#45;&gt;src/app/models/_index.ts -->
<g id="edge19" class="edge">
<title>src/app/components/nav&#45;logo/nav&#45;logo.component.ts&#45;&gt;src/app/models/_index.ts</title>
<path fill="none" stroke="#757575" d="M2489.04,-285.94C2513.61,-279.19 2544.09,-268.46 2568,-252.52 2605.2,-227.72 2637.49,-185.62 2654.1,-161.65"/>
<polygon fill="#757575" stroke="#757575" points="2657.15,-163.39 2659.85,-153.15 2651.35,-159.47 2657.15,-163.39"/>
</g>
<!-- src/app/components/page&#45;layout/page&#45;layout.component.ts&#45;&gt;src/app/models/_index.ts -->
<g id="edge23" class="edge">
<title>src/app/components/page&#45;layout/page&#45;layout.component.ts&#45;&gt;src/app/models/_index.ts</title>
<path fill="none" stroke="#757575" d="M731.37,-115C840.81,-87.6 1173.65,-10.52 1454.5,-10.52 1454.5,-10.52 1454.5,-10.52 2183.5,-10.52 2355.06,-10.52 2412.74,28.45 2568,-44.52 2606.26,-62.5 2637.96,-102.08 2654.22,-125.38"/>
<polygon fill="#757575" stroke="#757575" points="2651.36,-127.39 2659.86,-133.71 2657.15,-123.47 2651.36,-127.39"/>
</g>
<!-- src/app/components/page&#45;layout/page&#45;layout.component.ts&#45;&gt;src/app/components/dynamic/_index.ts -->
<g id="edge21" class="edge">
<title>src/app/components/page&#45;layout/page&#45;layout.component.ts&#45;&gt;src/app/components/dynamic/_index.ts</title>
<path fill="none" stroke="#757575" d="M830.81,-124.52C980.06,-124.52 1216.06,-124.52 1350.9,-124.52"/>
<polygon fill="#757575" stroke="#757575" points="1351.23,-128.02 1361.23,-124.52 1351.23,-121.02 1351.23,-128.02"/>
</g>
<!-- src/app/components/page&#45;layout/page&#45;layout.component.ts&#45;&gt;src/app/components/top&#45;nav/_index.ts -->
<g id="edge22" class="edge">
<title>src/app/components/page&#45;layout/page&#45;layout.component.ts&#45;&gt;src/app/components/top&#45;nav/_index.ts</title>
<path fill="none" stroke="#757575" d="M789.16,-134.05C803.65,-136.52 818.32,-139.63 832,-143.52 868.05,-153.77 907.16,-172.33 932.2,-185.27"/>
<polygon fill="#757575" stroke="#757575" points="930.59,-188.37 941.07,-189.92 933.84,-182.17 930.59,-188.37"/>
</g>
<!-- src/app/components/top&#45;nav/top&#45;nav.component.ts&#45;&gt;src/app/models/_index.ts -->
<g id="edge29" class="edge">
<title>src/app/components/top&#45;nav/top&#45;nav.component.ts&#45;&gt;src/app/models/_index.ts</title>
<path fill="none" stroke="#757575" d="M1311.27,-209.04C1504.31,-224.9 1929.02,-251.95 2285,-219.52 2408.24,-208.29 2550.53,-174.12 2621.27,-155.66"/>
<polygon fill="#757575" stroke="#757575" points="2622.39,-158.98 2631.17,-153.05 2620.61,-152.21 2622.39,-158.98"/>
</g>
<!-- src/app/components/top&#45;nav/top&#45;nav.component.ts&#45;&gt;src/app/components/dynamic/_index.ts -->
<g id="edge26" class="edge">
<title>src/app/components/top&#45;nav/top&#45;nav.component.ts&#45;&gt;src/app/components/dynamic/_index.ts</title>
<path fill="none" stroke="#757575" d="M1238.16,-189.94C1282.75,-176.46 1364.09,-151.86 1413.33,-136.97"/>
<polygon fill="#757575" stroke="#757575" points="1414.47,-140.28 1423.03,-134.04 1412.44,-133.58 1414.47,-140.28"/>
</g>
<!-- src/app/components/top&#45;nav/top&#45;nav.component.ts&#45;&gt;src/app/components/nav&#45;logo/_index.ts -->
<g id="edge28" class="edge">
<title>src/app/components/top&#45;nav/top&#45;nav.component.ts&#45;&gt;src/app/components/nav&#45;logo/_index.ts</title>
<path fill="none" stroke="#757575" d="M1255.77,-209.06C1276.84,-213.27 1301.67,-218.42 1324,-223.52 1328.23,-224.49 1371.48,-235.44 1407.05,-244.47"/>
<polygon fill="#757575" stroke="#757575" points="1406.29,-247.88 1416.84,-246.95 1408.01,-241.1 1406.29,-247.88"/>
</g>
<!-- src/app/components/top&#45;nav/top&#45;nav.component.ts&#45;&gt;src/app/components/menu&#45;bar/_index.ts -->
<g id="edge27" class="edge">
<title>src/app/components/top&#45;nav/top&#45;nav.component.ts&#45;&gt;src/app/components/menu&#45;bar/_index.ts</title>
<path fill="none" stroke="#757575" d="M1324.33,-190.49C1332.77,-189.85 1341.25,-189.2 1349.61,-188.55"/>
<polygon fill="#757575" stroke="#757575" points="1350.03,-192.03 1359.73,-187.78 1349.5,-185.05 1350.03,-192.03"/>
</g>
<!-- src/app/directives/_index.ts -->
<g id="node28" class="node">
<title>src/app/directives/_index.ts</title>
<path fill="none" stroke="#c6c5fe" d="M3105.67,-134.02C3105.67,-134.02 2981.33,-134.02 2981.33,-134.02 2978.17,-134.02 2975,-130.85 2975,-127.69 2975,-127.69 2975,-121.35 2975,-121.35 2975,-118.19 2978.17,-115.02 2981.33,-115.02 2981.33,-115.02 3105.67,-115.02 3105.67,-115.02 3108.83,-115.02 3112,-118.19 3112,-121.35 3112,-121.35 3112,-127.69 3112,-127.69 3112,-130.85 3108.83,-134.02 3105.67,-134.02"/>
<text text-anchor="middle" x="3043.5" y="-122.02" font-family="Arial" font-size="10.00" fill="#c6c5fe">src/app/directives/_index.ts</text>
</g>
<!-- src/app/directives/view&#45;container&#45;ref.directive.ts -->
<g id="node29" class="node">
<title>src/app/directives/view&#45;container&#45;ref.directive.ts</title>
<path fill="none" stroke="#cfffac" d="M3378.67,-134.02C3378.67,-134.02 3166.33,-134.02 3166.33,-134.02 3163.17,-134.02 3160,-130.85 3160,-127.69 3160,-127.69 3160,-121.35 3160,-121.35 3160,-118.19 3163.17,-115.02 3166.33,-115.02 3166.33,-115.02 3378.67,-115.02 3378.67,-115.02 3381.83,-115.02 3385,-118.19 3385,-121.35 3385,-121.35 3385,-127.69 3385,-127.69 3385,-130.85 3381.83,-134.02 3378.67,-134.02"/>
<text text-anchor="middle" x="3272.5" y="-122.02" font-family="Arial" font-size="10.00" fill="#cfffac">src/app/directives/view&#45;container&#45;ref.directive.ts</text>
</g>
<!-- src/app/directives/_index.ts&#45;&gt;src/app/directives/view&#45;container&#45;ref.directive.ts -->
<g id="edge30" class="edge">
<title>src/app/directives/_index.ts&#45;&gt;src/app/directives/view&#45;container&#45;ref.directive.ts</title>
<path fill="none" stroke="#757575" d="M3112.3,-124.52C3124.15,-124.52 3136.81,-124.52 3149.6,-124.52"/>
<polygon fill="#757575" stroke="#757575" points="3149.89,-128.02 3159.89,-124.52 3149.89,-121.02 3149.89,-128.02"/>
</g>
<!-- src/app/models/data&#45;source.ts&#45;&gt;src/app/models/general.ts -->
<g id="edge37" class="edge">
<title>src/app/models/data&#45;source.ts&#45;&gt;src/app/models/general.ts</title>
<path fill="none" stroke="#757575" d="M2896.46,-172.06C2922.88,-177.21 2955.69,-183.6 2983.52,-189.03"/>
<polygon fill="#757575" stroke="#757575" points="2983.04,-192.5 2993.52,-190.97 2984.38,-185.63 2983.04,-192.5"/>
</g>
<!-- src/app/models/general.ts&#45;&gt;src/app/models/style&#45;types.ts -->
<g id="edge38" class="edge">
<title>src/app/models/general.ts&#45;&gt;src/app/models/style&#45;types.ts</title>
<path fill="none" stroke="#757575" d="M3108.03,-200.52C3133.16,-200.52 3162.36,-200.52 3189.07,-200.52"/>
<polygon fill="#757575" stroke="#757575" points="3189.17,-204.02 3199.17,-200.52 3189.17,-197.02 3189.17,-204.02"/>
</g>
<!-- src/app/models/page&#45;elements.ts&#45;&gt;src/app/directives/_index.ts -->
<g id="edge39" class="edge">
<title>src/app/models/page&#45;elements.ts&#45;&gt;src/app/directives/_index.ts</title>
<path fill="none" stroke="#757575" d="M2927.1,-125.11C2939.44,-125.05 2952.17,-124.98 2964.48,-124.92"/>
<polygon fill="#757575" stroke="#757575" points="2964.72,-128.42 2974.7,-124.87 2964.68,-121.42 2964.72,-128.42"/>
</g>
<!-- src/app/models/page&#45;elements.ts&#45;&gt;src/app/models/general.ts -->
<g id="edge40" class="edge">
<title>src/app/models/page&#45;elements.ts&#45;&gt;src/app/models/general.ts</title>
<path fill="none" stroke="#757575" d="M2903.09,-135.08C2911.35,-137.55 2919.58,-140.65 2927,-144.52 2945.98,-154.42 2944.32,-166.07 2963,-176.52 2971.04,-181.01 2980.02,-184.76 2988.97,-187.85"/>
<polygon fill="#757575" stroke="#757575" points="2988.03,-191.23 2998.62,-190.95 2990.17,-184.56 2988.03,-191.23"/>
</g>
<!-- src/app/models/page&#45;elements.ts&#45;&gt;src/app/models/style&#45;types.ts -->
<g id="edge41" class="edge">
<title>src/app/models/page&#45;elements.ts&#45;&gt;src/app/models/style&#45;types.ts</title>
<path fill="none" stroke="#757575" d="M2901.63,-135.09C2979.93,-148.94 3124.53,-174.52 3207.84,-189.26"/>
<polygon fill="#757575" stroke="#757575" points="3207.23,-192.71 3217.69,-191 3208.45,-185.81 3207.23,-192.71"/>
</g>
<!-- src/app/models/svg/svg&#45;config.ts -->
<g id="node36" class="node">
<title>src/app/models/svg/svg&#45;config.ts</title>
<path fill="none" stroke="#cfffac" d="M3117.67,-97.02C3117.67,-97.02 2969.33,-97.02 2969.33,-97.02 2966.17,-97.02 2963,-93.85 2963,-90.69 2963,-90.69 2963,-84.35 2963,-84.35 2963,-81.19 2966.17,-78.02 2969.33,-78.02 2969.33,-78.02 3117.67,-78.02 3117.67,-78.02 3120.83,-78.02 3124,-81.19 3124,-84.35 3124,-84.35 3124,-90.69 3124,-90.69 3124,-93.85 3120.83,-97.02 3117.67,-97.02"/>
<text text-anchor="middle" x="3043.5" y="-85.02" font-family="Arial" font-size="10.00" fill="#cfffac">src/app/models/svg/svg&#45;config.ts</text>
</g>
<!-- src/app/models/svg/_index.ts&#45;&gt;src/app/models/svg/svg&#45;config.ts -->
<g id="edge42" class="edge">
<title>src/app/models/svg/_index.ts&#45;&gt;src/app/models/svg/svg&#45;config.ts</title>
<path fill="none" stroke="#757575" d="M2898.99,-61.02C2924.1,-65.66 2954.5,-71.27 2980.84,-76.14"/>
<polygon fill="#757575" stroke="#757575" points="2980.25,-79.59 2990.72,-77.96 2981.52,-72.7 2980.25,-79.59"/>
</g>
<!-- src/app/models/svg/svg&#45;ref.ts -->
<g id="node37" class="node">
<title>src/app/models/svg/svg&#45;ref.ts</title>
<path fill="none" stroke="#c6c5fe" d="M3110.17,-60.02C3110.17,-60.02 2976.83,-60.02 2976.83,-60.02 2973.67,-60.02 2970.5,-56.85 2970.5,-53.69 2970.5,-53.69 2970.5,-47.35 2970.5,-47.35 2970.5,-44.19 2973.67,-41.02 2976.83,-41.02 2976.83,-41.02 3110.17,-41.02 3110.17,-41.02 3113.33,-41.02 3116.5,-44.19 3116.5,-47.35 3116.5,-47.35 3116.5,-53.69 3116.5,-53.69 3116.5,-56.85 3113.33,-60.02 3110.17,-60.02"/>
<text text-anchor="middle" x="3043.5" y="-48.02" font-family="Arial" font-size="10.00" fill="#c6c5fe">src/app/models/svg/svg&#45;ref.ts</text>
</g>
<!-- src/app/models/svg/_index.ts&#45;&gt;src/app/models/svg/svg&#45;ref.ts -->
<g id="edge43" class="edge">
<title>src/app/models/svg/_index.ts&#45;&gt;src/app/models/svg/svg&#45;ref.ts</title>
<path fill="none" stroke="#757575" d="M2919,-51.15C2932.34,-51.08 2946.38,-51.01 2960.02,-50.94"/>
<polygon fill="#757575" stroke="#757575" points="2960.37,-54.44 2970.35,-50.89 2960.33,-47.44 2960.37,-54.44"/>
</g>
<!-- src/app/models/svg/svg&#45;types.ts -->
<g id="node38" class="node">
<title>src/app/models/svg/svg&#45;types.ts</title>
<path fill="none" stroke="#cfffac" d="M3345.67,-41.02C3345.67,-41.02 3199.33,-41.02 3199.33,-41.02 3196.17,-41.02 3193,-37.85 3193,-34.69 3193,-34.69 3193,-28.35 3193,-28.35 3193,-25.19 3196.17,-22.02 3199.33,-22.02 3199.33,-22.02 3345.67,-22.02 3345.67,-22.02 3348.83,-22.02 3352,-25.19 3352,-28.35 3352,-28.35 3352,-34.69 3352,-34.69 3352,-37.85 3348.83,-41.02 3345.67,-41.02"/>
<text text-anchor="middle" x="3272.5" y="-29.02" font-family="Arial" font-size="10.00" fill="#cfffac">src/app/models/svg/svg&#45;types.ts</text>
</g>
<!-- src/app/models/svg/_index.ts&#45;&gt;src/app/models/svg/svg&#45;types.ts -->
<g id="edge44" class="edge">
<title>src/app/models/svg/_index.ts&#45;&gt;src/app/models/svg/svg&#45;types.ts</title>
<path fill="none" stroke="#757575" d="M2891.97,-41.98C2913.34,-37.87 2939.38,-33.55 2963,-31.52 3036.8,-25.18 3120.9,-25.69 3182.63,-27.5"/>
<polygon fill="#757575" stroke="#757575" points="3182.62,-31 3192.73,-27.81 3182.84,-24 3182.62,-31"/>
</g>
<!-- src/app/models/svg/svg&#45;ref.ts&#45;&gt;src/app/models/svg/svg&#45;types.ts -->
<g id="edge45" class="edge">
<title>src/app/models/svg/svg&#45;ref.ts&#45;&gt;src/app/models/svg/svg&#45;types.ts</title>
<path fill="none" stroke="#757575" d="M3116.64,-44.48C3137.69,-42.72 3160.94,-40.77 3182.89,-38.94"/>
<polygon fill="#757575" stroke="#757575" points="3183.19,-42.42 3192.87,-38.1 3182.61,-35.45 3183.19,-42.42"/>
</g>
<!-- src/app/type&#45;guards/general&#45;type&#45;guards.ts&#45;&gt;src/app/models/_index.ts -->
<g id="edge48" class="edge">
<title>src/app/type&#45;guards/general&#45;type&#45;guards.ts&#45;&gt;src/app/models/_index.ts</title>
<path fill="none" stroke="#757575" d="M2502.27,-96.03C2523.08,-99.94 2546.74,-104.88 2568,-110.52 2589.18,-116.13 2612.44,-123.9 2630.99,-130.48"/>
<polygon fill="#757575" stroke="#757575" points="2629.89,-133.81 2640.49,-133.9 2632.26,-127.22 2629.89,-133.81"/>
</g>
<!-- src/app/type&#45;guards/page&#45;type&#45;guards.ts&#45;&gt;src/app/models/_index.ts -->
<g id="edge49" class="edge">
<title>src/app/type&#45;guards/page&#45;type&#45;guards.ts&#45;&gt;src/app/models/_index.ts</title>
<path fill="none" stroke="#757575" d="M2278.54,-128.26C2371.04,-131.9 2509.6,-137.36 2593.53,-140.67"/>
<polygon fill="#757575" stroke="#757575" points="2593.61,-144.17 2603.74,-141.07 2593.89,-137.18 2593.61,-144.17"/>
</g>
<!-- src/app/type&#45;guards/page&#45;type&#45;guards.ts&#45;&gt;src/app/type&#45;guards/general&#45;type&#45;guards.ts -->
<g id="edge50" class="edge">
<title>src/app/type&#45;guards/page&#45;type&#45;guards.ts&#45;&gt;src/app/type&#45;guards/general&#45;type&#45;guards.ts</title>
<path fill="none" stroke="#757575" d="M2248.77,-114.98C2285.09,-109.67 2330.45,-103.04 2368.26,-97.52"/>
<polygon fill="#757575" stroke="#757575" points="2368.81,-100.97 2378.2,-96.06 2367.8,-94.05 2368.81,-100.97"/>
</g>
<!-- tsconfig.app.json -->
<g id="node41" class="node">
<title>tsconfig.app.json</title>
<path fill="none" stroke="#cfffac" d="M87.17,-415.02C87.17,-415.02 8.83,-415.02 8.83,-415.02 5.67,-415.02 2.5,-411.85 2.5,-408.69 2.5,-408.69 2.5,-402.35 2.5,-402.35 2.5,-399.19 5.67,-396.02 8.83,-396.02 8.83,-396.02 87.17,-396.02 87.17,-396.02 90.33,-396.02 93.5,-399.19 93.5,-402.35 93.5,-402.35 93.5,-408.69 93.5,-408.69 93.5,-411.85 90.33,-415.02 87.17,-415.02"/>
<text text-anchor="middle" x="48" y="-403.02" font-family="Arial" font-size="10.00" fill="#cfffac">tsconfig.app.json</text>
</g>
<!-- tsconfig.json -->
<g id="node42" class="node">
<title>tsconfig.json</title>
<path fill="none" stroke="#cfffac" d="M77.67,-452.02C77.67,-452.02 18.33,-452.02 18.33,-452.02 15.17,-452.02 12,-448.85 12,-445.69 12,-445.69 12,-439.35 12,-439.35 12,-436.19 15.17,-433.02 18.33,-433.02 18.33,-433.02 77.67,-433.02 77.67,-433.02 80.83,-433.02 84,-436.19 84,-439.35 84,-439.35 84,-445.69 84,-445.69 84,-448.85 80.83,-452.02 77.67,-452.02"/>
<text text-anchor="middle" x="48" y="-440.02" font-family="Arial" font-size="10.00" fill="#cfffac">tsconfig.json</text>
</g>
<!-- tsconfig.spec.json -->
<g id="node43" class="node">
<title>tsconfig.spec.json</title>
<path fill="none" stroke="#cfffac" d="M89.67,-489.02C89.67,-489.02 6.33,-489.02 6.33,-489.02 3.17,-489.02 0,-485.85 0,-482.69 0,-482.69 0,-476.35 0,-476.35 0,-473.19 3.17,-470.02 6.33,-470.02 6.33,-470.02 89.67,-470.02 89.67,-470.02 92.83,-470.02 96,-473.19 96,-476.35 96,-476.35 96,-482.69 96,-482.69 96,-485.85 92.83,-489.02 89.67,-489.02"/>
<text text-anchor="middle" x="48" y="-477.02" font-family="Arial" font-size="10.00" fill="#cfffac">tsconfig.spec.json</text>
</g>
</g>
</svg>
