<?xml version="1.0" encoding="UTF-8" standalone="no"?>
<!DOCTYPE svg PUBLIC "-//W3C//DTD SVG 1.1//EN"
 "http://www.w3.org/Graphics/SVG/1.1/DTD/svg11.dtd">
<!-- Generated by graphviz version 2.43.0 (0)
 -->
<!-- Title: G Pages: 1 -->
<svg width="3803pt" height="913pt"
 viewBox="0.00 0.00 3803.20 913.20" xmlns="http://www.w3.org/2000/svg" xmlns:xlink="http://www.w3.org/1999/xlink">
<g id="graph0" class="graph" transform="scale(1 1) rotate(0) translate(21.6 891.6)">
<title>G</title>
<polygon fill="#111111" stroke="transparent" points="-21.6,21.6 -21.6,-891.6 3781.6,-891.6 3781.6,21.6 -21.6,21.6"/>
<!-- LICENSE -->
<g id="node1" class="node">
<title>LICENSE</title>
<path fill="none" stroke="#cfffac" d="M71.67,-183.5C71.67,-183.5 24.33,-183.5 24.33,-183.5 21.17,-183.5 18,-180.33 18,-177.17 18,-177.17 18,-170.83 18,-170.83 18,-167.67 21.17,-164.5 24.33,-164.5 24.33,-164.5 71.67,-164.5 71.67,-164.5 74.83,-164.5 78,-167.67 78,-170.83 78,-170.83 78,-177.17 78,-177.17 78,-180.33 74.83,-183.5 71.67,-183.5"/>
<text text-anchor="middle" x="48" y="-171.5" font-family="Arial" font-size="10.00" fill="#cfffac">LICENSE</text>
</g>
<!-- README.md -->
<g id="node2" class="node">
<title>README.md</title>
<path fill="none" stroke="#cfffac" d="M80.17,-220.5C80.17,-220.5 15.83,-220.5 15.83,-220.5 12.67,-220.5 9.5,-217.33 9.5,-214.17 9.5,-214.17 9.5,-207.83 9.5,-207.83 9.5,-204.67 12.67,-201.5 15.83,-201.5 15.83,-201.5 80.17,-201.5 80.17,-201.5 83.33,-201.5 86.5,-204.67 86.5,-207.83 86.5,-207.83 86.5,-214.17 86.5,-214.17 86.5,-217.33 83.33,-220.5 80.17,-220.5"/>
<text text-anchor="middle" x="48" y="-208.5" font-family="Arial" font-size="10.00" fill="#cfffac">README.md</text>
</g>
<!-- angular.json -->
<g id="node3" class="node">
<title>angular.json</title>
<path fill="none" stroke="#cfffac" d="M76.17,-257.5C76.17,-257.5 19.83,-257.5 19.83,-257.5 16.67,-257.5 13.5,-254.33 13.5,-251.17 13.5,-251.17 13.5,-244.83 13.5,-244.83 13.5,-241.67 16.67,-238.5 19.83,-238.5 19.83,-238.5 76.17,-238.5 76.17,-238.5 79.33,-238.5 82.5,-241.67 82.5,-244.83 82.5,-244.83 82.5,-251.17 82.5,-251.17 82.5,-254.33 79.33,-257.5 76.17,-257.5"/>
<text text-anchor="middle" x="48" y="-245.5" font-family="Arial" font-size="10.00" fill="#cfffac">angular.json</text>
</g>
<!-- build_exports.py -->
<g id="node4" class="node">
<title>build_exports.py</title>
<path fill="none" stroke="#cfffac" d="M85.67,-294.5C85.67,-294.5 10.33,-294.5 10.33,-294.5 7.17,-294.5 4,-291.33 4,-288.17 4,-288.17 4,-281.83 4,-281.83 4,-278.67 7.17,-275.5 10.33,-275.5 10.33,-275.5 85.67,-275.5 85.67,-275.5 88.83,-275.5 92,-278.67 92,-281.83 92,-281.83 92,-288.17 92,-288.17 92,-291.33 88.83,-294.5 85.67,-294.5"/>
<text text-anchor="middle" x="48" y="-282.5" font-family="Arial" font-size="10.00" fill="#cfffac">build_exports.py</text>
</g>
<!-- deps.png -->
<g id="node5" class="node">
<title>deps.png</title>
<path fill="none" stroke="#cfffac" d="M69.67,-331.5C69.67,-331.5 26.33,-331.5 26.33,-331.5 23.17,-331.5 20,-328.33 20,-325.17 20,-325.17 20,-318.83 20,-318.83 20,-315.67 23.17,-312.5 26.33,-312.5 26.33,-312.5 69.67,-312.5 69.67,-312.5 72.83,-312.5 76,-315.67 76,-318.83 76,-318.83 76,-325.17 76,-325.17 76,-328.33 72.83,-331.5 69.67,-331.5"/>
<text text-anchor="middle" x="48" y="-319.5" font-family="Arial" font-size="10.00" fill="#cfffac">deps.png</text>
</g>
<!-- deps.svg -->
<g id="node6" class="node">
<title>deps.svg</title>
<path fill="none" stroke="#cfffac" d="M69.67,-368.5C69.67,-368.5 26.33,-368.5 26.33,-368.5 23.17,-368.5 20,-365.33 20,-362.17 20,-362.17 20,-355.83 20,-355.83 20,-352.67 23.17,-349.5 26.33,-349.5 26.33,-349.5 69.67,-349.5 69.67,-349.5 72.83,-349.5 76,-352.67 76,-355.83 76,-355.83 76,-362.17 76,-362.17 76,-365.33 72.83,-368.5 69.67,-368.5"/>
<text text-anchor="middle" x="48" y="-356.5" font-family="Arial" font-size="10.00" fill="#cfffac">deps.svg</text>
</g>
<!-- index.ts -->
<g id="node7" class="node">
<title>index.ts</title>
<path fill="none" stroke="#c6c5fe" d="M68.67,-405.5C68.67,-405.5 27.33,-405.5 27.33,-405.5 24.17,-405.5 21,-402.33 21,-399.17 21,-399.17 21,-392.83 21,-392.83 21,-389.67 24.17,-386.5 27.33,-386.5 27.33,-386.5 68.67,-386.5 68.67,-386.5 71.83,-386.5 75,-389.67 75,-392.83 75,-392.83 75,-399.17 75,-399.17 75,-402.33 71.83,-405.5 68.67,-405.5"/>
<text text-anchor="middle" x="48" y="-393.5" font-family="Arial" font-size="10.00" fill="#c6c5fe">index.ts</text>
</g>
<!-- src/app/common/_index.ts -->
<g id="node8" class="node">
<title>src/app/common/_index.ts</title>
<path fill="none" stroke="#c6c5fe" d="M2331.67,-860.5C2331.67,-860.5 2212.33,-860.5 2212.33,-860.5 2209.17,-860.5 2206,-857.33 2206,-854.17 2206,-854.17 2206,-847.83 2206,-847.83 2206,-844.67 2209.17,-841.5 2212.33,-841.5 2212.33,-841.5 2331.67,-841.5 2331.67,-841.5 2334.83,-841.5 2338,-844.67 2338,-847.83 2338,-847.83 2338,-854.17 2338,-854.17 2338,-857.33 2334.83,-860.5 2331.67,-860.5"/>
<text text-anchor="middle" x="2272" y="-848.5" font-family="Arial" font-size="10.00" fill="#c6c5fe">src/app/common/_index.ts</text>
</g>
<!-- index.ts&#45;&gt;src/app/common/_index.ts -->
<g id="edge1" class="edge">
<title>index.ts&#45;&gt;src/app/common/_index.ts</title>
<path fill="none" stroke="#757575" d="M75.08,-401.15C82.93,-403.97 90.83,-408.31 96,-415 172.16,-513.6 70.52,-584.64 132,-693 206.14,-823.67 269.76,-870 420,-870 420,-870 420,-870 1626,-870 1832.01,-870 2074.87,-860.2 2195.34,-854.67"/>
<polygon fill="#757575" stroke="#757575" points="2195.73,-858.16 2205.56,-854.2 2195.41,-851.17 2195.73,-858.16"/>
</g>
<!-- src/app/components/_index.ts -->
<g id="node9" class="node">
<title>src/app/components/_index.ts</title>
<path fill="none" stroke="#c6c5fe" d="M273.67,-557.5C273.67,-557.5 138.33,-557.5 138.33,-557.5 135.17,-557.5 132,-554.33 132,-551.17 132,-551.17 132,-544.83 132,-544.83 132,-541.67 135.17,-538.5 138.33,-538.5 138.33,-538.5 273.67,-538.5 273.67,-538.5 276.83,-538.5 280,-541.67 280,-544.83 280,-544.83 280,-551.17 280,-551.17 280,-554.33 276.83,-557.5 273.67,-557.5"/>
<text text-anchor="middle" x="206" y="-545.5" font-family="Arial" font-size="10.00" fill="#c6c5fe">src/app/components/_index.ts</text>
</g>
<!-- index.ts&#45;&gt;src/app/components/_index.ts -->
<g id="edge2" class="edge">
<title>index.ts&#45;&gt;src/app/components/_index.ts</title>
<path fill="none" stroke="#757575" d="M75.1,-403.88C82.26,-406.73 89.76,-410.41 96,-415 139.89,-447.28 176.59,-501.12 194.05,-529.38"/>
<polygon fill="#757575" stroke="#757575" points="191.24,-531.49 199.41,-538.23 197.23,-527.87 191.24,-531.49"/>
</g>
<!-- src/app/directives/_index.ts -->
<g id="node10" class="node">
<title>src/app/directives/_index.ts</title>
<path fill="none" stroke="#c6c5fe" d="M3480.67,-348.5C3480.67,-348.5 3356.33,-348.5 3356.33,-348.5 3353.17,-348.5 3350,-345.33 3350,-342.17 3350,-342.17 3350,-335.83 3350,-335.83 3350,-332.67 3353.17,-329.5 3356.33,-329.5 3356.33,-329.5 3480.67,-329.5 3480.67,-329.5 3483.83,-329.5 3487,-332.67 3487,-335.83 3487,-335.83 3487,-342.17 3487,-342.17 3487,-345.33 3483.83,-348.5 3480.67,-348.5"/>
<text text-anchor="middle" x="3418.5" y="-336.5" font-family="Arial" font-size="10.00" fill="#c6c5fe">src/app/directives/_index.ts</text>
</g>
<!-- index.ts&#45;&gt;src/app/directives/_index.ts -->
<g id="edge3" class="edge">
<title>index.ts&#45;&gt;src/app/directives/_index.ts</title>
<path fill="none" stroke="#757575" d="M75.45,-391.18C83.14,-388.52 90.85,-384.4 96,-378 162.82,-295.02 68.96,-226.89 132,-141 216.32,-26.11 277.48,0 420,0 420,0 420,0 3023,0 3220.96,0 3369.17,-248.59 3407.67,-320.02"/>
<polygon fill="#757575" stroke="#757575" points="3404.77,-322.02 3412.55,-329.22 3410.96,-318.75 3404.77,-322.02"/>
</g>
<!-- src/app/models/_index.ts -->
<g id="node11" class="node">
<title>src/app/models/_index.ts</title>
<path fill="none" stroke="#c6c5fe" d="M3078.67,-462.5C3078.67,-462.5 2965.33,-462.5 2965.33,-462.5 2962.17,-462.5 2959,-459.33 2959,-456.17 2959,-456.17 2959,-449.83 2959,-449.83 2959,-446.67 2962.17,-443.5 2965.33,-443.5 2965.33,-443.5 3078.67,-443.5 3078.67,-443.5 3081.83,-443.5 3085,-446.67 3085,-449.83 3085,-449.83 3085,-456.17 3085,-456.17 3085,-459.33 3081.83,-462.5 3078.67,-462.5"/>
<text text-anchor="middle" x="3022" y="-450.5" font-family="Arial" font-size="10.00" fill="#c6c5fe">src/app/models/_index.ts</text>
</g>
<!-- index.ts&#45;&gt;src/app/models/_index.ts -->
<g id="edge4" class="edge">
<title>index.ts&#45;&gt;src/app/models/_index.ts</title>
<path fill="none" stroke="#757575" d="M75,-386.44C81.87,-383.81 89.25,-380.88 96,-378 242.46,-315.48 260.75,-225 420,-225 420,-225 420,-225 2545.5,-225 2626.8,-225 2842.46,-197.27 2911,-241 2980.78,-285.53 3008.62,-389.52 3017.5,-433.16"/>
<polygon fill="#757575" stroke="#757575" points="3014.08,-433.94 3019.4,-443.11 3020.96,-432.63 3014.08,-433.94"/>
</g>
<!-- src/app/services/_index.ts -->
<g id="node12" class="node">
<title>src/app/services/_index.ts</title>
<path fill="none" stroke="#c6c5fe" d="M2603.67,-158.5C2603.67,-158.5 2485.33,-158.5 2485.33,-158.5 2482.17,-158.5 2479,-155.33 2479,-152.17 2479,-152.17 2479,-145.83 2479,-145.83 2479,-142.67 2482.17,-139.5 2485.33,-139.5 2485.33,-139.5 2603.67,-139.5 2603.67,-139.5 2606.83,-139.5 2610,-142.67 2610,-145.83 2610,-145.83 2610,-152.17 2610,-152.17 2610,-155.33 2606.83,-158.5 2603.67,-158.5"/>
<text text-anchor="middle" x="2544.5" y="-146.5" font-family="Arial" font-size="10.00" fill="#c6c5fe">src/app/services/_index.ts</text>
</g>
<!-- index.ts&#45;&gt;src/app/services/_index.ts -->
<g id="edge5" class="edge">
<title>index.ts&#45;&gt;src/app/services/_index.ts</title>
<path fill="none" stroke="#757575" d="M75.22,-390.99C82.9,-388.32 90.65,-384.24 96,-378 145.42,-320.35 78.3,-264.68 132,-211 224.6,-118.43 289.07,-149 420,-149 420,-149 420,-149 1941.5,-149 2131.28,-149 2354.71,-149 2468.57,-149"/>
<polygon fill="#757575" stroke="#757575" points="2468.91,-152.5 2478.91,-149 2468.91,-145.5 2468.91,-152.5"/>
</g>
<!-- src/app/type&#45;guards/_index.ts -->
<g id="node13" class="node">
<title>src/app/type&#45;guards/_index.ts</title>
<path fill="none" stroke="#c6c5fe" d="M2338.67,-576.5C2338.67,-576.5 2205.33,-576.5 2205.33,-576.5 2202.17,-576.5 2199,-573.33 2199,-570.17 2199,-570.17 2199,-563.83 2199,-563.83 2199,-560.67 2202.17,-557.5 2205.33,-557.5 2205.33,-557.5 2338.67,-557.5 2338.67,-557.5 2341.83,-557.5 2345,-560.67 2345,-563.83 2345,-563.83 2345,-570.17 2345,-570.17 2345,-573.33 2341.83,-576.5 2338.67,-576.5"/>
<text text-anchor="middle" x="2272" y="-564.5" font-family="Arial" font-size="10.00" fill="#c6c5fe">src/app/type&#45;guards/_index.ts</text>
</g>
<!-- index.ts&#45;&gt;src/app/type&#45;guards/_index.ts -->
<g id="edge6" class="edge">
<title>index.ts&#45;&gt;src/app/type&#45;guards/_index.ts</title>
<path fill="none" stroke="#757575" d="M75.17,-401.66C82.84,-404.49 90.61,-408.72 96,-415 141.23,-467.67 101.71,-504.53 132,-567 207.9,-723.51 246.06,-832 420,-832 420,-832 420,-832 1333.5,-832 1419.94,-832 1653.42,-865.61 1722,-813 1763.49,-781.18 1719.17,-736.02 1758,-701 1881.12,-589.96 1964.02,-671.05 2123,-624 2164.27,-611.78 2210.33,-593.23 2239.93,-580.64"/>
<polygon fill="#757575" stroke="#757575" points="2241.5,-583.77 2249.31,-576.61 2238.74,-577.34 2241.5,-583.77"/>
</g>
<!-- src/app/common/constants.ts -->
<g id="node16" class="node">
<title>src/app/common/constants.ts</title>
<path fill="none" stroke="#cfffac" d="M2611.17,-860.5C2611.17,-860.5 2477.83,-860.5 2477.83,-860.5 2474.67,-860.5 2471.5,-857.33 2471.5,-854.17 2471.5,-854.17 2471.5,-847.83 2471.5,-847.83 2471.5,-844.67 2474.67,-841.5 2477.83,-841.5 2477.83,-841.5 2611.17,-841.5 2611.17,-841.5 2614.33,-841.5 2617.5,-844.67 2617.5,-847.83 2617.5,-847.83 2617.5,-854.17 2617.5,-854.17 2617.5,-857.33 2614.33,-860.5 2611.17,-860.5"/>
<text text-anchor="middle" x="2544.5" y="-848.5" font-family="Arial" font-size="10.00" fill="#cfffac">src/app/common/constants.ts</text>
</g>
<!-- src/app/common/_index.ts&#45;&gt;src/app/common/constants.ts -->
<g id="edge7" class="edge">
<title>src/app/common/_index.ts&#45;&gt;src/app/common/constants.ts</title>
<path fill="none" stroke="#757575" d="M2338.14,-851C2375.1,-851 2421.71,-851 2461.18,-851"/>
<polygon fill="#757575" stroke="#757575" points="2461.32,-854.5 2471.32,-851 2461.32,-847.5 2461.32,-854.5"/>
</g>
<!-- src/app/components/blockable&#45;ui/_index.ts -->
<g id="node17" class="node">
<title>src/app/components/blockable&#45;ui/_index.ts</title>
<path fill="none" stroke="#c6c5fe" d="M516.17,-689.5C516.17,-689.5 325.83,-689.5 325.83,-689.5 322.67,-689.5 319.5,-686.33 319.5,-683.17 319.5,-683.17 319.5,-676.83 319.5,-676.83 319.5,-673.67 322.67,-670.5 325.83,-670.5 325.83,-670.5 516.17,-670.5 516.17,-670.5 519.33,-670.5 522.5,-673.67 522.5,-676.83 522.5,-676.83 522.5,-683.17 522.5,-683.17 522.5,-686.33 519.33,-689.5 516.17,-689.5"/>
<text text-anchor="middle" x="421" y="-677.5" font-family="Arial" font-size="10.00" fill="#c6c5fe">src/app/components/blockable&#45;ui/_index.ts</text>
</g>
<!-- src/app/components/_index.ts&#45;&gt;src/app/components/blockable&#45;ui/_index.ts -->
<g id="edge8" class="edge">
<title>src/app/components/_index.ts&#45;&gt;src/app/components/blockable&#45;ui/_index.ts</title>
<path fill="none" stroke="#757575" d="M212.99,-557.61C227.54,-580.05 267.18,-635.99 316,-662 319.49,-663.86 323.14,-665.54 326.88,-667.04"/>
<polygon fill="#757575" stroke="#757575" points="325.78,-670.37 336.37,-670.46 328.14,-663.78 325.78,-670.37"/>
</g>
<!-- src/app/components/dynamic/_index.ts -->
<g id="node18" class="node">
<title>src/app/components/dynamic/_index.ts</title>
<path fill="none" stroke="#c6c5fe" d="M1712.67,-386.5C1712.67,-386.5 1537.33,-386.5 1537.33,-386.5 1534.17,-386.5 1531,-383.33 1531,-380.17 1531,-380.17 1531,-373.83 1531,-373.83 1531,-370.67 1534.17,-367.5 1537.33,-367.5 1537.33,-367.5 1712.67,-367.5 1712.67,-367.5 1715.83,-367.5 1719,-370.67 1719,-373.83 1719,-373.83 1719,-380.17 1719,-380.17 1719,-383.33 1715.83,-386.5 1712.67,-386.5"/>
<text text-anchor="middle" x="1625" y="-374.5" font-family="Arial" font-size="10.00" fill="#c6c5fe">src/app/components/dynamic/_index.ts</text>
</g>
<!-- src/app/components/_index.ts&#45;&gt;src/app/components/dynamic/_index.ts -->
<g id="edge9" class="edge">
<title>src/app/components/_index.ts&#45;&gt;src/app/components/dynamic/_index.ts</title>
<path fill="none" stroke="#757575" d="M213.82,-538.28C229.21,-517.24 269.01,-467.68 316,-447 475.59,-376.78 532.64,-415 707,-415 707,-415 707,-415 1014.5,-415 1226.99,-415 1280.16,-407.55 1492,-391 1504.63,-390.01 1517.93,-388.8 1531.02,-387.51"/>
<polygon fill="#757575" stroke="#757575" points="1531.38,-391 1540.98,-386.52 1530.68,-384.03 1531.38,-391"/>
</g>
<!-- src/app/components/element&#45;renderer/_index.ts -->
<g id="node19" class="node">
<title>src/app/components/element&#45;renderer/_index.ts</title>
<path fill="none" stroke="#c6c5fe" d="M1119.17,-576.5C1119.17,-576.5 907.83,-576.5 907.83,-576.5 904.67,-576.5 901.5,-573.33 901.5,-570.17 901.5,-570.17 901.5,-563.83 901.5,-563.83 901.5,-560.67 904.67,-557.5 907.83,-557.5 907.83,-557.5 1119.17,-557.5 1119.17,-557.5 1122.33,-557.5 1125.5,-560.67 1125.5,-563.83 1125.5,-563.83 1125.5,-570.17 1125.5,-570.17 1125.5,-573.33 1122.33,-576.5 1119.17,-576.5"/>
<text text-anchor="middle" x="1013.5" y="-564.5" font-family="Arial" font-size="10.00" fill="#c6c5fe">src/app/components/element&#45;renderer/_index.ts</text>
</g>
<!-- src/app/components/_index.ts&#45;&gt;src/app/components/element&#45;renderer/_index.ts -->
<g id="edge10" class="edge">
<title>src/app/components/_index.ts&#45;&gt;src/app/components/element&#45;renderer/_index.ts</title>
<path fill="none" stroke="#757575" d="M280.26,-549.73C419.08,-553 721.67,-560.14 891.21,-564.14"/>
<polygon fill="#757575" stroke="#757575" points="891.35,-567.64 901.43,-564.38 891.52,-560.65 891.35,-567.64"/>
</g>
<!-- src/app/components/image/_index.ts -->
<g id="node20" class="node">
<title>src/app/components/image/_index.ts</title>
<path fill="none" stroke="#c6c5fe" d="M1707.17,-803.5C1707.17,-803.5 1542.83,-803.5 1542.83,-803.5 1539.67,-803.5 1536.5,-800.33 1536.5,-797.17 1536.5,-797.17 1536.5,-790.83 1536.5,-790.83 1536.5,-787.67 1539.67,-784.5 1542.83,-784.5 1542.83,-784.5 1707.17,-784.5 1707.17,-784.5 1710.33,-784.5 1713.5,-787.67 1713.5,-790.83 1713.5,-790.83 1713.5,-797.17 1713.5,-797.17 1713.5,-800.33 1710.33,-803.5 1707.17,-803.5"/>
<text text-anchor="middle" x="1625" y="-791.5" font-family="Arial" font-size="10.00" fill="#c6c5fe">src/app/components/image/_index.ts</text>
</g>
<!-- src/app/components/_index.ts&#45;&gt;src/app/components/image/_index.ts -->
<g id="edge11" class="edge">
<title>src/app/components/_index.ts&#45;&gt;src/app/components/image/_index.ts</title>
<path fill="none" stroke="#757575" d="M208.34,-557.79C213.83,-593.6 238.11,-718.09 316,-770 388.44,-818.28 619.95,-794 707,-794 707,-794 707,-794 1014.5,-794 1195.08,-794 1405.75,-794 1526.15,-794"/>
<polygon fill="#757575" stroke="#757575" points="1526.44,-797.5 1536.44,-794 1526.44,-790.5 1526.44,-797.5"/>
</g>
<!-- src/app/components/menu&#45;bar/_index.ts -->
<g id="node21" class="node">
<title>src/app/components/menu&#45;bar/_index.ts</title>
<path fill="none" stroke="#c6c5fe" d="M1714.17,-727.5C1714.17,-727.5 1535.83,-727.5 1535.83,-727.5 1532.67,-727.5 1529.5,-724.33 1529.5,-721.17 1529.5,-721.17 1529.5,-714.83 1529.5,-714.83 1529.5,-711.67 1532.67,-708.5 1535.83,-708.5 1535.83,-708.5 1714.17,-708.5 1714.17,-708.5 1717.33,-708.5 1720.5,-711.67 1720.5,-714.83 1720.5,-714.83 1720.5,-721.17 1720.5,-721.17 1720.5,-724.33 1717.33,-727.5 1714.17,-727.5"/>
<text text-anchor="middle" x="1625" y="-715.5" font-family="Arial" font-size="10.00" fill="#c6c5fe">src/app/components/menu&#45;bar/_index.ts</text>
</g>
<!-- src/app/components/_index.ts&#45;&gt;src/app/components/menu&#45;bar/_index.ts -->
<g id="edge12" class="edge">
<title>src/app/components/_index.ts&#45;&gt;src/app/components/menu&#45;bar/_index.ts</title>
<path fill="none" stroke="#757575" d="M210.51,-557.74C221.2,-585.76 256.32,-666.62 316,-699 468.93,-781.96 533.02,-718 707,-718 707,-718 707,-718 1014.5,-718 1191.66,-718 1397.77,-718 1519.21,-718"/>
<polygon fill="#757575" stroke="#757575" points="1519.25,-721.5 1529.25,-718 1519.25,-714.5 1519.25,-721.5"/>
</g>
<!-- src/app/components/nav&#45;logo/_index.ts -->
<g id="node22" class="node">
<title>src/app/components/nav&#45;logo/_index.ts</title>
<path fill="none" stroke="#c6c5fe" d="M1712.67,-310.5C1712.67,-310.5 1537.33,-310.5 1537.33,-310.5 1534.17,-310.5 1531,-307.33 1531,-304.17 1531,-304.17 1531,-297.83 1531,-297.83 1531,-294.67 1534.17,-291.5 1537.33,-291.5 1537.33,-291.5 1712.67,-291.5 1712.67,-291.5 1715.83,-291.5 1719,-294.67 1719,-297.83 1719,-297.83 1719,-304.17 1719,-304.17 1719,-307.33 1715.83,-310.5 1712.67,-310.5"/>
<text text-anchor="middle" x="1625" y="-298.5" font-family="Arial" font-size="10.00" fill="#c6c5fe">src/app/components/nav&#45;logo/_index.ts</text>
</g>
<!-- src/app/components/_index.ts&#45;&gt;src/app/components/nav&#45;logo/_index.ts -->
<g id="edge13" class="edge">
<title>src/app/components/_index.ts&#45;&gt;src/app/components/nav&#45;logo/_index.ts</title>
<path fill="none" stroke="#757575" d="M209.43,-538.09C217.84,-506.03 248.98,-404.6 316,-359 461.25,-260.17 531.32,-301 707,-301 707,-301 707,-301 1014.5,-301 1192.43,-301 1399.57,-301 1520.79,-301"/>
<polygon fill="#757575" stroke="#757575" points="1520.81,-304.5 1530.81,-301 1520.81,-297.5 1520.81,-304.5"/>
</g>
<!-- src/app/components/page&#45;layout/_index.ts -->
<g id="node23" class="node">
<title>src/app/components/page&#45;layout/_index.ts</title>
<path fill="none" stroke="#c6c5fe" d="M515.17,-386.5C515.17,-386.5 326.83,-386.5 326.83,-386.5 323.67,-386.5 320.5,-383.33 320.5,-380.17 320.5,-380.17 320.5,-373.83 320.5,-373.83 320.5,-370.67 323.67,-367.5 326.83,-367.5 326.83,-367.5 515.17,-367.5 515.17,-367.5 518.33,-367.5 521.5,-370.67 521.5,-373.83 521.5,-373.83 521.5,-380.17 521.5,-380.17 521.5,-383.33 518.33,-386.5 515.17,-386.5"/>
<text text-anchor="middle" x="421" y="-374.5" font-family="Arial" font-size="10.00" fill="#c6c5fe">src/app/components/page&#45;layout/_index.ts</text>
</g>
<!-- src/app/components/_index.ts&#45;&gt;src/app/components/page&#45;layout/_index.ts -->
<g id="edge14" class="edge">
<title>src/app/components/_index.ts&#45;&gt;src/app/components/page&#45;layout/_index.ts</title>
<path fill="none" stroke="#757575" d="M211.23,-538.25C223.31,-511.62 260.71,-437.2 316,-401 322.96,-396.44 330.69,-392.74 338.69,-389.74"/>
<polygon fill="#757575" stroke="#757575" points="339.82,-393.05 348.18,-386.53 337.58,-386.42 339.82,-393.05"/>
</g>
<!-- src/app/components/pull&#45;to&#45;refresh/_index.ts -->
<g id="node24" class="node">
<title>src/app/components/pull&#45;to&#45;refresh/_index.ts</title>
<path fill="none" stroke="#c6c5fe" d="M519.67,-652.5C519.67,-652.5 322.33,-652.5 322.33,-652.5 319.17,-652.5 316,-649.33 316,-646.17 316,-646.17 316,-639.83 316,-639.83 316,-636.67 319.17,-633.5 322.33,-633.5 322.33,-633.5 519.67,-633.5 519.67,-633.5 522.83,-633.5 526,-636.67 526,-639.83 526,-639.83 526,-646.17 526,-646.17 526,-649.33 522.83,-652.5 519.67,-652.5"/>
<text text-anchor="middle" x="421" y="-640.5" font-family="Arial" font-size="10.00" fill="#c6c5fe">src/app/components/pull&#45;to&#45;refresh/_index.ts</text>
</g>
<!-- src/app/components/_index.ts&#45;&gt;src/app/components/pull&#45;to&#45;refresh/_index.ts -->
<g id="edge15" class="edge">
<title>src/app/components/_index.ts&#45;&gt;src/app/components/pull&#45;to&#45;refresh/_index.ts</title>
<path fill="none" stroke="#757575" d="M218.63,-557.58C237.75,-572.85 277.55,-602.65 316,-619 327.5,-623.89 340.17,-627.87 352.58,-631.08"/>
<polygon fill="#757575" stroke="#757575" points="351.91,-634.52 362.46,-633.49 353.57,-627.72 351.91,-634.52"/>
</g>
<!-- src/app/components/svg/_index.ts -->
<g id="node25" class="node">
<title>src/app/components/svg/_index.ts</title>
<path fill="none" stroke="#c6c5fe" d="M2349.17,-766.5C2349.17,-766.5 2194.83,-766.5 2194.83,-766.5 2191.67,-766.5 2188.5,-763.33 2188.5,-760.17 2188.5,-760.17 2188.5,-753.83 2188.5,-753.83 2188.5,-750.67 2191.67,-747.5 2194.83,-747.5 2194.83,-747.5 2349.17,-747.5 2349.17,-747.5 2352.33,-747.5 2355.5,-750.67 2355.5,-753.83 2355.5,-753.83 2355.5,-760.17 2355.5,-760.17 2355.5,-763.33 2352.33,-766.5 2349.17,-766.5"/>
<text text-anchor="middle" x="2272" y="-754.5" font-family="Arial" font-size="10.00" fill="#c6c5fe">src/app/components/svg/_index.ts</text>
</g>
<!-- src/app/components/_index.ts&#45;&gt;src/app/components/svg/_index.ts -->
<g id="edge16" class="edge">
<title>src/app/components/_index.ts&#45;&gt;src/app/components/svg/_index.ts</title>
<path fill="none" stroke="#757575" d="M209.21,-557.56C217.12,-589.37 247.33,-692.04 316,-734 390.26,-779.37 619.97,-756 707,-756 707,-756 707,-756 1333.5,-756 1642.93,-756 2009.82,-756.55 2178.16,-756.84"/>
<polygon fill="#757575" stroke="#757575" points="2178.22,-760.34 2188.23,-756.85 2178.24,-753.34 2178.22,-760.34"/>
</g>
<!-- src/app/components/tabbed&#45;response&#45;table/_index.ts -->
<g id="node26" class="node">
<title>src/app/components/tabbed&#45;response&#45;table/_index.ts</title>
<path fill="none" stroke="#c6c5fe" d="M1130.67,-614.5C1130.67,-614.5 896.33,-614.5 896.33,-614.5 893.17,-614.5 890,-611.33 890,-608.17 890,-608.17 890,-601.83 890,-601.83 890,-598.67 893.17,-595.5 896.33,-595.5 896.33,-595.5 1130.67,-595.5 1130.67,-595.5 1133.83,-595.5 1137,-598.67 1137,-601.83 1137,-601.83 1137,-608.17 1137,-608.17 1137,-611.33 1133.83,-614.5 1130.67,-614.5"/>
<text text-anchor="middle" x="1013.5" y="-602.5" font-family="Arial" font-size="10.00" fill="#c6c5fe">src/app/components/tabbed&#45;response&#45;table/_index.ts</text>
</g>
<!-- src/app/components/_index.ts&#45;&gt;src/app/components/tabbed&#45;response&#45;table/_index.ts -->
<g id="edge17" class="edge">
<title>src/app/components/_index.ts&#45;&gt;src/app/components/tabbed&#45;response&#45;table/_index.ts</title>
<path fill="none" stroke="#757575" d="M254.58,-557.55C273.6,-561.04 295.77,-564.69 316,-567 511.3,-589.27 738.94,-598.58 879.4,-602.4"/>
<polygon fill="#757575" stroke="#757575" points="879.69,-605.91 889.78,-602.68 879.87,-598.92 879.69,-605.91"/>
</g>
<!-- src/app/components/text&#45;block/_index.ts -->
<g id="node27" class="node">
<title>src/app/components/text&#45;block/_index.ts</title>
<path fill="none" stroke="#c6c5fe" d="M1715.67,-538.5C1715.67,-538.5 1534.33,-538.5 1534.33,-538.5 1531.17,-538.5 1528,-535.33 1528,-532.17 1528,-532.17 1528,-525.83 1528,-525.83 1528,-522.67 1531.17,-519.5 1534.33,-519.5 1534.33,-519.5 1715.67,-519.5 1715.67,-519.5 1718.83,-519.5 1722,-522.67 1722,-525.83 1722,-525.83 1722,-532.17 1722,-532.17 1722,-535.33 1718.83,-538.5 1715.67,-538.5"/>
<text text-anchor="middle" x="1625" y="-526.5" font-family="Arial" font-size="10.00" fill="#c6c5fe">src/app/components/text&#45;block/_index.ts</text>
</g>
<!-- src/app/components/_index.ts&#45;&gt;src/app/components/text&#45;block/_index.ts -->
<g id="edge18" class="edge">
<title>src/app/components/_index.ts&#45;&gt;src/app/components/text&#45;block/_index.ts</title>
<path fill="none" stroke="#757575" d="M280.25,-543.47C377.66,-537.85 555.2,-529 707,-529 707,-529 707,-529 1014.5,-529 1191.01,-529 1396.28,-529 1517.88,-529"/>
<polygon fill="#757575" stroke="#757575" points="1517.94,-532.5 1527.94,-529 1517.94,-525.5 1517.94,-532.5"/>
</g>
<!-- src/app/components/top&#45;nav/_index.ts -->
<g id="node28" class="node">
<title>src/app/components/top&#45;nav/_index.ts</title>
<path fill="none" stroke="#c6c5fe" d="M1098.67,-462.5C1098.67,-462.5 928.33,-462.5 928.33,-462.5 925.17,-462.5 922,-459.33 922,-456.17 922,-456.17 922,-449.83 922,-449.83 922,-446.67 925.17,-443.5 928.33,-443.5 928.33,-443.5 1098.67,-443.5 1098.67,-443.5 1101.83,-443.5 1105,-446.67 1105,-449.83 1105,-449.83 1105,-456.17 1105,-456.17 1105,-459.33 1101.83,-462.5 1098.67,-462.5"/>
<text text-anchor="middle" x="1013.5" y="-450.5" font-family="Arial" font-size="10.00" fill="#c6c5fe">src/app/components/top&#45;nav/_index.ts</text>
</g>
<!-- src/app/components/_index.ts&#45;&gt;src/app/components/top&#45;nav/_index.ts -->
<g id="edge19" class="edge">
<title>src/app/components/_index.ts&#45;&gt;src/app/components/top&#45;nav/_index.ts</title>
<path fill="none" stroke="#757575" d="M217.42,-538.34C235.71,-522.08 275.51,-489.79 316,-477 423.92,-442.92 746.08,-445.83 911.71,-449.87"/>
<polygon fill="#757575" stroke="#757575" points="911.82,-453.38 921.91,-450.13 912,-446.38 911.82,-453.38"/>
</g>
<!-- src/app/components/ws&#45;table/_index.ts -->
<g id="node29" class="node">
<title>src/app/components/ws&#45;table/_index.ts</title>
<path fill="none" stroke="#c6c5fe" d="M2359.67,-500.5C2359.67,-500.5 2184.33,-500.5 2184.33,-500.5 2181.17,-500.5 2178,-497.33 2178,-494.17 2178,-494.17 2178,-487.83 2178,-487.83 2178,-484.67 2181.17,-481.5 2184.33,-481.5 2184.33,-481.5 2359.67,-481.5 2359.67,-481.5 2362.83,-481.5 2366,-484.67 2366,-487.83 2366,-487.83 2366,-494.17 2366,-494.17 2366,-497.33 2362.83,-500.5 2359.67,-500.5"/>
<text text-anchor="middle" x="2272" y="-488.5" font-family="Arial" font-size="10.00" fill="#c6c5fe">src/app/components/ws&#45;table/_index.ts</text>
</g>
<!-- src/app/components/_index.ts&#45;&gt;src/app/components/ws&#45;table/_index.ts -->
<g id="edge20" class="edge">
<title>src/app/components/_index.ts&#45;&gt;src/app/components/ws&#45;table/_index.ts</title>
<path fill="none" stroke="#757575" d="M253.8,-538.49C273.01,-534.83 295.51,-530.84 316,-528 488.9,-504 532.45,-491 707,-491 707,-491 707,-491 1626,-491 1817.21,-491 2040.29,-491 2167.67,-491"/>
<polygon fill="#757575" stroke="#757575" points="2167.81,-494.5 2177.81,-491 2167.81,-487.5 2167.81,-494.5"/>
</g>
<!-- src/app/directives/view&#45;container&#45;ref.directive.ts -->
<g id="node44" class="node">
<title>src/app/directives/view&#45;container&#45;ref.directive.ts</title>
<path fill="none" stroke="#cfffac" d="M3753.67,-348.5C3753.67,-348.5 3541.33,-348.5 3541.33,-348.5 3538.17,-348.5 3535,-345.33 3535,-342.17 3535,-342.17 3535,-335.83 3535,-335.83 3535,-332.67 3538.17,-329.5 3541.33,-329.5 3541.33,-329.5 3753.67,-329.5 3753.67,-329.5 3756.83,-329.5 3760,-332.67 3760,-335.83 3760,-335.83 3760,-342.17 3760,-342.17 3760,-345.33 3756.83,-348.5 3753.67,-348.5"/>
<text text-anchor="middle" x="3647.5" y="-336.5" font-family="Arial" font-size="10.00" fill="#cfffac">src/app/directives/view&#45;container&#45;ref.directive.ts</text>
</g>
<!-- src/app/directives/_index.ts&#45;&gt;src/app/directives/view&#45;container&#45;ref.directive.ts -->
<g id="edge65" class="edge">
<title>src/app/directives/_index.ts&#45;&gt;src/app/directives/view&#45;container&#45;ref.directive.ts</title>
<path fill="none" stroke="#757575" d="M3487.3,-339C3499.15,-339 3511.81,-339 3524.6,-339"/>
<polygon fill="#757575" stroke="#757575" points="3524.89,-342.5 3534.89,-339 3524.89,-335.5 3524.89,-342.5"/>
</g>
<!-- src/app/models/data&#45;source.ts -->
<g id="node45" class="node">
<title>src/app/models/data&#45;source.ts</title>
<path fill="none" stroke="#c6c5fe" d="M3285.67,-460.5C3285.67,-460.5 3149.33,-460.5 3149.33,-460.5 3146.17,-460.5 3143,-457.33 3143,-454.17 3143,-454.17 3143,-447.83 3143,-447.83 3143,-444.67 3146.17,-441.5 3149.33,-441.5 3149.33,-441.5 3285.67,-441.5 3285.67,-441.5 3288.83,-441.5 3292,-444.67 3292,-447.83 3292,-447.83 3292,-454.17 3292,-454.17 3292,-457.33 3288.83,-460.5 3285.67,-460.5"/>
<text text-anchor="middle" x="3217.5" y="-448.5" font-family="Arial" font-size="10.00" fill="#c6c5fe">src/app/models/data&#45;source.ts</text>
</g>
<!-- src/app/models/_index.ts&#45;&gt;src/app/models/data&#45;source.ts -->
<g id="edge66" class="edge">
<title>src/app/models/_index.ts&#45;&gt;src/app/models/data&#45;source.ts</title>
<path fill="none" stroke="#757575" d="M3085.02,-452.36C3100.08,-452.2 3116.42,-452.03 3132.31,-451.87"/>
<polygon fill="#757575" stroke="#757575" points="3132.7,-455.37 3142.66,-451.76 3132.63,-448.37 3132.7,-455.37"/>
</g>
<!-- src/app/models/dynamic&#45;injector.ts -->
<g id="node46" class="node">
<title>src/app/models/dynamic&#45;injector.ts</title>
<path fill="none" stroke="#cfffac" d="M3295.67,-386.5C3295.67,-386.5 3139.33,-386.5 3139.33,-386.5 3136.17,-386.5 3133,-383.33 3133,-380.17 3133,-380.17 3133,-373.83 3133,-373.83 3133,-370.67 3136.17,-367.5 3139.33,-367.5 3139.33,-367.5 3295.67,-367.5 3295.67,-367.5 3298.83,-367.5 3302,-370.67 3302,-373.83 3302,-373.83 3302,-380.17 3302,-380.17 3302,-383.33 3298.83,-386.5 3295.67,-386.5"/>
<text text-anchor="middle" x="3217.5" y="-374.5" font-family="Arial" font-size="10.00" fill="#cfffac">src/app/models/dynamic&#45;injector.ts</text>
</g>
<!-- src/app/models/_index.ts&#45;&gt;src/app/models/dynamic&#45;injector.ts -->
<g id="edge67" class="edge">
<title>src/app/models/_index.ts&#45;&gt;src/app/models/dynamic&#45;injector.ts</title>
<path fill="none" stroke="#757575" d="M3038.45,-443.38C3059.23,-430.82 3097.65,-408.94 3133,-396 3140.09,-393.41 3147.65,-391.09 3155.21,-389.05"/>
<polygon fill="#757575" stroke="#757575" points="3156.3,-392.39 3165.12,-386.53 3154.57,-385.61 3156.3,-392.39"/>
</g>
<!-- src/app/models/extensions.ts -->
<g id="node47" class="node">
<title>src/app/models/extensions.ts</title>
<path fill="none" stroke="#cfffac" d="M3283.67,-574.5C3283.67,-574.5 3151.33,-574.5 3151.33,-574.5 3148.17,-574.5 3145,-571.33 3145,-568.17 3145,-568.17 3145,-561.83 3145,-561.83 3145,-558.67 3148.17,-555.5 3151.33,-555.5 3151.33,-555.5 3283.67,-555.5 3283.67,-555.5 3286.83,-555.5 3290,-558.67 3290,-561.83 3290,-561.83 3290,-568.17 3290,-568.17 3290,-571.33 3286.83,-574.5 3283.67,-574.5"/>
<text text-anchor="middle" x="3217.5" y="-562.5" font-family="Arial" font-size="10.00" fill="#cfffac">src/app/models/extensions.ts</text>
</g>
<!-- src/app/models/_index.ts&#45;&gt;src/app/models/extensions.ts -->
<g id="edge68" class="edge">
<title>src/app/models/_index.ts&#45;&gt;src/app/models/extensions.ts</title>
<path fill="none" stroke="#757575" d="M3032.37,-462.71C3050.27,-480.71 3091.29,-519.43 3133,-541 3141.84,-545.57 3151.68,-549.38 3161.4,-552.52"/>
<polygon fill="#757575" stroke="#757575" points="3160.46,-555.89 3171.05,-555.44 3162.49,-549.19 3160.46,-555.89"/>
</g>
<!-- src/app/models/general.ts -->
<g id="node48" class="node">
<title>src/app/models/general.ts</title>
<path fill="none" stroke="#c6c5fe" d="M3476.67,-461.5C3476.67,-461.5 3360.33,-461.5 3360.33,-461.5 3357.17,-461.5 3354,-458.33 3354,-455.17 3354,-455.17 3354,-448.83 3354,-448.83 3354,-445.67 3357.17,-442.5 3360.33,-442.5 3360.33,-442.5 3476.67,-442.5 3476.67,-442.5 3479.83,-442.5 3483,-445.67 3483,-448.83 3483,-448.83 3483,-455.17 3483,-455.17 3483,-458.33 3479.83,-461.5 3476.67,-461.5"/>
<text text-anchor="middle" x="3418.5" y="-449.5" font-family="Arial" font-size="10.00" fill="#c6c5fe">src/app/models/general.ts</text>
</g>
<!-- src/app/models/_index.ts&#45;&gt;src/app/models/general.ts -->
<g id="edge69" class="edge">
<title>src/app/models/_index.ts&#45;&gt;src/app/models/general.ts</title>
<path fill="none" stroke="#757575" d="M3073.74,-462.51C3092.31,-465.54 3113.54,-468.51 3133,-470 3207.89,-475.75 3227.11,-475.8 3302,-470 3320.01,-468.6 3339.47,-466 3357.18,-463.2"/>
<polygon fill="#757575" stroke="#757575" points="3358.08,-466.6 3367.38,-461.54 3356.95,-459.69 3358.08,-466.6"/>
</g>
<!-- src/app/models/page&#45;elements.ts -->
<g id="node49" class="node">
<title>src/app/models/page&#45;elements.ts</title>
<path fill="none" stroke="#c6c5fe" d="M3291.67,-423.5C3291.67,-423.5 3143.33,-423.5 3143.33,-423.5 3140.17,-423.5 3137,-420.33 3137,-417.17 3137,-417.17 3137,-410.83 3137,-410.83 3137,-407.67 3140.17,-404.5 3143.33,-404.5 3143.33,-404.5 3291.67,-404.5 3291.67,-404.5 3294.83,-404.5 3298,-407.67 3298,-410.83 3298,-410.83 3298,-417.17 3298,-417.17 3298,-420.33 3294.83,-423.5 3291.67,-423.5"/>
<text text-anchor="middle" x="3217.5" y="-411.5" font-family="Arial" font-size="10.00" fill="#c6c5fe">src/app/models/page&#45;elements.ts</text>
</g>
<!-- src/app/models/_index.ts&#45;&gt;src/app/models/page&#45;elements.ts -->
<g id="edge70" class="edge">
<title>src/app/models/_index.ts&#45;&gt;src/app/models/page&#45;elements.ts</title>
<path fill="none" stroke="#757575" d="M3070.34,-443.46C3097.14,-438.06 3130.86,-431.26 3159.16,-425.56"/>
<polygon fill="#757575" stroke="#757575" points="3160.21,-428.92 3169.32,-423.51 3158.82,-422.05 3160.21,-428.92"/>
</g>
<!-- src/app/models/style&#45;types.ts -->
<g id="node50" class="node">
<title>src/app/models/style&#45;types.ts</title>
<path fill="none" stroke="#cfffac" d="M3714.17,-461.5C3714.17,-461.5 3580.83,-461.5 3580.83,-461.5 3577.67,-461.5 3574.5,-458.33 3574.5,-455.17 3574.5,-455.17 3574.5,-448.83 3574.5,-448.83 3574.5,-445.67 3577.67,-442.5 3580.83,-442.5 3580.83,-442.5 3714.17,-442.5 3714.17,-442.5 3717.33,-442.5 3720.5,-445.67 3720.5,-448.83 3720.5,-448.83 3720.5,-455.17 3720.5,-455.17 3720.5,-458.33 3717.33,-461.5 3714.17,-461.5"/>
<text text-anchor="middle" x="3647.5" y="-449.5" font-family="Arial" font-size="10.00" fill="#cfffac">src/app/models/style&#45;types.ts</text>
</g>
<!-- src/app/models/_index.ts&#45;&gt;src/app/models/style&#45;types.ts -->
<g id="edge71" class="edge">
<title>src/app/models/_index.ts&#45;&gt;src/app/models/style&#45;types.ts</title>
<path fill="none" stroke="#757575" d="M3047.43,-462.58C3069.42,-470.65 3102.82,-481.57 3133,-486 3298.25,-510.25 3495.97,-480.96 3590.63,-463.38"/>
<polygon fill="#757575" stroke="#757575" points="3591.38,-466.8 3600.56,-461.51 3590.08,-459.92 3591.38,-466.8"/>
</g>
<!-- src/app/models/svg/_index.ts -->
<g id="node51" class="node">
<title>src/app/models/svg/_index.ts</title>
<path fill="none" stroke="#c6c5fe" d="M3283.67,-611.5C3283.67,-611.5 3151.33,-611.5 3151.33,-611.5 3148.17,-611.5 3145,-608.33 3145,-605.17 3145,-605.17 3145,-598.83 3145,-598.83 3145,-595.67 3148.17,-592.5 3151.33,-592.5 3151.33,-592.5 3283.67,-592.5 3283.67,-592.5 3286.83,-592.5 3290,-595.67 3290,-598.83 3290,-598.83 3290,-605.17 3290,-605.17 3290,-608.33 3286.83,-611.5 3283.67,-611.5"/>
<text text-anchor="middle" x="3217.5" y="-599.5" font-family="Arial" font-size="10.00" fill="#c6c5fe">src/app/models/svg/_index.ts</text>
</g>
<!-- src/app/models/_index.ts&#45;&gt;src/app/models/svg/_index.ts -->
<g id="edge72" class="edge">
<title>src/app/models/_index.ts&#45;&gt;src/app/models/svg/_index.ts</title>
<path fill="none" stroke="#757575" d="M3028.15,-462.78C3041.69,-487.48 3080.86,-552.58 3133,-584 3135.86,-585.72 3138.86,-587.28 3141.95,-588.69"/>
<polygon fill="#757575" stroke="#757575" points="3140.9,-592.04 3151.48,-592.49 3143.49,-585.54 3140.9,-592.04"/>
</g>
<!-- src/app/services/data&#45;service.ts -->
<g id="node55" class="node">
<title>src/app/services/data&#45;service.ts</title>
<path fill="none" stroke="#c6c5fe" d="M2879.17,-122.5C2879.17,-122.5 2735.83,-122.5 2735.83,-122.5 2732.67,-122.5 2729.5,-119.33 2729.5,-116.17 2729.5,-116.17 2729.5,-109.83 2729.5,-109.83 2729.5,-106.67 2732.67,-103.5 2735.83,-103.5 2735.83,-103.5 2879.17,-103.5 2879.17,-103.5 2882.33,-103.5 2885.5,-106.67 2885.5,-109.83 2885.5,-109.83 2885.5,-116.17 2885.5,-116.17 2885.5,-119.33 2882.33,-122.5 2879.17,-122.5"/>
<text text-anchor="middle" x="2807.5" y="-110.5" font-family="Arial" font-size="10.00" fill="#c6c5fe">src/app/services/data&#45;service.ts</text>
</g>
<!-- src/app/services/_index.ts&#45;&gt;src/app/services/data&#45;service.ts -->
<g id="edge82" class="edge">
<title>src/app/services/_index.ts&#45;&gt;src/app/services/data&#45;service.ts</title>
<path fill="none" stroke="#757575" d="M2610.02,-140.1C2645.34,-135.23 2689.42,-129.15 2726.87,-123.98"/>
<polygon fill="#757575" stroke="#757575" points="2727.81,-127.39 2737.24,-122.55 2726.86,-120.45 2727.81,-127.39"/>
</g>
<!-- src/app/services/log&#45;service.ts -->
<g id="node56" class="node">
<title>src/app/services/log&#45;service.ts</title>
<path fill="none" stroke="#cfffac" d="M3090.67,-85.5C3090.67,-85.5 2953.33,-85.5 2953.33,-85.5 2950.17,-85.5 2947,-82.33 2947,-79.17 2947,-79.17 2947,-72.83 2947,-72.83 2947,-69.67 2950.17,-66.5 2953.33,-66.5 2953.33,-66.5 3090.67,-66.5 3090.67,-66.5 3093.83,-66.5 3097,-69.67 3097,-72.83 3097,-72.83 3097,-79.17 3097,-79.17 3097,-82.33 3093.83,-85.5 3090.67,-85.5"/>
<text text-anchor="middle" x="3022" y="-73.5" font-family="Arial" font-size="10.00" fill="#cfffac">src/app/services/log&#45;service.ts</text>
</g>
<!-- src/app/services/_index.ts&#45;&gt;src/app/services/log&#45;service.ts -->
<g id="edge83" class="edge">
<title>src/app/services/_index.ts&#45;&gt;src/app/services/log&#45;service.ts</title>
<path fill="none" stroke="#757575" d="M2556.85,-139.49C2581.62,-119.46 2643.17,-73.38 2704,-57 2797.55,-31.82 2912.03,-50.16 2974.63,-64.14"/>
<polygon fill="#757575" stroke="#757575" points="2974.06,-67.6 2984.59,-66.42 2975.62,-60.77 2974.06,-67.6"/>
</g>
<!-- src/app/services/theme.service.ts -->
<g id="node57" class="node">
<title>src/app/services/theme.service.ts</title>
<path fill="none" stroke="#c6c5fe" d="M2883.17,-85.5C2883.17,-85.5 2731.83,-85.5 2731.83,-85.5 2728.67,-85.5 2725.5,-82.33 2725.5,-79.17 2725.5,-79.17 2725.5,-72.83 2725.5,-72.83 2725.5,-69.67 2728.67,-66.5 2731.83,-66.5 2731.83,-66.5 2883.17,-66.5 2883.17,-66.5 2886.33,-66.5 2889.5,-69.67 2889.5,-72.83 2889.5,-72.83 2889.5,-79.17 2889.5,-79.17 2889.5,-82.33 2886.33,-85.5 2883.17,-85.5"/>
<text text-anchor="middle" x="2807.5" y="-73.5" font-family="Arial" font-size="10.00" fill="#c6c5fe">src/app/services/theme.service.ts</text>
</g>
<!-- src/app/services/_index.ts&#45;&gt;src/app/services/theme.service.ts -->
<g id="edge84" class="edge">
<title>src/app/services/_index.ts&#45;&gt;src/app/services/theme.service.ts</title>
<path fill="none" stroke="#757575" d="M2569.3,-139.4C2599.99,-127.33 2655.23,-106.66 2704,-94 2713.28,-91.59 2723.12,-89.41 2732.88,-87.46"/>
<polygon fill="#757575" stroke="#757575" points="2733.84,-90.84 2743,-85.52 2732.52,-83.96 2733.84,-90.84"/>
</g>
<!-- src/app/services/toast&#45;service.ts -->
<g id="node58" class="node">
<title>src/app/services/toast&#45;service.ts</title>
<path fill="none" stroke="#c6c5fe" d="M2880.67,-196.5C2880.67,-196.5 2734.33,-196.5 2734.33,-196.5 2731.17,-196.5 2728,-193.33 2728,-190.17 2728,-190.17 2728,-183.83 2728,-183.83 2728,-180.67 2731.17,-177.5 2734.33,-177.5 2734.33,-177.5 2880.67,-177.5 2880.67,-177.5 2883.83,-177.5 2887,-180.67 2887,-183.83 2887,-183.83 2887,-190.17 2887,-190.17 2887,-193.33 2883.83,-196.5 2880.67,-196.5"/>
<text text-anchor="middle" x="2807.5" y="-184.5" font-family="Arial" font-size="10.00" fill="#c6c5fe">src/app/services/toast&#45;service.ts</text>
</g>
<!-- src/app/services/_index.ts&#45;&gt;src/app/services/toast&#45;service.ts -->
<g id="edge85" class="edge">
<title>src/app/services/_index.ts&#45;&gt;src/app/services/toast&#45;service.ts</title>
<path fill="none" stroke="#757575" d="M2610.02,-158.39C2646.6,-163.72 2692.57,-170.41 2730.85,-175.99"/>
<polygon fill="#757575" stroke="#757575" points="2730.51,-179.47 2740.91,-177.45 2731.52,-172.55 2730.51,-179.47"/>
</g>
<!-- src/app/services/utils.ts -->
<g id="node59" class="node">
<title>src/app/services/utils.ts</title>
<path fill="none" stroke="#c6c5fe" d="M2861.67,-159.5C2861.67,-159.5 2753.33,-159.5 2753.33,-159.5 2750.17,-159.5 2747,-156.33 2747,-153.17 2747,-153.17 2747,-146.83 2747,-146.83 2747,-143.67 2750.17,-140.5 2753.33,-140.5 2753.33,-140.5 2861.67,-140.5 2861.67,-140.5 2864.83,-140.5 2868,-143.67 2868,-146.83 2868,-146.83 2868,-153.17 2868,-153.17 2868,-156.33 2864.83,-159.5 2861.67,-159.5"/>
<text text-anchor="middle" x="2807.5" y="-147.5" font-family="Arial" font-size="10.00" fill="#c6c5fe">src/app/services/utils.ts</text>
</g>
<!-- src/app/services/_index.ts&#45;&gt;src/app/services/utils.ts -->
<g id="edge86" class="edge">
<title>src/app/services/_index.ts&#45;&gt;src/app/services/utils.ts</title>
<path fill="none" stroke="#757575" d="M2610.02,-149.25C2648.48,-149.39 2697.33,-149.58 2736.69,-149.73"/>
<polygon fill="#757575" stroke="#757575" points="2736.73,-153.23 2746.75,-149.77 2736.76,-146.23 2736.73,-153.23"/>
</g>
<!-- src/app/type&#45;guards/general&#45;type&#45;guards.ts -->
<g id="node60" class="node">
<title>src/app/type&#45;guards/general&#45;type&#45;guards.ts</title>
<path fill="none" stroke="#c6c5fe" d="M2902.67,-614.5C2902.67,-614.5 2712.33,-614.5 2712.33,-614.5 2709.17,-614.5 2706,-611.33 2706,-608.17 2706,-608.17 2706,-601.83 2706,-601.83 2706,-598.67 2709.17,-595.5 2712.33,-595.5 2712.33,-595.5 2902.67,-595.5 2902.67,-595.5 2905.83,-595.5 2909,-598.67 2909,-601.83 2909,-601.83 2909,-608.17 2909,-608.17 2909,-611.33 2905.83,-614.5 2902.67,-614.5"/>
<text text-anchor="middle" x="2807.5" y="-602.5" font-family="Arial" font-size="10.00" fill="#c6c5fe">src/app/type&#45;guards/general&#45;type&#45;guards.ts</text>
</g>
<!-- src/app/type&#45;guards/_index.ts&#45;&gt;src/app/type&#45;guards/general&#45;type&#45;guards.ts -->
<g id="edge93" class="edge">
<title>src/app/type&#45;guards/_index.ts&#45;&gt;src/app/type&#45;guards/general&#45;type&#45;guards.ts</title>
<path fill="none" stroke="#757575" d="M2338.45,-576.52C2364.14,-579.97 2393.91,-583.6 2421,-586 2513.3,-594.19 2618.38,-599.07 2695.49,-601.84"/>
<polygon fill="#757575" stroke="#757575" points="2695.59,-605.34 2705.7,-602.2 2695.83,-598.35 2695.59,-605.34"/>
</g>
<!-- src/app/type&#45;guards/page&#45;type&#45;guards.ts -->
<g id="node61" class="node">
<title>src/app/type&#45;guards/page&#45;type&#45;guards.ts</title>
<path fill="none" stroke="#c6c5fe" d="M2634.17,-576.5C2634.17,-576.5 2454.83,-576.5 2454.83,-576.5 2451.67,-576.5 2448.5,-573.33 2448.5,-570.17 2448.5,-570.17 2448.5,-563.83 2448.5,-563.83 2448.5,-560.67 2451.67,-557.5 2454.83,-557.5 2454.83,-557.5 2634.17,-557.5 2634.17,-557.5 2637.33,-557.5 2640.5,-560.67 2640.5,-563.83 2640.5,-563.83 2640.5,-570.17 2640.5,-570.17 2640.5,-573.33 2637.33,-576.5 2634.17,-576.5"/>
<text text-anchor="middle" x="2544.5" y="-564.5" font-family="Arial" font-size="10.00" fill="#c6c5fe">src/app/type&#45;guards/page&#45;type&#45;guards.ts</text>
</g>
<!-- src/app/type&#45;guards/_index.ts&#45;&gt;src/app/type&#45;guards/page&#45;type&#45;guards.ts -->
<g id="edge94" class="edge">
<title>src/app/type&#45;guards/_index.ts&#45;&gt;src/app/type&#45;guards/page&#45;type&#45;guards.ts</title>
<path fill="none" stroke="#757575" d="M2345.13,-567C2373.73,-567 2407.18,-567 2438.38,-567"/>
<polygon fill="#757575" stroke="#757575" points="2438.42,-570.5 2448.42,-567 2438.42,-563.5 2438.42,-570.5"/>
</g>
<!-- package&#45;lock.json -->
<g id="node14" class="node">
<title>package&#45;lock.json</title>
<path fill="none" stroke="#cfffac" d="M89.17,-442.5C89.17,-442.5 6.83,-442.5 6.83,-442.5 3.67,-442.5 0.5,-439.33 0.5,-436.17 0.5,-436.17 0.5,-429.83 0.5,-429.83 0.5,-426.67 3.67,-423.5 6.83,-423.5 6.83,-423.5 89.17,-423.5 89.17,-423.5 92.33,-423.5 95.5,-426.67 95.5,-429.83 95.5,-429.83 95.5,-436.17 95.5,-436.17 95.5,-439.33 92.33,-442.5 89.17,-442.5"/>
<text text-anchor="middle" x="48" y="-430.5" font-family="Arial" font-size="10.00" fill="#cfffac">package&#45;lock.json</text>
</g>
<!-- package.json -->
<g id="node15" class="node">
<title>package.json</title>
<path fill="none" stroke="#cfffac" d="M78.67,-479.5C78.67,-479.5 17.33,-479.5 17.33,-479.5 14.17,-479.5 11,-476.33 11,-473.17 11,-473.17 11,-466.83 11,-466.83 11,-463.67 14.17,-460.5 17.33,-460.5 17.33,-460.5 78.67,-460.5 78.67,-460.5 81.83,-460.5 85,-463.67 85,-466.83 85,-466.83 85,-473.17 85,-473.17 85,-476.33 81.83,-479.5 78.67,-479.5"/>
<text text-anchor="middle" x="48" y="-467.5" font-family="Arial" font-size="10.00" fill="#cfffac">package.json</text>
</g>
<!-- src/app/components/blockable&#45;ui/blockable&#45;ui.component.ts -->
<g id="node30" class="node">
<title>src/app/components/blockable&#45;ui/blockable&#45;ui.component.ts</title>
<path fill="none" stroke="#cfffac" d="M840.17,-689.5C840.17,-689.5 575.83,-689.5 575.83,-689.5 572.67,-689.5 569.5,-686.33 569.5,-683.17 569.5,-683.17 569.5,-676.83 569.5,-676.83 569.5,-673.67 572.67,-670.5 575.83,-670.5 575.83,-670.5 840.17,-670.5 840.17,-670.5 843.33,-670.5 846.5,-673.67 846.5,-676.83 846.5,-676.83 846.5,-683.17 846.5,-683.17 846.5,-686.33 843.33,-689.5 840.17,-689.5"/>
<text text-anchor="middle" x="708" y="-677.5" font-family="Arial" font-size="10.00" fill="#cfffac">src/app/components/blockable&#45;ui/blockable&#45;ui.component.ts</text>
</g>
<!-- src/app/components/blockable&#45;ui/_index.ts&#45;&gt;src/app/components/blockable&#45;ui/blockable&#45;ui.component.ts -->
<g id="edge21" class="edge">
<title>src/app/components/blockable&#45;ui/_index.ts&#45;&gt;src/app/components/blockable&#45;ui/blockable&#45;ui.component.ts</title>
<path fill="none" stroke="#757575" d="M522.88,-680C534.64,-680 546.81,-680 559.04,-680"/>
<polygon fill="#757575" stroke="#757575" points="559.32,-683.5 569.32,-680 559.32,-676.5 559.32,-683.5"/>
</g>
<!-- src/app/components/dynamic/dynamic.component.ts -->
<g id="node31" class="node">
<title>src/app/components/dynamic/dynamic.component.ts</title>
<path fill="none" stroke="#c6c5fe" d="M2057.67,-386.5C2057.67,-386.5 1823.33,-386.5 1823.33,-386.5 1820.17,-386.5 1817,-383.33 1817,-380.17 1817,-380.17 1817,-373.83 1817,-373.83 1817,-370.67 1820.17,-367.5 1823.33,-367.5 1823.33,-367.5 2057.67,-367.5 2057.67,-367.5 2060.83,-367.5 2064,-370.67 2064,-373.83 2064,-373.83 2064,-380.17 2064,-380.17 2064,-383.33 2060.83,-386.5 2057.67,-386.5"/>
<text text-anchor="middle" x="1940.5" y="-374.5" font-family="Arial" font-size="10.00" fill="#c6c5fe">src/app/components/dynamic/dynamic.component.ts</text>
</g>
<!-- src/app/components/dynamic/_index.ts&#45;&gt;src/app/components/dynamic/dynamic.component.ts -->
<g id="edge22" class="edge">
<title>src/app/components/dynamic/_index.ts&#45;&gt;src/app/components/dynamic/dynamic.component.ts</title>
<path fill="none" stroke="#757575" d="M1719.21,-377C1746.58,-377 1777.05,-377 1806.4,-377"/>
<polygon fill="#757575" stroke="#757575" points="1806.73,-380.5 1816.73,-377 1806.73,-373.5 1806.73,-380.5"/>
</g>
<!-- src/app/components/element&#45;renderer/element&#45;renderer.component.ts -->
<g id="node32" class="node">
<title>src/app/components/element&#45;renderer/element&#45;renderer.component.ts</title>
<path fill="none" stroke="#c6c5fe" d="M1485.67,-576.5C1485.67,-576.5 1179.33,-576.5 1179.33,-576.5 1176.17,-576.5 1173,-573.33 1173,-570.17 1173,-570.17 1173,-563.83 1173,-563.83 1173,-560.67 1176.17,-557.5 1179.33,-557.5 1179.33,-557.5 1485.67,-557.5 1485.67,-557.5 1488.83,-557.5 1492,-560.67 1492,-563.83 1492,-563.83 1492,-570.17 1492,-570.17 1492,-573.33 1488.83,-576.5 1485.67,-576.5"/>
<text text-anchor="middle" x="1332.5" y="-564.5" font-family="Arial" font-size="10.00" fill="#c6c5fe">src/app/components/element&#45;renderer/element&#45;renderer.component.ts</text>
</g>
<!-- src/app/components/element&#45;renderer/_index.ts&#45;&gt;src/app/components/element&#45;renderer/element&#45;renderer.component.ts -->
<g id="edge26" class="edge">
<title>src/app/components/element&#45;renderer/_index.ts&#45;&gt;src/app/components/element&#45;renderer/element&#45;renderer.component.ts</title>
<path fill="none" stroke="#757575" d="M1125.82,-567C1137.85,-567 1150.29,-567 1162.81,-567"/>
<polygon fill="#757575" stroke="#757575" points="1162.86,-570.5 1172.86,-567 1162.86,-563.5 1162.86,-570.5"/>
</g>
<!-- src/app/components/image/image.component.ts -->
<g id="node33" class="node">
<title>src/app/components/image/image.component.ts</title>
<path fill="none" stroke="#c6c5fe" d="M2378.67,-804.5C2378.67,-804.5 2165.33,-804.5 2165.33,-804.5 2162.17,-804.5 2159,-801.33 2159,-798.17 2159,-798.17 2159,-791.83 2159,-791.83 2159,-788.67 2162.17,-785.5 2165.33,-785.5 2165.33,-785.5 2378.67,-785.5 2378.67,-785.5 2381.83,-785.5 2385,-788.67 2385,-791.83 2385,-791.83 2385,-798.17 2385,-798.17 2385,-801.33 2381.83,-804.5 2378.67,-804.5"/>
<text text-anchor="middle" x="2272" y="-792.5" font-family="Arial" font-size="10.00" fill="#c6c5fe">src/app/components/image/image.component.ts</text>
</g>
<!-- src/app/components/image/_index.ts&#45;&gt;src/app/components/image/image.component.ts -->
<g id="edge33" class="edge">
<title>src/app/components/image/_index.ts&#45;&gt;src/app/components/image/image.component.ts</title>
<path fill="none" stroke="#757575" d="M1713.66,-794.14C1826.09,-794.31 2021.69,-794.61 2148.72,-794.81"/>
<polygon fill="#757575" stroke="#757575" points="2148.88,-798.31 2158.88,-794.83 2148.89,-791.31 2148.88,-798.31"/>
</g>
<!-- src/app/components/menu&#45;bar/menu&#45;bar.component.ts -->
<g id="node34" class="node">
<title>src/app/components/menu&#45;bar/menu&#45;bar.component.ts</title>
<path fill="none" stroke="#c6c5fe" d="M2061.17,-728.5C2061.17,-728.5 1819.83,-728.5 1819.83,-728.5 1816.67,-728.5 1813.5,-725.33 1813.5,-722.17 1813.5,-722.17 1813.5,-715.83 1813.5,-715.83 1813.5,-712.67 1816.67,-709.5 1819.83,-709.5 1819.83,-709.5 2061.17,-709.5 2061.17,-709.5 2064.33,-709.5 2067.5,-712.67 2067.5,-715.83 2067.5,-715.83 2067.5,-722.17 2067.5,-722.17 2067.5,-725.33 2064.33,-728.5 2061.17,-728.5"/>
<text text-anchor="middle" x="1940.5" y="-716.5" font-family="Arial" font-size="10.00" fill="#c6c5fe">src/app/components/menu&#45;bar/menu&#45;bar.component.ts</text>
</g>
<!-- src/app/components/menu&#45;bar/_index.ts&#45;&gt;src/app/components/menu&#45;bar/menu&#45;bar.component.ts -->
<g id="edge35" class="edge">
<title>src/app/components/menu&#45;bar/_index.ts&#45;&gt;src/app/components/menu&#45;bar/menu&#45;bar.component.ts</title>
<path fill="none" stroke="#757575" d="M1720.91,-718.3C1746.83,-718.39 1775.44,-718.48 1803.18,-718.57"/>
<polygon fill="#757575" stroke="#757575" points="1803.34,-722.07 1813.36,-718.6 1803.37,-715.07 1803.34,-722.07"/>
</g>
<!-- src/app/components/nav&#45;logo/nav&#45;logo.component.ts -->
<g id="node35" class="node">
<title>src/app/components/nav&#45;logo/nav&#45;logo.component.ts</title>
<path fill="none" stroke="#c6c5fe" d="M2057.67,-291.5C2057.67,-291.5 1823.33,-291.5 1823.33,-291.5 1820.17,-291.5 1817,-288.33 1817,-285.17 1817,-285.17 1817,-278.83 1817,-278.83 1817,-275.67 1820.17,-272.5 1823.33,-272.5 1823.33,-272.5 2057.67,-272.5 2057.67,-272.5 2060.83,-272.5 2064,-275.67 2064,-278.83 2064,-278.83 2064,-285.17 2064,-285.17 2064,-288.33 2060.83,-291.5 2057.67,-291.5"/>
<text text-anchor="middle" x="1940.5" y="-279.5" font-family="Arial" font-size="10.00" fill="#c6c5fe">src/app/components/nav&#45;logo/nav&#45;logo.component.ts</text>
</g>
<!-- src/app/components/nav&#45;logo/_index.ts&#45;&gt;src/app/components/nav&#45;logo/nav&#45;logo.component.ts -->
<g id="edge39" class="edge">
<title>src/app/components/nav&#45;logo/_index.ts&#45;&gt;src/app/components/nav&#45;logo/nav&#45;logo.component.ts</title>
<path fill="none" stroke="#757575" d="M1719.21,-295.35C1746.58,-293.69 1777.05,-291.85 1806.4,-290.07"/>
<polygon fill="#757575" stroke="#757575" points="1806.96,-293.54 1816.73,-289.44 1806.53,-286.55 1806.96,-293.54"/>
</g>
<!-- src/app/components/page&#45;layout/page&#45;layout.component.ts -->
<g id="node36" class="node">
<title>src/app/components/page&#45;layout/page&#45;layout.component.ts</title>
<path fill="none" stroke="#c6c5fe" d="M838.67,-386.5C838.67,-386.5 577.33,-386.5 577.33,-386.5 574.17,-386.5 571,-383.33 571,-380.17 571,-380.17 571,-373.83 571,-373.83 571,-370.67 574.17,-367.5 577.33,-367.5 577.33,-367.5 838.67,-367.5 838.67,-367.5 841.83,-367.5 845,-370.67 845,-373.83 845,-373.83 845,-380.17 845,-380.17 845,-383.33 841.83,-386.5 838.67,-386.5"/>
<text text-anchor="middle" x="708" y="-374.5" font-family="Arial" font-size="10.00" fill="#c6c5fe">src/app/components/page&#45;layout/page&#45;layout.component.ts</text>
</g>
<!-- src/app/components/page&#45;layout/_index.ts&#45;&gt;src/app/components/page&#45;layout/page&#45;layout.component.ts -->
<g id="edge41" class="edge">
<title>src/app/components/page&#45;layout/_index.ts&#45;&gt;src/app/components/page&#45;layout/page&#45;layout.component.ts</title>
<path fill="none" stroke="#757575" d="M521.68,-377C534.34,-377 547.5,-377 560.71,-377"/>
<polygon fill="#757575" stroke="#757575" points="560.81,-380.5 570.81,-377 560.81,-373.5 560.81,-380.5"/>
</g>
<!-- src/app/components/pull&#45;to&#45;refresh/pull&#45;to&#45;refresh.component.ts -->
<g id="node37" class="node">
<title>src/app/components/pull&#45;to&#45;refresh/pull&#45;to&#45;refresh.component.ts</title>
<path fill="none" stroke="#cfffac" d="M847.67,-652.5C847.67,-652.5 568.33,-652.5 568.33,-652.5 565.17,-652.5 562,-649.33 562,-646.17 562,-646.17 562,-639.83 562,-639.83 562,-636.67 565.17,-633.5 568.33,-633.5 568.33,-633.5 847.67,-633.5 847.67,-633.5 850.83,-633.5 854,-636.67 854,-639.83 854,-639.83 854,-646.17 854,-646.17 854,-649.33 850.83,-652.5 847.67,-652.5"/>
<text text-anchor="middle" x="708" y="-640.5" font-family="Arial" font-size="10.00" fill="#cfffac">src/app/components/pull&#45;to&#45;refresh/pull&#45;to&#45;refresh.component.ts</text>
</g>
<!-- src/app/components/pull&#45;to&#45;refresh/_index.ts&#45;&gt;src/app/components/pull&#45;to&#45;refresh/pull&#45;to&#45;refresh.component.ts -->
<g id="edge46" class="edge">
<title>src/app/components/pull&#45;to&#45;refresh/_index.ts&#45;&gt;src/app/components/pull&#45;to&#45;refresh/pull&#45;to&#45;refresh.component.ts</title>
<path fill="none" stroke="#757575" d="M526.1,-643C534.44,-643 542.98,-643 551.57,-643"/>
<polygon fill="#757575" stroke="#757575" points="551.69,-646.5 561.69,-643 551.69,-639.5 551.69,-646.5"/>
</g>
<!-- src/app/components/svg/svg.component.ts -->
<g id="node38" class="node">
<title>src/app/components/svg/svg.component.ts</title>
<path fill="none" stroke="#cfffac" d="M2640.67,-766.5C2640.67,-766.5 2448.33,-766.5 2448.33,-766.5 2445.17,-766.5 2442,-763.33 2442,-760.17 2442,-760.17 2442,-753.83 2442,-753.83 2442,-750.67 2445.17,-747.5 2448.33,-747.5 2448.33,-747.5 2640.67,-747.5 2640.67,-747.5 2643.83,-747.5 2647,-750.67 2647,-753.83 2647,-753.83 2647,-760.17 2647,-760.17 2647,-763.33 2643.83,-766.5 2640.67,-766.5"/>
<text text-anchor="middle" x="2544.5" y="-754.5" font-family="Arial" font-size="10.00" fill="#cfffac">src/app/components/svg/svg.component.ts</text>
</g>
<!-- src/app/components/svg/_index.ts&#45;&gt;src/app/components/svg/svg.component.ts -->
<g id="edge47" class="edge">
<title>src/app/components/svg/_index.ts&#45;&gt;src/app/components/svg/svg.component.ts</title>
<path fill="none" stroke="#757575" d="M2355.63,-757C2379.63,-757 2406.26,-757 2431.73,-757"/>
<polygon fill="#757575" stroke="#757575" points="2431.81,-760.5 2441.81,-757 2431.81,-753.5 2431.81,-760.5"/>
</g>
<!-- src/app/components/tabbed&#45;response&#45;table/tabbed&#45;response&#45;table.component.ts -->
<g id="node39" class="node">
<title>src/app/components/tabbed&#45;response&#45;table/tabbed&#45;response&#45;table.component.ts</title>
<path fill="none" stroke="#c6c5fe" d="M2116.67,-614.5C2116.67,-614.5 1764.33,-614.5 1764.33,-614.5 1761.17,-614.5 1758,-611.33 1758,-608.17 1758,-608.17 1758,-601.83 1758,-601.83 1758,-598.67 1761.17,-595.5 1764.33,-595.5 1764.33,-595.5 2116.67,-595.5 2116.67,-595.5 2119.83,-595.5 2123,-598.67 2123,-601.83 2123,-601.83 2123,-608.17 2123,-608.17 2123,-611.33 2119.83,-614.5 2116.67,-614.5"/>
<text text-anchor="middle" x="1940.5" y="-602.5" font-family="Arial" font-size="10.00" fill="#c6c5fe">src/app/components/tabbed&#45;response&#45;table/tabbed&#45;response&#45;table.component.ts</text>
</g>
<!-- src/app/components/tabbed&#45;response&#45;table/_index.ts&#45;&gt;src/app/components/tabbed&#45;response&#45;table/tabbed&#45;response&#45;table.component.ts -->
<g id="edge48" class="edge">
<title>src/app/components/tabbed&#45;response&#45;table/_index.ts&#45;&gt;src/app/components/tabbed&#45;response&#45;table/tabbed&#45;response&#45;table.component.ts</title>
<path fill="none" stroke="#757575" d="M1137.33,-605C1293.32,-605 1564.2,-605 1747.56,-605"/>
<polygon fill="#757575" stroke="#757575" points="1747.59,-608.5 1757.59,-605 1747.59,-601.5 1747.59,-608.5"/>
</g>
<!-- src/app/components/text&#45;block/text&#45;block.component.ts -->
<g id="node40" class="node">
<title>src/app/components/text&#45;block/text&#45;block.component.ts</title>
<path fill="none" stroke="#c6c5fe" d="M2063.67,-538.5C2063.67,-538.5 1817.33,-538.5 1817.33,-538.5 1814.17,-538.5 1811,-535.33 1811,-532.17 1811,-532.17 1811,-525.83 1811,-525.83 1811,-522.67 1814.17,-519.5 1817.33,-519.5 1817.33,-519.5 2063.67,-519.5 2063.67,-519.5 2066.83,-519.5 2070,-522.67 2070,-525.83 2070,-525.83 2070,-532.17 2070,-532.17 2070,-535.33 2066.83,-538.5 2063.67,-538.5"/>
<text text-anchor="middle" x="1940.5" y="-526.5" font-family="Arial" font-size="10.00" fill="#c6c5fe">src/app/components/text&#45;block/text&#45;block.component.ts</text>
</g>
<!-- src/app/components/text&#45;block/_index.ts&#45;&gt;src/app/components/text&#45;block/text&#45;block.component.ts -->
<g id="edge52" class="edge">
<title>src/app/components/text&#45;block/_index.ts&#45;&gt;src/app/components/text&#45;block/text&#45;block.component.ts</title>
<path fill="none" stroke="#757575" d="M1722.19,-529C1747.01,-529 1774.22,-529 1800.74,-529"/>
<polygon fill="#757575" stroke="#757575" points="1800.86,-532.5 1810.86,-529 1800.86,-525.5 1800.86,-532.5"/>
</g>
<!-- src/app/components/top&#45;nav/top&#45;nav.component.ts -->
<g id="node41" class="node">
<title>src/app/components/top&#45;nav/top&#45;nav.component.ts</title>
<path fill="none" stroke="#c6c5fe" d="M1444.67,-462.5C1444.67,-462.5 1220.33,-462.5 1220.33,-462.5 1217.17,-462.5 1214,-459.33 1214,-456.17 1214,-456.17 1214,-449.83 1214,-449.83 1214,-446.67 1217.17,-443.5 1220.33,-443.5 1220.33,-443.5 1444.67,-443.5 1444.67,-443.5 1447.83,-443.5 1451,-446.67 1451,-449.83 1451,-449.83 1451,-456.17 1451,-456.17 1451,-459.33 1447.83,-462.5 1444.67,-462.5"/>
<text text-anchor="middle" x="1332.5" y="-450.5" font-family="Arial" font-size="10.00" fill="#c6c5fe">src/app/components/top&#45;nav/top&#45;nav.component.ts</text>
</g>
<!-- src/app/components/top&#45;nav/_index.ts&#45;&gt;src/app/components/top&#45;nav/top&#45;nav.component.ts -->
<g id="edge55" class="edge">
<title>src/app/components/top&#45;nav/_index.ts&#45;&gt;src/app/components/top&#45;nav/top&#45;nav.component.ts</title>
<path fill="none" stroke="#757575" d="M1105.34,-453C1135.93,-453 1170.66,-453 1203.56,-453"/>
<polygon fill="#757575" stroke="#757575" points="1203.71,-456.5 1213.71,-453 1203.71,-449.5 1203.71,-456.5"/>
</g>
<!-- src/app/components/ws&#45;table/table&#45;types.ts -->
<g id="node42" class="node">
<title>src/app/components/ws&#45;table/table&#45;types.ts</title>
<path fill="none" stroke="#c6c5fe" d="M2904.67,-500.5C2904.67,-500.5 2710.33,-500.5 2710.33,-500.5 2707.17,-500.5 2704,-497.33 2704,-494.17 2704,-494.17 2704,-487.83 2704,-487.83 2704,-484.67 2707.17,-481.5 2710.33,-481.5 2710.33,-481.5 2904.67,-481.5 2904.67,-481.5 2907.83,-481.5 2911,-484.67 2911,-487.83 2911,-487.83 2911,-494.17 2911,-494.17 2911,-497.33 2907.83,-500.5 2904.67,-500.5"/>
<text text-anchor="middle" x="2807.5" y="-488.5" font-family="Arial" font-size="10.00" fill="#c6c5fe">src/app/components/ws&#45;table/table&#45;types.ts</text>
</g>
<!-- src/app/components/ws&#45;table/_index.ts&#45;&gt;src/app/components/ws&#45;table/table&#45;types.ts -->
<g id="edge60" class="edge">
<title>src/app/components/ws&#45;table/_index.ts&#45;&gt;src/app/components/ws&#45;table/table&#45;types.ts</title>
<path fill="none" stroke="#757575" d="M2366.23,-491C2457.39,-491 2596.31,-491 2693.66,-491"/>
<polygon fill="#757575" stroke="#757575" points="2693.84,-494.5 2703.84,-491 2693.84,-487.5 2693.84,-494.5"/>
</g>
<!-- src/app/components/ws&#45;table/ws&#45;table.component.ts -->
<g id="node43" class="node">
<title>src/app/components/ws&#45;table/ws&#45;table.component.ts</title>
<path fill="none" stroke="#c6c5fe" d="M2661.67,-462.5C2661.67,-462.5 2427.33,-462.5 2427.33,-462.5 2424.17,-462.5 2421,-459.33 2421,-456.17 2421,-456.17 2421,-449.83 2421,-449.83 2421,-446.67 2424.17,-443.5 2427.33,-443.5 2427.33,-443.5 2661.67,-443.5 2661.67,-443.5 2664.83,-443.5 2668,-446.67 2668,-449.83 2668,-449.83 2668,-456.17 2668,-456.17 2668,-459.33 2664.83,-462.5 2661.67,-462.5"/>
<text text-anchor="middle" x="2544.5" y="-450.5" font-family="Arial" font-size="10.00" fill="#c6c5fe">src/app/components/ws&#45;table/ws&#45;table.component.ts</text>
</g>
<!-- src/app/components/ws&#45;table/_index.ts&#45;&gt;src/app/components/ws&#45;table/ws&#45;table.component.ts -->
<g id="edge61" class="edge">
<title>src/app/components/ws&#45;table/_index.ts&#45;&gt;src/app/components/ws&#45;table/ws&#45;table.component.ts</title>
<path fill="none" stroke="#757575" d="M2340.91,-481.46C2378.77,-476.14 2426.09,-469.49 2465.47,-463.96"/>
<polygon fill="#757575" stroke="#757575" points="2466.15,-467.4 2475.56,-462.54 2465.17,-460.47 2466.15,-467.4"/>
</g>
<!-- src/app/components/dynamic/dynamic.component.ts&#45;&gt;src/app/models/_index.ts -->
<g id="edge23" class="edge">
<title>src/app/components/dynamic/dynamic.component.ts&#45;&gt;src/app/models/_index.ts</title>
<path fill="none" stroke="#757575" d="M2064.37,-373.73C2288.24,-368.81 2753.95,-363.7 2911,-401 2942.51,-408.48 2975.73,-425.65 2997.31,-438.22"/>
<polygon fill="#757575" stroke="#757575" points="2995.7,-441.34 3006.08,-443.46 2999.29,-435.33 2995.7,-441.34"/>
</g>
<!-- src/app/components/dynamic/dynamic.component.ts&#45;&gt;src/app/services/_index.ts -->
<g id="edge24" class="edge">
<title>src/app/components/dynamic/dynamic.component.ts&#45;&gt;src/app/services/_index.ts</title>
<path fill="none" stroke="#757575" d="M1966.6,-367.49C2061.55,-331.53 2398.89,-203.77 2508.69,-162.18"/>
<polygon fill="#757575" stroke="#757575" points="2510.18,-165.36 2518.29,-158.55 2507.7,-158.82 2510.18,-165.36"/>
</g>
<!-- src/app/components/dynamic/dynamic.component.ts&#45;&gt;src/app/type&#45;guards/_index.ts -->
<g id="edge25" class="edge">
<title>src/app/components/dynamic/dynamic.component.ts&#45;&gt;src/app/type&#45;guards/_index.ts</title>
<path fill="none" stroke="#757575" d="M1956.29,-386.6C1991.1,-409.07 2081.16,-466.48 2159,-510 2186.66,-525.46 2218.99,-541.73 2241.78,-552.91"/>
<polygon fill="#757575" stroke="#757575" points="2240.4,-556.13 2250.93,-557.37 2243.47,-549.84 2240.4,-556.13"/>
</g>
<!-- src/app/components/element&#45;renderer/element&#45;renderer.component.ts&#45;&gt;src/app/directives/_index.ts -->
<g id="edge30" class="edge">
<title>src/app/components/element&#45;renderer/element&#45;renderer.component.ts&#45;&gt;src/app/directives/_index.ts</title>
<path fill="none" stroke="#757575" d="M1360.49,-557.5C1397.7,-544.8 1467.07,-522.55 1528,-511 2231.98,-377.52 2418.9,-417.91 3133,-359 3202.94,-353.23 3282.65,-347.72 3339.87,-343.95"/>
<polygon fill="#757575" stroke="#757575" points="3340.17,-347.44 3349.92,-343.29 3339.71,-340.45 3340.17,-347.44"/>
</g>
<!-- src/app/components/element&#45;renderer/element&#45;renderer.component.ts&#45;&gt;src/app/models/_index.ts -->
<g id="edge31" class="edge">
<title>src/app/components/element&#45;renderer/element&#45;renderer.component.ts&#45;&gt;src/app/models/_index.ts</title>
<path fill="none" stroke="#757575" d="M1391.68,-576.52C1473.29,-589.49 1626.52,-612.41 1758,-624 1885.64,-635.25 2800.95,-712.64 2911,-647 2976.79,-607.76 3006.59,-513.29 3016.74,-472.4"/>
<polygon fill="#757575" stroke="#757575" points="3020.16,-473.13 3019.04,-462.59 3013.35,-471.52 3020.16,-473.13"/>
</g>
<!-- src/app/components/element&#45;renderer/element&#45;renderer.component.ts&#45;&gt;src/app/type&#45;guards/_index.ts -->
<g id="edge32" class="edge">
<title>src/app/components/element&#45;renderer/element&#45;renderer.component.ts&#45;&gt;src/app/type&#45;guards/_index.ts</title>
<path fill="none" stroke="#757575" d="M1492,-567C1693.1,-567 2032.46,-567 2188.28,-567"/>
<polygon fill="#757575" stroke="#757575" points="2188.72,-570.5 2198.72,-567 2188.72,-563.5 2188.72,-570.5"/>
</g>
<!-- src/app/components/element&#45;renderer/element&#45;renderer.component.ts&#45;&gt;src/app/components/dynamic/_index.ts -->
<g id="edge27" class="edge">
<title>src/app/components/element&#45;renderer/element&#45;renderer.component.ts&#45;&gt;src/app/components/dynamic/_index.ts</title>
<path fill="none" stroke="#757575" d="M1352.34,-557.32C1382.84,-541.3 1444.43,-507.49 1492,-472 1509.4,-459.02 1510.82,-452.27 1528,-439 1550.91,-421.31 1578.88,-403.64 1598.71,-391.72"/>
<polygon fill="#757575" stroke="#757575" points="1600.66,-394.63 1607.47,-386.51 1597.08,-388.62 1600.66,-394.63"/>
</g>
<!-- src/app/components/element&#45;renderer/element&#45;renderer.component.ts&#45;&gt;src/app/components/image/_index.ts -->
<g id="edge28" class="edge">
<title>src/app/components/element&#45;renderer/element&#45;renderer.component.ts&#45;&gt;src/app/components/image/_index.ts</title>
<path fill="none" stroke="#757575" d="M1343.09,-576.53C1370.49,-603.5 1452.1,-682 1528,-737 1550.12,-753.03 1576.98,-768.69 1596.66,-779.52"/>
<polygon fill="#757575" stroke="#757575" points="1595.23,-782.73 1605.69,-784.43 1598.58,-776.58 1595.23,-782.73"/>
</g>
<!-- src/app/components/element&#45;renderer/element&#45;renderer.component.ts&#45;&gt;src/app/components/text&#45;block/_index.ts -->
<g id="edge29" class="edge">
<title>src/app/components/element&#45;renderer/element&#45;renderer.component.ts&#45;&gt;src/app/components/text&#45;block/_index.ts</title>
<path fill="none" stroke="#757575" d="M1406.43,-557.46C1447.43,-552.1 1498.75,-545.38 1541.25,-539.82"/>
<polygon fill="#757575" stroke="#757575" points="1541.83,-543.28 1551.29,-538.51 1540.92,-536.34 1541.83,-543.28"/>
</g>
<!-- src/app/components/image/image.component.ts&#45;&gt;src/app/models/_index.ts -->
<g id="edge34" class="edge">
<title>src/app/components/image/image.component.ts&#45;&gt;src/app/models/_index.ts</title>
<path fill="none" stroke="#757575" d="M2385.12,-798.58C2546.4,-801.37 2833.06,-796.78 2911,-733 2994.42,-664.74 3014.83,-524.55 3019.61,-472.78"/>
<polygon fill="#757575" stroke="#757575" points="3023.11,-472.87 3020.44,-462.62 3016.13,-472.3 3023.11,-472.87"/>
</g>
<!-- src/app/components/menu&#45;bar/menu&#45;bar.component.ts&#45;&gt;src/app/common/_index.ts -->
<g id="edge36" class="edge">
<title>src/app/components/menu&#45;bar/menu&#45;bar.component.ts&#45;&gt;src/app/common/_index.ts</title>
<path fill="none" stroke="#757575" d="M1961.63,-728.54C1999.71,-746.43 2085.11,-785.73 2159,-814 2182.12,-822.84 2208.37,-831.58 2229.64,-838.35"/>
<polygon fill="#757575" stroke="#757575" points="2228.76,-841.74 2239.35,-841.4 2230.86,-835.06 2228.76,-841.74"/>
</g>
<!-- src/app/components/menu&#45;bar/menu&#45;bar.component.ts&#45;&gt;src/app/models/_index.ts -->
<g id="edge38" class="edge">
<title>src/app/components/menu&#45;bar/menu&#45;bar.component.ts&#45;&gt;src/app/models/_index.ts</title>
<path fill="none" stroke="#757575" d="M2067.8,-723.25C2314.51,-730.48 2842.46,-740.35 2911,-695 2989.39,-643.14 3012.67,-520.62 3018.92,-472.7"/>
<polygon fill="#757575" stroke="#757575" points="3022.4,-473.03 3020.11,-462.69 3015.45,-472.2 3022.4,-473.03"/>
</g>
<!-- src/app/components/menu&#45;bar/menu&#45;bar.component.ts&#45;&gt;src/app/components/svg/_index.ts -->
<g id="edge37" class="edge">
<title>src/app/components/menu&#45;bar/menu&#45;bar.component.ts&#45;&gt;src/app/components/svg/_index.ts</title>
<path fill="none" stroke="#757575" d="M2024.22,-728.54C2071.12,-733.95 2129.92,-740.73 2178.36,-746.32"/>
<polygon fill="#757575" stroke="#757575" points="2178.2,-749.82 2188.53,-747.49 2179,-742.87 2178.2,-749.82"/>
</g>
<!-- src/app/components/nav&#45;logo/nav&#45;logo.component.ts&#45;&gt;src/app/models/_index.ts -->
<g id="edge40" class="edge">
<title>src/app/components/nav&#45;logo/nav&#45;logo.component.ts&#45;&gt;src/app/models/_index.ts</title>
<path fill="none" stroke="#757575" d="M2026.18,-272.47C2233.35,-250.73 2759.86,-205.34 2911,-287 2969.71,-318.72 3002.43,-396.99 3014.97,-433.57"/>
<polygon fill="#757575" stroke="#757575" points="3011.78,-435.07 3018.22,-443.49 3018.43,-432.89 3011.78,-435.07"/>
</g>
<!-- src/app/components/page&#45;layout/page&#45;layout.component.ts&#45;&gt;src/app/models/_index.ts -->
<g id="edge44" class="edge">
<title>src/app/components/page&#45;layout/page&#45;layout.component.ts&#45;&gt;src/app/models/_index.ts</title>
<path fill="none" stroke="#757575" d="M805.13,-367.48C927.33,-356.23 1144.86,-339 1331.5,-339 1331.5,-339 1331.5,-339 1941.5,-339 2372.65,-339 2503.38,-232.5 2911,-373 2948.67,-385.99 2984.48,-416.61 3004.51,-435.98"/>
<polygon fill="#757575" stroke="#757575" points="3002.29,-438.71 3011.85,-443.27 3007.22,-433.74 3002.29,-438.71"/>
</g>
<!-- src/app/components/page&#45;layout/page&#45;layout.component.ts&#45;&gt;src/app/services/_index.ts -->
<g id="edge45" class="edge">
<title>src/app/components/page&#45;layout/page&#45;layout.component.ts&#45;&gt;src/app/services/_index.ts</title>
<path fill="none" stroke="#757575" d="M736.54,-367.46C771.71,-355.66 834.65,-335.81 890,-325 1046.63,-294.41 2166.38,-185.35 2468.53,-156.2"/>
<polygon fill="#757575" stroke="#757575" points="2469.32,-159.65 2478.93,-155.2 2468.64,-152.68 2469.32,-159.65"/>
</g>
<!-- src/app/components/page&#45;layout/page&#45;layout.component.ts&#45;&gt;src/app/components/dynamic/_index.ts -->
<g id="edge42" class="edge">
<title>src/app/components/page&#45;layout/page&#45;layout.component.ts&#45;&gt;src/app/components/dynamic/_index.ts</title>
<path fill="none" stroke="#757575" d="M845.49,-377C1030.07,-377 1355.16,-377 1520.77,-377"/>
<polygon fill="#757575" stroke="#757575" points="1520.96,-380.5 1530.96,-377 1520.96,-373.5 1520.96,-380.5"/>
</g>
<!-- src/app/components/page&#45;layout/page&#45;layout.component.ts&#45;&gt;src/app/components/top&#45;nav/_index.ts -->
<g id="edge43" class="edge">
<title>src/app/components/page&#45;layout/page&#45;layout.component.ts&#45;&gt;src/app/components/top&#45;nav/_index.ts</title>
<path fill="none" stroke="#757575" d="M747.13,-386.55C802.21,-400.34 904.03,-425.84 964.27,-440.92"/>
<polygon fill="#757575" stroke="#757575" points="963.74,-444.4 974.29,-443.43 965.44,-437.61 963.74,-444.4"/>
</g>
<!-- src/app/components/tabbed&#45;response&#45;table/tabbed&#45;response&#45;table.component.ts&#45;&gt;src/app/models/_index.ts -->
<g id="edge50" class="edge">
<title>src/app/components/tabbed&#45;response&#45;table/tabbed&#45;response&#45;table.component.ts&#45;&gt;src/app/models/_index.ts</title>
<path fill="none" stroke="#757575" d="M2069.56,-614.52C2316.17,-631.83 2839.1,-663.24 2911,-624 2971.07,-591.22 3003.24,-510.02 3015.32,-472.54"/>
<polygon fill="#757575" stroke="#757575" points="3018.72,-473.39 3018.32,-462.8 3012.03,-471.33 3018.72,-473.39"/>
</g>
<!-- src/app/components/tabbed&#45;response&#45;table/tabbed&#45;response&#45;table.component.ts&#45;&gt;src/app/type&#45;guards/_index.ts -->
<g id="edge51" class="edge">
<title>src/app/components/tabbed&#45;response&#45;table/tabbed&#45;response&#45;table.component.ts&#45;&gt;src/app/type&#45;guards/_index.ts</title>
<path fill="none" stroke="#757575" d="M2024.22,-595.46C2074.52,-589.66 2138.5,-582.28 2188.72,-576.49"/>
<polygon fill="#757575" stroke="#757575" points="2189.36,-579.94 2198.89,-575.32 2188.55,-572.99 2189.36,-579.94"/>
</g>
<!-- src/app/components/tabbed&#45;response&#45;table/tabbed&#45;response&#45;table.component.ts&#45;&gt;src/app/components/ws&#45;table/_index.ts -->
<g id="edge49" class="edge">
<title>src/app/components/tabbed&#45;response&#45;table/tabbed&#45;response&#45;table.component.ts&#45;&gt;src/app/components/ws&#45;table/_index.ts</title>
<path fill="none" stroke="#757575" d="M1974.16,-595.42C2010.66,-584.56 2071.39,-566.02 2123,-548 2162.94,-534.05 2208.24,-516.32 2238.09,-504.36"/>
<polygon fill="#757575" stroke="#757575" points="2239.61,-507.52 2247.59,-500.55 2237,-501.03 2239.61,-507.52"/>
</g>
<!-- src/app/components/text&#45;block/text&#45;block.component.ts&#45;&gt;src/app/models/_index.ts -->
<g id="edge53" class="edge">
<title>src/app/components/text&#45;block/text&#45;block.component.ts&#45;&gt;src/app/models/_index.ts</title>
<path fill="none" stroke="#757575" d="M2070.24,-533.7C2296.43,-540.76 2755.89,-549.41 2911,-510 2943.83,-501.66 2977.9,-482 2999.26,-468.12"/>
<polygon fill="#757575" stroke="#757575" points="3001.21,-471.02 3007.59,-462.57 2997.33,-465.2 3001.21,-471.02"/>
</g>
<!-- src/app/components/text&#45;block/text&#45;block.component.ts&#45;&gt;src/app/type&#45;guards/_index.ts -->
<g id="edge54" class="edge">
<title>src/app/components/text&#45;block/text&#45;block.component.ts&#45;&gt;src/app/type&#45;guards/_index.ts</title>
<path fill="none" stroke="#757575" d="M2024.22,-538.54C2074.52,-544.34 2138.5,-551.72 2188.72,-557.51"/>
<polygon fill="#757575" stroke="#757575" points="2188.55,-561.01 2198.89,-558.68 2189.36,-554.06 2188.55,-561.01"/>
</g>
<!-- src/app/components/top&#45;nav/top&#45;nav.component.ts&#45;&gt;src/app/models/_index.ts -->
<g id="edge59" class="edge">
<title>src/app/components/top&#45;nav/top&#45;nav.component.ts&#45;&gt;src/app/models/_index.ts</title>
<path fill="none" stroke="#757575" d="M1427.08,-443.48C1546.03,-432.23 1757.79,-415 1939.5,-415 1939.5,-415 1939.5,-415 2545.5,-415 2688.78,-415 2855.58,-432.36 2948.66,-443.61"/>
<polygon fill="#757575" stroke="#757575" points="2948.47,-447.11 2958.82,-444.85 2949.31,-440.16 2948.47,-447.11"/>
</g>
<!-- src/app/components/top&#45;nav/top&#45;nav.component.ts&#45;&gt;src/app/components/dynamic/_index.ts -->
<g id="edge56" class="edge">
<title>src/app/components/top&#45;nav/top&#45;nav.component.ts&#45;&gt;src/app/components/dynamic/_index.ts</title>
<path fill="none" stroke="#757575" d="M1445.08,-443.48C1461.2,-440 1477.3,-435.32 1492,-429 1510.62,-421 1509.77,-409.87 1528,-401 1537.82,-396.22 1548.67,-392.34 1559.45,-389.2"/>
<polygon fill="#757575" stroke="#757575" points="1560.57,-392.52 1569.3,-386.52 1558.73,-385.77 1560.57,-392.52"/>
</g>
<!-- src/app/components/top&#45;nav/top&#45;nav.component.ts&#45;&gt;src/app/components/menu&#45;bar/_index.ts -->
<g id="edge57" class="edge">
<title>src/app/components/top&#45;nav/top&#45;nav.component.ts&#45;&gt;src/app/components/menu&#45;bar/_index.ts</title>
<path fill="none" stroke="#757575" d="M1354.34,-462.56C1386.24,-477.83 1448.1,-510.02 1492,-549 1544.95,-596.02 1592.09,-666.48 1612.82,-699.57"/>
<polygon fill="#757575" stroke="#757575" points="1609.93,-701.56 1618.17,-708.23 1615.89,-697.88 1609.93,-701.56"/>
</g>
<!-- src/app/components/top&#45;nav/top&#45;nav.component.ts&#45;&gt;src/app/components/nav&#45;logo/_index.ts -->
<g id="edge58" class="edge">
<title>src/app/components/top&#45;nav/top&#45;nav.component.ts&#45;&gt;src/app/components/nav&#45;logo/_index.ts</title>
<path fill="none" stroke="#757575" d="M1351.67,-443.49C1401.09,-417.63 1538.14,-345.92 1596.8,-315.23"/>
<polygon fill="#757575" stroke="#757575" points="1598.6,-318.24 1605.83,-310.5 1595.35,-312.04 1598.6,-318.24"/>
</g>
<!-- src/app/components/ws&#45;table/table&#45;types.ts&#45;&gt;src/app/models/_index.ts -->
<g id="edge62" class="edge">
<title>src/app/components/ws&#45;table/table&#45;types.ts&#45;&gt;src/app/models/_index.ts</title>
<path fill="none" stroke="#757575" d="M2861.85,-481.46C2890.9,-476.27 2927.03,-469.8 2957.52,-464.35"/>
<polygon fill="#757575" stroke="#757575" points="2958.4,-467.75 2967.63,-462.54 2957.17,-460.86 2958.4,-467.75"/>
</g>
<!-- src/app/components/ws&#45;table/ws&#45;table.component.ts&#45;&gt;src/app/models/_index.ts -->
<g id="edge64" class="edge">
<title>src/app/components/ws&#45;table/ws&#45;table.component.ts&#45;&gt;src/app/models/_index.ts</title>
<path fill="none" stroke="#757575" d="M2668.26,-453C2757.09,-453 2874.13,-453 2948.5,-453"/>
<polygon fill="#757575" stroke="#757575" points="2948.7,-456.5 2958.7,-453 2948.7,-449.5 2948.7,-456.5"/>
</g>
<!-- src/app/components/ws&#45;table/ws&#45;table.component.ts&#45;&gt;src/app/components/ws&#45;table/table&#45;types.ts -->
<g id="edge63" class="edge">
<title>src/app/components/ws&#45;table/ws&#45;table.component.ts&#45;&gt;src/app/components/ws&#45;table/table&#45;types.ts</title>
<path fill="none" stroke="#757575" d="M2611.02,-462.54C2647.48,-467.85 2693.02,-474.48 2730.97,-480"/>
<polygon fill="#757575" stroke="#757575" points="2730.55,-483.48 2740.95,-481.46 2731.56,-476.55 2730.55,-483.48"/>
</g>
<!-- src/app/models/data&#45;source.ts&#45;&gt;src/app/models/general.ts -->
<g id="edge73" class="edge">
<title>src/app/models/data&#45;source.ts&#45;&gt;src/app/models/general.ts</title>
<path fill="none" stroke="#757575" d="M3292.03,-451.37C3308.81,-451.45 3326.65,-451.54 3343.45,-451.63"/>
<polygon fill="#757575" stroke="#757575" points="3343.74,-455.13 3353.76,-451.68 3343.78,-448.13 3343.74,-455.13"/>
</g>
<!-- src/app/models/general.ts&#45;&gt;src/app/models/style&#45;types.ts -->
<g id="edge74" class="edge">
<title>src/app/models/general.ts&#45;&gt;src/app/models/style&#45;types.ts</title>
<path fill="none" stroke="#757575" d="M3483.03,-452C3508.16,-452 3537.36,-452 3564.07,-452"/>
<polygon fill="#757575" stroke="#757575" points="3564.17,-455.5 3574.17,-452 3564.17,-448.5 3564.17,-455.5"/>
</g>
<!-- src/app/models/page&#45;elements.ts&#45;&gt;src/app/directives/_index.ts -->
<g id="edge75" class="edge">
<title>src/app/models/page&#45;elements.ts&#45;&gt;src/app/directives/_index.ts</title>
<path fill="none" stroke="#757575" d="M3272.49,-404.4C3282.43,-402.06 3292.62,-399.27 3302,-396 3334.48,-384.68 3369.62,-366.39 3392.5,-353.59"/>
<polygon fill="#757575" stroke="#757575" points="3394.25,-356.62 3401.23,-348.64 3390.8,-350.53 3394.25,-356.62"/>
</g>
<!-- src/app/models/page&#45;elements.ts&#45;&gt;src/app/models/general.ts -->
<g id="edge76" class="edge">
<title>src/app/models/page&#45;elements.ts&#45;&gt;src/app/models/general.ts</title>
<path fill="none" stroke="#757575" d="M3268.46,-423.54C3295.55,-428.71 3329.21,-435.14 3357.68,-440.58"/>
<polygon fill="#757575" stroke="#757575" points="3357.04,-444.02 3367.52,-442.46 3358.35,-437.14 3357.04,-444.02"/>
</g>
<!-- src/app/models/page&#45;elements.ts&#45;&gt;src/app/models/style&#45;types.ts -->
<g id="edge77" class="edge">
<title>src/app/models/page&#45;elements.ts&#45;&gt;src/app/models/style&#45;types.ts</title>
<path fill="none" stroke="#757575" d="M3298.09,-418.61C3354.29,-422.12 3431.33,-427.46 3499,-434 3520.28,-436.06 3543.24,-438.67 3564.56,-441.26"/>
<polygon fill="#757575" stroke="#757575" points="3564.21,-444.74 3574.56,-442.49 3565.06,-437.79 3564.21,-444.74"/>
</g>
<!-- src/app/models/svg/svg&#45;config.ts -->
<g id="node52" class="node">
<title>src/app/models/svg/svg&#45;config.ts</title>
<path fill="none" stroke="#cfffac" d="M3492.67,-611.5C3492.67,-611.5 3344.33,-611.5 3344.33,-611.5 3341.17,-611.5 3338,-608.33 3338,-605.17 3338,-605.17 3338,-598.83 3338,-598.83 3338,-595.67 3341.17,-592.5 3344.33,-592.5 3344.33,-592.5 3492.67,-592.5 3492.67,-592.5 3495.83,-592.5 3499,-595.67 3499,-598.83 3499,-598.83 3499,-605.17 3499,-605.17 3499,-608.33 3495.83,-611.5 3492.67,-611.5"/>
<text text-anchor="middle" x="3418.5" y="-599.5" font-family="Arial" font-size="10.00" fill="#cfffac">src/app/models/svg/svg&#45;config.ts</text>
</g>
<!-- src/app/models/svg/_index.ts&#45;&gt;src/app/models/svg/svg&#45;config.ts -->
<g id="edge78" class="edge">
<title>src/app/models/svg/_index.ts&#45;&gt;src/app/models/svg/svg&#45;config.ts</title>
<path fill="none" stroke="#757575" d="M3290.06,-602C3302.28,-602 3315.12,-602 3327.74,-602"/>
<polygon fill="#757575" stroke="#757575" points="3327.8,-605.5 3337.8,-602 3327.8,-598.5 3327.8,-605.5"/>
</g>
<!-- src/app/models/svg/svg&#45;ref.ts -->
<g id="node53" class="node">
<title>src/app/models/svg/svg&#45;ref.ts</title>
<path fill="none" stroke="#c6c5fe" d="M3485.17,-574.5C3485.17,-574.5 3351.83,-574.5 3351.83,-574.5 3348.67,-574.5 3345.5,-571.33 3345.5,-568.17 3345.5,-568.17 3345.5,-561.83 3345.5,-561.83 3345.5,-558.67 3348.67,-555.5 3351.83,-555.5 3351.83,-555.5 3485.17,-555.5 3485.17,-555.5 3488.33,-555.5 3491.5,-558.67 3491.5,-561.83 3491.5,-561.83 3491.5,-568.17 3491.5,-568.17 3491.5,-571.33 3488.33,-574.5 3485.17,-574.5"/>
<text text-anchor="middle" x="3418.5" y="-562.5" font-family="Arial" font-size="10.00" fill="#c6c5fe">src/app/models/svg/svg&#45;ref.ts</text>
</g>
<!-- src/app/models/svg/_index.ts&#45;&gt;src/app/models/svg/svg&#45;ref.ts -->
<g id="edge79" class="edge">
<title>src/app/models/svg/_index.ts&#45;&gt;src/app/models/svg/svg&#45;ref.ts</title>
<path fill="none" stroke="#757575" d="M3269.75,-592.47C3296.11,-587.57 3328.43,-581.56 3356.11,-576.41"/>
<polygon fill="#757575" stroke="#757575" points="3356.89,-579.83 3366.08,-574.56 3355.61,-572.95 3356.89,-579.83"/>
</g>
<!-- src/app/models/svg/svg&#45;types.ts -->
<g id="node54" class="node">
<title>src/app/models/svg/svg&#45;types.ts</title>
<path fill="none" stroke="#cfffac" d="M3720.67,-611.5C3720.67,-611.5 3574.33,-611.5 3574.33,-611.5 3571.17,-611.5 3568,-608.33 3568,-605.17 3568,-605.17 3568,-598.83 3568,-598.83 3568,-595.67 3571.17,-592.5 3574.33,-592.5 3574.33,-592.5 3720.67,-592.5 3720.67,-592.5 3723.83,-592.5 3727,-595.67 3727,-598.83 3727,-598.83 3727,-605.17 3727,-605.17 3727,-608.33 3723.83,-611.5 3720.67,-611.5"/>
<text text-anchor="middle" x="3647.5" y="-599.5" font-family="Arial" font-size="10.00" fill="#cfffac">src/app/models/svg/svg&#45;types.ts</text>
</g>
<!-- src/app/models/svg/_index.ts&#45;&gt;src/app/models/svg/svg&#45;types.ts -->
<g id="edge80" class="edge">
<title>src/app/models/svg/_index.ts&#45;&gt;src/app/models/svg/svg&#45;types.ts</title>
<path fill="none" stroke="#757575" d="M3267.13,-611.51C3288.74,-615.28 3314.55,-619.15 3338,-621 3409.33,-626.64 3427.59,-625.58 3499,-621 3524.36,-619.37 3552.03,-616.19 3576.48,-612.88"/>
<polygon fill="#757575" stroke="#757575" points="3576.96,-616.35 3586.39,-611.51 3576,-609.42 3576.96,-616.35"/>
</g>
<!-- src/app/models/svg/svg&#45;ref.ts&#45;&gt;src/app/models/svg/svg&#45;types.ts -->
<g id="edge81" class="edge">
<title>src/app/models/svg/svg&#45;ref.ts&#45;&gt;src/app/models/svg/svg&#45;types.ts</title>
<path fill="none" stroke="#757575" d="M3477.96,-574.53C3508.42,-579.49 3545.87,-585.6 3577.72,-590.79"/>
<polygon fill="#757575" stroke="#757575" points="3577.41,-594.29 3587.85,-592.44 3578.54,-587.38 3577.41,-594.29"/>
</g>
<!-- src/app/services/data&#45;service.ts&#45;&gt;src/app/models/_index.ts -->
<g id="edge87" class="edge">
<title>src/app/services/data&#45;service.ts&#45;&gt;src/app/models/_index.ts</title>
<path fill="none" stroke="#757575" d="M2885.65,-117.17C2894.9,-120.27 2903.66,-124.72 2911,-131 3005.28,-211.66 3018.9,-376.71 3020.75,-433.38"/>
<polygon fill="#757575" stroke="#757575" points="3017.26,-433.58 3020.99,-443.49 3024.25,-433.41 3017.26,-433.58"/>
</g>
<!-- src/app/services/data&#45;service.ts&#45;&gt;src/app/services/log&#45;service.ts -->
<g id="edge88" class="edge">
<title>src/app/services/data&#45;service.ts&#45;&gt;src/app/services/log&#45;service.ts</title>
<path fill="none" stroke="#757575" d="M2863.22,-103.47C2891.62,-98.53 2926.49,-92.46 2956.22,-87.28"/>
<polygon fill="#757575" stroke="#757575" points="2956.84,-90.72 2966.09,-85.56 2955.64,-83.83 2956.84,-90.72"/>
</g>
<!-- src/app/services/theme.service.ts&#45;&gt;src/app/models/_index.ts -->
<g id="edge89" class="edge">
<title>src/app/services/theme.service.ts&#45;&gt;src/app/models/_index.ts</title>
<path fill="none" stroke="#757575" d="M2889.69,-81.36C2897.47,-84.39 2904.77,-88.5 2911,-94 3014.72,-185.64 3022.06,-372.21 3021.54,-433.21"/>
<polygon fill="#757575" stroke="#757575" points="3018.04,-433.33 3021.37,-443.38 3025.04,-433.45 3018.04,-433.33"/>
</g>
<!-- src/app/services/theme.service.ts&#45;&gt;src/app/services/log&#45;service.ts -->
<g id="edge90" class="edge">
<title>src/app/services/theme.service.ts&#45;&gt;src/app/services/log&#45;service.ts</title>
<path fill="none" stroke="#757575" d="M2889.75,-76C2905.12,-76 2921.24,-76 2936.71,-76"/>
<polygon fill="#757575" stroke="#757575" points="2936.77,-79.5 2946.77,-76 2936.77,-72.5 2936.77,-79.5"/>
</g>
<!-- src/app/services/toast&#45;service.ts&#45;&gt;src/app/models/_index.ts -->
<g id="edge91" class="edge">
<title>src/app/services/toast&#45;service.ts&#45;&gt;src/app/models/_index.ts</title>
<path fill="none" stroke="#757575" d="M2884.99,-196.55C2894.4,-200.05 2903.37,-204.74 2911,-211 2983.18,-270.22 3009.98,-386.99 3018.04,-433.35"/>
<polygon fill="#757575" stroke="#757575" points="3014.6,-434.01 3019.67,-443.31 3021.51,-432.88 3014.6,-434.01"/>
</g>
<!-- src/app/services/utils.ts&#45;&gt;src/app/models/_index.ts -->
<g id="edge92" class="edge">
<title>src/app/services/utils.ts&#45;&gt;src/app/models/_index.ts</title>
<path fill="none" stroke="#757575" d="M2868.19,-150.22C2883.49,-152.86 2899,-158.13 2911,-168 2995.74,-237.68 3015.36,-380.83 3019.76,-433.23"/>
<polygon fill="#757575" stroke="#757575" points="3016.29,-433.77 3020.52,-443.49 3023.28,-433.25 3016.29,-433.77"/>
</g>
<!-- src/app/type&#45;guards/general&#45;type&#45;guards.ts&#45;&gt;src/app/models/_index.ts -->
<g id="edge95" class="edge">
<title>src/app/type&#45;guards/general&#45;type&#45;guards.ts&#45;&gt;src/app/models/_index.ts</title>
<path fill="none" stroke="#757575" d="M2876.49,-595.46C2888.52,-592.02 2900.53,-587.35 2911,-581 2956.93,-553.12 2993.5,-499.51 3010.56,-471.33"/>
<polygon fill="#757575" stroke="#757575" points="3013.69,-472.9 3015.76,-462.51 3007.66,-469.34 3013.69,-472.9"/>
</g>
<!-- src/app/type&#45;guards/page&#45;type&#45;guards.ts&#45;&gt;src/app/models/_index.ts -->
<g id="edge96" class="edge">
<title>src/app/type&#45;guards/page&#45;type&#45;guards.ts&#45;&gt;src/app/models/_index.ts</title>
<path fill="none" stroke="#757575" d="M2640.56,-576.3C2716.43,-580.12 2824.04,-577.3 2911,-543 2950.72,-527.34 2987,-491.73 3006.34,-470.3"/>
<polygon fill="#757575" stroke="#757575" points="3009.14,-472.41 3013.12,-462.59 3003.89,-467.79 3009.14,-472.41"/>
</g>
<!-- src/app/type&#45;guards/page&#45;type&#45;guards.ts&#45;&gt;src/app/type&#45;guards/general&#45;type&#45;guards.ts -->
<g id="edge97" class="edge">
<title>src/app/type&#45;guards/page&#45;type&#45;guards.ts&#45;&gt;src/app/type&#45;guards/general&#45;type&#45;guards.ts</title>
<path fill="none" stroke="#757575" d="M2611.02,-576.54C2647.48,-581.85 2693.02,-588.48 2730.97,-594"/>
<polygon fill="#757575" stroke="#757575" points="2730.55,-597.48 2740.95,-595.46 2731.56,-590.55 2730.55,-597.48"/>
</g>
<!-- tsconfig.app.json -->
<g id="node62" class="node">
<title>tsconfig.app.json</title>
<path fill="none" stroke="#cfffac" d="M87.17,-516.5C87.17,-516.5 8.83,-516.5 8.83,-516.5 5.67,-516.5 2.5,-513.33 2.5,-510.17 2.5,-510.17 2.5,-503.83 2.5,-503.83 2.5,-500.67 5.67,-497.5 8.83,-497.5 8.83,-497.5 87.17,-497.5 87.17,-497.5 90.33,-497.5 93.5,-500.67 93.5,-503.83 93.5,-503.83 93.5,-510.17 93.5,-510.17 93.5,-513.33 90.33,-516.5 87.17,-516.5"/>
<text text-anchor="middle" x="48" y="-504.5" font-family="Arial" font-size="10.00" fill="#cfffac">tsconfig.app.json</text>
</g>
<!-- tsconfig.json -->
<g id="node63" class="node">
<title>tsconfig.json</title>
<path fill="none" stroke="#cfffac" d="M77.67,-553.5C77.67,-553.5 18.33,-553.5 18.33,-553.5 15.17,-553.5 12,-550.33 12,-547.17 12,-547.17 12,-540.83 12,-540.83 12,-537.67 15.17,-534.5 18.33,-534.5 18.33,-534.5 77.67,-534.5 77.67,-534.5 80.83,-534.5 84,-537.67 84,-540.83 84,-540.83 84,-547.17 84,-547.17 84,-550.33 80.83,-553.5 77.67,-553.5"/>
<text text-anchor="middle" x="48" y="-541.5" font-family="Arial" font-size="10.00" fill="#cfffac">tsconfig.json</text>
</g>
<!-- tsconfig.spec.json -->
<g id="node64" class="node">
<title>tsconfig.spec.json</title>
<path fill="none" stroke="#cfffac" d="M89.67,-590.5C89.67,-590.5 6.33,-590.5 6.33,-590.5 3.17,-590.5 0,-587.33 0,-584.17 0,-584.17 0,-577.83 0,-577.83 0,-574.67 3.17,-571.5 6.33,-571.5 6.33,-571.5 89.67,-571.5 89.67,-571.5 92.83,-571.5 96,-574.67 96,-577.83 96,-577.83 96,-584.17 96,-584.17 96,-587.33 92.83,-590.5 89.67,-590.5"/>
<text text-anchor="middle" x="48" y="-578.5" font-family="Arial" font-size="10.00" fill="#cfffac">tsconfig.spec.json</text>
</g>
</g>
</svg>
