<?xml version="1.0" encoding="UTF-8" standalone="no"?>
<!DOCTYPE svg PUBLIC "-//W3C//DTD SVG 1.1//EN"
 "http://www.w3.org/Graphics/SVG/1.1/DTD/svg11.dtd">
<!-- Generated by graphviz version 2.43.0 (0)
 -->
<!-- Title: G Pages: 1 -->
<svg width="3771pt" height="886pt"
 viewBox="0.00 0.00 3771.20 886.07" xmlns="http://www.w3.org/2000/svg" xmlns:xlink="http://www.w3.org/1999/xlink">
<g id="graph0" class="graph" transform="scale(1 1) rotate(0) translate(21.6 864.47)">
<title>G</title>
<polygon fill="#111111" stroke="transparent" points="-21.6,21.6 -21.6,-864.47 3749.6,-864.47 3749.6,21.6 -21.6,21.6"/>
<!-- LICENSE -->
<g id="node1" class="node">
<title>LICENSE</title>
<path fill="none" stroke="#cfffac" d="M71.67,-320.87C71.67,-320.87 24.33,-320.87 24.33,-320.87 21.17,-320.87 18,-317.7 18,-314.54 18,-314.54 18,-308.2 18,-308.2 18,-305.04 21.17,-301.87 24.33,-301.87 24.33,-301.87 71.67,-301.87 71.67,-301.87 74.83,-301.87 78,-305.04 78,-308.2 78,-308.2 78,-314.54 78,-314.54 78,-317.7 74.83,-320.87 71.67,-320.87"/>
<text text-anchor="middle" x="48" y="-308.87" font-family="Arial" font-size="10.00" fill="#cfffac">LICENSE</text>
</g>
<!-- README.md -->
<g id="node2" class="node">
<title>README.md</title>
<path fill="none" stroke="#cfffac" d="M80.17,-357.87C80.17,-357.87 15.83,-357.87 15.83,-357.87 12.67,-357.87 9.5,-354.7 9.5,-351.54 9.5,-351.54 9.5,-345.2 9.5,-345.2 9.5,-342.04 12.67,-338.87 15.83,-338.87 15.83,-338.87 80.17,-338.87 80.17,-338.87 83.33,-338.87 86.5,-342.04 86.5,-345.2 86.5,-345.2 86.5,-351.54 86.5,-351.54 86.5,-354.7 83.33,-357.87 80.17,-357.87"/>
<text text-anchor="middle" x="48" y="-345.87" font-family="Arial" font-size="10.00" fill="#cfffac">README.md</text>
</g>
<!-- angular.json -->
<g id="node3" class="node">
<title>angular.json</title>
<path fill="none" stroke="#cfffac" d="M76.17,-394.87C76.17,-394.87 19.83,-394.87 19.83,-394.87 16.67,-394.87 13.5,-391.7 13.5,-388.54 13.5,-388.54 13.5,-382.2 13.5,-382.2 13.5,-379.04 16.67,-375.87 19.83,-375.87 19.83,-375.87 76.17,-375.87 76.17,-375.87 79.33,-375.87 82.5,-379.04 82.5,-382.2 82.5,-382.2 82.5,-388.54 82.5,-388.54 82.5,-391.7 79.33,-394.87 76.17,-394.87"/>
<text text-anchor="middle" x="48" y="-382.87" font-family="Arial" font-size="10.00" fill="#cfffac">angular.json</text>
</g>
<!-- build_exports.py -->
<g id="node4" class="node">
<title>build_exports.py</title>
<path fill="none" stroke="#cfffac" d="M85.67,-431.87C85.67,-431.87 10.33,-431.87 10.33,-431.87 7.17,-431.87 4,-428.7 4,-425.54 4,-425.54 4,-419.2 4,-419.2 4,-416.04 7.17,-412.87 10.33,-412.87 10.33,-412.87 85.67,-412.87 85.67,-412.87 88.83,-412.87 92,-416.04 92,-419.2 92,-419.2 92,-425.54 92,-425.54 92,-428.7 88.83,-431.87 85.67,-431.87"/>
<text text-anchor="middle" x="48" y="-419.87" font-family="Arial" font-size="10.00" fill="#cfffac">build_exports.py</text>
</g>
<!-- deps.png -->
<g id="node5" class="node">
<title>deps.png</title>
<path fill="none" stroke="#cfffac" d="M69.67,-468.87C69.67,-468.87 26.33,-468.87 26.33,-468.87 23.17,-468.87 20,-465.7 20,-462.54 20,-462.54 20,-456.2 20,-456.2 20,-453.04 23.17,-449.87 26.33,-449.87 26.33,-449.87 69.67,-449.87 69.67,-449.87 72.83,-449.87 76,-453.04 76,-456.2 76,-456.2 76,-462.54 76,-462.54 76,-465.7 72.83,-468.87 69.67,-468.87"/>
<text text-anchor="middle" x="48" y="-456.87" font-family="Arial" font-size="10.00" fill="#cfffac">deps.png</text>
</g>
<!-- deps.svg -->
<g id="node6" class="node">
<title>deps.svg</title>
<path fill="none" stroke="#cfffac" d="M69.67,-505.87C69.67,-505.87 26.33,-505.87 26.33,-505.87 23.17,-505.87 20,-502.7 20,-499.54 20,-499.54 20,-493.2 20,-493.2 20,-490.04 23.17,-486.87 26.33,-486.87 26.33,-486.87 69.67,-486.87 69.67,-486.87 72.83,-486.87 76,-490.04 76,-493.2 76,-493.2 76,-499.54 76,-499.54 76,-502.7 72.83,-505.87 69.67,-505.87"/>
<text text-anchor="middle" x="48" y="-493.87" font-family="Arial" font-size="10.00" fill="#cfffac">deps.svg</text>
</g>
<!-- index.ts -->
<g id="node7" class="node">
<title>index.ts</title>
<path fill="none" stroke="#c6c5fe" d="M68.67,-542.87C68.67,-542.87 27.33,-542.87 27.33,-542.87 24.17,-542.87 21,-539.7 21,-536.54 21,-536.54 21,-530.2 21,-530.2 21,-527.04 24.17,-523.87 27.33,-523.87 27.33,-523.87 68.67,-523.87 68.67,-523.87 71.83,-523.87 75,-527.04 75,-530.2 75,-530.2 75,-536.54 75,-536.54 75,-539.7 71.83,-542.87 68.67,-542.87"/>
<text text-anchor="middle" x="48" y="-530.87" font-family="Arial" font-size="10.00" fill="#c6c5fe">index.ts</text>
</g>
<!-- src/app/common/_index.ts -->
<g id="node8" class="node">
<title>src/app/common/_index.ts</title>
<path fill="none" stroke="#c6c5fe" d="M2331.67,-694.87C2331.67,-694.87 2212.33,-694.87 2212.33,-694.87 2209.17,-694.87 2206,-691.7 2206,-688.54 2206,-688.54 2206,-682.2 2206,-682.2 2206,-679.04 2209.17,-675.87 2212.33,-675.87 2212.33,-675.87 2331.67,-675.87 2331.67,-675.87 2334.83,-675.87 2338,-679.04 2338,-682.2 2338,-682.2 2338,-688.54 2338,-688.54 2338,-691.7 2334.83,-694.87 2331.67,-694.87"/>
<text text-anchor="middle" x="2272" y="-682.87" font-family="Arial" font-size="10.00" fill="#c6c5fe">src/app/common/_index.ts</text>
</g>
<!-- index.ts&#45;&gt;src/app/common/_index.ts -->
<g id="edge1" class="edge">
<title>index.ts&#45;&gt;src/app/common/_index.ts</title>
<path fill="none" stroke="#757575" d="M75.33,-538.9C82.83,-541.58 90.46,-545.55 96,-551.37 131.46,-588.63 91.64,-629.47 132,-661.37 232.77,-741.01 291.56,-685.37 420,-685.37 420,-685.37 420,-685.37 1626,-685.37 1832.19,-685.37 2075.46,-685.37 2195.79,-685.37"/>
<polygon fill="#757575" stroke="#757575" points="2196,-688.87 2206,-685.37 2196,-681.87 2196,-688.87"/>
</g>
<!-- src/app/components/_index.ts -->
<g id="node9" class="node">
<title>src/app/components/_index.ts</title>
<path fill="none" stroke="#c6c5fe" d="M273.67,-410.87C273.67,-410.87 138.33,-410.87 138.33,-410.87 135.17,-410.87 132,-407.7 132,-404.54 132,-404.54 132,-398.2 132,-398.2 132,-395.04 135.17,-391.87 138.33,-391.87 138.33,-391.87 273.67,-391.87 273.67,-391.87 276.83,-391.87 280,-395.04 280,-398.2 280,-398.2 280,-404.54 280,-404.54 280,-407.7 276.83,-410.87 273.67,-410.87"/>
<text text-anchor="middle" x="206" y="-398.87" font-family="Arial" font-size="10.00" fill="#c6c5fe">src/app/components/_index.ts</text>
</g>
<!-- index.ts&#45;&gt;src/app/components/_index.ts -->
<g id="edge2" class="edge">
<title>index.ts&#45;&gt;src/app/components/_index.ts</title>
<path fill="none" stroke="#757575" d="M75.35,-524.96C82.36,-522.14 89.73,-518.6 96,-514.37 136.04,-487.34 172.88,-443.57 191.77,-419.2"/>
<polygon fill="#757575" stroke="#757575" points="194.61,-421.24 197.88,-411.17 189.04,-417 194.61,-421.24"/>
</g>
<!-- src/app/directives/_index.ts -->
<g id="node10" class="node">
<title>src/app/directives/_index.ts</title>
<path fill="none" stroke="#c6c5fe" d="M3448.67,-86.87C3448.67,-86.87 3324.33,-86.87 3324.33,-86.87 3321.17,-86.87 3318,-83.7 3318,-80.54 3318,-80.54 3318,-74.2 3318,-74.2 3318,-71.04 3321.17,-67.87 3324.33,-67.87 3324.33,-67.87 3448.67,-67.87 3448.67,-67.87 3451.83,-67.87 3455,-71.04 3455,-74.2 3455,-74.2 3455,-80.54 3455,-80.54 3455,-83.7 3451.83,-86.87 3448.67,-86.87"/>
<text text-anchor="middle" x="3386.5" y="-74.87" font-family="Arial" font-size="10.00" fill="#c6c5fe">src/app/directives/_index.ts</text>
</g>
<!-- index.ts&#45;&gt;src/app/directives/_index.ts -->
<g id="edge3" class="edge">
<title>index.ts&#45;&gt;src/app/directives/_index.ts</title>
<path fill="none" stroke="#757575" d="M75.26,-528.35C83.13,-525.54 90.99,-521.17 96,-514.37 153.26,-436.62 70.32,-155.65 132,-81.37 216.79,20.74 287.27,-2.37 420,-2.37 420,-2.37 420,-2.37 3011,-2.37 3136.2,-2.37 3280.43,-43.16 3347.52,-64.58"/>
<polygon fill="#757575" stroke="#757575" points="3346.64,-67.97 3357.23,-67.72 3348.79,-61.31 3346.64,-67.97"/>
</g>
<!-- src/app/models/_index.ts -->
<g id="node11" class="node">
<title>src/app/models/_index.ts</title>
<path fill="none" stroke="#c6c5fe" d="M3066.67,-428.87C3066.67,-428.87 2953.33,-428.87 2953.33,-428.87 2950.17,-428.87 2947,-425.7 2947,-422.54 2947,-422.54 2947,-416.2 2947,-416.2 2947,-413.04 2950.17,-409.87 2953.33,-409.87 2953.33,-409.87 3066.67,-409.87 3066.67,-409.87 3069.83,-409.87 3073,-413.04 3073,-416.2 3073,-416.2 3073,-422.54 3073,-422.54 3073,-425.7 3069.83,-428.87 3066.67,-428.87"/>
<text text-anchor="middle" x="3010" y="-416.87" font-family="Arial" font-size="10.00" fill="#c6c5fe">src/app/models/_index.ts</text>
</g>
<!-- index.ts&#45;&gt;src/app/models/_index.ts -->
<g id="edge4" class="edge">
<title>index.ts&#45;&gt;src/app/models/_index.ts</title>
<path fill="none" stroke="#757575" d="M75.22,-542.41C153.84,-569.37 384.33,-647.37 420,-647.37 420,-647.37 420,-647.37 2545.5,-647.37 2710.05,-647.37 2775.44,-681.64 2911,-588.37 2964.68,-551.43 2992.99,-474.75 3003.77,-438.78"/>
<polygon fill="#757575" stroke="#757575" points="3007.18,-439.59 3006.56,-429.02 3000.45,-437.67 3007.18,-439.59"/>
</g>
<!-- src/app/services/_index.ts -->
<g id="node12" class="node">
<title>src/app/services/_index.ts</title>
<path fill="none" stroke="#c6c5fe" d="M2603.67,-759.87C2603.67,-759.87 2485.33,-759.87 2485.33,-759.87 2482.17,-759.87 2479,-756.7 2479,-753.54 2479,-753.54 2479,-747.2 2479,-747.2 2479,-744.04 2482.17,-740.87 2485.33,-740.87 2485.33,-740.87 2603.67,-740.87 2603.67,-740.87 2606.83,-740.87 2610,-744.04 2610,-747.2 2610,-747.2 2610,-753.54 2610,-753.54 2610,-756.7 2606.83,-759.87 2603.67,-759.87"/>
<text text-anchor="middle" x="2544.5" y="-747.87" font-family="Arial" font-size="10.00" fill="#c6c5fe">src/app/services/_index.ts</text>
</g>
<!-- index.ts&#45;&gt;src/app/services/_index.ts -->
<g id="edge5" class="edge">
<title>index.ts&#45;&gt;src/app/services/_index.ts</title>
<path fill="none" stroke="#757575" d="M75.11,-538.47C82.78,-541.15 90.56,-545.21 96,-551.37 140.24,-601.46 82.66,-652.29 132,-697.37 227.59,-784.71 290.51,-741.37 420,-741.37 420,-741.37 420,-741.37 1941.5,-741.37 2131.3,-741.37 2354.72,-745.9 2468.58,-748.53"/>
<polygon fill="#757575" stroke="#757575" points="2468.84,-752.04 2478.92,-748.77 2469,-745.04 2468.84,-752.04"/>
</g>
<!-- src/app/type&#45;guards/_index.ts -->
<g id="node13" class="node">
<title>src/app/type&#45;guards/_index.ts</title>
<path fill="none" stroke="#c6c5fe" d="M2338.67,-239.87C2338.67,-239.87 2205.33,-239.87 2205.33,-239.87 2202.17,-239.87 2199,-236.7 2199,-233.54 2199,-233.54 2199,-227.2 2199,-227.2 2199,-224.04 2202.17,-220.87 2205.33,-220.87 2205.33,-220.87 2338.67,-220.87 2338.67,-220.87 2341.83,-220.87 2345,-224.04 2345,-227.2 2345,-227.2 2345,-233.54 2345,-233.54 2345,-236.7 2341.83,-239.87 2338.67,-239.87"/>
<text text-anchor="middle" x="2272" y="-227.87" font-family="Arial" font-size="10.00" fill="#c6c5fe">src/app/type&#45;guards/_index.ts</text>
</g>
<!-- index.ts&#45;&gt;src/app/type&#45;guards/_index.ts -->
<g id="edge6" class="edge">
<title>index.ts&#45;&gt;src/app/type&#45;guards/_index.ts</title>
<path fill="none" stroke="#757575" d="M75.04,-527.6C82.71,-524.76 90.5,-520.55 96,-514.37 136.39,-468.91 107.69,-438.11 132,-382.37 211.43,-200.22 221.28,-40.37 420,-40.37 420,-40.37 420,-40.37 1333.5,-40.37 1506.37,-40.37 1551.78,-29.2 1722,-59.37 1923.43,-95.07 2154.16,-183.18 2238.21,-216.93"/>
<polygon fill="#757575" stroke="#757575" points="2237.14,-220.27 2247.72,-220.76 2239.76,-213.78 2237.14,-220.27"/>
</g>
<!-- src/app/common/constants.ts -->
<g id="node16" class="node">
<title>src/app/common/constants.ts</title>
<path fill="none" stroke="#cfffac" d="M2611.17,-694.87C2611.17,-694.87 2477.83,-694.87 2477.83,-694.87 2474.67,-694.87 2471.5,-691.7 2471.5,-688.54 2471.5,-688.54 2471.5,-682.2 2471.5,-682.2 2471.5,-679.04 2474.67,-675.87 2477.83,-675.87 2477.83,-675.87 2611.17,-675.87 2611.17,-675.87 2614.33,-675.87 2617.5,-679.04 2617.5,-682.2 2617.5,-682.2 2617.5,-688.54 2617.5,-688.54 2617.5,-691.7 2614.33,-694.87 2611.17,-694.87"/>
<text text-anchor="middle" x="2544.5" y="-682.87" font-family="Arial" font-size="10.00" fill="#cfffac">src/app/common/constants.ts</text>
</g>
<!-- src/app/common/_index.ts&#45;&gt;src/app/common/constants.ts -->
<g id="edge7" class="edge">
<title>src/app/common/_index.ts&#45;&gt;src/app/common/constants.ts</title>
<path fill="none" stroke="#757575" d="M2338.14,-685.37C2375.1,-685.37 2421.71,-685.37 2461.18,-685.37"/>
<polygon fill="#757575" stroke="#757575" points="2461.32,-688.87 2471.32,-685.37 2461.32,-681.87 2461.32,-688.87"/>
</g>
<!-- src/app/components/blockable&#45;ui/_index.ts -->
<g id="node17" class="node">
<title>src/app/components/blockable&#45;ui/_index.ts</title>
<path fill="none" stroke="#c6c5fe" d="M516.17,-580.87C516.17,-580.87 325.83,-580.87 325.83,-580.87 322.67,-580.87 319.5,-577.7 319.5,-574.54 319.5,-574.54 319.5,-568.2 319.5,-568.2 319.5,-565.04 322.67,-561.87 325.83,-561.87 325.83,-561.87 516.17,-561.87 516.17,-561.87 519.33,-561.87 522.5,-565.04 522.5,-568.2 522.5,-568.2 522.5,-574.54 522.5,-574.54 522.5,-577.7 519.33,-580.87 516.17,-580.87"/>
<text text-anchor="middle" x="421" y="-568.87" font-family="Arial" font-size="10.00" fill="#c6c5fe">src/app/components/blockable&#45;ui/_index.ts</text>
</g>
<!-- src/app/components/_index.ts&#45;&gt;src/app/components/blockable&#45;ui/_index.ts -->
<g id="edge8" class="edge">
<title>src/app/components/_index.ts&#45;&gt;src/app/components/blockable&#45;ui/_index.ts</title>
<path fill="none" stroke="#757575" d="M210.9,-411.12C222.37,-438.48 258.86,-516.3 316,-552.37 319.22,-554.4 322.59,-556.22 326.08,-557.87"/>
<polygon fill="#757575" stroke="#757575" points="324.98,-561.2 335.55,-561.79 327.66,-554.73 324.98,-561.2"/>
</g>
<!-- src/app/components/dynamic/_index.ts -->
<g id="node18" class="node">
<title>src/app/components/dynamic/_index.ts</title>
<path fill="none" stroke="#c6c5fe" d="M1712.67,-315.87C1712.67,-315.87 1537.33,-315.87 1537.33,-315.87 1534.17,-315.87 1531,-312.7 1531,-309.54 1531,-309.54 1531,-303.2 1531,-303.2 1531,-300.04 1534.17,-296.87 1537.33,-296.87 1537.33,-296.87 1712.67,-296.87 1712.67,-296.87 1715.83,-296.87 1719,-300.04 1719,-303.2 1719,-303.2 1719,-309.54 1719,-309.54 1719,-312.7 1715.83,-315.87 1712.67,-315.87"/>
<text text-anchor="middle" x="1625" y="-303.87" font-family="Arial" font-size="10.00" fill="#c6c5fe">src/app/components/dynamic/_index.ts</text>
</g>
<!-- src/app/components/_index.ts&#45;&gt;src/app/components/dynamic/_index.ts -->
<g id="edge9" class="edge">
<title>src/app/components/_index.ts&#45;&gt;src/app/components/dynamic/_index.ts</title>
<path fill="none" stroke="#757575" d="M217.45,-391.82C235.8,-375.74 275.69,-343.7 316,-330.37 481.3,-275.71 532.9,-306.37 707,-306.37 707,-306.37 707,-306.37 1014.5,-306.37 1192.43,-306.37 1399.57,-306.37 1520.79,-306.37"/>
<polygon fill="#757575" stroke="#757575" points="1520.81,-309.87 1530.81,-306.37 1520.81,-302.87 1520.81,-309.87"/>
</g>
<!-- src/app/components/element&#45;renderer/_index.ts -->
<g id="node19" class="node">
<title>src/app/components/element&#45;renderer/_index.ts</title>
<path fill="none" stroke="#c6c5fe" d="M1119.17,-201.87C1119.17,-201.87 907.83,-201.87 907.83,-201.87 904.67,-201.87 901.5,-198.7 901.5,-195.54 901.5,-195.54 901.5,-189.2 901.5,-189.2 901.5,-186.04 904.67,-182.87 907.83,-182.87 907.83,-182.87 1119.17,-182.87 1119.17,-182.87 1122.33,-182.87 1125.5,-186.04 1125.5,-189.2 1125.5,-189.2 1125.5,-195.54 1125.5,-195.54 1125.5,-198.7 1122.33,-201.87 1119.17,-201.87"/>
<text text-anchor="middle" x="1013.5" y="-189.87" font-family="Arial" font-size="10.00" fill="#c6c5fe">src/app/components/element&#45;renderer/_index.ts</text>
</g>
<!-- src/app/components/_index.ts&#45;&gt;src/app/components/element&#45;renderer/_index.ts -->
<g id="edge10" class="edge">
<title>src/app/components/_index.ts&#45;&gt;src/app/components/element&#45;renderer/_index.ts</title>
<path fill="none" stroke="#757575" d="M209.15,-391.7C216.89,-359.51 246.59,-255.72 316,-214.37 530.89,-86.34 853,-150.77 968.96,-180.29"/>
<polygon fill="#757575" stroke="#757575" points="968.33,-183.74 978.89,-182.86 970.08,-176.96 968.33,-183.74"/>
</g>
<!-- src/app/components/image/_index.ts -->
<g id="node20" class="node">
<title>src/app/components/image/_index.ts</title>
<path fill="none" stroke="#c6c5fe" d="M1707.17,-87.87C1707.17,-87.87 1542.83,-87.87 1542.83,-87.87 1539.67,-87.87 1536.5,-84.7 1536.5,-81.54 1536.5,-81.54 1536.5,-75.2 1536.5,-75.2 1536.5,-72.04 1539.67,-68.87 1542.83,-68.87 1542.83,-68.87 1707.17,-68.87 1707.17,-68.87 1710.33,-68.87 1713.5,-72.04 1713.5,-75.2 1713.5,-75.2 1713.5,-81.54 1713.5,-81.54 1713.5,-84.7 1710.33,-87.87 1707.17,-87.87"/>
<text text-anchor="middle" x="1625" y="-75.87" font-family="Arial" font-size="10.00" fill="#c6c5fe">src/app/components/image/_index.ts</text>
</g>
<!-- src/app/components/_index.ts&#45;&gt;src/app/components/image/_index.ts -->
<g id="edge11" class="edge">
<title>src/app/components/_index.ts&#45;&gt;src/app/components/image/_index.ts</title>
<path fill="none" stroke="#757575" d="M207.65,-391.72C210.85,-352.72 228.54,-205.81 316,-143.37 457.77,-42.16 532.81,-116.37 707,-116.37 707,-116.37 707,-116.37 1014.5,-116.37 1195.3,-116.37 1405.68,-99.51 1526.01,-88.25"/>
<polygon fill="#757575" stroke="#757575" points="1526.67,-91.7 1536.29,-87.28 1526.01,-84.73 1526.67,-91.7"/>
</g>
<!-- src/app/components/menu&#45;bar/_index.ts -->
<g id="node21" class="node">
<title>src/app/components/menu&#45;bar/_index.ts</title>
<path fill="none" stroke="#c6c5fe" d="M1714.17,-618.87C1714.17,-618.87 1535.83,-618.87 1535.83,-618.87 1532.67,-618.87 1529.5,-615.7 1529.5,-612.54 1529.5,-612.54 1529.5,-606.2 1529.5,-606.2 1529.5,-603.04 1532.67,-599.87 1535.83,-599.87 1535.83,-599.87 1714.17,-599.87 1714.17,-599.87 1717.33,-599.87 1720.5,-603.04 1720.5,-606.2 1720.5,-606.2 1720.5,-612.54 1720.5,-612.54 1720.5,-615.7 1717.33,-618.87 1714.17,-618.87"/>
<text text-anchor="middle" x="1625" y="-606.87" font-family="Arial" font-size="10.00" fill="#c6c5fe">src/app/components/menu&#45;bar/_index.ts</text>
</g>
<!-- src/app/components/_index.ts&#45;&gt;src/app/components/menu&#45;bar/_index.ts -->
<g id="edge12" class="edge">
<title>src/app/components/_index.ts&#45;&gt;src/app/components/menu&#45;bar/_index.ts</title>
<path fill="none" stroke="#757575" d="M209.16,-411.04C216.94,-443.22 246.77,-547.09 316,-589.37 390.25,-634.71 620,-609.37 707,-609.37 707,-609.37 707,-609.37 1014.5,-609.37 1191.66,-609.37 1397.77,-609.37 1519.21,-609.37"/>
<polygon fill="#757575" stroke="#757575" points="1519.25,-612.87 1529.25,-609.37 1519.25,-605.87 1519.25,-612.87"/>
</g>
<!-- src/app/components/nav&#45;logo/_index.ts -->
<g id="node22" class="node">
<title>src/app/components/nav&#45;logo/_index.ts</title>
<path fill="none" stroke="#c6c5fe" d="M1712.67,-466.87C1712.67,-466.87 1537.33,-466.87 1537.33,-466.87 1534.17,-466.87 1531,-463.7 1531,-460.54 1531,-460.54 1531,-454.2 1531,-454.2 1531,-451.04 1534.17,-447.87 1537.33,-447.87 1537.33,-447.87 1712.67,-447.87 1712.67,-447.87 1715.83,-447.87 1719,-451.04 1719,-454.2 1719,-454.2 1719,-460.54 1719,-460.54 1719,-463.7 1715.83,-466.87 1712.67,-466.87"/>
<text text-anchor="middle" x="1625" y="-454.87" font-family="Arial" font-size="10.00" fill="#c6c5fe">src/app/components/nav&#45;logo/_index.ts</text>
</g>
<!-- src/app/components/_index.ts&#45;&gt;src/app/components/nav&#45;logo/_index.ts -->
<g id="edge13" class="edge">
<title>src/app/components/_index.ts&#45;&gt;src/app/components/nav&#45;logo/_index.ts</title>
<path fill="none" stroke="#757575" d="M280.29,-399.64C400.26,-397.19 646.05,-393.82 854,-401.37 1093.12,-410.05 1373.19,-433.86 1520.81,-447.47"/>
<polygon fill="#757575" stroke="#757575" points="1520.5,-450.96 1530.78,-448.39 1521.14,-443.99 1520.5,-450.96"/>
</g>
<!-- src/app/components/page&#45;layout/_index.ts -->
<g id="node23" class="node">
<title>src/app/components/page&#45;layout/_index.ts</title>
<path fill="none" stroke="#c6c5fe" d="M515.17,-429.87C515.17,-429.87 326.83,-429.87 326.83,-429.87 323.67,-429.87 320.5,-426.7 320.5,-423.54 320.5,-423.54 320.5,-417.2 320.5,-417.2 320.5,-414.04 323.67,-410.87 326.83,-410.87 326.83,-410.87 515.17,-410.87 515.17,-410.87 518.33,-410.87 521.5,-414.04 521.5,-417.2 521.5,-417.2 521.5,-423.54 521.5,-423.54 521.5,-426.7 518.33,-429.87 515.17,-429.87"/>
<text text-anchor="middle" x="421" y="-417.87" font-family="Arial" font-size="10.00" fill="#c6c5fe">src/app/components/page&#45;layout/_index.ts</text>
</g>
<!-- src/app/components/_index.ts&#45;&gt;src/app/components/page&#45;layout/_index.ts -->
<g id="edge14" class="edge">
<title>src/app/components/_index.ts&#45;&gt;src/app/components/page&#45;layout/_index.ts</title>
<path fill="none" stroke="#757575" d="M280,-407.88C289.76,-408.75 299.93,-409.66 310.14,-410.57"/>
<polygon fill="#757575" stroke="#757575" points="310.09,-414.08 320.36,-411.48 310.71,-407.11 310.09,-414.08"/>
</g>
<!-- src/app/components/pull&#45;to&#45;refresh/_index.ts -->
<g id="node24" class="node">
<title>src/app/components/pull&#45;to&#45;refresh/_index.ts</title>
<path fill="none" stroke="#c6c5fe" d="M519.67,-543.87C519.67,-543.87 322.33,-543.87 322.33,-543.87 319.17,-543.87 316,-540.7 316,-537.54 316,-537.54 316,-531.2 316,-531.2 316,-528.04 319.17,-524.87 322.33,-524.87 322.33,-524.87 519.67,-524.87 519.67,-524.87 522.83,-524.87 526,-528.04 526,-531.2 526,-531.2 526,-537.54 526,-537.54 526,-540.7 522.83,-543.87 519.67,-543.87"/>
<text text-anchor="middle" x="421" y="-531.87" font-family="Arial" font-size="10.00" fill="#c6c5fe">src/app/components/pull&#45;to&#45;refresh/_index.ts</text>
</g>
<!-- src/app/components/_index.ts&#45;&gt;src/app/components/pull&#45;to&#45;refresh/_index.ts -->
<g id="edge15" class="edge">
<title>src/app/components/_index.ts&#45;&gt;src/app/components/pull&#45;to&#45;refresh/_index.ts</title>
<path fill="none" stroke="#757575" d="M213.65,-411.01C228.99,-432.49 269.19,-484.42 316,-510.37 324.57,-515.12 334.04,-518.93 343.66,-521.99"/>
<polygon fill="#757575" stroke="#757575" points="342.74,-525.36 353.32,-524.8 344.7,-518.64 342.74,-525.36"/>
</g>
<!-- src/app/components/svg/_index.ts -->
<g id="node25" class="node">
<title>src/app/components/svg/_index.ts</title>
<path fill="none" stroke="#c6c5fe" d="M2349.17,-580.87C2349.17,-580.87 2194.83,-580.87 2194.83,-580.87 2191.67,-580.87 2188.5,-577.7 2188.5,-574.54 2188.5,-574.54 2188.5,-568.2 2188.5,-568.2 2188.5,-565.04 2191.67,-561.87 2194.83,-561.87 2194.83,-561.87 2349.17,-561.87 2349.17,-561.87 2352.33,-561.87 2355.5,-565.04 2355.5,-568.2 2355.5,-568.2 2355.5,-574.54 2355.5,-574.54 2355.5,-577.7 2352.33,-580.87 2349.17,-580.87"/>
<text text-anchor="middle" x="2272" y="-568.87" font-family="Arial" font-size="10.00" fill="#c6c5fe">src/app/components/svg/_index.ts</text>
</g>
<!-- src/app/components/_index.ts&#45;&gt;src/app/components/svg/_index.ts -->
<g id="edge16" class="edge">
<title>src/app/components/_index.ts&#45;&gt;src/app/components/svg/_index.ts</title>
<path fill="none" stroke="#757575" d="M220.66,-411.09C240.57,-424.7 279.19,-449.02 316,-460.37 430.85,-495.77 745.46,-463.78 854,-515.37 874.44,-525.08 869.3,-542.24 890,-551.37 1069.72,-630.62 1135.08,-571.37 1331.5,-571.37 1331.5,-571.37 1331.5,-571.37 1626,-571.37 1822.46,-571.37 2052.58,-571.37 2177.95,-571.37"/>
<polygon fill="#757575" stroke="#757575" points="2178.27,-574.87 2188.27,-571.37 2178.27,-567.87 2178.27,-574.87"/>
</g>
<!-- src/app/components/tabbed&#45;response&#45;table/_index.ts -->
<g id="node26" class="node">
<title>src/app/components/tabbed&#45;response&#45;table/_index.ts</title>
<path fill="none" stroke="#c6c5fe" d="M1130.67,-239.87C1130.67,-239.87 896.33,-239.87 896.33,-239.87 893.17,-239.87 890,-236.7 890,-233.54 890,-233.54 890,-227.2 890,-227.2 890,-224.04 893.17,-220.87 896.33,-220.87 896.33,-220.87 1130.67,-220.87 1130.67,-220.87 1133.83,-220.87 1137,-224.04 1137,-227.2 1137,-227.2 1137,-233.54 1137,-233.54 1137,-236.7 1133.83,-239.87 1130.67,-239.87"/>
<text text-anchor="middle" x="1013.5" y="-227.87" font-family="Arial" font-size="10.00" fill="#c6c5fe">src/app/components/tabbed&#45;response&#45;table/_index.ts</text>
</g>
<!-- src/app/components/_index.ts&#45;&gt;src/app/components/tabbed&#45;response&#45;table/_index.ts -->
<g id="edge17" class="edge">
<title>src/app/components/_index.ts&#45;&gt;src/app/components/tabbed&#45;response&#45;table/_index.ts</title>
<path fill="none" stroke="#757575" d="M210.57,-391.84C221.42,-364.44 256.93,-285.39 316,-254.37 410.5,-204.74 705.62,-212.12 879.91,-221.5"/>
<polygon fill="#757575" stroke="#757575" points="879.74,-225 889.92,-222.05 880.13,-218.01 879.74,-225"/>
</g>
<!-- src/app/components/text&#45;block/_index.ts -->
<g id="node27" class="node">
<title>src/app/components/text&#45;block/_index.ts</title>
<path fill="none" stroke="#c6c5fe" d="M1715.67,-277.87C1715.67,-277.87 1534.33,-277.87 1534.33,-277.87 1531.17,-277.87 1528,-274.7 1528,-271.54 1528,-271.54 1528,-265.2 1528,-265.2 1528,-262.04 1531.17,-258.87 1534.33,-258.87 1534.33,-258.87 1715.67,-258.87 1715.67,-258.87 1718.83,-258.87 1722,-262.04 1722,-265.2 1722,-265.2 1722,-271.54 1722,-271.54 1722,-274.7 1718.83,-277.87 1715.67,-277.87"/>
<text text-anchor="middle" x="1625" y="-265.87" font-family="Arial" font-size="10.00" fill="#c6c5fe">src/app/components/text&#45;block/_index.ts</text>
</g>
<!-- src/app/components/_index.ts&#45;&gt;src/app/components/text&#45;block/_index.ts -->
<g id="edge18" class="edge">
<title>src/app/components/_index.ts&#45;&gt;src/app/components/text&#45;block/_index.ts</title>
<path fill="none" stroke="#757575" d="M213.2,-391.69C227.9,-369.7 267.36,-316.16 316,-294.37 474.93,-223.15 532.84,-268.37 707,-268.37 707,-268.37 707,-268.37 1014.5,-268.37 1191.01,-268.37 1396.28,-268.37 1517.88,-268.37"/>
<polygon fill="#757575" stroke="#757575" points="1517.94,-271.87 1527.94,-268.37 1517.94,-264.87 1517.94,-271.87"/>
</g>
<!-- src/app/components/top&#45;nav/_index.ts -->
<g id="node28" class="node">
<title>src/app/components/top&#45;nav/_index.ts</title>
<path fill="none" stroke="#c6c5fe" d="M1098.67,-542.87C1098.67,-542.87 928.33,-542.87 928.33,-542.87 925.17,-542.87 922,-539.7 922,-536.54 922,-536.54 922,-530.2 922,-530.2 922,-527.04 925.17,-523.87 928.33,-523.87 928.33,-523.87 1098.67,-523.87 1098.67,-523.87 1101.83,-523.87 1105,-527.04 1105,-530.2 1105,-530.2 1105,-536.54 1105,-536.54 1105,-539.7 1101.83,-542.87 1098.67,-542.87"/>
<text text-anchor="middle" x="1013.5" y="-530.87" font-family="Arial" font-size="10.00" fill="#c6c5fe">src/app/components/top&#45;nav/_index.ts</text>
</g>
<!-- src/app/components/_index.ts&#45;&gt;src/app/components/top&#45;nav/_index.ts -->
<g id="edge19" class="edge">
<title>src/app/components/_index.ts&#45;&gt;src/app/components/top&#45;nav/_index.ts</title>
<path fill="none" stroke="#757575" d="M229.93,-411C251.68,-419.68 285.47,-432.04 316,-438.37 550.91,-487.07 629.69,-397.28 854,-482.37 872.7,-489.46 871.73,-501.24 890,-509.37 901.25,-514.37 913.54,-518.34 925.85,-521.48"/>
<polygon fill="#757575" stroke="#757575" points="925.18,-524.91 935.71,-523.82 926.8,-518.1 925.18,-524.91"/>
</g>
<!-- src/app/components/ws&#45;table/_index.ts -->
<g id="node29" class="node">
<title>src/app/components/ws&#45;table/_index.ts</title>
<path fill="none" stroke="#c6c5fe" d="M2359.67,-353.87C2359.67,-353.87 2184.33,-353.87 2184.33,-353.87 2181.17,-353.87 2178,-350.7 2178,-347.54 2178,-347.54 2178,-341.2 2178,-341.2 2178,-338.04 2181.17,-334.87 2184.33,-334.87 2184.33,-334.87 2359.67,-334.87 2359.67,-334.87 2362.83,-334.87 2366,-338.04 2366,-341.2 2366,-341.2 2366,-347.54 2366,-347.54 2366,-350.7 2362.83,-353.87 2359.67,-353.87"/>
<text text-anchor="middle" x="2272" y="-341.87" font-family="Arial" font-size="10.00" fill="#c6c5fe">src/app/components/ws&#45;table/_index.ts</text>
</g>
<!-- src/app/components/_index.ts&#45;&gt;src/app/components/ws&#45;table/_index.ts -->
<g id="edge20" class="edge">
<title>src/app/components/_index.ts&#45;&gt;src/app/components/ws&#45;table/_index.ts</title>
<path fill="none" stroke="#757575" d="M257.17,-391.83C347.01,-375.6 541.44,-344.37 707,-344.37 707,-344.37 707,-344.37 1626,-344.37 1817.21,-344.37 2040.29,-344.37 2167.67,-344.37"/>
<polygon fill="#757575" stroke="#757575" points="2167.81,-347.87 2177.81,-344.37 2167.81,-340.87 2167.81,-347.87"/>
</g>
<!-- src/app/directives/view&#45;container&#45;ref.directive.ts -->
<g id="node44" class="node">
<title>src/app/directives/view&#45;container&#45;ref.directive.ts</title>
<path fill="none" stroke="#cfffac" d="M3721.67,-86.87C3721.67,-86.87 3509.33,-86.87 3509.33,-86.87 3506.17,-86.87 3503,-83.7 3503,-80.54 3503,-80.54 3503,-74.2 3503,-74.2 3503,-71.04 3506.17,-67.87 3509.33,-67.87 3509.33,-67.87 3721.67,-67.87 3721.67,-67.87 3724.83,-67.87 3728,-71.04 3728,-74.2 3728,-74.2 3728,-80.54 3728,-80.54 3728,-83.7 3724.83,-86.87 3721.67,-86.87"/>
<text text-anchor="middle" x="3615.5" y="-74.87" font-family="Arial" font-size="10.00" fill="#cfffac">src/app/directives/view&#45;container&#45;ref.directive.ts</text>
</g>
<!-- src/app/directives/_index.ts&#45;&gt;src/app/directives/view&#45;container&#45;ref.directive.ts -->
<g id="edge63" class="edge">
<title>src/app/directives/_index.ts&#45;&gt;src/app/directives/view&#45;container&#45;ref.directive.ts</title>
<path fill="none" stroke="#757575" d="M3455.3,-77.37C3467.15,-77.37 3479.81,-77.37 3492.6,-77.37"/>
<polygon fill="#757575" stroke="#757575" points="3492.89,-80.87 3502.89,-77.37 3492.89,-73.87 3492.89,-80.87"/>
</g>
<!-- src/app/models/data&#45;source.ts -->
<g id="node45" class="node">
<title>src/app/models/data&#45;source.ts</title>
<path fill="none" stroke="#c6c5fe" d="M3257.67,-390.87C3257.67,-390.87 3121.33,-390.87 3121.33,-390.87 3118.17,-390.87 3115,-387.7 3115,-384.54 3115,-384.54 3115,-378.2 3115,-378.2 3115,-375.04 3118.17,-371.87 3121.33,-371.87 3121.33,-371.87 3257.67,-371.87 3257.67,-371.87 3260.83,-371.87 3264,-375.04 3264,-378.2 3264,-378.2 3264,-384.54 3264,-384.54 3264,-387.7 3260.83,-390.87 3257.67,-390.87"/>
<text text-anchor="middle" x="3189.5" y="-378.87" font-family="Arial" font-size="10.00" fill="#c6c5fe">src/app/models/data&#45;source.ts</text>
</g>
<!-- src/app/models/_index.ts&#45;&gt;src/app/models/data&#45;source.ts -->
<g id="edge64" class="edge">
<title>src/app/models/_index.ts&#45;&gt;src/app/models/data&#45;source.ts</title>
<path fill="none" stroke="#757575" d="M3055.79,-409.78C3079.53,-404.7 3108.88,-398.41 3133.94,-393.05"/>
<polygon fill="#757575" stroke="#757575" points="3134.99,-396.4 3144.03,-390.89 3133.52,-389.56 3134.99,-396.4"/>
</g>
<!-- src/app/models/extensions.ts -->
<g id="node46" class="node">
<title>src/app/models/extensions.ts</title>
<path fill="none" stroke="#cfffac" d="M3255.67,-503.87C3255.67,-503.87 3123.33,-503.87 3123.33,-503.87 3120.17,-503.87 3117,-500.7 3117,-497.54 3117,-497.54 3117,-491.2 3117,-491.2 3117,-488.04 3120.17,-484.87 3123.33,-484.87 3123.33,-484.87 3255.67,-484.87 3255.67,-484.87 3258.83,-484.87 3262,-488.04 3262,-491.2 3262,-491.2 3262,-497.54 3262,-497.54 3262,-500.7 3258.83,-503.87 3255.67,-503.87"/>
<text text-anchor="middle" x="3189.5" y="-491.87" font-family="Arial" font-size="10.00" fill="#cfffac">src/app/models/extensions.ts</text>
</g>
<!-- src/app/models/_index.ts&#45;&gt;src/app/models/extensions.ts -->
<g id="edge65" class="edge">
<title>src/app/models/_index.ts&#45;&gt;src/app/models/extensions.ts</title>
<path fill="none" stroke="#757575" d="M3024.96,-429.06C3043.42,-441.46 3077.3,-462.82 3109,-475.37 3115.38,-477.89 3122.19,-480.14 3129.04,-482.13"/>
<polygon fill="#757575" stroke="#757575" points="3128.48,-485.61 3139.05,-484.86 3130.32,-478.85 3128.48,-485.61"/>
</g>
<!-- src/app/models/general.ts -->
<g id="node47" class="node">
<title>src/app/models/general.ts</title>
<path fill="none" stroke="#c6c5fe" d="M3444.67,-352.87C3444.67,-352.87 3328.33,-352.87 3328.33,-352.87 3325.17,-352.87 3322,-349.7 3322,-346.54 3322,-346.54 3322,-340.2 3322,-340.2 3322,-337.04 3325.17,-333.87 3328.33,-333.87 3328.33,-333.87 3444.67,-333.87 3444.67,-333.87 3447.83,-333.87 3451,-337.04 3451,-340.2 3451,-340.2 3451,-346.54 3451,-346.54 3451,-349.7 3447.83,-352.87 3444.67,-352.87"/>
<text text-anchor="middle" x="3386.5" y="-340.87" font-family="Arial" font-size="10.00" fill="#c6c5fe">src/app/models/general.ts</text>
</g>
<!-- src/app/models/_index.ts&#45;&gt;src/app/models/general.ts -->
<g id="edge66" class="edge">
<title>src/app/models/_index.ts&#45;&gt;src/app/models/general.ts</title>
<path fill="none" stroke="#757575" d="M3023.12,-409.81C3040.83,-396.45 3075.32,-372.7 3109,-362.37 3175.47,-341.97 3255,-338.55 3311.67,-339.44"/>
<polygon fill="#757575" stroke="#757575" points="3311.91,-342.94 3321.98,-339.65 3312.05,-335.94 3311.91,-342.94"/>
</g>
<!-- src/app/models/page&#45;elements.ts -->
<g id="node48" class="node">
<title>src/app/models/page&#45;elements.ts</title>
<path fill="none" stroke="#c6c5fe" d="M3263.67,-314.87C3263.67,-314.87 3115.33,-314.87 3115.33,-314.87 3112.17,-314.87 3109,-311.7 3109,-308.54 3109,-308.54 3109,-302.2 3109,-302.2 3109,-299.04 3112.17,-295.87 3115.33,-295.87 3115.33,-295.87 3263.67,-295.87 3263.67,-295.87 3266.83,-295.87 3270,-299.04 3270,-302.2 3270,-302.2 3270,-308.54 3270,-308.54 3270,-311.7 3266.83,-314.87 3263.67,-314.87"/>
<text text-anchor="middle" x="3189.5" y="-302.87" font-family="Arial" font-size="10.00" fill="#c6c5fe">src/app/models/page&#45;elements.ts</text>
</g>
<!-- src/app/models/_index.ts&#45;&gt;src/app/models/page&#45;elements.ts -->
<g id="edge67" class="edge">
<title>src/app/models/_index.ts&#45;&gt;src/app/models/page&#45;elements.ts</title>
<path fill="none" stroke="#757575" d="M3018.85,-409.71C3034.24,-391.39 3070.27,-351.44 3109,-329.37 3116.91,-324.86 3125.76,-321.11 3134.6,-318.03"/>
<polygon fill="#757575" stroke="#757575" points="3135.7,-321.35 3144.14,-314.94 3133.55,-314.69 3135.7,-321.35"/>
</g>
<!-- src/app/models/style&#45;types.ts -->
<g id="node49" class="node">
<title>src/app/models/style&#45;types.ts</title>
<path fill="none" stroke="#cfffac" d="M3682.17,-352.87C3682.17,-352.87 3548.83,-352.87 3548.83,-352.87 3545.67,-352.87 3542.5,-349.7 3542.5,-346.54 3542.5,-346.54 3542.5,-340.2 3542.5,-340.2 3542.5,-337.04 3545.67,-333.87 3548.83,-333.87 3548.83,-333.87 3682.17,-333.87 3682.17,-333.87 3685.33,-333.87 3688.5,-337.04 3688.5,-340.2 3688.5,-340.2 3688.5,-346.54 3688.5,-346.54 3688.5,-349.7 3685.33,-352.87 3682.17,-352.87"/>
<text text-anchor="middle" x="3615.5" y="-340.87" font-family="Arial" font-size="10.00" fill="#cfffac">src/app/models/style&#45;types.ts</text>
</g>
<!-- src/app/models/_index.ts&#45;&gt;src/app/models/style&#45;types.ts -->
<g id="edge68" class="edge">
<title>src/app/models/_index.ts&#45;&gt;src/app/models/style&#45;types.ts</title>
<path fill="none" stroke="#757575" d="M3073.16,-416.04C3125.71,-412.87 3202.94,-407.39 3270,-399.37 3370,-387.4 3485.38,-367.37 3554,-354.78"/>
<polygon fill="#757575" stroke="#757575" points="3554.99,-358.16 3564.19,-352.91 3553.73,-351.28 3554.99,-358.16"/>
</g>
<!-- src/app/models/svg/_index.ts -->
<g id="node50" class="node">
<title>src/app/models/svg/_index.ts</title>
<path fill="none" stroke="#c6c5fe" d="M3255.67,-466.87C3255.67,-466.87 3123.33,-466.87 3123.33,-466.87 3120.17,-466.87 3117,-463.7 3117,-460.54 3117,-460.54 3117,-454.2 3117,-454.2 3117,-451.04 3120.17,-447.87 3123.33,-447.87 3123.33,-447.87 3255.67,-447.87 3255.67,-447.87 3258.83,-447.87 3262,-451.04 3262,-454.2 3262,-454.2 3262,-460.54 3262,-460.54 3262,-463.7 3258.83,-466.87 3255.67,-466.87"/>
<text text-anchor="middle" x="3189.5" y="-454.87" font-family="Arial" font-size="10.00" fill="#c6c5fe">src/app/models/svg/_index.ts</text>
</g>
<!-- src/app/models/_index.ts&#45;&gt;src/app/models/svg/_index.ts -->
<g id="edge69" class="edge">
<title>src/app/models/_index.ts&#45;&gt;src/app/models/svg/_index.ts</title>
<path fill="none" stroke="#757575" d="M3055.79,-428.96C3079.53,-434.04 3108.88,-440.32 3133.94,-445.69"/>
<polygon fill="#757575" stroke="#757575" points="3133.52,-449.18 3144.03,-447.85 3134.99,-442.33 3133.52,-449.18"/>
</g>
<!-- src/app/services/data&#45;service.ts -->
<g id="node54" class="node">
<title>src/app/services/data&#45;service.ts</title>
<path fill="none" stroke="#c6c5fe" d="M2879.17,-805.87C2879.17,-805.87 2735.83,-805.87 2735.83,-805.87 2732.67,-805.87 2729.5,-802.7 2729.5,-799.54 2729.5,-799.54 2729.5,-793.2 2729.5,-793.2 2729.5,-790.04 2732.67,-786.87 2735.83,-786.87 2735.83,-786.87 2879.17,-786.87 2879.17,-786.87 2882.33,-786.87 2885.5,-790.04 2885.5,-793.2 2885.5,-793.2 2885.5,-799.54 2885.5,-799.54 2885.5,-802.7 2882.33,-805.87 2879.17,-805.87"/>
<text text-anchor="middle" x="2807.5" y="-793.87" font-family="Arial" font-size="10.00" fill="#c6c5fe">src/app/services/data&#45;service.ts</text>
</g>
<!-- src/app/services/_index.ts&#45;&gt;src/app/services/data&#45;service.ts -->
<g id="edge79" class="edge">
<title>src/app/services/_index.ts&#45;&gt;src/app/services/data&#45;service.ts</title>
<path fill="none" stroke="#757575" d="M2599.58,-759.9C2641.14,-767.22 2698.66,-777.36 2742.51,-785.09"/>
<polygon fill="#757575" stroke="#757575" points="2742.03,-788.56 2752.49,-786.85 2743.25,-781.67 2742.03,-788.56"/>
</g>
<!-- src/app/services/log&#45;service.ts -->
<g id="node55" class="node">
<title>src/app/services/log&#45;service.ts</title>
<path fill="none" stroke="#cfffac" d="M2876.17,-731.87C2876.17,-731.87 2738.83,-731.87 2738.83,-731.87 2735.67,-731.87 2732.5,-728.7 2732.5,-725.54 2732.5,-725.54 2732.5,-719.2 2732.5,-719.2 2732.5,-716.04 2735.67,-712.87 2738.83,-712.87 2738.83,-712.87 2876.17,-712.87 2876.17,-712.87 2879.33,-712.87 2882.5,-716.04 2882.5,-719.2 2882.5,-719.2 2882.5,-725.54 2882.5,-725.54 2882.5,-728.7 2879.33,-731.87 2876.17,-731.87"/>
<text text-anchor="middle" x="2807.5" y="-719.87" font-family="Arial" font-size="10.00" fill="#cfffac">src/app/services/log&#45;service.ts</text>
</g>
<!-- src/app/services/_index.ts&#45;&gt;src/app/services/log&#45;service.ts -->
<g id="edge80" class="edge">
<title>src/app/services/_index.ts&#45;&gt;src/app/services/log&#45;service.ts</title>
<path fill="none" stroke="#757575" d="M2610.02,-743.45C2643.82,-739.82 2685.65,-735.33 2722,-731.43"/>
<polygon fill="#757575" stroke="#757575" points="2722.53,-734.9 2732.1,-730.35 2721.79,-727.94 2722.53,-734.9"/>
</g>
<!-- src/app/services/theme.service.ts -->
<g id="node56" class="node">
<title>src/app/services/theme.service.ts</title>
<path fill="none" stroke="#c6c5fe" d="M2883.17,-768.87C2883.17,-768.87 2731.83,-768.87 2731.83,-768.87 2728.67,-768.87 2725.5,-765.7 2725.5,-762.54 2725.5,-762.54 2725.5,-756.2 2725.5,-756.2 2725.5,-753.04 2728.67,-749.87 2731.83,-749.87 2731.83,-749.87 2883.17,-749.87 2883.17,-749.87 2886.33,-749.87 2889.5,-753.04 2889.5,-756.2 2889.5,-756.2 2889.5,-762.54 2889.5,-762.54 2889.5,-765.7 2886.33,-768.87 2883.17,-768.87"/>
<text text-anchor="middle" x="2807.5" y="-756.87" font-family="Arial" font-size="10.00" fill="#c6c5fe">src/app/services/theme.service.ts</text>
</g>
<!-- src/app/services/_index.ts&#45;&gt;src/app/services/theme.service.ts -->
<g id="edge81" class="edge">
<title>src/app/services/_index.ts&#45;&gt;src/app/services/theme.service.ts</title>
<path fill="none" stroke="#757575" d="M2610.02,-752.59C2641.75,-753.69 2680.56,-755.03 2715.27,-756.22"/>
<polygon fill="#757575" stroke="#757575" points="2715.31,-759.73 2725.42,-756.57 2715.55,-752.73 2715.31,-759.73"/>
</g>
<!-- src/app/services/toast&#45;service.ts -->
<g id="node57" class="node">
<title>src/app/services/toast&#45;service.ts</title>
<path fill="none" stroke="#c6c5fe" d="M2880.67,-694.87C2880.67,-694.87 2734.33,-694.87 2734.33,-694.87 2731.17,-694.87 2728,-691.7 2728,-688.54 2728,-688.54 2728,-682.2 2728,-682.2 2728,-679.04 2731.17,-675.87 2734.33,-675.87 2734.33,-675.87 2880.67,-675.87 2880.67,-675.87 2883.83,-675.87 2887,-679.04 2887,-682.2 2887,-682.2 2887,-688.54 2887,-688.54 2887,-691.7 2883.83,-694.87 2880.67,-694.87"/>
<text text-anchor="middle" x="2807.5" y="-682.87" font-family="Arial" font-size="10.00" fill="#c6c5fe">src/app/services/toast&#45;service.ts</text>
</g>
<!-- src/app/services/_index.ts&#45;&gt;src/app/services/toast&#45;service.ts -->
<g id="edge82" class="edge">
<title>src/app/services/_index.ts&#45;&gt;src/app/services/toast&#45;service.ts</title>
<path fill="none" stroke="#757575" d="M2574.16,-740.79C2605.7,-730.5 2658.04,-714.18 2704,-703.37 2714.13,-700.99 2724.89,-698.76 2735.48,-696.75"/>
<polygon fill="#757575" stroke="#757575" points="2736.37,-700.15 2745.56,-694.89 2735.09,-693.26 2736.37,-700.15"/>
</g>
<!-- src/app/services/utils.ts -->
<g id="node58" class="node">
<title>src/app/services/utils.ts</title>
<path fill="none" stroke="#c6c5fe" d="M2861.67,-842.87C2861.67,-842.87 2753.33,-842.87 2753.33,-842.87 2750.17,-842.87 2747,-839.7 2747,-836.54 2747,-836.54 2747,-830.2 2747,-830.2 2747,-827.04 2750.17,-823.87 2753.33,-823.87 2753.33,-823.87 2861.67,-823.87 2861.67,-823.87 2864.83,-823.87 2868,-827.04 2868,-830.2 2868,-830.2 2868,-836.54 2868,-836.54 2868,-839.7 2864.83,-842.87 2861.67,-842.87"/>
<text text-anchor="middle" x="2807.5" y="-830.87" font-family="Arial" font-size="10.00" fill="#c6c5fe">src/app/services/utils.ts</text>
</g>
<!-- src/app/services/_index.ts&#45;&gt;src/app/services/utils.ts -->
<g id="edge83" class="edge">
<title>src/app/services/_index.ts&#45;&gt;src/app/services/utils.ts</title>
<path fill="none" stroke="#757575" d="M2565.55,-759.99C2595.19,-773.86 2652.72,-799.43 2704,-814.37 2714.51,-817.43 2725.77,-820.11 2736.85,-822.41"/>
<polygon fill="#757575" stroke="#757575" points="2736.45,-825.9 2746.94,-824.42 2737.82,-819.03 2736.45,-825.9"/>
</g>
<!-- src/app/type&#45;guards/general&#45;type&#45;guards.ts -->
<g id="node59" class="node">
<title>src/app/type&#45;guards/general&#45;type&#45;guards.ts</title>
<path fill="none" stroke="#c6c5fe" d="M2902.67,-238.87C2902.67,-238.87 2712.33,-238.87 2712.33,-238.87 2709.17,-238.87 2706,-235.7 2706,-232.54 2706,-232.54 2706,-226.2 2706,-226.2 2706,-223.04 2709.17,-219.87 2712.33,-219.87 2712.33,-219.87 2902.67,-219.87 2902.67,-219.87 2905.83,-219.87 2909,-223.04 2909,-226.2 2909,-226.2 2909,-232.54 2909,-232.54 2909,-235.7 2905.83,-238.87 2902.67,-238.87"/>
<text text-anchor="middle" x="2807.5" y="-226.87" font-family="Arial" font-size="10.00" fill="#c6c5fe">src/app/type&#45;guards/general&#45;type&#45;guards.ts</text>
</g>
<!-- src/app/type&#45;guards/_index.ts&#45;&gt;src/app/type&#45;guards/general&#45;type&#45;guards.ts -->
<g id="edge88" class="edge">
<title>src/app/type&#45;guards/_index.ts&#45;&gt;src/app/type&#45;guards/general&#45;type&#45;guards.ts</title>
<path fill="none" stroke="#757575" d="M2345.23,-230.23C2435.4,-230.06 2590.57,-229.77 2695.79,-229.58"/>
<polygon fill="#757575" stroke="#757575" points="2695.82,-233.08 2705.81,-229.56 2695.8,-226.08 2695.82,-233.08"/>
</g>
<!-- src/app/type&#45;guards/page&#45;type&#45;guards.ts -->
<g id="node60" class="node">
<title>src/app/type&#45;guards/page&#45;type&#45;guards.ts</title>
<path fill="none" stroke="#c6c5fe" d="M2634.17,-276.87C2634.17,-276.87 2454.83,-276.87 2454.83,-276.87 2451.67,-276.87 2448.5,-273.7 2448.5,-270.54 2448.5,-270.54 2448.5,-264.2 2448.5,-264.2 2448.5,-261.04 2451.67,-257.87 2454.83,-257.87 2454.83,-257.87 2634.17,-257.87 2634.17,-257.87 2637.33,-257.87 2640.5,-261.04 2640.5,-264.2 2640.5,-264.2 2640.5,-270.54 2640.5,-270.54 2640.5,-273.7 2637.33,-276.87 2634.17,-276.87"/>
<text text-anchor="middle" x="2544.5" y="-264.87" font-family="Arial" font-size="10.00" fill="#c6c5fe">src/app/type&#45;guards/page&#45;type&#45;guards.ts</text>
</g>
<!-- src/app/type&#45;guards/_index.ts&#45;&gt;src/app/type&#45;guards/page&#45;type&#45;guards.ts -->
<g id="edge89" class="edge">
<title>src/app/type&#45;guards/_index.ts&#45;&gt;src/app/type&#45;guards/page&#45;type&#45;guards.ts</title>
<path fill="none" stroke="#757575" d="M2342.66,-239.9C2379.59,-244.95 2425.13,-251.18 2463.5,-256.43"/>
<polygon fill="#757575" stroke="#757575" points="2463.22,-259.92 2473.61,-257.81 2464.17,-252.99 2463.22,-259.92"/>
</g>
<!-- package&#45;lock.json -->
<g id="node14" class="node">
<title>package&#45;lock.json</title>
<path fill="none" stroke="#cfffac" d="M89.17,-579.87C89.17,-579.87 6.83,-579.87 6.83,-579.87 3.67,-579.87 0.5,-576.7 0.5,-573.54 0.5,-573.54 0.5,-567.2 0.5,-567.2 0.5,-564.04 3.67,-560.87 6.83,-560.87 6.83,-560.87 89.17,-560.87 89.17,-560.87 92.33,-560.87 95.5,-564.04 95.5,-567.2 95.5,-567.2 95.5,-573.54 95.5,-573.54 95.5,-576.7 92.33,-579.87 89.17,-579.87"/>
<text text-anchor="middle" x="48" y="-567.87" font-family="Arial" font-size="10.00" fill="#cfffac">package&#45;lock.json</text>
</g>
<!-- package.json -->
<g id="node15" class="node">
<title>package.json</title>
<path fill="none" stroke="#cfffac" d="M78.67,-616.87C78.67,-616.87 17.33,-616.87 17.33,-616.87 14.17,-616.87 11,-613.7 11,-610.54 11,-610.54 11,-604.2 11,-604.2 11,-601.04 14.17,-597.87 17.33,-597.87 17.33,-597.87 78.67,-597.87 78.67,-597.87 81.83,-597.87 85,-601.04 85,-604.2 85,-604.2 85,-610.54 85,-610.54 85,-613.7 81.83,-616.87 78.67,-616.87"/>
<text text-anchor="middle" x="48" y="-604.87" font-family="Arial" font-size="10.00" fill="#cfffac">package.json</text>
</g>
<!-- src/app/components/blockable&#45;ui/blockable&#45;ui.component.ts -->
<g id="node30" class="node">
<title>src/app/components/blockable&#45;ui/blockable&#45;ui.component.ts</title>
<path fill="none" stroke="#cfffac" d="M840.17,-580.87C840.17,-580.87 575.83,-580.87 575.83,-580.87 572.67,-580.87 569.5,-577.7 569.5,-574.54 569.5,-574.54 569.5,-568.2 569.5,-568.2 569.5,-565.04 572.67,-561.87 575.83,-561.87 575.83,-561.87 840.17,-561.87 840.17,-561.87 843.33,-561.87 846.5,-565.04 846.5,-568.2 846.5,-568.2 846.5,-574.54 846.5,-574.54 846.5,-577.7 843.33,-580.87 840.17,-580.87"/>
<text text-anchor="middle" x="708" y="-568.87" font-family="Arial" font-size="10.00" fill="#cfffac">src/app/components/blockable&#45;ui/blockable&#45;ui.component.ts</text>
</g>
<!-- src/app/components/blockable&#45;ui/_index.ts&#45;&gt;src/app/components/blockable&#45;ui/blockable&#45;ui.component.ts -->
<g id="edge21" class="edge">
<title>src/app/components/blockable&#45;ui/_index.ts&#45;&gt;src/app/components/blockable&#45;ui/blockable&#45;ui.component.ts</title>
<path fill="none" stroke="#757575" d="M522.88,-571.37C534.64,-571.37 546.81,-571.37 559.04,-571.37"/>
<polygon fill="#757575" stroke="#757575" points="559.32,-574.87 569.32,-571.37 559.32,-567.87 559.32,-574.87"/>
</g>
<!-- src/app/components/dynamic/dynamic.component.ts -->
<g id="node31" class="node">
<title>src/app/components/dynamic/dynamic.component.ts</title>
<path fill="none" stroke="#c6c5fe" d="M2057.67,-315.87C2057.67,-315.87 1823.33,-315.87 1823.33,-315.87 1820.17,-315.87 1817,-312.7 1817,-309.54 1817,-309.54 1817,-303.2 1817,-303.2 1817,-300.04 1820.17,-296.87 1823.33,-296.87 1823.33,-296.87 2057.67,-296.87 2057.67,-296.87 2060.83,-296.87 2064,-300.04 2064,-303.2 2064,-303.2 2064,-309.54 2064,-309.54 2064,-312.7 2060.83,-315.87 2057.67,-315.87"/>
<text text-anchor="middle" x="1940.5" y="-303.87" font-family="Arial" font-size="10.00" fill="#c6c5fe">src/app/components/dynamic/dynamic.component.ts</text>
</g>
<!-- src/app/components/dynamic/_index.ts&#45;&gt;src/app/components/dynamic/dynamic.component.ts -->
<g id="edge22" class="edge">
<title>src/app/components/dynamic/_index.ts&#45;&gt;src/app/components/dynamic/dynamic.component.ts</title>
<path fill="none" stroke="#757575" d="M1719.21,-306.37C1746.58,-306.37 1777.05,-306.37 1806.4,-306.37"/>
<polygon fill="#757575" stroke="#757575" points="1806.73,-309.87 1816.73,-306.37 1806.73,-302.87 1806.73,-309.87"/>
</g>
<!-- src/app/components/element&#45;renderer/element&#45;renderer.component.ts -->
<g id="node32" class="node">
<title>src/app/components/element&#45;renderer/element&#45;renderer.component.ts</title>
<path fill="none" stroke="#c6c5fe" d="M1485.67,-201.87C1485.67,-201.87 1179.33,-201.87 1179.33,-201.87 1176.17,-201.87 1173,-198.7 1173,-195.54 1173,-195.54 1173,-189.2 1173,-189.2 1173,-186.04 1176.17,-182.87 1179.33,-182.87 1179.33,-182.87 1485.67,-182.87 1485.67,-182.87 1488.83,-182.87 1492,-186.04 1492,-189.2 1492,-189.2 1492,-195.54 1492,-195.54 1492,-198.7 1488.83,-201.87 1485.67,-201.87"/>
<text text-anchor="middle" x="1332.5" y="-189.87" font-family="Arial" font-size="10.00" fill="#c6c5fe">src/app/components/element&#45;renderer/element&#45;renderer.component.ts</text>
</g>
<!-- src/app/components/element&#45;renderer/_index.ts&#45;&gt;src/app/components/element&#45;renderer/element&#45;renderer.component.ts -->
<g id="edge25" class="edge">
<title>src/app/components/element&#45;renderer/_index.ts&#45;&gt;src/app/components/element&#45;renderer/element&#45;renderer.component.ts</title>
<path fill="none" stroke="#757575" d="M1125.82,-192.37C1137.85,-192.37 1150.29,-192.37 1162.81,-192.37"/>
<polygon fill="#757575" stroke="#757575" points="1162.86,-195.87 1172.86,-192.37 1162.86,-188.87 1162.86,-195.87"/>
</g>
<!-- src/app/components/image/image.component.ts -->
<g id="node33" class="node">
<title>src/app/components/image/image.component.ts</title>
<path fill="none" stroke="#c6c5fe" d="M2378.67,-68.87C2378.67,-68.87 2165.33,-68.87 2165.33,-68.87 2162.17,-68.87 2159,-65.7 2159,-62.54 2159,-62.54 2159,-56.2 2159,-56.2 2159,-53.04 2162.17,-49.87 2165.33,-49.87 2165.33,-49.87 2378.67,-49.87 2378.67,-49.87 2381.83,-49.87 2385,-53.04 2385,-56.2 2385,-56.2 2385,-62.54 2385,-62.54 2385,-65.7 2381.83,-68.87 2378.67,-68.87"/>
<text text-anchor="middle" x="2272" y="-56.87" font-family="Arial" font-size="10.00" fill="#c6c5fe">src/app/components/image/image.component.ts</text>
</g>
<!-- src/app/components/image/_index.ts&#45;&gt;src/app/components/image/image.component.ts -->
<g id="edge32" class="edge">
<title>src/app/components/image/_index.ts&#45;&gt;src/app/components/image/image.component.ts</title>
<path fill="none" stroke="#757575" d="M1713.66,-75.79C1826.09,-72.47 2021.69,-66.71 2148.72,-62.97"/>
<polygon fill="#757575" stroke="#757575" points="2148.99,-66.46 2158.88,-62.67 2148.78,-59.47 2148.99,-66.46"/>
</g>
<!-- src/app/components/menu&#45;bar/menu&#45;bar.component.ts -->
<g id="node34" class="node">
<title>src/app/components/menu&#45;bar/menu&#45;bar.component.ts</title>
<path fill="none" stroke="#c6c5fe" d="M2061.17,-618.87C2061.17,-618.87 1819.83,-618.87 1819.83,-618.87 1816.67,-618.87 1813.5,-615.7 1813.5,-612.54 1813.5,-612.54 1813.5,-606.2 1813.5,-606.2 1813.5,-603.04 1816.67,-599.87 1819.83,-599.87 1819.83,-599.87 2061.17,-599.87 2061.17,-599.87 2064.33,-599.87 2067.5,-603.04 2067.5,-606.2 2067.5,-606.2 2067.5,-612.54 2067.5,-612.54 2067.5,-615.7 2064.33,-618.87 2061.17,-618.87"/>
<text text-anchor="middle" x="1940.5" y="-606.87" font-family="Arial" font-size="10.00" fill="#c6c5fe">src/app/components/menu&#45;bar/menu&#45;bar.component.ts</text>
</g>
<!-- src/app/components/menu&#45;bar/_index.ts&#45;&gt;src/app/components/menu&#45;bar/menu&#45;bar.component.ts -->
<g id="edge34" class="edge">
<title>src/app/components/menu&#45;bar/_index.ts&#45;&gt;src/app/components/menu&#45;bar/menu&#45;bar.component.ts</title>
<path fill="none" stroke="#757575" d="M1720.91,-609.37C1746.83,-609.37 1775.44,-609.37 1803.18,-609.37"/>
<polygon fill="#757575" stroke="#757575" points="1803.36,-612.87 1813.36,-609.37 1803.36,-605.87 1803.36,-612.87"/>
</g>
<!-- src/app/components/nav&#45;logo/nav&#45;logo.component.ts -->
<g id="node35" class="node">
<title>src/app/components/nav&#45;logo/nav&#45;logo.component.ts</title>
<path fill="none" stroke="#c6c5fe" d="M2057.67,-466.87C2057.67,-466.87 1823.33,-466.87 1823.33,-466.87 1820.17,-466.87 1817,-463.7 1817,-460.54 1817,-460.54 1817,-454.2 1817,-454.2 1817,-451.04 1820.17,-447.87 1823.33,-447.87 1823.33,-447.87 2057.67,-447.87 2057.67,-447.87 2060.83,-447.87 2064,-451.04 2064,-454.2 2064,-454.2 2064,-460.54 2064,-460.54 2064,-463.7 2060.83,-466.87 2057.67,-466.87"/>
<text text-anchor="middle" x="1940.5" y="-454.87" font-family="Arial" font-size="10.00" fill="#c6c5fe">src/app/components/nav&#45;logo/nav&#45;logo.component.ts</text>
</g>
<!-- src/app/components/nav&#45;logo/_index.ts&#45;&gt;src/app/components/nav&#45;logo/nav&#45;logo.component.ts -->
<g id="edge38" class="edge">
<title>src/app/components/nav&#45;logo/_index.ts&#45;&gt;src/app/components/nav&#45;logo/nav&#45;logo.component.ts</title>
<path fill="none" stroke="#757575" d="M1719.21,-457.37C1746.58,-457.37 1777.05,-457.37 1806.4,-457.37"/>
<polygon fill="#757575" stroke="#757575" points="1806.73,-460.87 1816.73,-457.37 1806.73,-453.87 1806.73,-460.87"/>
</g>
<!-- src/app/components/page&#45;layout/page&#45;layout.component.ts -->
<g id="node36" class="node">
<title>src/app/components/page&#45;layout/page&#45;layout.component.ts</title>
<path fill="none" stroke="#c6c5fe" d="M838.67,-429.87C838.67,-429.87 577.33,-429.87 577.33,-429.87 574.17,-429.87 571,-426.7 571,-423.54 571,-423.54 571,-417.2 571,-417.2 571,-414.04 574.17,-410.87 577.33,-410.87 577.33,-410.87 838.67,-410.87 838.67,-410.87 841.83,-410.87 845,-414.04 845,-417.2 845,-417.2 845,-423.54 845,-423.54 845,-426.7 841.83,-429.87 838.67,-429.87"/>
<text text-anchor="middle" x="708" y="-417.87" font-family="Arial" font-size="10.00" fill="#c6c5fe">src/app/components/page&#45;layout/page&#45;layout.component.ts</text>
</g>
<!-- src/app/components/page&#45;layout/_index.ts&#45;&gt;src/app/components/page&#45;layout/page&#45;layout.component.ts -->
<g id="edge40" class="edge">
<title>src/app/components/page&#45;layout/_index.ts&#45;&gt;src/app/components/page&#45;layout/page&#45;layout.component.ts</title>
<path fill="none" stroke="#757575" d="M521.68,-420.37C534.34,-420.37 547.5,-420.37 560.71,-420.37"/>
<polygon fill="#757575" stroke="#757575" points="560.81,-423.87 570.81,-420.37 560.81,-416.87 560.81,-423.87"/>
</g>
<!-- src/app/components/pull&#45;to&#45;refresh/pull&#45;to&#45;refresh.component.ts -->
<g id="node37" class="node">
<title>src/app/components/pull&#45;to&#45;refresh/pull&#45;to&#45;refresh.component.ts</title>
<path fill="none" stroke="#cfffac" d="M847.67,-543.87C847.67,-543.87 568.33,-543.87 568.33,-543.87 565.17,-543.87 562,-540.7 562,-537.54 562,-537.54 562,-531.2 562,-531.2 562,-528.04 565.17,-524.87 568.33,-524.87 568.33,-524.87 847.67,-524.87 847.67,-524.87 850.83,-524.87 854,-528.04 854,-531.2 854,-531.2 854,-537.54 854,-537.54 854,-540.7 850.83,-543.87 847.67,-543.87"/>
<text text-anchor="middle" x="708" y="-531.87" font-family="Arial" font-size="10.00" fill="#cfffac">src/app/components/pull&#45;to&#45;refresh/pull&#45;to&#45;refresh.component.ts</text>
</g>
<!-- src/app/components/pull&#45;to&#45;refresh/_index.ts&#45;&gt;src/app/components/pull&#45;to&#45;refresh/pull&#45;to&#45;refresh.component.ts -->
<g id="edge44" class="edge">
<title>src/app/components/pull&#45;to&#45;refresh/_index.ts&#45;&gt;src/app/components/pull&#45;to&#45;refresh/pull&#45;to&#45;refresh.component.ts</title>
<path fill="none" stroke="#757575" d="M526.1,-534.37C534.44,-534.37 542.98,-534.37 551.57,-534.37"/>
<polygon fill="#757575" stroke="#757575" points="551.69,-537.87 561.69,-534.37 551.69,-530.87 551.69,-537.87"/>
</g>
<!-- src/app/components/svg/svg.component.ts -->
<g id="node38" class="node">
<title>src/app/components/svg/svg.component.ts</title>
<path fill="none" stroke="#cfffac" d="M2640.67,-580.87C2640.67,-580.87 2448.33,-580.87 2448.33,-580.87 2445.17,-580.87 2442,-577.7 2442,-574.54 2442,-574.54 2442,-568.2 2442,-568.2 2442,-565.04 2445.17,-561.87 2448.33,-561.87 2448.33,-561.87 2640.67,-561.87 2640.67,-561.87 2643.83,-561.87 2647,-565.04 2647,-568.2 2647,-568.2 2647,-574.54 2647,-574.54 2647,-577.7 2643.83,-580.87 2640.67,-580.87"/>
<text text-anchor="middle" x="2544.5" y="-568.87" font-family="Arial" font-size="10.00" fill="#cfffac">src/app/components/svg/svg.component.ts</text>
</g>
<!-- src/app/components/svg/_index.ts&#45;&gt;src/app/components/svg/svg.component.ts -->
<g id="edge45" class="edge">
<title>src/app/components/svg/_index.ts&#45;&gt;src/app/components/svg/svg.component.ts</title>
<path fill="none" stroke="#757575" d="M2355.63,-571.37C2379.63,-571.37 2406.26,-571.37 2431.73,-571.37"/>
<polygon fill="#757575" stroke="#757575" points="2431.81,-574.87 2441.81,-571.37 2431.81,-567.87 2431.81,-574.87"/>
</g>
<!-- src/app/components/tabbed&#45;response&#45;table/tabbed&#45;response&#45;table.component.ts -->
<g id="node39" class="node">
<title>src/app/components/tabbed&#45;response&#45;table/tabbed&#45;response&#45;table.component.ts</title>
<path fill="none" stroke="#c6c5fe" d="M2116.67,-239.87C2116.67,-239.87 1764.33,-239.87 1764.33,-239.87 1761.17,-239.87 1758,-236.7 1758,-233.54 1758,-233.54 1758,-227.2 1758,-227.2 1758,-224.04 1761.17,-220.87 1764.33,-220.87 1764.33,-220.87 2116.67,-220.87 2116.67,-220.87 2119.83,-220.87 2123,-224.04 2123,-227.2 2123,-227.2 2123,-233.54 2123,-233.54 2123,-236.7 2119.83,-239.87 2116.67,-239.87"/>
<text text-anchor="middle" x="1940.5" y="-227.87" font-family="Arial" font-size="10.00" fill="#c6c5fe">src/app/components/tabbed&#45;response&#45;table/tabbed&#45;response&#45;table.component.ts</text>
</g>
<!-- src/app/components/tabbed&#45;response&#45;table/_index.ts&#45;&gt;src/app/components/tabbed&#45;response&#45;table/tabbed&#45;response&#45;table.component.ts -->
<g id="edge46" class="edge">
<title>src/app/components/tabbed&#45;response&#45;table/_index.ts&#45;&gt;src/app/components/tabbed&#45;response&#45;table/tabbed&#45;response&#45;table.component.ts</title>
<path fill="none" stroke="#757575" d="M1137.33,-230.37C1293.32,-230.37 1564.2,-230.37 1747.56,-230.37"/>
<polygon fill="#757575" stroke="#757575" points="1747.59,-233.87 1757.59,-230.37 1747.59,-226.87 1747.59,-233.87"/>
</g>
<!-- src/app/components/text&#45;block/text&#45;block.component.ts -->
<g id="node40" class="node">
<title>src/app/components/text&#45;block/text&#45;block.component.ts</title>
<path fill="none" stroke="#c6c5fe" d="M2063.67,-277.87C2063.67,-277.87 1817.33,-277.87 1817.33,-277.87 1814.17,-277.87 1811,-274.7 1811,-271.54 1811,-271.54 1811,-265.2 1811,-265.2 1811,-262.04 1814.17,-258.87 1817.33,-258.87 1817.33,-258.87 2063.67,-258.87 2063.67,-258.87 2066.83,-258.87 2070,-262.04 2070,-265.2 2070,-265.2 2070,-271.54 2070,-271.54 2070,-274.7 2066.83,-277.87 2063.67,-277.87"/>
<text text-anchor="middle" x="1940.5" y="-265.87" font-family="Arial" font-size="10.00" fill="#c6c5fe">src/app/components/text&#45;block/text&#45;block.component.ts</text>
</g>
<!-- src/app/components/text&#45;block/_index.ts&#45;&gt;src/app/components/text&#45;block/text&#45;block.component.ts -->
<g id="edge50" class="edge">
<title>src/app/components/text&#45;block/_index.ts&#45;&gt;src/app/components/text&#45;block/text&#45;block.component.ts</title>
<path fill="none" stroke="#757575" d="M1722.19,-268.37C1747.01,-268.37 1774.22,-268.37 1800.74,-268.37"/>
<polygon fill="#757575" stroke="#757575" points="1800.86,-271.87 1810.86,-268.37 1800.86,-264.87 1800.86,-271.87"/>
</g>
<!-- src/app/components/top&#45;nav/top&#45;nav.component.ts -->
<g id="node41" class="node">
<title>src/app/components/top&#45;nav/top&#45;nav.component.ts</title>
<path fill="none" stroke="#c6c5fe" d="M1444.67,-542.87C1444.67,-542.87 1220.33,-542.87 1220.33,-542.87 1217.17,-542.87 1214,-539.7 1214,-536.54 1214,-536.54 1214,-530.2 1214,-530.2 1214,-527.04 1217.17,-523.87 1220.33,-523.87 1220.33,-523.87 1444.67,-523.87 1444.67,-523.87 1447.83,-523.87 1451,-527.04 1451,-530.2 1451,-530.2 1451,-536.54 1451,-536.54 1451,-539.7 1447.83,-542.87 1444.67,-542.87"/>
<text text-anchor="middle" x="1332.5" y="-530.87" font-family="Arial" font-size="10.00" fill="#c6c5fe">src/app/components/top&#45;nav/top&#45;nav.component.ts</text>
</g>
<!-- src/app/components/top&#45;nav/_index.ts&#45;&gt;src/app/components/top&#45;nav/top&#45;nav.component.ts -->
<g id="edge53" class="edge">
<title>src/app/components/top&#45;nav/_index.ts&#45;&gt;src/app/components/top&#45;nav/top&#45;nav.component.ts</title>
<path fill="none" stroke="#757575" d="M1105.34,-533.37C1135.93,-533.37 1170.66,-533.37 1203.56,-533.37"/>
<polygon fill="#757575" stroke="#757575" points="1203.71,-536.87 1213.71,-533.37 1203.71,-529.87 1203.71,-536.87"/>
</g>
<!-- src/app/components/ws&#45;table/table&#45;types.ts -->
<g id="node42" class="node">
<title>src/app/components/ws&#45;table/table&#45;types.ts</title>
<path fill="none" stroke="#c6c5fe" d="M2904.67,-390.87C2904.67,-390.87 2710.33,-390.87 2710.33,-390.87 2707.17,-390.87 2704,-387.7 2704,-384.54 2704,-384.54 2704,-378.2 2704,-378.2 2704,-375.04 2707.17,-371.87 2710.33,-371.87 2710.33,-371.87 2904.67,-371.87 2904.67,-371.87 2907.83,-371.87 2911,-375.04 2911,-378.2 2911,-378.2 2911,-384.54 2911,-384.54 2911,-387.7 2907.83,-390.87 2904.67,-390.87"/>
<text text-anchor="middle" x="2807.5" y="-378.87" font-family="Arial" font-size="10.00" fill="#c6c5fe">src/app/components/ws&#45;table/table&#45;types.ts</text>
</g>
<!-- src/app/components/ws&#45;table/_index.ts&#45;&gt;src/app/components/ws&#45;table/table&#45;types.ts -->
<g id="edge58" class="edge">
<title>src/app/components/ws&#45;table/_index.ts&#45;&gt;src/app/components/ws&#45;table/table&#45;types.ts</title>
<path fill="none" stroke="#757575" d="M2347.82,-353.88C2371.22,-356.61 2397.16,-359.38 2421,-361.37 2512.56,-368.99 2616.61,-374.19 2693.52,-377.37"/>
<polygon fill="#757575" stroke="#757575" points="2693.57,-380.87 2703.71,-377.78 2693.86,-373.88 2693.57,-380.87"/>
</g>
<!-- src/app/components/ws&#45;table/ws&#45;table.component.ts -->
<g id="node43" class="node">
<title>src/app/components/ws&#45;table/ws&#45;table.component.ts</title>
<path fill="none" stroke="#c6c5fe" d="M2661.67,-352.87C2661.67,-352.87 2427.33,-352.87 2427.33,-352.87 2424.17,-352.87 2421,-349.7 2421,-346.54 2421,-346.54 2421,-340.2 2421,-340.2 2421,-337.04 2424.17,-333.87 2427.33,-333.87 2427.33,-333.87 2661.67,-333.87 2661.67,-333.87 2664.83,-333.87 2668,-337.04 2668,-340.2 2668,-340.2 2668,-346.54 2668,-346.54 2668,-349.7 2664.83,-352.87 2661.67,-352.87"/>
<text text-anchor="middle" x="2544.5" y="-340.87" font-family="Arial" font-size="10.00" fill="#c6c5fe">src/app/components/ws&#45;table/ws&#45;table.component.ts</text>
</g>
<!-- src/app/components/ws&#45;table/_index.ts&#45;&gt;src/app/components/ws&#45;table/ws&#45;table.component.ts -->
<g id="edge59" class="edge">
<title>src/app/components/ws&#45;table/_index.ts&#45;&gt;src/app/components/ws&#45;table/ws&#45;table.component.ts</title>
<path fill="none" stroke="#757575" d="M2366.09,-344.02C2380.37,-343.97 2395.35,-343.92 2410.29,-343.86"/>
<polygon fill="#757575" stroke="#757575" points="2410.63,-347.36 2420.62,-343.82 2410.61,-340.36 2410.63,-347.36"/>
</g>
<!-- src/app/components/dynamic/dynamic.component.ts&#45;&gt;src/app/models/_index.ts -->
<g id="edge23" class="edge">
<title>src/app/components/dynamic/dynamic.component.ts&#45;&gt;src/app/models/_index.ts</title>
<path fill="none" stroke="#757575" d="M1971.76,-315.93C2013.46,-328.69 2091.13,-351 2159,-362.37 2444.08,-410.13 2789.27,-418.19 2936.65,-419.33"/>
<polygon fill="#757575" stroke="#757575" points="2936.89,-422.83 2946.92,-419.4 2936.94,-415.83 2936.89,-422.83"/>
</g>
<!-- src/app/components/dynamic/dynamic.component.ts&#45;&gt;src/app/type&#45;guards/_index.ts -->
<g id="edge24" class="edge">
<title>src/app/components/dynamic/dynamic.component.ts&#45;&gt;src/app/type&#45;guards/_index.ts</title>
<path fill="none" stroke="#757575" d="M2064.27,-297.1C2084.05,-294.38 2104.2,-290.89 2123,-286.37 2165.24,-276.22 2211.76,-257.25 2241.16,-244.22"/>
<polygon fill="#757575" stroke="#757575" points="2242.76,-247.34 2250.45,-240.05 2239.89,-240.95 2242.76,-247.34"/>
</g>
<!-- src/app/components/element&#45;renderer/element&#45;renderer.component.ts&#45;&gt;src/app/directives/_index.ts -->
<g id="edge29" class="edge">
<title>src/app/components/element&#45;renderer/element&#45;renderer.component.ts&#45;&gt;src/app/directives/_index.ts</title>
<path fill="none" stroke="#757575" d="M1413.85,-182.84C1448.88,-178.91 1490.43,-174.54 1528,-171.37 1630.05,-162.76 1655.74,-162.99 1758,-157.37 2353.97,-124.58 3073.07,-91.5 3307.52,-80.88"/>
<polygon fill="#757575" stroke="#757575" points="3307.83,-84.37 3317.66,-80.42 3307.51,-77.37 3307.83,-84.37"/>
</g>
<!-- src/app/components/element&#45;renderer/element&#45;renderer.component.ts&#45;&gt;src/app/models/_index.ts -->
<g id="edge30" class="edge">
<title>src/app/components/element&#45;renderer/element&#45;renderer.component.ts&#45;&gt;src/app/models/_index.ts</title>
<path fill="none" stroke="#757575" d="M1492.32,-184.94C1881.1,-167.42 2853.21,-127.84 2911,-167.37 2990.27,-221.59 3005.43,-350.11 3008.32,-399.53"/>
<polygon fill="#757575" stroke="#757575" points="3004.84,-399.99 3008.81,-409.81 3011.83,-399.66 3004.84,-399.99"/>
</g>
<!-- src/app/components/element&#45;renderer/element&#45;renderer.component.ts&#45;&gt;src/app/type&#45;guards/_index.ts -->
<g id="edge31" class="edge">
<title>src/app/components/element&#45;renderer/element&#45;renderer.component.ts&#45;&gt;src/app/type&#45;guards/_index.ts</title>
<path fill="none" stroke="#757575" d="M1492.15,-191.37C1651.74,-191.49 1904.77,-194.78 2123,-211.37 2147.52,-213.23 2174.21,-216.33 2198.09,-219.48"/>
<polygon fill="#757575" stroke="#757575" points="2197.76,-222.97 2208.13,-220.84 2198.69,-216.03 2197.76,-222.97"/>
</g>
<!-- src/app/components/element&#45;renderer/element&#45;renderer.component.ts&#45;&gt;src/app/components/dynamic/_index.ts -->
<g id="edge26" class="edge">
<title>src/app/components/element&#45;renderer/element&#45;renderer.component.ts&#45;&gt;src/app/components/dynamic/_index.ts</title>
<path fill="none" stroke="#757575" d="M1349.82,-201.97C1382.54,-220.82 1458.94,-262.88 1528,-286.37 1537.25,-289.51 1547.17,-292.25 1557.01,-294.61"/>
<polygon fill="#757575" stroke="#757575" points="1556.25,-298.03 1566.78,-296.84 1557.81,-291.21 1556.25,-298.03"/>
</g>
<!-- src/app/components/element&#45;renderer/element&#45;renderer.component.ts&#45;&gt;src/app/components/image/_index.ts -->
<g id="edge27" class="edge">
<title>src/app/components/element&#45;renderer/element&#45;renderer.component.ts&#45;&gt;src/app/components/image/_index.ts</title>
<path fill="none" stroke="#757575" d="M1365.7,-182.8C1398.62,-172.34 1450.64,-153.88 1492,-130.37 1509.62,-120.35 1509.77,-111.24 1528,-102.37 1537.82,-97.59 1548.67,-93.71 1559.45,-90.56"/>
<polygon fill="#757575" stroke="#757575" points="1560.57,-93.89 1569.3,-87.89 1558.73,-87.13 1560.57,-93.89"/>
</g>
<!-- src/app/components/element&#45;renderer/element&#45;renderer.component.ts&#45;&gt;src/app/components/text&#45;block/_index.ts -->
<g id="edge28" class="edge">
<title>src/app/components/element&#45;renderer/element&#45;renderer.component.ts&#45;&gt;src/app/components/text&#45;block/_index.ts</title>
<path fill="none" stroke="#757575" d="M1370,-201.92C1422.61,-215.68 1519.77,-241.1 1577.47,-256.2"/>
<polygon fill="#757575" stroke="#757575" points="1576.86,-259.65 1587.42,-258.8 1578.63,-252.88 1576.86,-259.65"/>
</g>
<!-- src/app/components/image/image.component.ts&#45;&gt;src/app/models/_index.ts -->
<g id="edge33" class="edge">
<title>src/app/components/image/image.component.ts&#45;&gt;src/app/models/_index.ts</title>
<path fill="none" stroke="#757575" d="M2321.48,-49.85C2437.57,-30.02 2734.93,2.85 2911,-139.37 2993.69,-206.16 3006.75,-347.25 3008.7,-399.42"/>
<polygon fill="#757575" stroke="#757575" points="3005.21,-399.76 3008.98,-409.67 3012.21,-399.57 3005.21,-399.76"/>
</g>
<!-- src/app/components/menu&#45;bar/menu&#45;bar.component.ts&#45;&gt;src/app/common/_index.ts -->
<g id="edge35" class="edge">
<title>src/app/components/menu&#45;bar/menu&#45;bar.component.ts&#45;&gt;src/app/common/_index.ts</title>
<path fill="none" stroke="#757575" d="M1982.9,-618.92C2043.03,-632.79 2154.46,-658.49 2219.71,-673.54"/>
<polygon fill="#757575" stroke="#757575" points="2219.24,-677.02 2229.77,-675.86 2220.81,-670.2 2219.24,-677.02"/>
</g>
<!-- src/app/components/menu&#45;bar/menu&#45;bar.component.ts&#45;&gt;src/app/models/_index.ts -->
<g id="edge37" class="edge">
<title>src/app/components/menu&#45;bar/menu&#45;bar.component.ts&#45;&gt;src/app/models/_index.ts</title>
<path fill="none" stroke="#757575" d="M2067.91,-615.43C2297.64,-624.18 2772.66,-631.1 2911,-547.37 2954.72,-520.91 2985.92,-467.08 3000.23,-438.39"/>
<polygon fill="#757575" stroke="#757575" points="3003.54,-439.58 3004.73,-429.05 2997.23,-436.54 3003.54,-439.58"/>
</g>
<!-- src/app/components/menu&#45;bar/menu&#45;bar.component.ts&#45;&gt;src/app/components/svg/_index.ts -->
<g id="edge36" class="edge">
<title>src/app/components/menu&#45;bar/menu&#45;bar.component.ts&#45;&gt;src/app/components/svg/_index.ts</title>
<path fill="none" stroke="#757575" d="M2024.22,-599.83C2071.12,-594.42 2129.92,-587.64 2178.36,-582.05"/>
<polygon fill="#757575" stroke="#757575" points="2179,-585.5 2188.53,-580.88 2178.2,-578.55 2179,-585.5"/>
</g>
<!-- src/app/components/nav&#45;logo/nav&#45;logo.component.ts&#45;&gt;src/app/models/_index.ts -->
<g id="edge39" class="edge">
<title>src/app/components/nav&#45;logo/nav&#45;logo.component.ts&#45;&gt;src/app/models/_index.ts</title>
<path fill="none" stroke="#757575" d="M2064.18,-458.93C2248.41,-460.23 2607.31,-458.73 2911,-433.37 2920.47,-432.58 2930.42,-431.48 2940.2,-430.23"/>
<polygon fill="#757575" stroke="#757575" points="2940.86,-433.68 2950.31,-428.89 2939.94,-426.74 2940.86,-433.68"/>
</g>
<!-- src/app/components/page&#45;layout/page&#45;layout.component.ts&#45;&gt;src/app/models/_index.ts -->
<g id="edge43" class="edge">
<title>src/app/components/page&#45;layout/page&#45;layout.component.ts&#45;&gt;src/app/models/_index.ts</title>
<path fill="none" stroke="#757575" d="M780.07,-429.91C931.66,-450.11 1277.38,-495.37 1331.5,-495.37 1331.5,-495.37 1331.5,-495.37 2545.5,-495.37 2708.96,-495.37 2751.74,-491.22 2911,-454.37 2933.78,-449.1 2958.58,-440.21 2977.53,-432.71"/>
<polygon fill="#757575" stroke="#757575" points="2978.9,-435.93 2986.87,-428.94 2976.28,-429.44 2978.9,-435.93"/>
</g>
<!-- src/app/components/page&#45;layout/page&#45;layout.component.ts&#45;&gt;src/app/components/dynamic/_index.ts -->
<g id="edge41" class="edge">
<title>src/app/components/page&#45;layout/page&#45;layout.component.ts&#45;&gt;src/app/components/dynamic/_index.ts</title>
<path fill="none" stroke="#757575" d="M785.44,-410.84C954.5,-389.78 1359.22,-339.36 1537.34,-317.16"/>
<polygon fill="#757575" stroke="#757575" points="1537.97,-320.61 1547.46,-315.9 1537.1,-313.67 1537.97,-320.61"/>
</g>
<!-- src/app/components/page&#45;layout/page&#45;layout.component.ts&#45;&gt;src/app/components/top&#45;nav/_index.ts -->
<g id="edge42" class="edge">
<title>src/app/components/page&#45;layout/page&#45;layout.component.ts&#45;&gt;src/app/components/top&#45;nav/_index.ts</title>
<path fill="none" stroke="#757575" d="M825.95,-429.96C835.92,-433.62 845.45,-438.34 854,-444.37 880.98,-463.41 863.3,-489.93 890,-509.37 896.8,-514.32 904.35,-518.32 912.28,-521.55"/>
<polygon fill="#757575" stroke="#757575" points="911.13,-524.85 921.72,-524.99 913.53,-518.28 911.13,-524.85"/>
</g>
<!-- src/app/components/tabbed&#45;response&#45;table/tabbed&#45;response&#45;table.component.ts&#45;&gt;src/app/models/_index.ts -->
<g id="edge48" class="edge">
<title>src/app/components/tabbed&#45;response&#45;table/tabbed&#45;response&#45;table.component.ts&#45;&gt;src/app/models/_index.ts</title>
<path fill="none" stroke="#757575" d="M2030.54,-220.86C2069.87,-217.11 2116.68,-213.25 2159,-211.37 2325.95,-203.94 2769.96,-120.73 2911,-210.37 2978.37,-253.19 3000.23,-355.91 3006.62,-399.39"/>
<polygon fill="#757575" stroke="#757575" points="3003.18,-400.1 3007.98,-409.54 3010.12,-399.17 3003.18,-400.1"/>
</g>
<!-- src/app/components/tabbed&#45;response&#45;table/tabbed&#45;response&#45;table.component.ts&#45;&gt;src/app/type&#45;guards/_index.ts -->
<g id="edge49" class="edge">
<title>src/app/components/tabbed&#45;response&#45;table/tabbed&#45;response&#45;table.component.ts&#45;&gt;src/app/type&#45;guards/_index.ts</title>
<path fill="none" stroke="#757575" d="M2123.12,-230.37C2146.09,-230.37 2168.62,-230.37 2188.9,-230.37"/>
<polygon fill="#757575" stroke="#757575" points="2188.97,-233.87 2198.97,-230.37 2188.97,-226.87 2188.97,-233.87"/>
</g>
<!-- src/app/components/tabbed&#45;response&#45;table/tabbed&#45;response&#45;table.component.ts&#45;&gt;src/app/components/ws&#45;table/_index.ts -->
<g id="edge47" class="edge">
<title>src/app/components/tabbed&#45;response&#45;table/tabbed&#45;response&#45;table.component.ts&#45;&gt;src/app/components/ws&#45;table/_index.ts</title>
<path fill="none" stroke="#757575" d="M2088.92,-239.87C2100.6,-242.42 2112.09,-245.54 2123,-249.37 2174.21,-267.34 2225.66,-306.16 2252.33,-328.21"/>
<polygon fill="#757575" stroke="#757575" points="2250.18,-330.97 2260.08,-334.73 2254.68,-325.61 2250.18,-330.97"/>
</g>
<!-- src/app/components/text&#45;block/text&#45;block.component.ts&#45;&gt;src/app/models/_index.ts -->
<g id="edge51" class="edge">
<title>src/app/components/text&#45;block/text&#45;block.component.ts&#45;&gt;src/app/models/_index.ts</title>
<path fill="none" stroke="#757575" d="M2070.32,-272.23C2316.34,-280.28 2835.42,-300.77 2911,-332.37 2946.82,-347.34 2978.42,-381 2995.52,-401.79"/>
<polygon fill="#757575" stroke="#757575" points="2992.96,-404.19 3001.93,-409.82 2998.43,-399.82 2992.96,-404.19"/>
</g>
<!-- src/app/components/text&#45;block/text&#45;block.component.ts&#45;&gt;src/app/type&#45;guards/_index.ts -->
<g id="edge52" class="edge">
<title>src/app/components/text&#45;block/text&#45;block.component.ts&#45;&gt;src/app/type&#45;guards/_index.ts</title>
<path fill="none" stroke="#757575" d="M2029.68,-258.85C2059.34,-255.6 2092.61,-251.89 2123,-248.37 2144.31,-245.9 2167.33,-243.14 2188.73,-240.54"/>
<polygon fill="#757575" stroke="#757575" points="2189.25,-244 2198.75,-239.32 2188.4,-237.06 2189.25,-244"/>
</g>
<!-- src/app/components/top&#45;nav/top&#45;nav.component.ts&#45;&gt;src/app/models/_index.ts -->
<g id="edge57" class="edge">
<title>src/app/components/top&#45;nav/top&#45;nav.component.ts&#45;&gt;src/app/models/_index.ts</title>
<path fill="none" stroke="#757575" d="M1451.09,-533.37C1573.18,-533.37 1769.72,-533.37 1939.5,-533.37 1939.5,-533.37 1939.5,-533.37 2545.5,-533.37 2708.29,-533.37 2761.33,-573.4 2911,-509.37 2947.59,-493.72 2979.31,-458.38 2996.15,-436.93"/>
<polygon fill="#757575" stroke="#757575" points="2998.96,-439.02 3002.23,-428.95 2993.39,-434.78 2998.96,-439.02"/>
</g>
<!-- src/app/components/top&#45;nav/top&#45;nav.component.ts&#45;&gt;src/app/components/dynamic/_index.ts -->
<g id="edge54" class="edge">
<title>src/app/components/top&#45;nav/top&#45;nav.component.ts&#45;&gt;src/app/components/dynamic/_index.ts</title>
<path fill="none" stroke="#757575" d="M1346.82,-523.8C1374.29,-503.99 1439.09,-456.86 1492,-415.37 1532.97,-383.24 1579.69,-344.03 1605.09,-322.49"/>
<polygon fill="#757575" stroke="#757575" points="1607.5,-325.04 1612.86,-315.89 1602.97,-319.7 1607.5,-325.04"/>
</g>
<!-- src/app/components/top&#45;nav/top&#45;nav.component.ts&#45;&gt;src/app/components/menu&#45;bar/_index.ts -->
<g id="edge55" class="edge">
<title>src/app/components/top&#45;nav/top&#45;nav.component.ts&#45;&gt;src/app/components/menu&#45;bar/_index.ts</title>
<path fill="none" stroke="#757575" d="M1370,-542.92C1422.61,-556.68 1519.77,-582.1 1577.47,-597.2"/>
<polygon fill="#757575" stroke="#757575" points="1576.86,-600.65 1587.42,-599.8 1578.63,-593.88 1576.86,-600.65"/>
</g>
<!-- src/app/components/top&#45;nav/top&#45;nav.component.ts&#45;&gt;src/app/components/nav&#45;logo/_index.ts -->
<g id="edge56" class="edge">
<title>src/app/components/top&#45;nav/top&#45;nav.component.ts&#45;&gt;src/app/components/nav&#45;logo/_index.ts</title>
<path fill="none" stroke="#757575" d="M1370,-523.82C1422.61,-510.06 1519.77,-484.64 1577.47,-469.54"/>
<polygon fill="#757575" stroke="#757575" points="1578.63,-472.85 1587.42,-466.94 1576.86,-466.08 1578.63,-472.85"/>
</g>
<!-- src/app/components/ws&#45;table/table&#45;types.ts&#45;&gt;src/app/models/_index.ts -->
<g id="edge60" class="edge">
<title>src/app/components/ws&#45;table/table&#45;types.ts&#45;&gt;src/app/models/_index.ts</title>
<path fill="none" stroke="#757575" d="M2858.84,-390.91C2886.13,-396.08 2920.04,-402.51 2948.73,-407.95"/>
<polygon fill="#757575" stroke="#757575" points="2948.17,-411.4 2958.64,-409.82 2949.47,-404.52 2948.17,-411.4"/>
</g>
<!-- src/app/components/ws&#45;table/ws&#45;table.component.ts&#45;&gt;src/app/models/_index.ts -->
<g id="edge62" class="edge">
<title>src/app/components/ws&#45;table/ws&#45;table.component.ts&#45;&gt;src/app/models/_index.ts</title>
<path fill="none" stroke="#757575" d="M2668.11,-335.49C2740.25,-334.34 2832.44,-338.98 2911,-362.37 2940.15,-371.05 2969.82,-390.02 2988.75,-403.69"/>
<polygon fill="#757575" stroke="#757575" points="2986.78,-406.59 2996.9,-409.73 2990.95,-400.96 2986.78,-406.59"/>
</g>
<!-- src/app/components/ws&#45;table/ws&#45;table.component.ts&#45;&gt;src/app/components/ws&#45;table/table&#45;types.ts -->
<g id="edge61" class="edge">
<title>src/app/components/ws&#45;table/ws&#45;table.component.ts&#45;&gt;src/app/components/ws&#45;table/table&#45;types.ts</title>
<path fill="none" stroke="#757575" d="M2611.02,-352.91C2647.48,-358.22 2693.02,-364.85 2730.97,-370.37"/>
<polygon fill="#757575" stroke="#757575" points="2730.55,-373.85 2740.95,-371.82 2731.56,-366.92 2730.55,-373.85"/>
</g>
<!-- src/app/models/data&#45;source.ts&#45;&gt;src/app/models/general.ts -->
<g id="edge70" class="edge">
<title>src/app/models/data&#45;source.ts&#45;&gt;src/app/models/general.ts</title>
<path fill="none" stroke="#757575" d="M3239.46,-371.83C3265.88,-366.68 3298.69,-360.28 3326.52,-354.86"/>
<polygon fill="#757575" stroke="#757575" points="3327.38,-358.26 3336.52,-352.91 3326.04,-351.39 3327.38,-358.26"/>
</g>
<!-- src/app/models/general.ts&#45;&gt;src/app/models/style&#45;types.ts -->
<g id="edge71" class="edge">
<title>src/app/models/general.ts&#45;&gt;src/app/models/style&#45;types.ts</title>
<path fill="none" stroke="#757575" d="M3451.03,-343.37C3476.16,-343.37 3505.36,-343.37 3532.07,-343.37"/>
<polygon fill="#757575" stroke="#757575" points="3532.17,-346.87 3542.17,-343.37 3532.17,-339.87 3532.17,-346.87"/>
</g>
<!-- src/app/models/page&#45;elements.ts&#45;&gt;src/app/directives/_index.ts -->
<g id="edge72" class="edge">
<title>src/app/models/page&#45;elements.ts&#45;&gt;src/app/directives/_index.ts</title>
<path fill="none" stroke="#757575" d="M3198.63,-295.86C3228.43,-261.02 3331.91,-140.02 3370.68,-94.69"/>
<polygon fill="#757575" stroke="#757575" points="3373.49,-96.79 3377.33,-86.92 3368.18,-92.24 3373.49,-96.79"/>
</g>
<!-- src/app/models/page&#45;elements.ts&#45;&gt;src/app/models/general.ts -->
<g id="edge73" class="edge">
<title>src/app/models/page&#45;elements.ts&#45;&gt;src/app/models/general.ts</title>
<path fill="none" stroke="#757575" d="M3239.46,-314.91C3265.88,-320.06 3298.69,-326.45 3326.52,-331.87"/>
<polygon fill="#757575" stroke="#757575" points="3326.04,-335.35 3336.52,-333.82 3327.38,-328.48 3326.04,-335.35"/>
</g>
<!-- src/app/models/page&#45;elements.ts&#45;&gt;src/app/models/style&#45;types.ts -->
<g id="edge74" class="edge">
<title>src/app/models/page&#45;elements.ts&#45;&gt;src/app/models/style&#45;types.ts</title>
<path fill="none" stroke="#757575" d="M3270.16,-309.58C3325.46,-312.82 3400.8,-317.84 3467,-324.37 3489.73,-326.61 3514.36,-329.57 3536.86,-332.49"/>
<polygon fill="#757575" stroke="#757575" points="3536.67,-335.99 3547.04,-333.82 3537.58,-329.05 3536.67,-335.99"/>
</g>
<!-- src/app/models/svg/svg&#45;config.ts -->
<g id="node51" class="node">
<title>src/app/models/svg/svg&#45;config.ts</title>
<path fill="none" stroke="#cfffac" d="M3460.67,-503.87C3460.67,-503.87 3312.33,-503.87 3312.33,-503.87 3309.17,-503.87 3306,-500.7 3306,-497.54 3306,-497.54 3306,-491.2 3306,-491.2 3306,-488.04 3309.17,-484.87 3312.33,-484.87 3312.33,-484.87 3460.67,-484.87 3460.67,-484.87 3463.83,-484.87 3467,-488.04 3467,-491.2 3467,-491.2 3467,-497.54 3467,-497.54 3467,-500.7 3463.83,-503.87 3460.67,-503.87"/>
<text text-anchor="middle" x="3386.5" y="-491.87" font-family="Arial" font-size="10.00" fill="#cfffac">src/app/models/svg/svg&#45;config.ts</text>
</g>
<!-- src/app/models/svg/_index.ts&#45;&gt;src/app/models/svg/svg&#45;config.ts -->
<g id="edge75" class="edge">
<title>src/app/models/svg/_index.ts&#45;&gt;src/app/models/svg/svg&#45;config.ts</title>
<path fill="none" stroke="#757575" d="M3240.72,-466.9C3266.43,-471.78 3297.94,-477.75 3324.99,-482.89"/>
<polygon fill="#757575" stroke="#757575" points="3324.64,-486.38 3335.11,-484.81 3325.94,-479.51 3324.64,-486.38"/>
</g>
<!-- src/app/models/svg/svg&#45;ref.ts -->
<g id="node52" class="node">
<title>src/app/models/svg/svg&#45;ref.ts</title>
<path fill="none" stroke="#c6c5fe" d="M3453.17,-466.87C3453.17,-466.87 3319.83,-466.87 3319.83,-466.87 3316.67,-466.87 3313.5,-463.7 3313.5,-460.54 3313.5,-460.54 3313.5,-454.2 3313.5,-454.2 3313.5,-451.04 3316.67,-447.87 3319.83,-447.87 3319.83,-447.87 3453.17,-447.87 3453.17,-447.87 3456.33,-447.87 3459.5,-451.04 3459.5,-454.2 3459.5,-454.2 3459.5,-460.54 3459.5,-460.54 3459.5,-463.7 3456.33,-466.87 3453.17,-466.87"/>
<text text-anchor="middle" x="3386.5" y="-454.87" font-family="Arial" font-size="10.00" fill="#c6c5fe">src/app/models/svg/svg&#45;ref.ts</text>
</g>
<!-- src/app/models/svg/_index.ts&#45;&gt;src/app/models/svg/svg&#45;ref.ts -->
<g id="edge76" class="edge">
<title>src/app/models/svg/_index.ts&#45;&gt;src/app/models/svg/svg&#45;ref.ts</title>
<path fill="none" stroke="#757575" d="M3262,-457.37C3275.34,-457.37 3289.38,-457.37 3303.02,-457.37"/>
<polygon fill="#757575" stroke="#757575" points="3303.35,-460.87 3313.35,-457.37 3303.35,-453.87 3303.35,-460.87"/>
</g>
<!-- src/app/models/svg/svg&#45;types.ts -->
<g id="node53" class="node">
<title>src/app/models/svg/svg&#45;types.ts</title>
<path fill="none" stroke="#cfffac" d="M3688.67,-503.87C3688.67,-503.87 3542.33,-503.87 3542.33,-503.87 3539.17,-503.87 3536,-500.7 3536,-497.54 3536,-497.54 3536,-491.2 3536,-491.2 3536,-488.04 3539.17,-484.87 3542.33,-484.87 3542.33,-484.87 3688.67,-484.87 3688.67,-484.87 3691.83,-484.87 3695,-488.04 3695,-491.2 3695,-491.2 3695,-497.54 3695,-497.54 3695,-500.7 3691.83,-503.87 3688.67,-503.87"/>
<text text-anchor="middle" x="3615.5" y="-491.87" font-family="Arial" font-size="10.00" fill="#cfffac">src/app/models/svg/svg&#45;types.ts</text>
</g>
<!-- src/app/models/svg/_index.ts&#45;&gt;src/app/models/svg/svg&#45;types.ts -->
<g id="edge77" class="edge">
<title>src/app/models/svg/_index.ts&#45;&gt;src/app/models/svg/svg&#45;types.ts</title>
<path fill="none" stroke="#757575" d="M3250.51,-466.99C3257.31,-469.23 3263.95,-471.98 3270,-475.37 3290.01,-486.59 3284.86,-503.44 3306,-512.37 3397.11,-550.84 3516.96,-524.57 3576.93,-506.85"/>
<polygon fill="#757575" stroke="#757575" points="3578.17,-510.14 3586.72,-503.88 3576.13,-503.44 3578.17,-510.14"/>
</g>
<!-- src/app/models/svg/svg&#45;ref.ts&#45;&gt;src/app/models/svg/svg&#45;types.ts -->
<g id="edge78" class="edge">
<title>src/app/models/svg/svg&#45;ref.ts&#45;&gt;src/app/models/svg/svg&#45;types.ts</title>
<path fill="none" stroke="#757575" d="M3445.96,-466.9C3476.42,-471.86 3513.87,-477.97 3545.72,-483.16"/>
<polygon fill="#757575" stroke="#757575" points="3545.41,-486.65 3555.85,-484.81 3546.54,-479.74 3545.41,-486.65"/>
</g>
<!-- src/app/services/data&#45;service.ts&#45;&gt;src/app/models/_index.ts -->
<g id="edge84" class="edge">
<title>src/app/services/data&#45;service.ts&#45;&gt;src/app/models/_index.ts</title>
<path fill="none" stroke="#757575" d="M2885.55,-791.99C2894.92,-788.74 2903.74,-784.04 2911,-777.37 2962.23,-730.26 2996.78,-507.78 3006.32,-439.4"/>
<polygon fill="#757575" stroke="#757575" points="3009.84,-439.53 3007.73,-429.15 3002.9,-438.58 3009.84,-439.53"/>
</g>
<!-- src/app/services/theme.service.ts&#45;&gt;src/app/models/_index.ts -->
<g id="edge85" class="edge">
<title>src/app/services/theme.service.ts&#45;&gt;src/app/models/_index.ts</title>
<path fill="none" stroke="#757575" d="M2889.72,-753.18C2897.5,-750.08 2904.79,-745.91 2911,-740.37 3002.08,-659.04 3009.72,-495.76 3009.49,-439.2"/>
<polygon fill="#757575" stroke="#757575" points="3012.99,-439.04 3009.35,-429.09 3005.99,-439.13 3012.99,-439.04"/>
</g>
<!-- src/app/services/toast&#45;service.ts&#45;&gt;src/app/models/_index.ts -->
<g id="edge86" class="edge">
<title>src/app/services/toast&#45;service.ts&#45;&gt;src/app/models/_index.ts</title>
<path fill="none" stroke="#757575" d="M2886.02,-675.81C2895.1,-672.3 2903.71,-667.61 2911,-661.37 2980.52,-601.86 3001.34,-485.7 3007.03,-439.26"/>
<polygon fill="#757575" stroke="#757575" points="3010.54,-439.35 3008.18,-429.03 3003.59,-438.58 3010.54,-439.35"/>
</g>
<!-- src/app/services/utils.ts&#45;&gt;src/app/models/_index.ts -->
<g id="edge87" class="edge">
<title>src/app/services/utils.ts&#45;&gt;src/app/models/_index.ts</title>
<path fill="none" stroke="#757575" d="M2868.01,-833.67C2883.67,-830.95 2899.41,-825.29 2911,-814.37 2967.15,-761.49 2998.8,-511.52 3006.9,-439.08"/>
<polygon fill="#757575" stroke="#757575" points="3010.4,-439.36 3008,-429.04 3003.44,-438.6 3010.4,-439.36"/>
</g>
<!-- src/app/type&#45;guards/general&#45;type&#45;guards.ts&#45;&gt;src/app/models/_index.ts -->
<g id="edge90" class="edge">
<title>src/app/type&#45;guards/general&#45;type&#45;guards.ts&#45;&gt;src/app/models/_index.ts</title>
<path fill="none" stroke="#757575" d="M2882.01,-238.88C2892.35,-242.35 2902.38,-247.04 2911,-253.37 2962.35,-291.1 2991.52,-364.53 3003.11,-399.68"/>
<polygon fill="#757575" stroke="#757575" points="2999.91,-401.18 3006.25,-409.66 3006.58,-399.07 2999.91,-401.18"/>
</g>
<!-- src/app/type&#45;guards/page&#45;type&#45;guards.ts&#45;&gt;src/app/models/_index.ts -->
<g id="edge91" class="edge">
<title>src/app/type&#45;guards/page&#45;type&#45;guards.ts&#45;&gt;src/app/models/_index.ts</title>
<path fill="none" stroke="#757575" d="M2598.51,-257.86C2673.1,-247.24 2811.06,-237.88 2911,-291.37 2956.47,-315.71 2987.26,-371.33 3000.94,-400.59"/>
<polygon fill="#757575" stroke="#757575" points="2997.76,-402.06 3005.06,-409.74 3004.15,-399.19 2997.76,-402.06"/>
</g>
<!-- src/app/type&#45;guards/page&#45;type&#45;guards.ts&#45;&gt;src/app/type&#45;guards/general&#45;type&#45;guards.ts -->
<g id="edge92" class="edge">
<title>src/app/type&#45;guards/page&#45;type&#45;guards.ts&#45;&gt;src/app/type&#45;guards/general&#45;type&#45;guards.ts</title>
<path fill="none" stroke="#757575" d="M2611.02,-257.83C2647.48,-252.52 2693.02,-245.89 2730.97,-240.37"/>
<polygon fill="#757575" stroke="#757575" points="2731.56,-243.82 2740.95,-238.91 2730.55,-236.89 2731.56,-243.82"/>
</g>
<!-- tsconfig.app.json -->
<g id="node61" class="node">
<title>tsconfig.app.json</title>
<path fill="none" stroke="#cfffac" d="M87.17,-653.87C87.17,-653.87 8.83,-653.87 8.83,-653.87 5.67,-653.87 2.5,-650.7 2.5,-647.54 2.5,-647.54 2.5,-641.2 2.5,-641.2 2.5,-638.04 5.67,-634.87 8.83,-634.87 8.83,-634.87 87.17,-634.87 87.17,-634.87 90.33,-634.87 93.5,-638.04 93.5,-641.2 93.5,-641.2 93.5,-647.54 93.5,-647.54 93.5,-650.7 90.33,-653.87 87.17,-653.87"/>
<text text-anchor="middle" x="48" y="-641.87" font-family="Arial" font-size="10.00" fill="#cfffac">tsconfig.app.json</text>
</g>
<!-- tsconfig.json -->
<g id="node62" class="node">
<title>tsconfig.json</title>
<path fill="none" stroke="#cfffac" d="M77.67,-690.87C77.67,-690.87 18.33,-690.87 18.33,-690.87 15.17,-690.87 12,-687.7 12,-684.54 12,-684.54 12,-678.2 12,-678.2 12,-675.04 15.17,-671.87 18.33,-671.87 18.33,-671.87 77.67,-671.87 77.67,-671.87 80.83,-671.87 84,-675.04 84,-678.2 84,-678.2 84,-684.54 84,-684.54 84,-687.7 80.83,-690.87 77.67,-690.87"/>
<text text-anchor="middle" x="48" y="-678.87" font-family="Arial" font-size="10.00" fill="#cfffac">tsconfig.json</text>
</g>
<!-- tsconfig.spec.json -->
<g id="node63" class="node">
<title>tsconfig.spec.json</title>
<path fill="none" stroke="#cfffac" d="M89.67,-727.87C89.67,-727.87 6.33,-727.87 6.33,-727.87 3.17,-727.87 0,-724.7 0,-721.54 0,-721.54 0,-715.2 0,-715.2 0,-712.04 3.17,-708.87 6.33,-708.87 6.33,-708.87 89.67,-708.87 89.67,-708.87 92.83,-708.87 96,-712.04 96,-715.2 96,-715.2 96,-721.54 96,-721.54 96,-724.7 92.83,-727.87 89.67,-727.87"/>
<text text-anchor="middle" x="48" y="-715.87" font-family="Arial" font-size="10.00" fill="#cfffac">tsconfig.spec.json</text>
</g>
</g>
</svg>
