<?xml version="1.0" encoding="UTF-8" standalone="no"?>
<!DOCTYPE svg PUBLIC "-//W3C//DTD SVG 1.1//EN"
 "http://www.w3.org/Graphics/SVG/1.1/DTD/svg11.dtd">
<!-- Generated by graphviz version 2.43.0 (0)
 -->
<!-- Title: G Pages: 1 -->
<svg width="5693pt" height="866pt"
 viewBox="0.00 0.00 5693.20 865.66" xmlns="http://www.w3.org/2000/svg" xmlns:xlink="http://www.w3.org/1999/xlink">
<g id="graph0" class="graph" transform="scale(1 1) rotate(0) translate(21.6 844.06)">
<title>G</title>
<polygon fill="#111111" stroke="transparent" points="-21.6,21.6 -21.6,-844.06 5671.6,-844.06 5671.6,21.6 -21.6,21.6"/>
<!-- LICENSE -->
<g id="node1" class="node">
<title>LICENSE</title>
<path fill="none" stroke="#cfffac" d="M71.67,-347.32C71.67,-347.32 24.33,-347.32 24.33,-347.32 21.17,-347.32 18,-344.16 18,-340.99 18,-340.99 18,-334.66 18,-334.66 18,-331.49 21.17,-328.32 24.33,-328.32 24.33,-328.32 71.67,-328.32 71.67,-328.32 74.83,-328.32 78,-331.49 78,-334.66 78,-334.66 78,-340.99 78,-340.99 78,-344.16 74.83,-347.32 71.67,-347.32"/>
<text text-anchor="middle" x="48" y="-335.32" font-family="Arial" font-size="10.00" fill="#cfffac">LICENSE</text>
</g>
<!-- README.md -->
<g id="node2" class="node">
<title>README.md</title>
<path fill="none" stroke="#cfffac" d="M80.17,-384.32C80.17,-384.32 15.83,-384.32 15.83,-384.32 12.67,-384.32 9.5,-381.16 9.5,-377.99 9.5,-377.99 9.5,-371.66 9.5,-371.66 9.5,-368.49 12.67,-365.32 15.83,-365.32 15.83,-365.32 80.17,-365.32 80.17,-365.32 83.33,-365.32 86.5,-368.49 86.5,-371.66 86.5,-371.66 86.5,-377.99 86.5,-377.99 86.5,-381.16 83.33,-384.32 80.17,-384.32"/>
<text text-anchor="middle" x="48" y="-372.32" font-family="Arial" font-size="10.00" fill="#cfffac">README.md</text>
</g>
<!-- angular.json -->
<g id="node3" class="node">
<title>angular.json</title>
<path fill="none" stroke="#cfffac" d="M76.17,-421.32C76.17,-421.32 19.83,-421.32 19.83,-421.32 16.67,-421.32 13.5,-418.16 13.5,-414.99 13.5,-414.99 13.5,-408.66 13.5,-408.66 13.5,-405.49 16.67,-402.32 19.83,-402.32 19.83,-402.32 76.17,-402.32 76.17,-402.32 79.33,-402.32 82.5,-405.49 82.5,-408.66 82.5,-408.66 82.5,-414.99 82.5,-414.99 82.5,-418.16 79.33,-421.32 76.17,-421.32"/>
<text text-anchor="middle" x="48" y="-409.32" font-family="Arial" font-size="10.00" fill="#cfffac">angular.json</text>
</g>
<!-- build_exports.py -->
<g id="node4" class="node">
<title>build_exports.py</title>
<path fill="none" stroke="#cfffac" d="M85.67,-458.32C85.67,-458.32 10.33,-458.32 10.33,-458.32 7.17,-458.32 4,-455.16 4,-451.99 4,-451.99 4,-445.66 4,-445.66 4,-442.49 7.17,-439.32 10.33,-439.32 10.33,-439.32 85.67,-439.32 85.67,-439.32 88.83,-439.32 92,-442.49 92,-445.66 92,-445.66 92,-451.99 92,-451.99 92,-455.16 88.83,-458.32 85.67,-458.32"/>
<text text-anchor="middle" x="48" y="-446.32" font-family="Arial" font-size="10.00" fill="#cfffac">build_exports.py</text>
</g>
<!-- deps.png -->
<g id="node5" class="node">
<title>deps.png</title>
<path fill="none" stroke="#cfffac" d="M69.67,-495.32C69.67,-495.32 26.33,-495.32 26.33,-495.32 23.17,-495.32 20,-492.16 20,-488.99 20,-488.99 20,-482.66 20,-482.66 20,-479.49 23.17,-476.32 26.33,-476.32 26.33,-476.32 69.67,-476.32 69.67,-476.32 72.83,-476.32 76,-479.49 76,-482.66 76,-482.66 76,-488.99 76,-488.99 76,-492.16 72.83,-495.32 69.67,-495.32"/>
<text text-anchor="middle" x="48" y="-483.32" font-family="Arial" font-size="10.00" fill="#cfffac">deps.png</text>
</g>
<!-- deps.svg -->
<g id="node6" class="node">
<title>deps.svg</title>
<path fill="none" stroke="#cfffac" d="M69.67,-532.32C69.67,-532.32 26.33,-532.32 26.33,-532.32 23.17,-532.32 20,-529.16 20,-525.99 20,-525.99 20,-519.66 20,-519.66 20,-516.49 23.17,-513.32 26.33,-513.32 26.33,-513.32 69.67,-513.32 69.67,-513.32 72.83,-513.32 76,-516.49 76,-519.66 76,-519.66 76,-525.99 76,-525.99 76,-529.16 72.83,-532.32 69.67,-532.32"/>
<text text-anchor="middle" x="48" y="-520.32" font-family="Arial" font-size="10.00" fill="#cfffac">deps.svg</text>
</g>
<!-- index.ts -->
<g id="node7" class="node">
<title>index.ts</title>
<path fill="none" stroke="#c6c5fe" d="M68.67,-569.32C68.67,-569.32 27.33,-569.32 27.33,-569.32 24.17,-569.32 21,-566.16 21,-562.99 21,-562.99 21,-556.66 21,-556.66 21,-553.49 24.17,-550.32 27.33,-550.32 27.33,-550.32 68.67,-550.32 68.67,-550.32 71.83,-550.32 75,-553.49 75,-556.66 75,-556.66 75,-562.99 75,-562.99 75,-566.16 71.83,-569.32 68.67,-569.32"/>
<text text-anchor="middle" x="48" y="-557.32" font-family="Arial" font-size="10.00" fill="#c6c5fe">index.ts</text>
</g>
<!-- src/app/common/_index.ts -->
<g id="node8" class="node">
<title>src/app/common/_index.ts</title>
<path fill="none" stroke="#c6c5fe" d="M2106.17,-474.32C2106.17,-474.32 1986.83,-474.32 1986.83,-474.32 1983.67,-474.32 1980.5,-471.16 1980.5,-467.99 1980.5,-467.99 1980.5,-461.66 1980.5,-461.66 1980.5,-458.49 1983.67,-455.32 1986.83,-455.32 1986.83,-455.32 2106.17,-455.32 2106.17,-455.32 2109.33,-455.32 2112.5,-458.49 2112.5,-461.66 2112.5,-461.66 2112.5,-467.99 2112.5,-467.99 2112.5,-471.16 2109.33,-474.32 2106.17,-474.32"/>
<text text-anchor="middle" x="2046.5" y="-462.32" font-family="Arial" font-size="10.00" fill="#c6c5fe">src/app/common/_index.ts</text>
</g>
<!-- index.ts&#45;&gt;src/app/common/_index.ts -->
<g id="edge1" class="edge">
<title>index.ts&#45;&gt;src/app/common/_index.ts</title>
<path fill="none" stroke="#757575" d="M75.45,-555.24C136.14,-545.13 290.18,-521.82 420,-521.82 420,-521.82 420,-521.82 1542.5,-521.82 1703.19,-521.82 1890.92,-492.75 1985.11,-476.13"/>
<polygon fill="#757575" stroke="#757575" points="1985.79,-479.56 1995.02,-474.36 1984.56,-472.67 1985.79,-479.56"/>
</g>
<!-- src/app/components/_index.ts -->
<g id="node9" class="node">
<title>src/app/components/_index.ts</title>
<path fill="none" stroke="#c6c5fe" d="M273.67,-265.32C273.67,-265.32 138.33,-265.32 138.33,-265.32 135.17,-265.32 132,-262.16 132,-258.99 132,-258.99 132,-252.66 132,-252.66 132,-249.49 135.17,-246.32 138.33,-246.32 138.33,-246.32 273.67,-246.32 273.67,-246.32 276.83,-246.32 280,-249.49 280,-252.66 280,-252.66 280,-258.99 280,-258.99 280,-262.16 276.83,-265.32 273.67,-265.32"/>
<text text-anchor="middle" x="206" y="-253.32" font-family="Arial" font-size="10.00" fill="#c6c5fe">src/app/components/_index.ts</text>
</g>
<!-- index.ts&#45;&gt;src/app/components/_index.ts -->
<g id="edge2" class="edge">
<title>index.ts&#45;&gt;src/app/components/_index.ts</title>
<path fill="none" stroke="#757575" d="M75.17,-553.54C82.66,-550.68 90.33,-546.6 96,-540.82 172.41,-462.96 196.42,-325.95 202.89,-275.33"/>
<polygon fill="#757575" stroke="#757575" points="206.37,-275.74 204.07,-265.39 199.42,-274.91 206.37,-275.74"/>
</g>
<!-- src/app/models/_index.ts -->
<g id="node10" class="node">
<title>src/app/models/_index.ts</title>
<path fill="none" stroke="#c6c5fe" d="M4988.67,-417.32C4988.67,-417.32 4875.33,-417.32 4875.33,-417.32 4872.17,-417.32 4869,-414.16 4869,-410.99 4869,-410.99 4869,-404.66 4869,-404.66 4869,-401.49 4872.17,-398.32 4875.33,-398.32 4875.33,-398.32 4988.67,-398.32 4988.67,-398.32 4991.83,-398.32 4995,-401.49 4995,-404.66 4995,-404.66 4995,-410.99 4995,-410.99 4995,-414.16 4991.83,-417.32 4988.67,-417.32"/>
<text text-anchor="middle" x="4932" y="-405.32" font-family="Arial" font-size="10.00" fill="#c6c5fe">src/app/models/_index.ts</text>
</g>
<!-- index.ts&#45;&gt;src/app/models/_index.ts -->
<g id="edge3" class="edge">
<title>index.ts&#45;&gt;src/app/models/_index.ts</title>
<path fill="none" stroke="#757575" d="M75.28,-568.77C82.15,-571.41 89.46,-574.5 96,-577.82 248.96,-655.6 248.4,-787.82 420,-787.82 420,-787.82 420,-787.82 4195,-787.82 4480.21,-787.82 4612.42,-899.63 4833,-718.82 4924.56,-643.77 4931.93,-483.8 4931.56,-427.74"/>
<polygon fill="#757575" stroke="#757575" points="4935.05,-427.36 4931.39,-417.42 4928.05,-427.47 4935.05,-427.36"/>
</g>
<!-- src/app/services/_index.ts -->
<g id="node11" class="node">
<title>src/app/services/_index.ts</title>
<path fill="none" stroke="#ff6c60" d="M3169.67,-607.32C3169.67,-607.32 3051.33,-607.32 3051.33,-607.32 3048.17,-607.32 3045,-604.16 3045,-600.99 3045,-600.99 3045,-594.66 3045,-594.66 3045,-591.49 3048.17,-588.32 3051.33,-588.32 3051.33,-588.32 3169.67,-588.32 3169.67,-588.32 3172.83,-588.32 3176,-591.49 3176,-594.66 3176,-594.66 3176,-600.99 3176,-600.99 3176,-604.16 3172.83,-607.32 3169.67,-607.32"/>
<text text-anchor="middle" x="3110.5" y="-595.32" font-family="Arial" font-size="10.00" fill="#ff6c60">src/app/services/_index.ts</text>
</g>
<!-- index.ts&#45;&gt;src/app/services/_index.ts -->
<g id="edge4" class="edge">
<title>index.ts&#45;&gt;src/app/services/_index.ts</title>
<path fill="none" stroke="#757575" d="M75.45,-564.41C136.14,-574.51 290.18,-597.82 420,-597.82 420,-597.82 420,-597.82 2531.5,-597.82 2712.25,-597.82 2924.8,-597.82 3034.91,-597.82"/>
<polygon fill="#757575" stroke="#757575" points="3034.92,-601.32 3044.92,-597.82 3034.92,-594.32 3034.92,-601.32"/>
</g>
<!-- src/app/common/constants.ts -->
<g id="node14" class="node">
<title>src/app/common/constants.ts</title>
<path fill="none" stroke="#c6c5fe" d="M2335.17,-474.32C2335.17,-474.32 2201.83,-474.32 2201.83,-474.32 2198.67,-474.32 2195.5,-471.16 2195.5,-467.99 2195.5,-467.99 2195.5,-461.66 2195.5,-461.66 2195.5,-458.49 2198.67,-455.32 2201.83,-455.32 2201.83,-455.32 2335.17,-455.32 2335.17,-455.32 2338.33,-455.32 2341.5,-458.49 2341.5,-461.66 2341.5,-461.66 2341.5,-467.99 2341.5,-467.99 2341.5,-471.16 2338.33,-474.32 2335.17,-474.32"/>
<text text-anchor="middle" x="2268.5" y="-462.32" font-family="Arial" font-size="10.00" fill="#c6c5fe">src/app/common/constants.ts</text>
</g>
<!-- src/app/common/_index.ts&#45;&gt;src/app/common/constants.ts -->
<g id="edge5" class="edge">
<title>src/app/common/_index.ts&#45;&gt;src/app/common/constants.ts</title>
<path fill="none" stroke="#757575" d="M2112.61,-464.82C2135.34,-464.82 2161.16,-464.82 2185.1,-464.82"/>
<polygon fill="#757575" stroke="#757575" points="2185.24,-468.32 2195.24,-464.82 2185.24,-461.32 2185.24,-468.32"/>
</g>
<!-- src/app/components/image/_index.ts -->
<g id="node16" class="node">
<title>src/app/components/image/_index.ts</title>
<path fill="none" stroke="#c6c5fe" d="M3629.17,-455.32C3629.17,-455.32 3464.83,-455.32 3464.83,-455.32 3461.67,-455.32 3458.5,-452.16 3458.5,-448.99 3458.5,-448.99 3458.5,-442.66 3458.5,-442.66 3458.5,-439.49 3461.67,-436.32 3464.83,-436.32 3464.83,-436.32 3629.17,-436.32 3629.17,-436.32 3632.33,-436.32 3635.5,-439.49 3635.5,-442.66 3635.5,-442.66 3635.5,-448.99 3635.5,-448.99 3635.5,-452.16 3632.33,-455.32 3629.17,-455.32"/>
<text text-anchor="middle" x="3547" y="-443.32" font-family="Arial" font-size="10.00" fill="#c6c5fe">src/app/components/image/_index.ts</text>
</g>
<!-- src/app/components/_index.ts&#45;&gt;src/app/components/image/_index.ts -->
<g id="edge12" class="edge">
<title>src/app/components/_index.ts&#45;&gt;src/app/components/image/_index.ts</title>
<path fill="none" stroke="#757575" d="M229.51,-265.45C251.23,-274.31 285.27,-287.07 316,-293.82 486.53,-331.27 532.4,-331.82 707,-331.82 707,-331.82 707,-331.82 1801,-331.82 2125.22,-331.82 2205.28,-369.82 2529.5,-369.82 2529.5,-369.82 2529.5,-369.82 2850.5,-369.82 3085.67,-369.82 3362.93,-413.29 3484.11,-434.48"/>
<polygon fill="#757575" stroke="#757575" points="3483.84,-437.99 3494.3,-436.27 3485.06,-431.09 3483.84,-437.99"/>
</g>
<!-- src/app/components/text&#45;block/_index.ts -->
<g id="node17" class="node">
<title>src/app/components/text&#45;block/_index.ts</title>
<path fill="none" stroke="#c6c5fe" d="M3637.67,-379.32C3637.67,-379.32 3456.33,-379.32 3456.33,-379.32 3453.17,-379.32 3450,-376.16 3450,-372.99 3450,-372.99 3450,-366.66 3450,-366.66 3450,-363.49 3453.17,-360.32 3456.33,-360.32 3456.33,-360.32 3637.67,-360.32 3637.67,-360.32 3640.83,-360.32 3644,-363.49 3644,-366.66 3644,-366.66 3644,-372.99 3644,-372.99 3644,-376.16 3640.83,-379.32 3637.67,-379.32"/>
<text text-anchor="middle" x="3547" y="-367.32" font-family="Arial" font-size="10.00" fill="#c6c5fe">src/app/components/text&#45;block/_index.ts</text>
</g>
<!-- src/app/components/_index.ts&#45;&gt;src/app/components/text&#45;block/_index.ts -->
<g id="edge19" class="edge">
<title>src/app/components/_index.ts&#45;&gt;src/app/components/text&#45;block/_index.ts</title>
<path fill="none" stroke="#757575" d="M275.53,-265.33C288.93,-266.99 302.89,-268.58 316,-269.82 489.33,-286.25 532.9,-293.82 707,-293.82 707,-293.82 707,-293.82 2850.5,-293.82 3085.67,-293.82 3362.93,-337.29 3484.11,-358.48"/>
<polygon fill="#757575" stroke="#757575" points="3483.84,-361.99 3494.3,-360.27 3485.06,-355.09 3483.84,-361.99"/>
</g>
<!-- src/app/components/blockable&#45;ui/_index.ts -->
<g id="node18" class="node">
<title>src/app/components/blockable&#45;ui/_index.ts</title>
<path fill="none" stroke="#c6c5fe" d="M516.17,-417.32C516.17,-417.32 325.83,-417.32 325.83,-417.32 322.67,-417.32 319.5,-414.16 319.5,-410.99 319.5,-410.99 319.5,-404.66 319.5,-404.66 319.5,-401.49 322.67,-398.32 325.83,-398.32 325.83,-398.32 516.17,-398.32 516.17,-398.32 519.33,-398.32 522.5,-401.49 522.5,-404.66 522.5,-404.66 522.5,-410.99 522.5,-410.99 522.5,-414.16 519.33,-417.32 516.17,-417.32"/>
<text text-anchor="middle" x="421" y="-405.32" font-family="Arial" font-size="10.00" fill="#c6c5fe">src/app/components/blockable&#45;ui/_index.ts</text>
</g>
<!-- src/app/components/_index.ts&#45;&gt;src/app/components/blockable&#45;ui/_index.ts -->
<g id="edge10" class="edge">
<title>src/app/components/_index.ts&#45;&gt;src/app/components/blockable&#45;ui/_index.ts</title>
<path fill="none" stroke="#757575" d="M212.17,-265.34C225.73,-289.36 264.87,-352.75 316,-383.82 323.68,-388.49 332.17,-392.25 340.9,-395.27"/>
<polygon fill="#757575" stroke="#757575" points="339.85,-398.61 350.44,-398.28 341.96,-391.94 339.85,-398.61"/>
</g>
<!-- src/app/components/dynamic/_index.ts -->
<g id="node19" class="node">
<title>src/app/components/dynamic/_index.ts</title>
<path fill="none" stroke="#c6c5fe" d="M1629.17,-227.32C1629.17,-227.32 1453.83,-227.32 1453.83,-227.32 1450.67,-227.32 1447.5,-224.16 1447.5,-220.99 1447.5,-220.99 1447.5,-214.66 1447.5,-214.66 1447.5,-211.49 1450.67,-208.32 1453.83,-208.32 1453.83,-208.32 1629.17,-208.32 1629.17,-208.32 1632.33,-208.32 1635.5,-211.49 1635.5,-214.66 1635.5,-214.66 1635.5,-220.99 1635.5,-220.99 1635.5,-224.16 1632.33,-227.32 1629.17,-227.32"/>
<text text-anchor="middle" x="1541.5" y="-215.32" font-family="Arial" font-size="10.00" fill="#c6c5fe">src/app/components/dynamic/_index.ts</text>
</g>
<!-- src/app/components/_index.ts&#45;&gt;src/app/components/dynamic/_index.ts -->
<g id="edge11" class="edge">
<title>src/app/components/_index.ts&#45;&gt;src/app/components/dynamic/_index.ts</title>
<path fill="none" stroke="#757575" d="M280.15,-246.77C377.45,-235.53 554.87,-217.82 707,-217.82 707,-217.82 707,-217.82 1014.5,-217.82 1161.35,-217.82 1331.27,-217.82 1437.32,-217.82"/>
<polygon fill="#757575" stroke="#757575" points="1437.38,-221.32 1447.38,-217.82 1437.38,-214.32 1437.38,-221.32"/>
</g>
<!-- src/app/components/menu&#45;bar/_index.ts -->
<g id="node20" class="node">
<title>src/app/components/menu&#45;bar/_index.ts</title>
<path fill="none" stroke="#c6c5fe" d="M1630.67,-379.32C1630.67,-379.32 1452.33,-379.32 1452.33,-379.32 1449.17,-379.32 1446,-376.16 1446,-372.99 1446,-372.99 1446,-366.66 1446,-366.66 1446,-363.49 1449.17,-360.32 1452.33,-360.32 1452.33,-360.32 1630.67,-360.32 1630.67,-360.32 1633.83,-360.32 1637,-363.49 1637,-366.66 1637,-366.66 1637,-372.99 1637,-372.99 1637,-376.16 1633.83,-379.32 1630.67,-379.32"/>
<text text-anchor="middle" x="1541.5" y="-367.32" font-family="Arial" font-size="10.00" fill="#c6c5fe">src/app/components/menu&#45;bar/_index.ts</text>
</g>
<!-- src/app/components/_index.ts&#45;&gt;src/app/components/menu&#45;bar/_index.ts -->
<g id="edge13" class="edge">
<title>src/app/components/_index.ts&#45;&gt;src/app/components/menu&#45;bar/_index.ts</title>
<path fill="none" stroke="#757575" d="M214.78,-265.43C231.13,-284.79 271.26,-328.17 316,-345.82 477.96,-409.71 532.9,-369.82 707,-369.82 707,-369.82 707,-369.82 1014.5,-369.82 1160.69,-369.82 1329.73,-369.82 1435.88,-369.82"/>
<polygon fill="#757575" stroke="#757575" points="1435.96,-373.32 1445.96,-369.82 1435.96,-366.32 1435.96,-373.32"/>
</g>
<!-- src/app/components/nav&#45;logo/_index.ts -->
<g id="node21" class="node">
<title>src/app/components/nav&#45;logo/_index.ts</title>
<path fill="none" stroke="#c6c5fe" d="M1629.17,-75.32C1629.17,-75.32 1453.83,-75.32 1453.83,-75.32 1450.67,-75.32 1447.5,-72.16 1447.5,-68.99 1447.5,-68.99 1447.5,-62.66 1447.5,-62.66 1447.5,-59.49 1450.67,-56.32 1453.83,-56.32 1453.83,-56.32 1629.17,-56.32 1629.17,-56.32 1632.33,-56.32 1635.5,-59.49 1635.5,-62.66 1635.5,-62.66 1635.5,-68.99 1635.5,-68.99 1635.5,-72.16 1632.33,-75.32 1629.17,-75.32"/>
<text text-anchor="middle" x="1541.5" y="-63.32" font-family="Arial" font-size="10.00" fill="#c6c5fe">src/app/components/nav&#45;logo/_index.ts</text>
</g>
<!-- src/app/components/_index.ts&#45;&gt;src/app/components/nav&#45;logo/_index.ts -->
<g id="edge14" class="edge">
<title>src/app/components/_index.ts&#45;&gt;src/app/components/nav&#45;logo/_index.ts</title>
<path fill="none" stroke="#757575" d="M208.63,-246.13C214.98,-211.81 241.5,-95.53 316,-47.82 462.53,46.02 533,-27.82 707,-27.82 707,-27.82 707,-27.82 1014.5,-27.82 1167.13,-27.82 1344.02,-43.93 1448.85,-55.18"/>
<polygon fill="#757575" stroke="#757575" points="1448.77,-58.69 1459.08,-56.28 1449.52,-51.73 1448.77,-58.69"/>
</g>
<!-- src/app/components/page&#45;layout/_index.ts -->
<g id="node22" class="node">
<title>src/app/components/page&#45;layout/_index.ts</title>
<path fill="none" stroke="#c6c5fe" d="M515.17,-152.32C515.17,-152.32 326.83,-152.32 326.83,-152.32 323.67,-152.32 320.5,-149.16 320.5,-145.99 320.5,-145.99 320.5,-139.66 320.5,-139.66 320.5,-136.49 323.67,-133.32 326.83,-133.32 326.83,-133.32 515.17,-133.32 515.17,-133.32 518.33,-133.32 521.5,-136.49 521.5,-139.66 521.5,-139.66 521.5,-145.99 521.5,-145.99 521.5,-149.16 518.33,-152.32 515.17,-152.32"/>
<text text-anchor="middle" x="421" y="-140.32" font-family="Arial" font-size="10.00" fill="#c6c5fe">src/app/components/page&#45;layout/_index.ts</text>
</g>
<!-- src/app/components/_index.ts&#45;&gt;src/app/components/page&#45;layout/_index.ts -->
<g id="edge15" class="edge">
<title>src/app/components/_index.ts&#45;&gt;src/app/components/page&#45;layout/_index.ts</title>
<path fill="none" stroke="#757575" d="M214.83,-246.1C231.28,-226.42 271.57,-181.96 316,-160.82 320.27,-158.79 324.74,-156.98 329.33,-155.38"/>
<polygon fill="#757575" stroke="#757575" points="330.39,-158.71 338.87,-152.36 328.28,-152.04 330.39,-158.71"/>
</g>
<!-- src/app/components/pull&#45;to&#45;refresh/_index.ts -->
<g id="node23" class="node">
<title>src/app/components/pull&#45;to&#45;refresh/_index.ts</title>
<path fill="none" stroke="#c6c5fe" d="M519.67,-189.32C519.67,-189.32 322.33,-189.32 322.33,-189.32 319.17,-189.32 316,-186.16 316,-182.99 316,-182.99 316,-176.66 316,-176.66 316,-173.49 319.17,-170.32 322.33,-170.32 322.33,-170.32 519.67,-170.32 519.67,-170.32 522.83,-170.32 526,-173.49 526,-176.66 526,-176.66 526,-182.99 526,-182.99 526,-186.16 522.83,-189.32 519.67,-189.32"/>
<text text-anchor="middle" x="421" y="-177.32" font-family="Arial" font-size="10.00" fill="#c6c5fe">src/app/components/pull&#45;to&#45;refresh/_index.ts</text>
</g>
<!-- src/app/components/_index.ts&#45;&gt;src/app/components/pull&#45;to&#45;refresh/_index.ts -->
<g id="edge16" class="edge">
<title>src/app/components/_index.ts&#45;&gt;src/app/components/pull&#45;to&#45;refresh/_index.ts</title>
<path fill="none" stroke="#757575" d="M224.25,-246.14C245.32,-234.65 282.35,-215.57 316,-203.82 329.51,-199.1 344.34,-195.05 358.46,-191.68"/>
<polygon fill="#757575" stroke="#757575" points="359.62,-195.01 368.59,-189.36 358.06,-188.18 359.62,-195.01"/>
</g>
<!-- src/app/components/svg/_index.ts -->
<g id="node24" class="node">
<title>src/app/components/svg/_index.ts</title>
<path fill="none" stroke="#c6c5fe" d="M2123.67,-437.32C2123.67,-437.32 1969.33,-437.32 1969.33,-437.32 1966.17,-437.32 1963,-434.16 1963,-430.99 1963,-430.99 1963,-424.66 1963,-424.66 1963,-421.49 1966.17,-418.32 1969.33,-418.32 1969.33,-418.32 2123.67,-418.32 2123.67,-418.32 2126.83,-418.32 2130,-421.49 2130,-424.66 2130,-424.66 2130,-430.99 2130,-430.99 2130,-434.16 2126.83,-437.32 2123.67,-437.32"/>
<text text-anchor="middle" x="2046.5" y="-425.32" font-family="Arial" font-size="10.00" fill="#c6c5fe">src/app/components/svg/_index.ts</text>
</g>
<!-- src/app/components/_index.ts&#45;&gt;src/app/components/svg/_index.ts -->
<g id="edge17" class="edge">
<title>src/app/components/_index.ts&#45;&gt;src/app/components/svg/_index.ts</title>
<path fill="none" stroke="#757575" d="M209.73,-265.43C218.84,-295.54 251.41,-388.34 316,-425.82 466.49,-513.17 533,-445.82 707,-445.82 707,-445.82 707,-445.82 1542.5,-445.82 1685.7,-445.82 1851.67,-438.45 1952.59,-433.14"/>
<polygon fill="#757575" stroke="#757575" points="1952.96,-436.62 1962.76,-432.6 1952.58,-429.63 1952.96,-436.62"/>
</g>
<!-- src/app/components/tabbed&#45;response&#45;table/_index.ts -->
<g id="node25" class="node">
<title>src/app/components/tabbed&#45;response&#45;table/_index.ts</title>
<path fill="none" stroke="#c6c5fe" d="M1130.67,-75.32C1130.67,-75.32 896.33,-75.32 896.33,-75.32 893.17,-75.32 890,-72.16 890,-68.99 890,-68.99 890,-62.66 890,-62.66 890,-59.49 893.17,-56.32 896.33,-56.32 896.33,-56.32 1130.67,-56.32 1130.67,-56.32 1133.83,-56.32 1137,-59.49 1137,-62.66 1137,-62.66 1137,-68.99 1137,-68.99 1137,-72.16 1133.83,-75.32 1130.67,-75.32"/>
<text text-anchor="middle" x="1013.5" y="-63.32" font-family="Arial" font-size="10.00" fill="#c6c5fe">src/app/components/tabbed&#45;response&#45;table/_index.ts</text>
</g>
<!-- src/app/components/_index.ts&#45;&gt;src/app/components/tabbed&#45;response&#45;table/_index.ts -->
<g id="edge18" class="edge">
<title>src/app/components/_index.ts&#45;&gt;src/app/components/tabbed&#45;response&#45;table/_index.ts</title>
<path fill="none" stroke="#757575" d="M209.91,-245.97C219.35,-215.98 252.29,-125.64 316,-89.82 409.12,-37.48 705.13,-45.92 879.85,-56.2"/>
<polygon fill="#757575" stroke="#757575" points="879.7,-59.7 889.89,-56.8 880.12,-52.71 879.7,-59.7"/>
</g>
<!-- src/app/components/top&#45;nav/_index.ts -->
<g id="node26" class="node">
<title>src/app/components/top&#45;nav/_index.ts</title>
<path fill="none" stroke="#c6c5fe" d="M1098.67,-265.32C1098.67,-265.32 928.33,-265.32 928.33,-265.32 925.17,-265.32 922,-262.16 922,-258.99 922,-258.99 922,-252.66 922,-252.66 922,-249.49 925.17,-246.32 928.33,-246.32 928.33,-246.32 1098.67,-246.32 1098.67,-246.32 1101.83,-246.32 1105,-249.49 1105,-252.66 1105,-252.66 1105,-258.99 1105,-258.99 1105,-262.16 1101.83,-265.32 1098.67,-265.32"/>
<text text-anchor="middle" x="1013.5" y="-253.32" font-family="Arial" font-size="10.00" fill="#c6c5fe">src/app/components/top&#45;nav/_index.ts</text>
</g>
<!-- src/app/components/_index.ts&#45;&gt;src/app/components/top&#45;nav/_index.ts -->
<g id="edge20" class="edge">
<title>src/app/components/_index.ts&#45;&gt;src/app/components/top&#45;nav/_index.ts</title>
<path fill="none" stroke="#757575" d="M280.26,-255.82C424.9,-255.82 747.33,-255.82 911.81,-255.82"/>
<polygon fill="#757575" stroke="#757575" points="911.93,-259.32 921.93,-255.82 911.93,-252.32 911.93,-259.32"/>
</g>
<!-- src/app/components/ws&#45;table/_index.ts -->
<g id="node27" class="node">
<title>src/app/components/ws&#45;table/_index.ts</title>
<path fill="none" stroke="#c6c5fe" d="M4281.67,-151.32C4281.67,-151.32 4106.33,-151.32 4106.33,-151.32 4103.17,-151.32 4100,-148.16 4100,-144.99 4100,-144.99 4100,-138.66 4100,-138.66 4100,-135.49 4103.17,-132.32 4106.33,-132.32 4106.33,-132.32 4281.67,-132.32 4281.67,-132.32 4284.83,-132.32 4288,-135.49 4288,-138.66 4288,-138.66 4288,-144.99 4288,-144.99 4288,-148.16 4284.83,-151.32 4281.67,-151.32"/>
<text text-anchor="middle" x="4194" y="-139.32" font-family="Arial" font-size="10.00" fill="#c6c5fe">src/app/components/ws&#45;table/_index.ts</text>
</g>
<!-- src/app/components/_index.ts&#45;&gt;src/app/components/ws&#45;table/_index.ts -->
<g id="edge21" class="edge">
<title>src/app/components/_index.ts&#45;&gt;src/app/components/ws&#45;table/_index.ts</title>
<path fill="none" stroke="#757575" d="M211.33,-246.05C223.43,-220.16 260.35,-150.04 316,-123.82 366.33,-100.11 1453.86,-141.82 1540.5,-141.82 1540.5,-141.82 1540.5,-141.82 3548,-141.82 3739.21,-141.82 3962.29,-141.82 4089.67,-141.82"/>
<polygon fill="#757575" stroke="#757575" points="4089.81,-145.32 4099.81,-141.82 4089.81,-138.32 4089.81,-145.32"/>
</g>
<!-- src/app/models/data&#45;source.ts -->
<g id="node45" class="node">
<title>src/app/models/data&#45;source.ts</title>
<path fill="none" stroke="#c6c5fe" d="M5179.67,-417.32C5179.67,-417.32 5043.33,-417.32 5043.33,-417.32 5040.17,-417.32 5037,-414.16 5037,-410.99 5037,-410.99 5037,-404.66 5037,-404.66 5037,-401.49 5040.17,-398.32 5043.33,-398.32 5043.33,-398.32 5179.67,-398.32 5179.67,-398.32 5182.83,-398.32 5186,-401.49 5186,-404.66 5186,-404.66 5186,-410.99 5186,-410.99 5186,-414.16 5182.83,-417.32 5179.67,-417.32"/>
<text text-anchor="middle" x="5111.5" y="-405.32" font-family="Arial" font-size="10.00" fill="#c6c5fe">src/app/models/data&#45;source.ts</text>
</g>
<!-- src/app/models/_index.ts&#45;&gt;src/app/models/data&#45;source.ts -->
<g id="edge62" class="edge">
<title>src/app/models/_index.ts&#45;&gt;src/app/models/data&#45;source.ts</title>
<path fill="none" stroke="#757575" d="M4995.08,-407.82C5005.31,-407.82 5016.06,-407.82 5026.71,-407.82"/>
<polygon fill="#757575" stroke="#757575" points="5026.87,-411.32 5036.87,-407.82 5026.87,-404.32 5026.87,-411.32"/>
</g>
<!-- src/app/models/extensions.ts -->
<g id="node46" class="node">
<title>src/app/models/extensions.ts</title>
<path fill="none" stroke="#cfffac" d="M5177.67,-380.32C5177.67,-380.32 5045.33,-380.32 5045.33,-380.32 5042.17,-380.32 5039,-377.16 5039,-373.99 5039,-373.99 5039,-367.66 5039,-367.66 5039,-364.49 5042.17,-361.32 5045.33,-361.32 5045.33,-361.32 5177.67,-361.32 5177.67,-361.32 5180.83,-361.32 5184,-364.49 5184,-367.66 5184,-367.66 5184,-373.99 5184,-373.99 5184,-377.16 5180.83,-380.32 5177.67,-380.32"/>
<text text-anchor="middle" x="5111.5" y="-368.32" font-family="Arial" font-size="10.00" fill="#cfffac">src/app/models/extensions.ts</text>
</g>
<!-- src/app/models/_index.ts&#45;&gt;src/app/models/extensions.ts -->
<g id="edge63" class="edge">
<title>src/app/models/_index.ts&#45;&gt;src/app/models/extensions.ts</title>
<path fill="none" stroke="#757575" d="M4978.71,-398.29C5001.91,-393.46 5030.29,-387.54 5054.77,-382.44"/>
<polygon fill="#757575" stroke="#757575" points="5055.56,-385.85 5064.64,-380.38 5054.13,-379 5055.56,-385.85"/>
</g>
<!-- src/app/models/general.ts -->
<g id="node47" class="node">
<title>src/app/models/general.ts</title>
<path fill="none" stroke="#c6c5fe" d="M5366.67,-455.32C5366.67,-455.32 5250.33,-455.32 5250.33,-455.32 5247.17,-455.32 5244,-452.16 5244,-448.99 5244,-448.99 5244,-442.66 5244,-442.66 5244,-439.49 5247.17,-436.32 5250.33,-436.32 5250.33,-436.32 5366.67,-436.32 5366.67,-436.32 5369.83,-436.32 5373,-439.49 5373,-442.66 5373,-442.66 5373,-448.99 5373,-448.99 5373,-452.16 5369.83,-455.32 5366.67,-455.32"/>
<text text-anchor="middle" x="5308.5" y="-443.32" font-family="Arial" font-size="10.00" fill="#c6c5fe">src/app/models/general.ts</text>
</g>
<!-- src/app/models/_index.ts&#45;&gt;src/app/models/general.ts -->
<g id="edge64" class="edge">
<title>src/app/models/_index.ts&#45;&gt;src/app/models/general.ts</title>
<path fill="none" stroke="#757575" d="M4979.2,-417.38C4995.51,-420.47 5014.01,-423.65 5031,-425.82 5099.43,-434.55 5177.91,-439.78 5233.73,-442.68"/>
<polygon fill="#757575" stroke="#757575" points="5233.72,-446.19 5243.88,-443.2 5234.07,-439.2 5233.72,-446.19"/>
</g>
<!-- src/app/models/page&#45;elements.ts -->
<g id="node48" class="node">
<title>src/app/models/page&#45;elements.ts</title>
<path fill="none" stroke="#c6c5fe" d="M5185.67,-531.32C5185.67,-531.32 5037.33,-531.32 5037.33,-531.32 5034.17,-531.32 5031,-528.16 5031,-524.99 5031,-524.99 5031,-518.66 5031,-518.66 5031,-515.49 5034.17,-512.32 5037.33,-512.32 5037.33,-512.32 5185.67,-512.32 5185.67,-512.32 5188.83,-512.32 5192,-515.49 5192,-518.66 5192,-518.66 5192,-524.99 5192,-524.99 5192,-528.16 5188.83,-531.32 5185.67,-531.32"/>
<text text-anchor="middle" x="5111.5" y="-519.32" font-family="Arial" font-size="10.00" fill="#c6c5fe">src/app/models/page&#45;elements.ts</text>
</g>
<!-- src/app/models/_index.ts&#45;&gt;src/app/models/page&#45;elements.ts -->
<g id="edge65" class="edge">
<title>src/app/models/_index.ts&#45;&gt;src/app/models/page&#45;elements.ts</title>
<path fill="none" stroke="#757575" d="M4940.85,-417.48C4956.24,-435.8 4992.27,-475.75 5031,-497.82 5038.91,-502.33 5047.76,-506.08 5056.6,-509.16"/>
<polygon fill="#757575" stroke="#757575" points="5055.55,-512.5 5066.14,-512.25 5057.7,-505.84 5055.55,-512.5"/>
</g>
<!-- src/app/models/style&#45;types.ts -->
<g id="node49" class="node">
<title>src/app/models/style&#45;types.ts</title>
<path fill="none" stroke="#cfffac" d="M5604.17,-493.32C5604.17,-493.32 5470.83,-493.32 5470.83,-493.32 5467.67,-493.32 5464.5,-490.16 5464.5,-486.99 5464.5,-486.99 5464.5,-480.66 5464.5,-480.66 5464.5,-477.49 5467.67,-474.32 5470.83,-474.32 5470.83,-474.32 5604.17,-474.32 5604.17,-474.32 5607.33,-474.32 5610.5,-477.49 5610.5,-480.66 5610.5,-480.66 5610.5,-486.99 5610.5,-486.99 5610.5,-490.16 5607.33,-493.32 5604.17,-493.32"/>
<text text-anchor="middle" x="5537.5" y="-481.32" font-family="Arial" font-size="10.00" fill="#cfffac">src/app/models/style&#45;types.ts</text>
</g>
<!-- src/app/models/_index.ts&#45;&gt;src/app/models/style&#45;types.ts -->
<g id="edge66" class="edge">
<title>src/app/models/_index.ts&#45;&gt;src/app/models/style&#45;types.ts</title>
<path fill="none" stroke="#757575" d="M4951.58,-417.42C4970.88,-426.9 5002.22,-440.95 5031,-447.82 5177.03,-482.67 5352.98,-487.06 5454.08,-486.11"/>
<polygon fill="#757575" stroke="#757575" points="5454.27,-489.61 5464.23,-485.99 5454.19,-482.61 5454.27,-489.61"/>
</g>
<!-- src/app/models/svg/_index.ts -->
<g id="node50" class="node">
<title>src/app/models/svg/_index.ts</title>
<path fill="none" stroke="#c6c5fe" d="M5177.67,-343.32C5177.67,-343.32 5045.33,-343.32 5045.33,-343.32 5042.17,-343.32 5039,-340.16 5039,-336.99 5039,-336.99 5039,-330.66 5039,-330.66 5039,-327.49 5042.17,-324.32 5045.33,-324.32 5045.33,-324.32 5177.67,-324.32 5177.67,-324.32 5180.83,-324.32 5184,-327.49 5184,-330.66 5184,-330.66 5184,-336.99 5184,-336.99 5184,-340.16 5180.83,-343.32 5177.67,-343.32"/>
<text text-anchor="middle" x="5111.5" y="-331.32" font-family="Arial" font-size="10.00" fill="#c6c5fe">src/app/models/svg/_index.ts</text>
</g>
<!-- src/app/models/_index.ts&#45;&gt;src/app/models/svg/_index.ts -->
<g id="edge67" class="edge">
<title>src/app/models/_index.ts&#45;&gt;src/app/models/svg/_index.ts</title>
<path fill="none" stroke="#757575" d="M4946.63,-398.28C4964.98,-385.86 4999.04,-364.25 5031,-351.82 5036.49,-349.69 5042.3,-347.77 5048.18,-346.06"/>
<polygon fill="#757575" stroke="#757575" points="5049.36,-349.36 5058.09,-343.36 5047.52,-342.61 5049.36,-349.36"/>
</g>
<!-- src/app/services/data&#45;service.ts -->
<g id="node54" class="node">
<title>src/app/services/data&#45;service.ts</title>
<path fill="none" stroke="#c6c5fe" d="M4265.67,-721.32C4265.67,-721.32 4122.33,-721.32 4122.33,-721.32 4119.17,-721.32 4116,-718.16 4116,-714.99 4116,-714.99 4116,-708.66 4116,-708.66 4116,-705.49 4119.17,-702.32 4122.33,-702.32 4122.33,-702.32 4265.67,-702.32 4265.67,-702.32 4268.83,-702.32 4272,-705.49 4272,-708.66 4272,-708.66 4272,-714.99 4272,-714.99 4272,-718.16 4268.83,-721.32 4265.67,-721.32"/>
<text text-anchor="middle" x="4194" y="-709.32" font-family="Arial" font-size="10.00" fill="#c6c5fe">src/app/services/data&#45;service.ts</text>
</g>
<!-- src/app/services/_index.ts&#45;&gt;src/app/services/data&#45;service.ts -->
<g id="edge77" class="edge">
<title>src/app/services/_index.ts&#45;&gt;src/app/services/data&#45;service.ts</title>
<path fill="none" stroke="#757575" d="M3118.44,-607.55C3133.08,-627.14 3169.32,-670.91 3212,-687.82 3372.98,-751.64 3896.94,-729.23 4105.85,-717.3"/>
<polygon fill="#757575" stroke="#757575" points="4106.08,-720.8 4115.86,-716.73 4105.67,-713.81 4106.08,-720.8"/>
</g>
<!-- src/app/services/element&#45;render&#45;service.ts -->
<g id="node55" class="node">
<title>src/app/services/element&#45;render&#45;service.ts</title>
<path fill="none" stroke="#ff6c60" d="M3407.67,-493.32C3407.67,-493.32 3218.33,-493.32 3218.33,-493.32 3215.17,-493.32 3212,-490.16 3212,-486.99 3212,-486.99 3212,-480.66 3212,-480.66 3212,-477.49 3215.17,-474.32 3218.33,-474.32 3218.33,-474.32 3407.67,-474.32 3407.67,-474.32 3410.83,-474.32 3414,-477.49 3414,-480.66 3414,-480.66 3414,-486.99 3414,-486.99 3414,-490.16 3410.83,-493.32 3407.67,-493.32"/>
<text text-anchor="middle" x="3313" y="-481.32" font-family="Arial" font-size="10.00" fill="#ff6c60">src/app/services/element&#45;render&#45;service.ts</text>
</g>
<!-- src/app/services/_index.ts&#45;&gt;src/app/services/element&#45;render&#45;service.ts -->
<g id="edge78" class="edge">
<title>src/app/services/_index.ts&#45;&gt;src/app/services/element&#45;render&#45;service.ts</title>
<path fill="none" stroke="#757575" d="M3128.25,-588.3C3163.34,-568.35 3244.75,-522.06 3286.42,-498.37"/>
<polygon fill="#757575" stroke="#757575" points="3288.19,-501.38 3295.16,-493.4 3284.73,-495.3 3288.19,-501.38"/>
</g>
<!-- src/app/services/theme.service.ts -->
<g id="node56" class="node">
<title>src/app/services/theme.service.ts</title>
<path fill="none" stroke="#c6c5fe" d="M4542.17,-683.32C4542.17,-683.32 4390.83,-683.32 4390.83,-683.32 4387.67,-683.32 4384.5,-680.16 4384.5,-676.99 4384.5,-676.99 4384.5,-670.66 4384.5,-670.66 4384.5,-667.49 4387.67,-664.32 4390.83,-664.32 4390.83,-664.32 4542.17,-664.32 4542.17,-664.32 4545.33,-664.32 4548.5,-667.49 4548.5,-670.66 4548.5,-670.66 4548.5,-676.99 4548.5,-676.99 4548.5,-680.16 4545.33,-683.32 4542.17,-683.32"/>
<text text-anchor="middle" x="4466.5" y="-671.32" font-family="Arial" font-size="10.00" fill="#c6c5fe">src/app/services/theme.service.ts</text>
</g>
<!-- src/app/services/_index.ts&#45;&gt;src/app/services/theme.service.ts -->
<g id="edge79" class="edge">
<title>src/app/services/_index.ts&#45;&gt;src/app/services/theme.service.ts</title>
<path fill="none" stroke="#757575" d="M3125.38,-607.35C3144.1,-619.62 3178.91,-640.5 3212,-649.82 3355.25,-690.18 3397.17,-673.82 3546,-673.82 3546,-673.82 3546,-673.82 3863.5,-673.82 4044.52,-673.82 4256.16,-673.82 4374.12,-673.82"/>
<polygon fill="#757575" stroke="#757575" points="4374.2,-677.32 4384.2,-673.82 4374.2,-670.32 4374.2,-677.32"/>
</g>
<!-- src/app/services/toast&#45;service.ts -->
<g id="node57" class="node">
<title>src/app/services/toast&#45;service.ts</title>
<path fill="none" stroke="#c6c5fe" d="M4802.67,-645.32C4802.67,-645.32 4656.33,-645.32 4656.33,-645.32 4653.17,-645.32 4650,-642.16 4650,-638.99 4650,-638.99 4650,-632.66 4650,-632.66 4650,-629.49 4653.17,-626.32 4656.33,-626.32 4656.33,-626.32 4802.67,-626.32 4802.67,-626.32 4805.83,-626.32 4809,-629.49 4809,-632.66 4809,-632.66 4809,-638.99 4809,-638.99 4809,-642.16 4805.83,-645.32 4802.67,-645.32"/>
<text text-anchor="middle" x="4729.5" y="-633.32" font-family="Arial" font-size="10.00" fill="#c6c5fe">src/app/services/toast&#45;service.ts</text>
</g>
<!-- src/app/services/_index.ts&#45;&gt;src/app/services/toast&#45;service.ts -->
<g id="edge80" class="edge">
<title>src/app/services/_index.ts&#45;&gt;src/app/services/toast&#45;service.ts</title>
<path fill="none" stroke="#757575" d="M3158.11,-607.35C3175.02,-610.49 3194.31,-613.72 3212,-615.82 3359.67,-633.41 3397.29,-635.82 3546,-635.82 3546,-635.82 3546,-635.82 4195,-635.82 4351.57,-635.82 4534,-635.82 4639.85,-635.82"/>
<polygon fill="#757575" stroke="#757575" points="4639.86,-639.32 4649.86,-635.82 4639.86,-632.32 4639.86,-639.32"/>
</g>
<!-- src/app/services/utils.ts -->
<g id="node58" class="node">
<title>src/app/services/utils.ts</title>
<path fill="none" stroke="#c6c5fe" d="M3367.17,-607.32C3367.17,-607.32 3258.83,-607.32 3258.83,-607.32 3255.67,-607.32 3252.5,-604.16 3252.5,-600.99 3252.5,-600.99 3252.5,-594.66 3252.5,-594.66 3252.5,-591.49 3255.67,-588.32 3258.83,-588.32 3258.83,-588.32 3367.17,-588.32 3367.17,-588.32 3370.33,-588.32 3373.5,-591.49 3373.5,-594.66 3373.5,-594.66 3373.5,-600.99 3373.5,-600.99 3373.5,-604.16 3370.33,-607.32 3367.17,-607.32"/>
<text text-anchor="middle" x="3313" y="-595.32" font-family="Arial" font-size="10.00" fill="#c6c5fe">src/app/services/utils.ts</text>
</g>
<!-- src/app/services/_index.ts&#45;&gt;src/app/services/utils.ts -->
<g id="edge81" class="edge">
<title>src/app/services/_index.ts&#45;&gt;src/app/services/utils.ts</title>
<path fill="none" stroke="#757575" d="M3176.04,-597.82C3197.19,-597.82 3220.78,-597.82 3242.29,-597.82"/>
<polygon fill="#757575" stroke="#757575" points="3242.34,-601.32 3252.34,-597.82 3242.34,-594.32 3242.34,-601.32"/>
</g>
<!-- package&#45;lock.json -->
<g id="node12" class="node">
<title>package&#45;lock.json</title>
<path fill="none" stroke="#cfffac" d="M89.17,-606.32C89.17,-606.32 6.83,-606.32 6.83,-606.32 3.67,-606.32 0.5,-603.16 0.5,-599.99 0.5,-599.99 0.5,-593.66 0.5,-593.66 0.5,-590.49 3.67,-587.32 6.83,-587.32 6.83,-587.32 89.17,-587.32 89.17,-587.32 92.33,-587.32 95.5,-590.49 95.5,-593.66 95.5,-593.66 95.5,-599.99 95.5,-599.99 95.5,-603.16 92.33,-606.32 89.17,-606.32"/>
<text text-anchor="middle" x="48" y="-594.32" font-family="Arial" font-size="10.00" fill="#cfffac">package&#45;lock.json</text>
</g>
<!-- package.json -->
<g id="node13" class="node">
<title>package.json</title>
<path fill="none" stroke="#cfffac" d="M78.67,-643.32C78.67,-643.32 17.33,-643.32 17.33,-643.32 14.17,-643.32 11,-640.16 11,-636.99 11,-636.99 11,-630.66 11,-630.66 11,-627.49 14.17,-624.32 17.33,-624.32 17.33,-624.32 78.67,-624.32 78.67,-624.32 81.83,-624.32 85,-627.49 85,-630.66 85,-630.66 85,-636.99 85,-636.99 85,-640.16 81.83,-643.32 78.67,-643.32"/>
<text text-anchor="middle" x="48" y="-631.32" font-family="Arial" font-size="10.00" fill="#cfffac">package.json</text>
</g>
<!-- src/app/common/constants.ts&#45;&gt;src/app/models/_index.ts -->
<g id="edge9" class="edge">
<title>src/app/common/constants.ts&#45;&gt;src/app/models/_index.ts</title>
<path fill="none" stroke="#757575" d="M2327.66,-474.36C2431.8,-490.59 2657.09,-521.82 2848.5,-521.82 2848.5,-521.82 2848.5,-521.82 4467.5,-521.82 4631.23,-521.82 4680.11,-534.4 4833,-475.82 4864.02,-463.94 4894.65,-440.24 4913.19,-424.21"/>
<polygon fill="#757575" stroke="#757575" points="4915.66,-426.7 4920.82,-417.45 4911.02,-421.46 4915.66,-426.7"/>
</g>
<!-- src/app/components/element&#45;renderer/_index.ts -->
<g id="node15" class="node">
<title>src/app/components/element&#45;renderer/_index.ts</title>
<path fill="none" stroke="#ff6c60" d="M2636.17,-569.32C2636.17,-569.32 2424.83,-569.32 2424.83,-569.32 2421.67,-569.32 2418.5,-566.16 2418.5,-562.99 2418.5,-562.99 2418.5,-556.66 2418.5,-556.66 2418.5,-553.49 2421.67,-550.32 2424.83,-550.32 2424.83,-550.32 2636.17,-550.32 2636.17,-550.32 2639.33,-550.32 2642.5,-553.49 2642.5,-556.66 2642.5,-556.66 2642.5,-562.99 2642.5,-562.99 2642.5,-566.16 2639.33,-569.32 2636.17,-569.32"/>
<text text-anchor="middle" x="2530.5" y="-557.32" font-family="Arial" font-size="10.00" fill="#ff6c60">src/app/components/element&#45;renderer/_index.ts</text>
</g>
<!-- src/app/common/constants.ts&#45;&gt;src/app/components/element&#45;renderer/_index.ts -->
<g id="edge6" class="edge">
<title>src/app/common/constants.ts&#45;&gt;src/app/components/element&#45;renderer/_index.ts</title>
<path fill="none" stroke="#757575" d="M2284.53,-474.41C2309.16,-489.68 2360.06,-519.48 2407,-535.82 2421.52,-540.88 2437.41,-544.98 2452.78,-548.26"/>
<polygon fill="#757575" stroke="#757575" points="2452.29,-551.73 2462.79,-550.3 2453.69,-544.87 2452.29,-551.73"/>
</g>
<!-- src/app/common/constants.ts&#45;&gt;src/app/components/image/_index.ts -->
<g id="edge7" class="edge">
<title>src/app/common/constants.ts&#45;&gt;src/app/components/image/_index.ts</title>
<path fill="none" stroke="#757575" d="M2341.69,-460.93C2451.21,-455.37 2665.96,-445.82 2848.5,-445.82 2848.5,-445.82 2848.5,-445.82 3111.5,-445.82 3227.05,-445.82 3359.89,-445.82 3447.96,-445.82"/>
<polygon fill="#757575" stroke="#757575" points="3448.2,-449.32 3458.2,-445.82 3448.2,-442.32 3448.2,-449.32"/>
</g>
<!-- src/app/common/constants.ts&#45;&gt;src/app/components/text&#45;block/_index.ts -->
<g id="edge8" class="edge">
<title>src/app/common/constants.ts&#45;&gt;src/app/components/text&#45;block/_index.ts</title>
<path fill="none" stroke="#757575" d="M2331.68,-455.28C2355.23,-451.92 2382.31,-448.35 2407,-445.82 2786.04,-407.04 3238.15,-383.64 3439.81,-374.4"/>
<polygon fill="#757575" stroke="#757575" points="3439.98,-377.89 3449.81,-373.94 3439.66,-370.9 3439.98,-377.89"/>
</g>
<!-- src/app/components/element&#45;renderer/element&#45;renderer.component.ts -->
<g id="node31" class="node">
<title>src/app/components/element&#45;renderer/element&#45;renderer.component.ts</title>
<path fill="none" stroke="#ff6c60" d="M3002.67,-569.32C3002.67,-569.32 2696.33,-569.32 2696.33,-569.32 2693.17,-569.32 2690,-566.16 2690,-562.99 2690,-562.99 2690,-556.66 2690,-556.66 2690,-553.49 2693.17,-550.32 2696.33,-550.32 2696.33,-550.32 3002.67,-550.32 3002.67,-550.32 3005.83,-550.32 3009,-553.49 3009,-556.66 3009,-556.66 3009,-562.99 3009,-562.99 3009,-566.16 3005.83,-569.32 3002.67,-569.32"/>
<text text-anchor="middle" x="2849.5" y="-557.32" font-family="Arial" font-size="10.00" fill="#ff6c60">src/app/components/element&#45;renderer/element&#45;renderer.component.ts</text>
</g>
<!-- src/app/components/element&#45;renderer/_index.ts&#45;&gt;src/app/components/element&#45;renderer/element&#45;renderer.component.ts -->
<g id="edge26" class="edge">
<title>src/app/components/element&#45;renderer/_index.ts&#45;&gt;src/app/components/element&#45;renderer/element&#45;renderer.component.ts</title>
<path fill="none" stroke="#757575" d="M2642.82,-559.82C2654.85,-559.82 2667.29,-559.82 2679.81,-559.82"/>
<polygon fill="#757575" stroke="#757575" points="2679.86,-563.32 2689.86,-559.82 2679.86,-556.32 2679.86,-563.32"/>
</g>
<!-- src/app/components/image/image.component.ts -->
<g id="node33" class="node">
<title>src/app/components/image/image.component.ts</title>
<path fill="none" stroke="#c6c5fe" d="M4300.67,-455.32C4300.67,-455.32 4087.33,-455.32 4087.33,-455.32 4084.17,-455.32 4081,-452.16 4081,-448.99 4081,-448.99 4081,-442.66 4081,-442.66 4081,-439.49 4084.17,-436.32 4087.33,-436.32 4087.33,-436.32 4300.67,-436.32 4300.67,-436.32 4303.83,-436.32 4307,-439.49 4307,-442.66 4307,-442.66 4307,-448.99 4307,-448.99 4307,-452.16 4303.83,-455.32 4300.67,-455.32"/>
<text text-anchor="middle" x="4194" y="-443.32" font-family="Arial" font-size="10.00" fill="#c6c5fe">src/app/components/image/image.component.ts</text>
</g>
<!-- src/app/components/image/_index.ts&#45;&gt;src/app/components/image/image.component.ts -->
<g id="edge30" class="edge">
<title>src/app/components/image/_index.ts&#45;&gt;src/app/components/image/image.component.ts</title>
<path fill="none" stroke="#757575" d="M3635.66,-445.82C3748.09,-445.82 3943.69,-445.82 4070.72,-445.82"/>
<polygon fill="#757575" stroke="#757575" points="4070.88,-449.32 4080.88,-445.82 4070.88,-442.32 4070.88,-449.32"/>
</g>
<!-- src/app/components/text&#45;block/text&#45;block.component.ts -->
<g id="node40" class="node">
<title>src/app/components/text&#45;block/text&#45;block.component.ts</title>
<path fill="none" stroke="#c6c5fe" d="M3985.67,-379.32C3985.67,-379.32 3739.33,-379.32 3739.33,-379.32 3736.17,-379.32 3733,-376.16 3733,-372.99 3733,-372.99 3733,-366.66 3733,-366.66 3733,-363.49 3736.17,-360.32 3739.33,-360.32 3739.33,-360.32 3985.67,-360.32 3985.67,-360.32 3988.83,-360.32 3992,-363.49 3992,-366.66 3992,-366.66 3992,-372.99 3992,-372.99 3992,-376.16 3988.83,-379.32 3985.67,-379.32"/>
<text text-anchor="middle" x="3862.5" y="-367.32" font-family="Arial" font-size="10.00" fill="#c6c5fe">src/app/components/text&#45;block/text&#45;block.component.ts</text>
</g>
<!-- src/app/components/text&#45;block/_index.ts&#45;&gt;src/app/components/text&#45;block/text&#45;block.component.ts -->
<g id="edge48" class="edge">
<title>src/app/components/text&#45;block/_index.ts&#45;&gt;src/app/components/text&#45;block/text&#45;block.component.ts</title>
<path fill="none" stroke="#757575" d="M3644.19,-369.82C3669.01,-369.82 3696.22,-369.82 3722.74,-369.82"/>
<polygon fill="#757575" stroke="#757575" points="3722.86,-373.32 3732.86,-369.82 3722.86,-366.32 3722.86,-373.32"/>
</g>
<!-- src/app/components/blockable&#45;ui/blockable&#45;ui.component.ts -->
<g id="node28" class="node">
<title>src/app/components/blockable&#45;ui/blockable&#45;ui.component.ts</title>
<path fill="none" stroke="#cfffac" d="M840.17,-417.32C840.17,-417.32 575.83,-417.32 575.83,-417.32 572.67,-417.32 569.5,-414.16 569.5,-410.99 569.5,-410.99 569.5,-404.66 569.5,-404.66 569.5,-401.49 572.67,-398.32 575.83,-398.32 575.83,-398.32 840.17,-398.32 840.17,-398.32 843.33,-398.32 846.5,-401.49 846.5,-404.66 846.5,-404.66 846.5,-410.99 846.5,-410.99 846.5,-414.16 843.33,-417.32 840.17,-417.32"/>
<text text-anchor="middle" x="708" y="-405.32" font-family="Arial" font-size="10.00" fill="#cfffac">src/app/components/blockable&#45;ui/blockable&#45;ui.component.ts</text>
</g>
<!-- src/app/components/blockable&#45;ui/_index.ts&#45;&gt;src/app/components/blockable&#45;ui/blockable&#45;ui.component.ts -->
<g id="edge22" class="edge">
<title>src/app/components/blockable&#45;ui/_index.ts&#45;&gt;src/app/components/blockable&#45;ui/blockable&#45;ui.component.ts</title>
<path fill="none" stroke="#757575" d="M522.88,-407.82C534.64,-407.82 546.81,-407.82 559.04,-407.82"/>
<polygon fill="#757575" stroke="#757575" points="559.32,-411.32 569.32,-407.82 559.32,-404.32 559.32,-411.32"/>
</g>
<!-- src/app/components/dynamic/dynamic.component.ts -->
<g id="node29" class="node">
<title>src/app/components/dynamic/dynamic.component.ts</title>
<path fill="none" stroke="#c6c5fe" d="M3979.67,-265.32C3979.67,-265.32 3745.33,-265.32 3745.33,-265.32 3742.17,-265.32 3739,-262.16 3739,-258.99 3739,-258.99 3739,-252.66 3739,-252.66 3739,-249.49 3742.17,-246.32 3745.33,-246.32 3745.33,-246.32 3979.67,-246.32 3979.67,-246.32 3982.83,-246.32 3986,-249.49 3986,-252.66 3986,-252.66 3986,-258.99 3986,-258.99 3986,-262.16 3982.83,-265.32 3979.67,-265.32"/>
<text text-anchor="middle" x="3862.5" y="-253.32" font-family="Arial" font-size="10.00" fill="#c6c5fe">src/app/components/dynamic/dynamic.component.ts</text>
</g>
<!-- src/app/components/dynamic/_index.ts&#45;&gt;src/app/components/dynamic/dynamic.component.ts -->
<g id="edge23" class="edge">
<title>src/app/components/dynamic/_index.ts&#45;&gt;src/app/components/dynamic/dynamic.component.ts</title>
<path fill="none" stroke="#757575" d="M1635.67,-217.82C1736.64,-217.82 1902.5,-217.82 2045.5,-217.82 2045.5,-217.82 2045.5,-217.82 3314,-217.82 3473.15,-217.82 3657.71,-234 3766.76,-245.24"/>
<polygon fill="#757575" stroke="#757575" points="3766.44,-248.73 3776.75,-246.28 3767.16,-241.77 3766.44,-248.73"/>
</g>
<!-- src/app/components/menu&#45;bar/menu&#45;bar.component.ts -->
<g id="node34" class="node">
<title>src/app/components/menu&#45;bar/menu&#45;bar.component.ts</title>
<path fill="none" stroke="#c6c5fe" d="M1920.67,-379.32C1920.67,-379.32 1679.33,-379.32 1679.33,-379.32 1676.17,-379.32 1673,-376.16 1673,-372.99 1673,-372.99 1673,-366.66 1673,-366.66 1673,-363.49 1676.17,-360.32 1679.33,-360.32 1679.33,-360.32 1920.67,-360.32 1920.67,-360.32 1923.83,-360.32 1927,-363.49 1927,-366.66 1927,-366.66 1927,-372.99 1927,-372.99 1927,-376.16 1923.83,-379.32 1920.67,-379.32"/>
<text text-anchor="middle" x="1800" y="-367.32" font-family="Arial" font-size="10.00" fill="#c6c5fe">src/app/components/menu&#45;bar/menu&#45;bar.component.ts</text>
</g>
<!-- src/app/components/menu&#45;bar/_index.ts&#45;&gt;src/app/components/menu&#45;bar/menu&#45;bar.component.ts -->
<g id="edge32" class="edge">
<title>src/app/components/menu&#45;bar/_index.ts&#45;&gt;src/app/components/menu&#45;bar/menu&#45;bar.component.ts</title>
<path fill="none" stroke="#757575" d="M1637.28,-369.82C1645.59,-369.82 1654.1,-369.82 1662.66,-369.82"/>
<polygon fill="#757575" stroke="#757575" points="1662.72,-373.32 1672.72,-369.82 1662.72,-366.32 1662.72,-373.32"/>
</g>
<!-- src/app/components/nav&#45;logo/nav&#45;logo.component.ts -->
<g id="node35" class="node">
<title>src/app/components/nav&#45;logo/nav&#45;logo.component.ts</title>
<path fill="none" stroke="#c6c5fe" d="M2647.67,-75.32C2647.67,-75.32 2413.33,-75.32 2413.33,-75.32 2410.17,-75.32 2407,-72.16 2407,-68.99 2407,-68.99 2407,-62.66 2407,-62.66 2407,-59.49 2410.17,-56.32 2413.33,-56.32 2413.33,-56.32 2647.67,-56.32 2647.67,-56.32 2650.83,-56.32 2654,-59.49 2654,-62.66 2654,-62.66 2654,-68.99 2654,-68.99 2654,-72.16 2650.83,-75.32 2647.67,-75.32"/>
<text text-anchor="middle" x="2530.5" y="-63.32" font-family="Arial" font-size="10.00" fill="#c6c5fe">src/app/components/nav&#45;logo/nav&#45;logo.component.ts</text>
</g>
<!-- src/app/components/nav&#45;logo/_index.ts&#45;&gt;src/app/components/nav&#45;logo/nav&#45;logo.component.ts -->
<g id="edge36" class="edge">
<title>src/app/components/nav&#45;logo/_index.ts&#45;&gt;src/app/components/nav&#45;logo/nav&#45;logo.component.ts</title>
<path fill="none" stroke="#757575" d="M1635.8,-65.82C1811.95,-65.82 2193.96,-65.82 2396.77,-65.82"/>
<polygon fill="#757575" stroke="#757575" points="2396.89,-69.32 2406.89,-65.82 2396.89,-62.32 2396.89,-69.32"/>
</g>
<!-- src/app/components/page&#45;layout/page&#45;layout.component.ts -->
<g id="node36" class="node">
<title>src/app/components/page&#45;layout/page&#45;layout.component.ts</title>
<path fill="none" stroke="#c6c5fe" d="M838.67,-152.32C838.67,-152.32 577.33,-152.32 577.33,-152.32 574.17,-152.32 571,-149.16 571,-145.99 571,-145.99 571,-139.66 571,-139.66 571,-136.49 574.17,-133.32 577.33,-133.32 577.33,-133.32 838.67,-133.32 838.67,-133.32 841.83,-133.32 845,-136.49 845,-139.66 845,-139.66 845,-145.99 845,-145.99 845,-149.16 841.83,-152.32 838.67,-152.32"/>
<text text-anchor="middle" x="708" y="-140.32" font-family="Arial" font-size="10.00" fill="#c6c5fe">src/app/components/page&#45;layout/page&#45;layout.component.ts</text>
</g>
<!-- src/app/components/page&#45;layout/_index.ts&#45;&gt;src/app/components/page&#45;layout/page&#45;layout.component.ts -->
<g id="edge38" class="edge">
<title>src/app/components/page&#45;layout/_index.ts&#45;&gt;src/app/components/page&#45;layout/page&#45;layout.component.ts</title>
<path fill="none" stroke="#757575" d="M521.68,-142.82C534.34,-142.82 547.5,-142.82 560.71,-142.82"/>
<polygon fill="#757575" stroke="#757575" points="560.81,-146.32 570.81,-142.82 560.81,-139.32 560.81,-146.32"/>
</g>
<!-- src/app/components/pull&#45;to&#45;refresh/pull&#45;to&#45;refresh.component.ts -->
<g id="node37" class="node">
<title>src/app/components/pull&#45;to&#45;refresh/pull&#45;to&#45;refresh.component.ts</title>
<path fill="none" stroke="#cfffac" d="M847.67,-189.32C847.67,-189.32 568.33,-189.32 568.33,-189.32 565.17,-189.32 562,-186.16 562,-182.99 562,-182.99 562,-176.66 562,-176.66 562,-173.49 565.17,-170.32 568.33,-170.32 568.33,-170.32 847.67,-170.32 847.67,-170.32 850.83,-170.32 854,-173.49 854,-176.66 854,-176.66 854,-182.99 854,-182.99 854,-186.16 850.83,-189.32 847.67,-189.32"/>
<text text-anchor="middle" x="708" y="-177.32" font-family="Arial" font-size="10.00" fill="#cfffac">src/app/components/pull&#45;to&#45;refresh/pull&#45;to&#45;refresh.component.ts</text>
</g>
<!-- src/app/components/pull&#45;to&#45;refresh/_index.ts&#45;&gt;src/app/components/pull&#45;to&#45;refresh/pull&#45;to&#45;refresh.component.ts -->
<g id="edge42" class="edge">
<title>src/app/components/pull&#45;to&#45;refresh/_index.ts&#45;&gt;src/app/components/pull&#45;to&#45;refresh/pull&#45;to&#45;refresh.component.ts</title>
<path fill="none" stroke="#757575" d="M526.1,-179.82C534.44,-179.82 542.98,-179.82 551.57,-179.82"/>
<polygon fill="#757575" stroke="#757575" points="551.69,-183.32 561.69,-179.82 551.69,-176.32 551.69,-183.32"/>
</g>
<!-- src/app/components/svg/svg.component.ts -->
<g id="node38" class="node">
<title>src/app/components/svg/svg.component.ts</title>
<path fill="none" stroke="#cfffac" d="M2364.67,-437.32C2364.67,-437.32 2172.33,-437.32 2172.33,-437.32 2169.17,-437.32 2166,-434.16 2166,-430.99 2166,-430.99 2166,-424.66 2166,-424.66 2166,-421.49 2169.17,-418.32 2172.33,-418.32 2172.33,-418.32 2364.67,-418.32 2364.67,-418.32 2367.83,-418.32 2371,-421.49 2371,-424.66 2371,-424.66 2371,-430.99 2371,-430.99 2371,-434.16 2367.83,-437.32 2364.67,-437.32"/>
<text text-anchor="middle" x="2268.5" y="-425.32" font-family="Arial" font-size="10.00" fill="#cfffac">src/app/components/svg/svg.component.ts</text>
</g>
<!-- src/app/components/svg/_index.ts&#45;&gt;src/app/components/svg/svg.component.ts -->
<g id="edge43" class="edge">
<title>src/app/components/svg/_index.ts&#45;&gt;src/app/components/svg/svg.component.ts</title>
<path fill="none" stroke="#757575" d="M2130.05,-427.82C2138.46,-427.82 2147.1,-427.82 2155.76,-427.82"/>
<polygon fill="#757575" stroke="#757575" points="2155.91,-431.32 2165.91,-427.82 2155.91,-424.32 2155.91,-431.32"/>
</g>
<!-- src/app/components/tabbed&#45;response&#45;table/tabbed&#45;response&#45;table.component.ts -->
<g id="node39" class="node">
<title>src/app/components/tabbed&#45;response&#45;table/tabbed&#45;response&#45;table.component.ts</title>
<path fill="none" stroke="#c6c5fe" d="M4038.67,-113.32C4038.67,-113.32 3686.33,-113.32 3686.33,-113.32 3683.17,-113.32 3680,-110.16 3680,-106.99 3680,-106.99 3680,-100.66 3680,-100.66 3680,-97.49 3683.17,-94.32 3686.33,-94.32 3686.33,-94.32 4038.67,-94.32 4038.67,-94.32 4041.83,-94.32 4045,-97.49 4045,-100.66 4045,-100.66 4045,-106.99 4045,-106.99 4045,-110.16 4041.83,-113.32 4038.67,-113.32"/>
<text text-anchor="middle" x="3862.5" y="-101.32" font-family="Arial" font-size="10.00" fill="#c6c5fe">src/app/components/tabbed&#45;response&#45;table/tabbed&#45;response&#45;table.component.ts</text>
</g>
<!-- src/app/components/tabbed&#45;response&#45;table/_index.ts&#45;&gt;src/app/components/tabbed&#45;response&#45;table/tabbed&#45;response&#45;table.component.ts -->
<g id="edge44" class="edge">
<title>src/app/components/tabbed&#45;response&#45;table/_index.ts&#45;&gt;src/app/components/tabbed&#45;response&#45;table/tabbed&#45;response&#45;table.component.ts</title>
<path fill="none" stroke="#757575" d="M1135.7,-75.34C1289.76,-86.59 1563.95,-103.82 1799,-103.82 1799,-103.82 1799,-103.82 3314,-103.82 3432.21,-103.82 3564.78,-103.82 3669.85,-103.82"/>
<polygon fill="#757575" stroke="#757575" points="3669.93,-107.32 3679.93,-103.82 3669.93,-100.32 3669.93,-107.32"/>
</g>
<!-- src/app/components/top&#45;nav/top&#45;nav.component.ts -->
<g id="node41" class="node">
<title>src/app/components/top&#45;nav/top&#45;nav.component.ts</title>
<path fill="none" stroke="#c6c5fe" d="M1403.67,-265.32C1403.67,-265.32 1179.33,-265.32 1179.33,-265.32 1176.17,-265.32 1173,-262.16 1173,-258.99 1173,-258.99 1173,-252.66 1173,-252.66 1173,-249.49 1176.17,-246.32 1179.33,-246.32 1179.33,-246.32 1403.67,-246.32 1403.67,-246.32 1406.83,-246.32 1410,-249.49 1410,-252.66 1410,-252.66 1410,-258.99 1410,-258.99 1410,-262.16 1406.83,-265.32 1403.67,-265.32"/>
<text text-anchor="middle" x="1291.5" y="-253.32" font-family="Arial" font-size="10.00" fill="#c6c5fe">src/app/components/top&#45;nav/top&#45;nav.component.ts</text>
</g>
<!-- src/app/components/top&#45;nav/_index.ts&#45;&gt;src/app/components/top&#45;nav/top&#45;nav.component.ts -->
<g id="edge51" class="edge">
<title>src/app/components/top&#45;nav/_index.ts&#45;&gt;src/app/components/top&#45;nav/top&#45;nav.component.ts</title>
<path fill="none" stroke="#757575" d="M1105.25,-255.82C1123.58,-255.82 1143.18,-255.82 1162.51,-255.82"/>
<polygon fill="#757575" stroke="#757575" points="1162.59,-259.32 1172.59,-255.82 1162.59,-252.32 1162.59,-259.32"/>
</g>
<!-- src/app/components/ws&#45;table/table&#45;types.ts -->
<g id="node42" class="node">
<title>src/app/components/ws&#45;table/table&#45;types.ts</title>
<path fill="none" stroke="#c6c5fe" d="M4826.67,-189.32C4826.67,-189.32 4632.33,-189.32 4632.33,-189.32 4629.17,-189.32 4626,-186.16 4626,-182.99 4626,-182.99 4626,-176.66 4626,-176.66 4626,-173.49 4629.17,-170.32 4632.33,-170.32 4632.33,-170.32 4826.67,-170.32 4826.67,-170.32 4829.83,-170.32 4833,-173.49 4833,-176.66 4833,-176.66 4833,-182.99 4833,-182.99 4833,-186.16 4829.83,-189.32 4826.67,-189.32"/>
<text text-anchor="middle" x="4729.5" y="-177.32" font-family="Arial" font-size="10.00" fill="#c6c5fe">src/app/components/ws&#45;table/table&#45;types.ts</text>
</g>
<!-- src/app/components/ws&#45;table/_index.ts&#45;&gt;src/app/components/ws&#45;table/table&#45;types.ts -->
<g id="edge56" class="edge">
<title>src/app/components/ws&#45;table/_index.ts&#45;&gt;src/app/components/ws&#45;table/table&#45;types.ts</title>
<path fill="none" stroke="#757575" d="M4264.91,-151.33C4289.55,-154.42 4317.47,-157.61 4343,-159.82 4434.53,-167.75 4538.59,-172.93 4615.5,-176.02"/>
<polygon fill="#757575" stroke="#757575" points="4615.56,-179.52 4625.69,-176.42 4615.84,-172.53 4615.56,-179.52"/>
</g>
<!-- src/app/components/ws&#45;table/ws&#45;table.component.ts -->
<g id="node43" class="node">
<title>src/app/components/ws&#45;table/ws&#45;table.component.ts</title>
<path fill="none" stroke="#c6c5fe" d="M4583.67,-151.32C4583.67,-151.32 4349.33,-151.32 4349.33,-151.32 4346.17,-151.32 4343,-148.16 4343,-144.99 4343,-144.99 4343,-138.66 4343,-138.66 4343,-135.49 4346.17,-132.32 4349.33,-132.32 4349.33,-132.32 4583.67,-132.32 4583.67,-132.32 4586.83,-132.32 4590,-135.49 4590,-138.66 4590,-138.66 4590,-144.99 4590,-144.99 4590,-148.16 4586.83,-151.32 4583.67,-151.32"/>
<text text-anchor="middle" x="4466.5" y="-139.32" font-family="Arial" font-size="10.00" fill="#c6c5fe">src/app/components/ws&#45;table/ws&#45;table.component.ts</text>
</g>
<!-- src/app/components/ws&#45;table/_index.ts&#45;&gt;src/app/components/ws&#45;table/ws&#45;table.component.ts -->
<g id="edge57" class="edge">
<title>src/app/components/ws&#45;table/_index.ts&#45;&gt;src/app/components/ws&#45;table/ws&#45;table.component.ts</title>
<path fill="none" stroke="#757575" d="M4288.09,-141.82C4302.37,-141.82 4317.35,-141.82 4332.29,-141.82"/>
<polygon fill="#757575" stroke="#757575" points="4332.62,-145.32 4342.62,-141.82 4332.62,-138.32 4332.62,-145.32"/>
</g>
<!-- src/app/components/dynamic/dynamic.component.ts&#45;&gt;src/app/models/_index.ts -->
<g id="edge24" class="edge">
<title>src/app/components/dynamic/dynamic.component.ts&#45;&gt;src/app/models/_index.ts</title>
<path fill="none" stroke="#757575" d="M3972.16,-265.33C4006.92,-268.24 4045.57,-271.32 4081,-273.82 4247.98,-285.62 4678.86,-252.53 4833,-317.82 4869.64,-333.34 4901.35,-368.73 4918.17,-390.22"/>
<polygon fill="#757575" stroke="#757575" points="4915.41,-392.37 4924.24,-398.22 4920.98,-388.14 4915.41,-392.37"/>
</g>
<!-- src/app/type&#45;guards/_index.ts -->
<g id="node30" class="node">
<title>src/app/type&#45;guards/_index.ts</title>
<path fill="none" stroke="#c6c5fe" d="M4260.67,-265.32C4260.67,-265.32 4127.33,-265.32 4127.33,-265.32 4124.17,-265.32 4121,-262.16 4121,-258.99 4121,-258.99 4121,-252.66 4121,-252.66 4121,-249.49 4124.17,-246.32 4127.33,-246.32 4127.33,-246.32 4260.67,-246.32 4260.67,-246.32 4263.83,-246.32 4267,-249.49 4267,-252.66 4267,-252.66 4267,-258.99 4267,-258.99 4267,-262.16 4263.83,-265.32 4260.67,-265.32"/>
<text text-anchor="middle" x="4194" y="-253.32" font-family="Arial" font-size="10.00" fill="#c6c5fe">src/app/type&#45;guards/_index.ts</text>
</g>
<!-- src/app/components/dynamic/dynamic.component.ts&#45;&gt;src/app/type&#45;guards/_index.ts -->
<g id="edge25" class="edge">
<title>src/app/components/dynamic/dynamic.component.ts&#45;&gt;src/app/type&#45;guards/_index.ts</title>
<path fill="none" stroke="#757575" d="M3986.19,-255.82C4027.67,-255.82 4072.96,-255.82 4110.55,-255.82"/>
<polygon fill="#757575" stroke="#757575" points="4110.94,-259.32 4120.94,-255.82 4110.94,-252.32 4110.94,-259.32"/>
</g>
<!-- src/app/type&#45;guards/general&#45;type&#45;guards.ts -->
<g id="node59" class="node">
<title>src/app/type&#45;guards/general&#45;type&#45;guards.ts</title>
<path fill="none" stroke="#c6c5fe" d="M4824.67,-265.32C4824.67,-265.32 4634.33,-265.32 4634.33,-265.32 4631.17,-265.32 4628,-262.16 4628,-258.99 4628,-258.99 4628,-252.66 4628,-252.66 4628,-249.49 4631.17,-246.32 4634.33,-246.32 4634.33,-246.32 4824.67,-246.32 4824.67,-246.32 4827.83,-246.32 4831,-249.49 4831,-252.66 4831,-252.66 4831,-258.99 4831,-258.99 4831,-262.16 4827.83,-265.32 4824.67,-265.32"/>
<text text-anchor="middle" x="4729.5" y="-253.32" font-family="Arial" font-size="10.00" fill="#c6c5fe">src/app/type&#45;guards/general&#45;type&#45;guards.ts</text>
</g>
<!-- src/app/type&#45;guards/_index.ts&#45;&gt;src/app/type&#45;guards/general&#45;type&#45;guards.ts -->
<g id="edge90" class="edge">
<title>src/app/type&#45;guards/_index.ts&#45;&gt;src/app/type&#45;guards/general&#45;type&#45;guards.ts</title>
<path fill="none" stroke="#757575" d="M4267.23,-255.82C4357.4,-255.82 4512.57,-255.82 4617.79,-255.82"/>
<polygon fill="#757575" stroke="#757575" points="4617.81,-259.32 4627.81,-255.82 4617.81,-252.32 4617.81,-259.32"/>
</g>
<!-- src/app/type&#45;guards/page&#45;type&#45;guards.ts -->
<g id="node60" class="node">
<title>src/app/type&#45;guards/page&#45;type&#45;guards.ts</title>
<path fill="none" stroke="#c6c5fe" d="M4556.17,-227.32C4556.17,-227.32 4376.83,-227.32 4376.83,-227.32 4373.67,-227.32 4370.5,-224.16 4370.5,-220.99 4370.5,-220.99 4370.5,-214.66 4370.5,-214.66 4370.5,-211.49 4373.67,-208.32 4376.83,-208.32 4376.83,-208.32 4556.17,-208.32 4556.17,-208.32 4559.33,-208.32 4562.5,-211.49 4562.5,-214.66 4562.5,-214.66 4562.5,-220.99 4562.5,-220.99 4562.5,-224.16 4559.33,-227.32 4556.17,-227.32"/>
<text text-anchor="middle" x="4466.5" y="-215.32" font-family="Arial" font-size="10.00" fill="#c6c5fe">src/app/type&#45;guards/page&#45;type&#45;guards.ts</text>
</g>
<!-- src/app/type&#45;guards/_index.ts&#45;&gt;src/app/type&#45;guards/page&#45;type&#45;guards.ts -->
<g id="edge91" class="edge">
<title>src/app/type&#45;guards/_index.ts&#45;&gt;src/app/type&#45;guards/page&#45;type&#45;guards.ts</title>
<path fill="none" stroke="#757575" d="M4262.91,-246.28C4300.77,-240.96 4348.09,-234.32 4387.47,-228.78"/>
<polygon fill="#757575" stroke="#757575" points="4388.15,-232.22 4397.56,-227.37 4387.17,-225.29 4388.15,-232.22"/>
</g>
<!-- src/app/components/element&#45;renderer/element&#45;renderer.component.ts&#45;&gt;src/app/models/_index.ts -->
<g id="edge28" class="edge">
<title>src/app/components/element&#45;renderer/element&#45;renderer.component.ts&#45;&gt;src/app/models/_index.ts</title>
<path fill="none" stroke="#757575" d="M3009.09,-559.82C3098.12,-559.82 3211.25,-559.82 3312,-559.82 3312,-559.82 3312,-559.82 4467.5,-559.82 4548.9,-559.82 4761.24,-574.24 4833,-535.82 4878.47,-511.48 4909.26,-455.86 4922.94,-426.6"/>
<polygon fill="#757575" stroke="#757575" points="4926.15,-428 4927.06,-417.45 4919.76,-425.13 4926.15,-428"/>
</g>
<!-- src/app/components/element&#45;renderer/element&#45;renderer.component.ts&#45;&gt;src/app/services/_index.ts -->
<g id="edge29" class="edge">
<title>src/app/components/element&#45;renderer/element&#45;renderer.component.ts&#45;&gt;src/app/services/_index.ts</title>
<path fill="none" stroke="#757575" d="M2915.52,-569.36C2951.84,-574.69 2997.23,-581.35 3034.98,-586.89"/>
<polygon fill="#757575" stroke="#757575" points="3034.5,-590.36 3044.9,-588.34 3035.51,-583.43 3034.5,-590.36"/>
</g>
<!-- src/app/directives/_index.ts -->
<g id="node32" class="node">
<title>src/app/directives/_index.ts</title>
<path fill="none" stroke="#c6c5fe" d="M5370.67,-683.32C5370.67,-683.32 5246.33,-683.32 5246.33,-683.32 5243.17,-683.32 5240,-680.16 5240,-676.99 5240,-676.99 5240,-670.66 5240,-670.66 5240,-667.49 5243.17,-664.32 5246.33,-664.32 5246.33,-664.32 5370.67,-664.32 5370.67,-664.32 5373.83,-664.32 5377,-667.49 5377,-670.66 5377,-670.66 5377,-676.99 5377,-676.99 5377,-680.16 5373.83,-683.32 5370.67,-683.32"/>
<text text-anchor="middle" x="5308.5" y="-671.32" font-family="Arial" font-size="10.00" fill="#c6c5fe">src/app/directives/_index.ts</text>
</g>
<!-- src/app/components/element&#45;renderer/element&#45;renderer.component.ts&#45;&gt;src/app/directives/_index.ts -->
<g id="edge27" class="edge">
<title>src/app/components/element&#45;renderer/element&#45;renderer.component.ts&#45;&gt;src/app/directives/_index.ts</title>
<path fill="none" stroke="#757575" d="M2863.28,-569.51C2915.71,-608.22 3120.51,-749.82 3312,-749.82 3312,-749.82 3312,-749.82 4195,-749.82 4584.5,-749.82 5048.93,-702.88 5229.93,-682.78"/>
<polygon fill="#757575" stroke="#757575" points="5230.34,-686.26 5239.89,-681.67 5229.56,-679.3 5230.34,-686.26"/>
</g>
<!-- src/app/directives/view&#45;container&#45;ref.directive.ts -->
<g id="node44" class="node">
<title>src/app/directives/view&#45;container&#45;ref.directive.ts</title>
<path fill="none" stroke="#cfffac" d="M5643.67,-683.32C5643.67,-683.32 5431.33,-683.32 5431.33,-683.32 5428.17,-683.32 5425,-680.16 5425,-676.99 5425,-676.99 5425,-670.66 5425,-670.66 5425,-667.49 5428.17,-664.32 5431.33,-664.32 5431.33,-664.32 5643.67,-664.32 5643.67,-664.32 5646.83,-664.32 5650,-667.49 5650,-670.66 5650,-670.66 5650,-676.99 5650,-676.99 5650,-680.16 5646.83,-683.32 5643.67,-683.32"/>
<text text-anchor="middle" x="5537.5" y="-671.32" font-family="Arial" font-size="10.00" fill="#cfffac">src/app/directives/view&#45;container&#45;ref.directive.ts</text>
</g>
<!-- src/app/directives/_index.ts&#45;&gt;src/app/directives/view&#45;container&#45;ref.directive.ts -->
<g id="edge61" class="edge">
<title>src/app/directives/_index.ts&#45;&gt;src/app/directives/view&#45;container&#45;ref.directive.ts</title>
<path fill="none" stroke="#757575" d="M5377.3,-673.82C5389.15,-673.82 5401.81,-673.82 5414.6,-673.82"/>
<polygon fill="#757575" stroke="#757575" points="5414.89,-677.32 5424.89,-673.82 5414.89,-670.32 5414.89,-677.32"/>
</g>
<!-- src/app/components/image/image.component.ts&#45;&gt;src/app/models/_index.ts -->
<g id="edge31" class="edge">
<title>src/app/components/image/image.component.ts&#45;&gt;src/app/models/_index.ts</title>
<path fill="none" stroke="#757575" d="M4307.02,-445.14C4434.6,-443.54 4649.19,-438.36 4833,-421.82 4842.27,-420.99 4852.01,-419.88 4861.6,-418.65"/>
<polygon fill="#757575" stroke="#757575" points="4862.07,-422.12 4871.52,-417.33 4861.14,-415.18 4862.07,-422.12"/>
</g>
<!-- src/app/components/menu&#45;bar/menu&#45;bar.component.ts&#45;&gt;src/app/common/_index.ts -->
<g id="edge33" class="edge">
<title>src/app/components/menu&#45;bar/menu&#45;bar.component.ts&#45;&gt;src/app/common/_index.ts</title>
<path fill="none" stroke="#757575" d="M1818.46,-379.53C1847.61,-395.39 1908.38,-426.96 1963,-445.82 1970.42,-448.39 1978.34,-450.71 1986.23,-452.78"/>
<polygon fill="#757575" stroke="#757575" points="1985.61,-456.23 1996.16,-455.26 1987.3,-449.44 1985.61,-456.23"/>
</g>
<!-- src/app/components/menu&#45;bar/menu&#45;bar.component.ts&#45;&gt;src/app/models/_index.ts -->
<g id="edge35" class="edge">
<title>src/app/components/menu&#45;bar/menu&#45;bar.component.ts&#45;&gt;src/app/models/_index.ts</title>
<path fill="none" stroke="#757575" d="M1913.54,-360.31C2056.58,-349.05 2311.19,-331.82 2529.5,-331.82 2529.5,-331.82 2529.5,-331.82 2850.5,-331.82 3381.46,-331.82 3514.43,-330.45 4045,-350.82 4395.61,-364.28 4483.15,-372.11 4833,-398.82 4841.33,-399.46 4850.05,-400.18 4858.7,-400.93"/>
<polygon fill="#757575" stroke="#757575" points="4858.54,-404.43 4868.81,-401.82 4859.16,-397.46 4858.54,-404.43"/>
</g>
<!-- src/app/components/menu&#45;bar/menu&#45;bar.component.ts&#45;&gt;src/app/components/svg/_index.ts -->
<g id="edge34" class="edge">
<title>src/app/components/menu&#45;bar/menu&#45;bar.component.ts&#45;&gt;src/app/components/svg/_index.ts</title>
<path fill="none" stroke="#757575" d="M1841.1,-379.33C1883.29,-389.34 1949.79,-405.12 1995.41,-415.94"/>
<polygon fill="#757575" stroke="#757575" points="1994.84,-419.4 2005.38,-418.3 1996.46,-412.59 1994.84,-419.4"/>
</g>
<!-- src/app/components/nav&#45;logo/nav&#45;logo.component.ts&#45;&gt;src/app/models/_index.ts -->
<g id="edge37" class="edge">
<title>src/app/components/nav&#45;logo/nav&#45;logo.component.ts&#45;&gt;src/app/models/_index.ts</title>
<path fill="none" stroke="#757575" d="M2654.12,-65.82C2771.12,-65.82 2952.33,-65.82 3109.5,-65.82 3109.5,-65.82 3109.5,-65.82 4467.5,-65.82 4548.98,-65.82 4769.3,-44.02 4833,-94.82 4926.29,-169.23 4932.52,-331.56 4931.7,-388.01"/>
<polygon fill="#757575" stroke="#757575" points="4928.2,-388.02 4931.46,-398.1 4935.2,-388.19 4928.2,-388.02"/>
</g>
<!-- src/app/components/page&#45;layout/page&#45;layout.component.ts&#45;&gt;src/app/models/_index.ts -->
<g id="edge41" class="edge">
<title>src/app/components/page&#45;layout/page&#45;layout.component.ts&#45;&gt;src/app/models/_index.ts</title>
<path fill="none" stroke="#757575" d="M776.8,-133.32C933.33,-111.49 1316.38,-58.73 1446,-46.82 1602.46,-32.44 1641.88,-27.82 1799,-27.82 1799,-27.82 1799,-27.82 4467.5,-27.82 4630.49,-27.82 4707.28,45.91 4833,-57.82 4885.57,-101.19 4919.2,-320.55 4928.42,-388.04"/>
<polygon fill="#757575" stroke="#757575" points="4924.98,-388.71 4929.78,-398.16 4931.92,-387.79 4924.98,-388.71"/>
</g>
<!-- src/app/components/page&#45;layout/page&#45;layout.component.ts&#45;&gt;src/app/components/dynamic/_index.ts -->
<g id="edge39" class="edge">
<title>src/app/components/page&#45;layout/page&#45;layout.component.ts&#45;&gt;src/app/components/dynamic/_index.ts</title>
<path fill="none" stroke="#757575" d="M826.59,-152.33C965.9,-163.76 1204.97,-183.91 1410,-203.82 1421.05,-204.9 1432.62,-206.07 1444.12,-207.26"/>
<polygon fill="#757575" stroke="#757575" points="1443.87,-210.76 1454.18,-208.32 1444.6,-203.79 1443.87,-210.76"/>
</g>
<!-- src/app/components/page&#45;layout/page&#45;layout.component.ts&#45;&gt;src/app/components/top&#45;nav/_index.ts -->
<g id="edge40" class="edge">
<title>src/app/components/page&#45;layout/page&#45;layout.component.ts&#45;&gt;src/app/components/top&#45;nav/_index.ts</title>
<path fill="none" stroke="#757575" d="M831.22,-152.34C839.08,-154.67 846.75,-157.47 854,-160.82 873.7,-169.92 872.15,-181.47 890,-193.82 918.51,-213.54 954.15,-230.87 979.63,-242.15"/>
<polygon fill="#757575" stroke="#757575" points="978.3,-245.39 988.86,-246.17 981.09,-238.97 978.3,-245.39"/>
</g>
<!-- src/app/components/tabbed&#45;response&#45;table/tabbed&#45;response&#45;table.component.ts&#45;&gt;src/app/models/_index.ts -->
<g id="edge46" class="edge">
<title>src/app/components/tabbed&#45;response&#45;table/tabbed&#45;response&#45;table.component.ts&#45;&gt;src/app/models/_index.ts</title>
<path fill="none" stroke="#757575" d="M4045.26,-97.73C4308.48,-90.56 4771.2,-84.73 4833,-129.82 4918.52,-192.22 4929.82,-335.29 4931.01,-387.92"/>
<polygon fill="#757575" stroke="#757575" points="4927.51,-388.28 4931.13,-398.23 4934.51,-388.19 4927.51,-388.28"/>
</g>
<!-- src/app/components/tabbed&#45;response&#45;table/tabbed&#45;response&#45;table.component.ts&#45;&gt;src/app/components/ws&#45;table/_index.ts -->
<g id="edge45" class="edge">
<title>src/app/components/tabbed&#45;response&#45;table/tabbed&#45;response&#45;table.component.ts&#45;&gt;src/app/components/ws&#45;table/_index.ts</title>
<path fill="none" stroke="#757575" d="M3946.22,-113.36C3993.12,-118.77 4051.92,-125.55 4100.36,-131.14"/>
<polygon fill="#757575" stroke="#757575" points="4100.2,-134.64 4110.53,-132.31 4101,-127.69 4100.2,-134.64"/>
</g>
<!-- src/app/components/tabbed&#45;response&#45;table/tabbed&#45;response&#45;table.component.ts&#45;&gt;src/app/type&#45;guards/_index.ts -->
<g id="edge47" class="edge">
<title>src/app/components/tabbed&#45;response&#45;table/tabbed&#45;response&#45;table.component.ts&#45;&gt;src/app/type&#45;guards/_index.ts</title>
<path fill="none" stroke="#757575" d="M3884.11,-113.33C3940.4,-139.29 4096.9,-211.49 4162.96,-241.97"/>
<polygon fill="#757575" stroke="#757575" points="4161.85,-245.31 4172.4,-246.32 4164.78,-238.95 4161.85,-245.31"/>
</g>
<!-- src/app/components/text&#45;block/text&#45;block.component.ts&#45;&gt;src/app/models/_index.ts -->
<g id="edge49" class="edge">
<title>src/app/components/text&#45;block/text&#45;block.component.ts&#45;&gt;src/app/models/_index.ts</title>
<path fill="none" stroke="#757575" d="M3992.27,-378.88C4021.43,-380.72 4052.27,-382.49 4081,-383.82 4368.85,-397.15 4711.9,-404.1 4858.63,-406.66"/>
<polygon fill="#757575" stroke="#757575" points="4858.79,-410.16 4868.85,-406.83 4858.91,-403.16 4858.79,-410.16"/>
</g>
<!-- src/app/components/text&#45;block/text&#45;block.component.ts&#45;&gt;src/app/type&#45;guards/_index.ts -->
<g id="edge50" class="edge">
<title>src/app/components/text&#45;block/text&#45;block.component.ts&#45;&gt;src/app/type&#45;guards/_index.ts</title>
<path fill="none" stroke="#757575" d="M3891.03,-360.3C3950.02,-339.89 4088.7,-291.91 4155.61,-268.76"/>
<polygon fill="#757575" stroke="#757575" points="4157.01,-271.98 4165.32,-265.4 4154.73,-265.36 4157.01,-271.98"/>
</g>
<!-- src/app/components/top&#45;nav/top&#45;nav.component.ts&#45;&gt;src/app/models/_index.ts -->
<g id="edge55" class="edge">
<title>src/app/components/top&#45;nav/top&#45;nav.component.ts&#45;&gt;src/app/models/_index.ts</title>
<path fill="none" stroke="#757575" d="M1410.2,-255.82C1512.85,-255.82 1665.78,-255.82 1799,-255.82 1799,-255.82 1799,-255.82 3111.5,-255.82 3770.27,-255.82 3933.06,-311.81 4590,-360.82 4698.03,-368.88 4726.39,-360.62 4833,-379.82 4853.28,-383.47 4875.38,-389.6 4893.46,-395.19"/>
<polygon fill="#757575" stroke="#757575" points="4892.46,-398.54 4903.05,-398.22 4894.57,-391.87 4892.46,-398.54"/>
</g>
<!-- src/app/components/top&#45;nav/top&#45;nav.component.ts&#45;&gt;src/app/components/dynamic/_index.ts -->
<g id="edge52" class="edge">
<title>src/app/components/top&#45;nav/top&#45;nav.component.ts&#45;&gt;src/app/components/dynamic/_index.ts</title>
<path fill="none" stroke="#757575" d="M1354.76,-246.28C1389.25,-241 1432.3,-234.4 1468.27,-228.89"/>
<polygon fill="#757575" stroke="#757575" points="1468.86,-232.34 1478.21,-227.37 1467.8,-225.42 1468.86,-232.34"/>
</g>
<!-- src/app/components/top&#45;nav/top&#45;nav.component.ts&#45;&gt;src/app/components/menu&#45;bar/_index.ts -->
<g id="edge53" class="edge">
<title>src/app/components/top&#45;nav/top&#45;nav.component.ts&#45;&gt;src/app/components/menu&#45;bar/_index.ts</title>
<path fill="none" stroke="#757575" d="M1313.22,-265.35C1357.07,-285.51 1459.44,-332.56 1510.47,-356.02"/>
<polygon fill="#757575" stroke="#757575" points="1509.12,-359.25 1519.67,-360.25 1512.04,-352.89 1509.12,-359.25"/>
</g>
<!-- src/app/components/top&#45;nav/top&#45;nav.component.ts&#45;&gt;src/app/components/nav&#45;logo/_index.ts -->
<g id="edge54" class="edge">
<title>src/app/components/top&#45;nav/top&#45;nav.component.ts&#45;&gt;src/app/components/nav&#45;logo/_index.ts</title>
<path fill="none" stroke="#757575" d="M1305.14,-246.14C1345.27,-215.39 1470.09,-119.77 1519.78,-81.69"/>
<polygon fill="#757575" stroke="#757575" points="1522.08,-84.35 1527.89,-75.49 1517.82,-78.79 1522.08,-84.35"/>
</g>
<!-- src/app/components/ws&#45;table/table&#45;types.ts&#45;&gt;src/app/models/_index.ts -->
<g id="edge58" class="edge">
<title>src/app/components/ws&#45;table/table&#45;types.ts&#45;&gt;src/app/models/_index.ts</title>
<path fill="none" stroke="#757575" d="M4806.34,-189.34C4815.96,-192.83 4825.16,-197.53 4833,-203.82 4893.34,-252.27 4918.84,-346.91 4927.39,-388"/>
<polygon fill="#757575" stroke="#757575" points="4923.97,-388.73 4929.33,-397.87 4930.84,-387.38 4923.97,-388.73"/>
</g>
<!-- src/app/components/ws&#45;table/ws&#45;table.component.ts&#45;&gt;src/app/models/_index.ts -->
<g id="edge60" class="edge">
<title>src/app/components/ws&#45;table/ws&#45;table.component.ts&#45;&gt;src/app/models/_index.ts</title>
<path fill="none" stroke="#757575" d="M4590.15,-134.38C4680.96,-131.38 4795.19,-133.68 4833,-160.82 4909.51,-215.73 4926.31,-340.13 4929.98,-388.28"/>
<polygon fill="#757575" stroke="#757575" points="4926.49,-388.56 4930.64,-398.31 4933.48,-388.11 4926.49,-388.56"/>
</g>
<!-- src/app/components/ws&#45;table/ws&#45;table.component.ts&#45;&gt;src/app/components/ws&#45;table/table&#45;types.ts -->
<g id="edge59" class="edge">
<title>src/app/components/ws&#45;table/ws&#45;table.component.ts&#45;&gt;src/app/components/ws&#45;table/table&#45;types.ts</title>
<path fill="none" stroke="#757575" d="M4533.02,-151.36C4569.48,-156.67 4615.02,-163.3 4652.97,-168.83"/>
<polygon fill="#757575" stroke="#757575" points="4652.55,-172.3 4662.95,-170.28 4653.56,-165.37 4652.55,-172.3"/>
</g>
<!-- src/app/models/data&#45;source.ts&#45;&gt;src/app/models/general.ts -->
<g id="edge68" class="edge">
<title>src/app/models/data&#45;source.ts&#45;&gt;src/app/models/general.ts</title>
<path fill="none" stroke="#757575" d="M5161.46,-417.36C5187.88,-422.51 5220.69,-428.91 5248.52,-434.33"/>
<polygon fill="#757575" stroke="#757575" points="5248.04,-437.8 5258.52,-436.28 5249.38,-430.93 5248.04,-437.8"/>
</g>
<!-- src/app/models/general.ts&#45;&gt;src/app/models/style&#45;types.ts -->
<g id="edge69" class="edge">
<title>src/app/models/general.ts&#45;&gt;src/app/models/style&#45;types.ts</title>
<path fill="none" stroke="#757575" d="M5366.49,-455.36C5397.79,-460.6 5436.79,-467.13 5469.54,-472.61"/>
<polygon fill="#757575" stroke="#757575" points="5469.05,-476.08 5479.49,-474.28 5470.2,-469.18 5469.05,-476.08"/>
</g>
<!-- src/app/models/page&#45;elements.ts&#45;&gt;src/app/directives/_index.ts -->
<g id="edge70" class="edge">
<title>src/app/models/page&#45;elements.ts&#45;&gt;src/app/directives/_index.ts</title>
<path fill="none" stroke="#757575" d="M5124.7,-531.33C5157.32,-556.76 5246.85,-626.55 5287.25,-658.04"/>
<polygon fill="#757575" stroke="#757575" points="5285.27,-660.93 5295.31,-664.32 5289.57,-655.41 5285.27,-660.93"/>
</g>
<!-- src/app/models/page&#45;elements.ts&#45;&gt;src/app/models/general.ts -->
<g id="edge71" class="edge">
<title>src/app/models/page&#45;elements.ts&#45;&gt;src/app/models/general.ts</title>
<path fill="none" stroke="#757575" d="M5137.2,-512.2C5171.78,-498.72 5234.74,-474.18 5273.66,-459.01"/>
<polygon fill="#757575" stroke="#757575" points="5274.96,-462.26 5283,-455.37 5272.42,-455.74 5274.96,-462.26"/>
</g>
<!-- src/app/models/page&#45;elements.ts&#45;&gt;src/app/models/style&#45;types.ts -->
<g id="edge72" class="edge">
<title>src/app/models/page&#45;elements.ts&#45;&gt;src/app/models/style&#45;types.ts</title>
<path fill="none" stroke="#757575" d="M5192.07,-515.09C5247.33,-510.37 5322.66,-503.85 5389,-497.82 5410.23,-495.89 5433.17,-493.75 5454.49,-491.72"/>
<polygon fill="#757575" stroke="#757575" points="5454.87,-495.2 5464.49,-490.77 5454.2,-488.24 5454.87,-495.2"/>
</g>
<!-- src/app/models/svg/svg&#45;config.ts -->
<g id="node51" class="node">
<title>src/app/models/svg/svg&#45;config.ts</title>
<path fill="none" stroke="#cfffac" d="M5382.67,-343.32C5382.67,-343.32 5234.33,-343.32 5234.33,-343.32 5231.17,-343.32 5228,-340.16 5228,-336.99 5228,-336.99 5228,-330.66 5228,-330.66 5228,-327.49 5231.17,-324.32 5234.33,-324.32 5234.33,-324.32 5382.67,-324.32 5382.67,-324.32 5385.83,-324.32 5389,-327.49 5389,-330.66 5389,-330.66 5389,-336.99 5389,-336.99 5389,-340.16 5385.83,-343.32 5382.67,-343.32"/>
<text text-anchor="middle" x="5308.5" y="-331.32" font-family="Arial" font-size="10.00" fill="#cfffac">src/app/models/svg/svg&#45;config.ts</text>
</g>
<!-- src/app/models/svg/_index.ts&#45;&gt;src/app/models/svg/svg&#45;config.ts -->
<g id="edge73" class="edge">
<title>src/app/models/svg/_index.ts&#45;&gt;src/app/models/svg/svg&#45;config.ts</title>
<path fill="none" stroke="#757575" d="M5184,-333.82C5194.91,-333.82 5206.28,-333.82 5217.51,-333.82"/>
<polygon fill="#757575" stroke="#757575" points="5217.78,-337.32 5227.78,-333.82 5217.78,-330.32 5217.78,-337.32"/>
</g>
<!-- src/app/models/svg/svg&#45;ref.ts -->
<g id="node52" class="node">
<title>src/app/models/svg/svg&#45;ref.ts</title>
<path fill="none" stroke="#c6c5fe" d="M5375.17,-306.32C5375.17,-306.32 5241.83,-306.32 5241.83,-306.32 5238.67,-306.32 5235.5,-303.16 5235.5,-299.99 5235.5,-299.99 5235.5,-293.66 5235.5,-293.66 5235.5,-290.49 5238.67,-287.32 5241.83,-287.32 5241.83,-287.32 5375.17,-287.32 5375.17,-287.32 5378.33,-287.32 5381.5,-290.49 5381.5,-293.66 5381.5,-293.66 5381.5,-299.99 5381.5,-299.99 5381.5,-303.16 5378.33,-306.32 5375.17,-306.32"/>
<text text-anchor="middle" x="5308.5" y="-294.32" font-family="Arial" font-size="10.00" fill="#c6c5fe">src/app/models/svg/svg&#45;ref.ts</text>
</g>
<!-- src/app/models/svg/_index.ts&#45;&gt;src/app/models/svg/svg&#45;ref.ts -->
<g id="edge74" class="edge">
<title>src/app/models/svg/_index.ts&#45;&gt;src/app/models/svg/svg&#45;ref.ts</title>
<path fill="none" stroke="#757575" d="M5162.72,-324.29C5188.43,-319.41 5219.94,-313.44 5246.99,-308.3"/>
<polygon fill="#757575" stroke="#757575" points="5247.94,-311.69 5257.11,-306.38 5246.64,-304.81 5247.94,-311.69"/>
</g>
<!-- src/app/models/svg/svg&#45;types.ts -->
<g id="node53" class="node">
<title>src/app/models/svg/svg&#45;types.ts</title>
<path fill="none" stroke="#cfffac" d="M5610.67,-344.32C5610.67,-344.32 5464.33,-344.32 5464.33,-344.32 5461.17,-344.32 5458,-341.16 5458,-337.99 5458,-337.99 5458,-331.66 5458,-331.66 5458,-328.49 5461.17,-325.32 5464.33,-325.32 5464.33,-325.32 5610.67,-325.32 5610.67,-325.32 5613.83,-325.32 5617,-328.49 5617,-331.66 5617,-331.66 5617,-337.99 5617,-337.99 5617,-341.16 5613.83,-344.32 5610.67,-344.32"/>
<text text-anchor="middle" x="5537.5" y="-332.32" font-family="Arial" font-size="10.00" fill="#cfffac">src/app/models/svg/svg&#45;types.ts</text>
</g>
<!-- src/app/models/svg/_index.ts&#45;&gt;src/app/models/svg/svg&#45;types.ts -->
<g id="edge75" class="edge">
<title>src/app/models/svg/_index.ts&#45;&gt;src/app/models/svg/svg&#45;types.ts</title>
<path fill="none" stroke="#757575" d="M5162.62,-343.36C5182.84,-346.76 5206.45,-350.15 5228,-351.82 5299.34,-357.35 5317.56,-355.93 5389,-351.82 5411.54,-350.53 5435.92,-348.13 5458.25,-345.53"/>
<polygon fill="#757575" stroke="#757575" points="5458.83,-348.99 5468.35,-344.33 5458,-342.04 5458.83,-348.99"/>
</g>
<!-- src/app/models/svg/svg&#45;ref.ts&#45;&gt;src/app/models/svg/svg&#45;types.ts -->
<g id="edge76" class="edge">
<title>src/app/models/svg/svg&#45;ref.ts&#45;&gt;src/app/models/svg/svg&#45;types.ts</title>
<path fill="none" stroke="#757575" d="M5366.49,-306.36C5397.79,-311.6 5436.79,-318.13 5469.54,-323.61"/>
<polygon fill="#757575" stroke="#757575" points="5469.05,-327.08 5479.49,-325.28 5470.2,-320.18 5469.05,-327.08"/>
</g>
<!-- src/app/services/data&#45;service.ts&#45;&gt;src/app/models/_index.ts -->
<g id="edge82" class="edge">
<title>src/app/services/data&#45;service.ts&#45;&gt;src/app/models/_index.ts</title>
<path fill="none" stroke="#757575" d="M4272.18,-718.52C4422.24,-729.92 4746.21,-746.06 4833,-681.82 4916.81,-619.79 4929.18,-479.69 4930.83,-427.71"/>
<polygon fill="#757575" stroke="#757575" points="4934.33,-427.58 4931.04,-417.51 4927.33,-427.43 4934.33,-427.58"/>
</g>
<!-- src/app/services/element&#45;render&#45;service.ts&#45;&gt;src/app/models/_index.ts -->
<g id="edge86" class="edge">
<title>src/app/services/element&#45;render&#45;service.ts&#45;&gt;src/app/models/_index.ts</title>
<path fill="none" stroke="#757575" d="M3414.16,-483.82C3523.94,-483.82 3705.26,-483.82 3861.5,-483.82 3861.5,-483.82 3861.5,-483.82 4467.5,-483.82 4630.96,-483.82 4673.74,-479.67 4833,-442.82 4855.78,-437.55 4880.58,-428.66 4899.53,-421.16"/>
<polygon fill="#757575" stroke="#757575" points="4900.9,-424.38 4908.87,-417.39 4898.28,-417.89 4900.9,-424.38"/>
</g>
<!-- src/app/services/element&#45;render&#45;service.ts&#45;&gt;src/app/components/element&#45;renderer/_index.ts -->
<g id="edge83" class="edge">
<title>src/app/services/element&#45;render&#45;service.ts&#45;&gt;src/app/components/element&#45;renderer/_index.ts</title>
<path fill="none" stroke="#757575" d="M3212,-492.12C3089.03,-502.52 2874,-521.37 2690,-540.82 2666.37,-543.32 2640.78,-546.28 2617.21,-549.11"/>
<polygon fill="#757575" stroke="#757575" points="2616.74,-545.64 2607.24,-550.31 2617.58,-552.58 2616.74,-545.64"/>
</g>
<!-- src/app/services/element&#45;render&#45;service.ts&#45;&gt;src/app/components/image/_index.ts -->
<g id="edge84" class="edge">
<title>src/app/services/element&#45;render&#45;service.ts&#45;&gt;src/app/components/image/_index.ts</title>
<path fill="none" stroke="#757575" d="M3372.24,-474.28C3404.24,-469.04 3444.1,-462.51 3477.57,-457.03"/>
<polygon fill="#757575" stroke="#757575" points="3478.43,-460.44 3487.73,-455.37 3477.3,-453.53 3478.43,-460.44"/>
</g>
<!-- src/app/services/element&#45;render&#45;service.ts&#45;&gt;src/app/components/text&#45;block/_index.ts -->
<g id="edge85" class="edge">
<title>src/app/services/element&#45;render&#45;service.ts&#45;&gt;src/app/components/text&#45;block/_index.ts</title>
<path fill="none" stroke="#757575" d="M3333.38,-474.3C3374.24,-454.22 3469.37,-407.48 3517.31,-383.92"/>
<polygon fill="#757575" stroke="#757575" points="3519.08,-386.95 3526.51,-379.4 3515.99,-380.67 3519.08,-386.95"/>
</g>
<!-- src/app/services/theme.service.ts&#45;&gt;src/app/models/_index.ts -->
<g id="edge87" class="edge">
<title>src/app/services/theme.service.ts&#45;&gt;src/app/models/_index.ts</title>
<path fill="none" stroke="#757575" d="M4548.68,-679.24C4642.35,-683.82 4789.14,-685.35 4833,-653.82 4909.03,-599.18 4926.11,-475.77 4929.92,-427.61"/>
<polygon fill="#757575" stroke="#757575" points="4933.42,-427.76 4930.6,-417.55 4926.43,-427.29 4933.42,-427.76"/>
</g>
<!-- src/app/services/toast&#45;service.ts&#45;&gt;src/app/models/_index.ts -->
<g id="edge88" class="edge">
<title>src/app/services/toast&#45;service.ts&#45;&gt;src/app/models/_index.ts</title>
<path fill="none" stroke="#757575" d="M4806.34,-626.31C4815.96,-622.81 4825.16,-618.12 4833,-611.82 4893.34,-563.38 4918.84,-468.74 4927.39,-427.65"/>
<polygon fill="#757575" stroke="#757575" points="4930.84,-428.26 4929.33,-417.77 4923.97,-426.91 4930.84,-428.26"/>
</g>
<!-- src/app/services/utils.ts&#45;&gt;src/app/models/_index.ts -->
<g id="edge89" class="edge">
<title>src/app/services/utils.ts&#45;&gt;src/app/models/_index.ts</title>
<path fill="none" stroke="#757575" d="M3373.55,-597.82C3474.11,-597.82 3683.99,-597.82 3861.5,-597.82 3861.5,-597.82 3861.5,-597.82 4467.5,-597.82 4548.9,-597.82 4763.67,-616.47 4833,-573.82 4887.76,-540.13 4915.53,-463.51 4925.97,-427.38"/>
<polygon fill="#757575" stroke="#757575" points="4929.39,-428.12 4928.67,-417.55 4922.64,-426.27 4929.39,-428.12"/>
</g>
<!-- src/app/type&#45;guards/general&#45;type&#45;guards.ts&#45;&gt;src/app/models/_index.ts -->
<g id="edge92" class="edge">
<title>src/app/type&#45;guards/general&#45;type&#45;guards.ts&#45;&gt;src/app/models/_index.ts</title>
<path fill="none" stroke="#757575" d="M4800.41,-265.36C4811.86,-268.8 4823.18,-273.47 4833,-279.82 4875.92,-307.56 4907.47,-360.84 4922.03,-389.12"/>
<polygon fill="#757575" stroke="#757575" points="4919.02,-390.93 4926.62,-398.31 4925.29,-387.8 4919.02,-390.93"/>
</g>
<!-- src/app/type&#45;guards/page&#45;type&#45;guards.ts&#45;&gt;src/app/models/_index.ts -->
<g id="edge93" class="edge">
<title>src/app/type&#45;guards/page&#45;type&#45;guards.ts&#45;&gt;src/app/models/_index.ts</title>
<path fill="none" stroke="#757575" d="M4562.71,-212.68C4655.68,-209.43 4789.36,-209.99 4833,-236.82 4889.27,-271.41 4916.4,-351.06 4926.34,-388.15"/>
<polygon fill="#757575" stroke="#757575" points="4923.04,-389.37 4928.89,-398.2 4929.82,-387.65 4923.04,-389.37"/>
</g>
<!-- src/app/type&#45;guards/page&#45;type&#45;guards.ts&#45;&gt;src/app/type&#45;guards/general&#45;type&#45;guards.ts -->
<g id="edge94" class="edge">
<title>src/app/type&#45;guards/page&#45;type&#45;guards.ts&#45;&gt;src/app/type&#45;guards/general&#45;type&#45;guards.ts</title>
<path fill="none" stroke="#757575" d="M4533.02,-227.36C4569.48,-232.67 4615.02,-239.3 4652.97,-244.83"/>
<polygon fill="#757575" stroke="#757575" points="4652.55,-248.3 4662.95,-246.28 4653.56,-241.37 4652.55,-248.3"/>
</g>
<!-- tsconfig.app.json -->
<g id="node61" class="node">
<title>tsconfig.app.json</title>
<path fill="none" stroke="#cfffac" d="M87.17,-680.32C87.17,-680.32 8.83,-680.32 8.83,-680.32 5.67,-680.32 2.5,-677.16 2.5,-673.99 2.5,-673.99 2.5,-667.66 2.5,-667.66 2.5,-664.49 5.67,-661.32 8.83,-661.32 8.83,-661.32 87.17,-661.32 87.17,-661.32 90.33,-661.32 93.5,-664.49 93.5,-667.66 93.5,-667.66 93.5,-673.99 93.5,-673.99 93.5,-677.16 90.33,-680.32 87.17,-680.32"/>
<text text-anchor="middle" x="48" y="-668.32" font-family="Arial" font-size="10.00" fill="#cfffac">tsconfig.app.json</text>
</g>
<!-- tsconfig.json -->
<g id="node62" class="node">
<title>tsconfig.json</title>
<path fill="none" stroke="#cfffac" d="M77.67,-717.32C77.67,-717.32 18.33,-717.32 18.33,-717.32 15.17,-717.32 12,-714.16 12,-710.99 12,-710.99 12,-704.66 12,-704.66 12,-701.49 15.17,-698.32 18.33,-698.32 18.33,-698.32 77.67,-698.32 77.67,-698.32 80.83,-698.32 84,-701.49 84,-704.66 84,-704.66 84,-710.99 84,-710.99 84,-714.16 80.83,-717.32 77.67,-717.32"/>
<text text-anchor="middle" x="48" y="-705.32" font-family="Arial" font-size="10.00" fill="#cfffac">tsconfig.json</text>
</g>
<!-- tsconfig.spec.json -->
<g id="node63" class="node">
<title>tsconfig.spec.json</title>
<path fill="none" stroke="#cfffac" d="M89.67,-754.32C89.67,-754.32 6.33,-754.32 6.33,-754.32 3.17,-754.32 0,-751.16 0,-747.99 0,-747.99 0,-741.66 0,-741.66 0,-738.49 3.17,-735.32 6.33,-735.32 6.33,-735.32 89.67,-735.32 89.67,-735.32 92.83,-735.32 96,-738.49 96,-741.66 96,-741.66 96,-747.99 96,-747.99 96,-751.16 92.83,-754.32 89.67,-754.32"/>
<text text-anchor="middle" x="48" y="-742.32" font-family="Arial" font-size="10.00" fill="#cfffac">tsconfig.spec.json</text>
</g>
</g>
</svg>
